<?xml version="1.0" encoding="utf-8"?>
<!-- Generator: Adobe Illustrator 23.0.1, SVG Export Plug-In . SVG Version: 6.00 Build 0)  -->
<svg version="1.1" id="Layer_1" xmlns="http://www.w3.org/2000/svg" xmlns:xlink="http://www.w3.org/1999/xlink" x="0px" y="0px"
	 viewBox="0 0 4234 2288.8" style="enable-background:new 0 0 4234 2288.8;" xml:space="preserve">
<style type="text/css">
	.st0{clip-path:url(#SVGID_2_);fill-rule:evenodd;clip-rule:evenodd;}
	.st1{clip-path:url(#SVGID_4_);fill-rule:evenodd;clip-rule:evenodd;}
	.st2{clip-path:url(#SVGID_6_);fill-rule:evenodd;clip-rule:evenodd;}
	.st3{display:none;}
	.st4{clip-path:url(#SVGID_8_);fill:#FF0000;}
	.st5{fill:#FFFFFF;stroke:#000000;stroke-width:28;stroke-miterlimit:10;}
	.st6{fill:#FFFFFF;}
	.st7{fill:none;}
	.st8{display:none;enable-background:new    ;}
	.st9{font-family:'ArialMT';}
	.st10{font-size:80px;}
	.st11{font-family:'Oswald-Regular';}
	.st12{font-size:81px;}
	.st13{font-size:64px;}
	.st14{font-size:100px;}
	.st15{letter-spacing:13;}
	.st16{font-size:256px;}
	.st17{clip-path:url(#SVGID_10_);}
	.st18{clip-path:url(#SVGID_12_);fill:#FFFF00;}
	.st19{clip-path:url(#SVGID_14_);}
	.st20{clip-path:url(#SVGID_16_);}
	.st21{clip-path:url(#SVGID_18_);fill:#FFFFFF;}
	.st22{clip-path:url(#SVGID_20_);fill:#FFFFFF;}
	.st23{clip-path:url(#SVGID_22_);fill:#FFFFFF;}
	.st24{display:inline;}
	.st25{clip-path:url(#SVGID_24_);enable-background:new    ;}
	.st26{clip-path:url(#SVGID_26_);fill-rule:evenodd;clip-rule:evenodd;}
	.st27{clip-path:url(#SVGID_28_);fill-rule:evenodd;clip-rule:evenodd;}
	.st28{clip-path:url(#SVGID_30_);enable-background:new    ;}
	.st29{clip-path:url(#SVGID_32_);fill-rule:evenodd;clip-rule:evenodd;}
	.st30{clip-path:url(#SVGID_34_);fill-rule:evenodd;clip-rule:evenodd;}
	.st31{clip-path:url(#SVGID_36_);fill-rule:evenodd;clip-rule:evenodd;}
	.st32{clip-path:url(#SVGID_38_);fill-rule:evenodd;clip-rule:evenodd;}
	.st33{clip-path:url(#SVGID_40_);fill-rule:evenodd;clip-rule:evenodd;}
	.st34{clip-path:url(#SVGID_42_);fill-rule:evenodd;clip-rule:evenodd;}
	.st35{clip-path:url(#SVGID_44_);fill-rule:evenodd;clip-rule:evenodd;}
	.st36{clip-path:url(#SVGID_46_);fill-rule:evenodd;clip-rule:evenodd;}
	.st37{clip-path:url(#SVGID_48_);enable-background:new    ;}
	.st38{clip-path:url(#SVGID_50_);fill-rule:evenodd;clip-rule:evenodd;}
	.st39{clip-path:url(#SVGID_52_);fill-rule:evenodd;clip-rule:evenodd;}
	.st40{clip-path:url(#SVGID_54_);enable-background:new    ;}
	.st41{clip-path:url(#SVGID_56_);fill-rule:evenodd;clip-rule:evenodd;}
	.st42{clip-path:url(#SVGID_58_);fill-rule:evenodd;clip-rule:evenodd;}
	.st43{clip-path:url(#SVGID_60_);enable-background:new    ;}
	.st44{clip-path:url(#SVGID_62_);fill-rule:evenodd;clip-rule:evenodd;}
	.st45{clip-path:url(#SVGID_64_);fill-rule:evenodd;clip-rule:evenodd;}
	.st46{clip-path:url(#SVGID_66_);enable-background:new    ;}
	.st47{clip-path:url(#SVGID_68_);fill-rule:evenodd;clip-rule:evenodd;}
	.st48{clip-path:url(#SVGID_70_);fill-rule:evenodd;clip-rule:evenodd;}
	.st49{clip-path:url(#SVGID_72_);enable-background:new    ;}
	.st50{clip-path:url(#SVGID_74_);fill-rule:evenodd;clip-rule:evenodd;}
	.st51{clip-path:url(#SVGID_76_);fill-rule:evenodd;clip-rule:evenodd;}
	.st52{clip-path:url(#SVGID_78_);enable-background:new    ;}
	.st53{clip-path:url(#SVGID_80_);fill-rule:evenodd;clip-rule:evenodd;}
	.st54{clip-path:url(#SVGID_82_);fill-rule:evenodd;clip-rule:evenodd;}
	.st55{clip-path:url(#SVGID_84_);enable-background:new    ;}
	.st56{clip-path:url(#SVGID_86_);fill-rule:evenodd;clip-rule:evenodd;}
	.st57{clip-path:url(#SVGID_88_);fill-rule:evenodd;clip-rule:evenodd;}
	.st58{clip-path:url(#SVGID_90_);fill-rule:evenodd;clip-rule:evenodd;}
	.st59{clip-path:url(#SVGID_92_);fill-rule:evenodd;clip-rule:evenodd;}
	.st60{clip-path:url(#SVGID_94_);fill-rule:evenodd;clip-rule:evenodd;}
	.st61{clip-path:url(#SVGID_96_);fill-rule:evenodd;clip-rule:evenodd;}
	.st62{clip-path:url(#SVGID_98_);fill-rule:evenodd;clip-rule:evenodd;}
	.st63{clip-path:url(#SVGID_100_);fill-rule:evenodd;clip-rule:evenodd;}
	.st64{clip-path:url(#SVGID_102_);fill-rule:evenodd;clip-rule:evenodd;fill:#FFFFFF;}
	.st65{clip-path:url(#SVGID_104_);fill-rule:evenodd;clip-rule:evenodd;fill:#FFFFFF;}
	.st66{clip-path:url(#SVGID_106_);fill-rule:evenodd;clip-rule:evenodd;fill:#FFFFFF;}
	.st67{clip-path:url(#SVGID_108_);fill-rule:evenodd;clip-rule:evenodd;fill:#FFFFFF;}
	.st68{clip-path:url(#SVGID_110_);fill-rule:evenodd;clip-rule:evenodd;fill:#FFFFFF;}
	.st69{clip-path:url(#SVGID_112_);fill-rule:evenodd;clip-rule:evenodd;fill:#FFFFFF;}
	.st70{clip-path:url(#SVGID_114_);fill-rule:evenodd;clip-rule:evenodd;fill:#FFFFFF;}
	.st71{clip-path:url(#SVGID_116_);fill-rule:evenodd;clip-rule:evenodd;fill:#FFFFFF;}
	.st72{clip-path:url(#SVGID_118_);fill-rule:evenodd;clip-rule:evenodd;fill:#FFFFFF;}
	.st73{clip-path:url(#SVGID_120_);fill-rule:evenodd;clip-rule:evenodd;fill:#FFFFFF;}
	.st74{clip-path:url(#SVGID_122_);fill-rule:evenodd;clip-rule:evenodd;fill:#FFFFFF;}
	.st75{clip-path:url(#SVGID_124_);fill-rule:evenodd;clip-rule:evenodd;fill:#FFFFFF;}
	.st76{clip-path:url(#SVGID_126_);fill-rule:evenodd;clip-rule:evenodd;fill:#FFFFFF;}
	.st77{display:inline;fill-rule:evenodd;clip-rule:evenodd;}
	.st78{display:inline;fill-rule:evenodd;clip-rule:evenodd;fill:#FFFFFF;}
</style>
<g id="Layer_7">
	<g>
		<g>
			<defs>
				<rect id="SVGID_1_" y="306.4" width="4160" height="1664"/>
			</defs>
			<clipPath id="SVGID_2_">
				<use xlink:href="#SVGID_1_"  style="overflow:visible;"/>
			</clipPath>
			<path class="st0" d="M777.7,710.7c-0.7,1-1.3,2.1-2,3.1c-7.9,5.9-15.6,11.9-23.2,18c-48.6,38.9-90.4,80.6-124.3,123.9
				c-34.8,44.5-61.6,91.3-79.6,138.9c-18.5,49-28,99.4-28.1,150v-0.8c0-50.8,9.5-101.6,28.1-150.8c18-47.6,44.8-94.3,79.6-138.9
				c33.9-43.3,75.7-85,124.3-123.9C760.6,723.6,769,717.1,777.7,710.7z"/>
		</g>
		<g>
			<defs>
				<rect id="SVGID_3_" y="306.4" width="4160" height="1664"/>
			</defs>
			<clipPath id="SVGID_4_">
				<use xlink:href="#SVGID_3_"  style="overflow:visible;"/>
			</clipPath>
			<path class="st1" d="M3179.6,1143.8v1.7c0,50.8-9.4,101.6-28.1,150.8c-18,47.6-44.8,94.3-79.6,138.9
				c-33.9,43.3-75.7,85-124.3,123.9c-47.8,38.3-102.7,74.3-163,106.9c-60.1,32.5-126.2,62-196.4,87.7c-70.7,25.8-146.3,48-224.6,66
				c-162.7,37.2-335.5,56.1-513.5,56.1c-39.1,0-78-0.9-116.6-2.7c-136.9-6.4-270-24.3-396.9-53.4c-78.3-17.9-153.9-40.1-224.7-66
				c-37.4-13.7-108.4-44.1-108.4-44.1l-144.9-76.3c0,0-55.6-35.8-80.9-54.6c-0.7-1.1-1.3-2.1-2-3.2c-7.9-5.9-15.6-11.9-23.2-18
				c-48.6-38.9-90.4-80.6-124.3-123.9c-34.8-44.5-61.6-91.3-79.6-138.9c-18.5-49-28-99.5-28.1-150c0.1-50.6,9.5-101,28.1-150
				c18-47.6,44.8-94.3,79.6-138.9c33.9-43.3,75.7-85,124.3-123.9c7.6-6.1,15.3-12.1,23.2-18c0.7-1,1.3-2.1,2-3.1
				c25.3-18.9,52.3-37.1,80.9-54.6l144.9-76.3c34.8-15.7,71-30.5,108.4-44.2c70.7-25.8,146.3-48,224.7-66
				c126.9-29,260-46.9,396.9-53.4c38.6-1.8,77.5-2.7,116.6-2.7c178.1,0,350.8,18.9,513.5,56.1c78.3,17.9,153.9,40.1,224.6,66
				c70.2,25.7,136.3,55.2,196.4,87.7c60.3,32.6,115.2,68.6,163,106.9c48.6,38.9,90.4,80.6,124.3,123.9
				c34.8,44.5,61.6,91.3,79.6,138.9C3170.2,1042.2,3179.6,1093,3179.6,1143.8z"/>
		</g>
		<g>
			<defs>
				<rect id="SVGID_5_" y="306.4" width="4160" height="1664"/>
			</defs>
			<clipPath id="SVGID_6_">
				<use xlink:href="#SVGID_5_"  style="overflow:visible;"/>
			</clipPath>
			<path class="st2" d="M777.7,1578.6c-8.6-6.4-17-12.9-25.2-19.5c-48.6-38.9-90.4-80.6-124.3-123.9
				c-34.8-44.5-61.6-91.3-79.6-138.9c-18.6-49.3-28.1-100-28.1-150.8v-0.8c0.1,50.6,9.5,101,28.1,150c18,47.6,44.8,94.3,79.6,138.9
				c33.9,43.3,75.7,85,124.3,123.9c7.6,6.1,15.3,12.1,23.2,18C776.3,1576.5,777,1577.6,777.7,1578.6z"/>
		</g>
	</g>
	<g>
		<path d="M3117.4,932.9c-18-47.6-44.8-94.3-79.6-138.9c-33.9-43.3-75.7-85-124.3-123.9c-47.8-38.3-102.7-74.3-163-106.9
			c-60.1-32.5-126.2-62-196.4-87.7c-70.7-25.9-146.3-48-224.6-66c-162.7-37.2-335.5-56.1-513.5-56.1s-350.8,18.9-513.5,56.1
			c-78.3,17.9-153.9,40.1-224.7,66c-37.4,13.7-73.6,28.4-108.4,44.1c12.4-24.6,35-71.8,49.2-94.6c-2,1-143.8,116-194.1,170.9
			c-38.3,23.4-73.8,48.3-106.1,74.1C669.7,709,627.9,750.7,594,794c-34.8,44.5-61.6,91.3-79.6,138.9c-18.6,49.3-28.1,100-28.1,150.8
			c0,50.8,9.5,101.6,28.1,150.8c18,47.6,44.8,94.3,79.6,138.9c33.9,43.3,75.7,85,124.3,123.9c7.6,6.1,15.3,12.1,23.2,18
			c35.2,55.8,77.7,107,126.6,152.2c120.5,112.1,274.3,183.6,438.8,203.1c135.3,15.7,271.8-4.9,395.8-59.2
			c37.4,1.7,75.2,2.6,113.2,2.6c178.1,0,350.8-18.9,513.5-56.1c78.3-17.9,153.9-40.1,224.6-66c49-17.9,96.1-37.7,140.4-59.1
			c0.4,0.7,235.4-145.2,226.2-141.3c45.6-37.2,84.9-76.9,117.1-118.1c34.8-44.5,61.6-91.3,79.6-138.9c18.6-49.3,28.1-100,28.1-150.8
			C3145.5,1032.9,3136,982.2,3117.4,932.9L3117.4,932.9z"/>
		<path class="st3" d="M2791.2,1658.6"/>
		<g>
			<g>
				<path d="M1815.9,1813.8c-178,0-350.8-18.9-513.5-56.1c-78.3-17.9-153.9-40.1-224.6-66c-70.2-25.7-136.3-55.2-196.4-87.7
					c-60.3-32.6-115.2-68.6-163-106.9c-48.6-38.9-90.4-80.6-124.3-123.9c-34.8-44.5-61.6-91.2-79.6-138.8
					c-18.6-49.2-28.1-99.9-28.1-150.8c0-50.8,9.4-101.5,28.1-150.8c18-47.6,44.8-94.3,79.6-138.8c33.8-43.3,75.7-85,124.3-123.9
					c47.8-38.3,102.6-74.2,163-106.9c60.1-32.5,126.2-62,196.4-87.7c70.7-25.9,146.3-48,224.6-66c162.7-37.2,335.5-56.1,513.5-56.1
					s350.8,18.9,513.5,56.1c78.3,17.9,153.9,40.1,224.6,66c70.2,25.7,136.3,55.2,196.4,87.7c60.3,32.6,115.2,68.6,163,106.9
					c48.6,38.9,90.4,80.6,124.3,123.9c34.8,44.5,61.6,91.2,79.6,138.8c18.6,49.2,28.1,100,28.1,150.8c0,50.8-9.4,101.5-28.1,150.8
					c-18,47.6-44.8,94.3-79.6,138.8c-33.9,43.3-75.7,85-124.3,123.9c-47.8,38.3-102.6,74.2-163,106.9
					c-60.1,32.5-126.2,62-196.4,87.7c-70.7,25.8-146.3,48-224.6,66C2166.7,1794.9,1993.9,1813.8,1815.9,1813.8z M1815.9,401.4
					c-344.8,0-668.6,72.4-911.8,204c-238.5,129-369.9,298.9-369.9,478.4s131.4,349.4,369.9,478.4c243.2,131.5,567,204,911.8,204
					s668.6-72.4,911.8-204c238.5-129,369.9-298.9,369.9-478.4s-131.4-349.4-369.9-478.4C2484.5,473.8,2160.7,401.4,1815.9,401.4z"/>
			</g>
		</g>
	</g>
	<g id="Layer_3">
		<g>
			<g>
				<defs>
					<rect id="SVGID_7_" y="306.4" width="4160" height="1664"/>
				</defs>
				<clipPath id="SVGID_8_">
					<use xlink:href="#SVGID_7_"  style="overflow:visible;"/>
				</clipPath>
				<path class="st4" d="M3121.4,1083.7c0,390-584.5,706.2-1305.5,706.2S510.4,1473.8,510.4,1083.7s584.5-706.2,1305.5-706.2
					C2536.9,377.5,3121.4,693.7,3121.4,1083.7"/>
			</g>
		</g>
	</g>
</g>
<g>
	<g id="Layer_5">
		<g id="Layer_4">
		</g>
		<g>
			<path class="st5" d="M1566.2,929.8l46.1-316.9h72.1l46.1,316.9H1675l-6.1-55.6h-41.1l-6.1,55.6H1566.2z M1633.5,816.5h29.3
				l-14.4-149.3L1633.5,816.5z"/>
			<path class="st5" d="M1885.5,853.4c0,31-5.1,52.5-15.2,64.6c-10.2,12.1-28.4,18.1-54.7,18.1c-26.4,0-44.7-6-54.8-18
				c-10.1-12-15.1-33.6-15.1-64.7V689.3c0-31.3,5-52.8,15.1-64.8c10.1-11.9,28.3-17.9,54.8-17.9c26.3,0,44.6,6,54.7,18.1
				c10.2,12.1,15.2,33.6,15.2,64.6V725h-53.3v-34.3c0-10.1-1.3-17.4-4-21.8c-2.6-4.4-7-6.6-13-6.6c-5.8,0-9.9,2.1-12.4,6.4
				c-2.5,4.3-3.8,11.3-3.8,21.2V853c0,10.1,1.2,17.3,3.6,21.4c2.4,4.1,6.6,6.2,12.6,6.2c6.2,0,10.5-2.3,13.1-6.8
				c2.6-4.6,3.9-12.4,3.9-23.5v-37.3h53.3L1885.5,853.4L1885.5,853.4z"/>
			<path class="st5" d="M1916.7,929.8V613h52.6v150.6l42.3-150.6h55.5l-48.7,153.2l53.3,163.6h-57.7l-44.6-156.5v156.5L1916.7,929.8
				L1916.7,929.8z"/>
			<path class="st5" d="M2129,929.8V810.2L2071.3,613h57.4l26.6,133.7l26-133.7h57.4l-57.7,197.3v119.6L2129,929.8L2129,929.8z"/>
			<path class="st5" d="M2221.3,929.8l46.1-316.9h72.1l46.1,316.9h-55.5l-6.1-55.6h-41.1l-6.1,55.6H2221.3z M2288.6,816.5h29.3
				l-14.4-149.3L2288.6,816.5z"/>
			<path class="st5" d="M2491,915.1v-97.7c0-8.4-2-14.7-6-18.8c-4-4.1-10.2-6.2-18.5-6.2c-1.1,0-2.4,0.1-4,0.2
				c-1.5,0.2-3.9,0.4-6.9,0.9v136.3h-51.5V613h72.7c19.7,0,35.1,5.1,46.3,15.4c11.2,10.3,16.8,24.4,16.8,42.3v46.2
				c0,13.8-3.3,24.7-9.8,33s-15.6,12.8-27.3,13.7c13.9,1.3,24.2,6.5,30.8,15.7c6.6,9.2,10,22.9,10,41.1v94.6
				c0.5,2.8,1.3,5.3,2.5,7.7c1.2,2.4,2.7,4.7,4.7,7.1h-52.6c-2.5-1.6-4.3-3.5-5.4-5.9C2491.5,921.6,2491,918.7,2491,915.1z
				 M2455.5,739.1c1,0.2,2.1,0.3,3.3,0.3c1.2,0.1,3,0.1,5.4,0.1c7.9,0,13.7-1.7,17.4-5.2s5.6-9,5.6-16.5v-28.4
				c0-7.2-1.9-12.6-5.8-16.1c-3.9-3.5-9.8-5.2-17.6-5.2c-2.2,0-3.9,0-5.1,0.1c-1.2,0.1-2.3,0.2-3.2,0.3L2455.5,739.1L2455.5,739.1z"
				/>
			<path class="st5" d="M2641.9,613c27.4,0,46.7,4.7,57.7,14.1s16.6,25.4,16.6,48v191.2c0,23.4-5.5,39.9-16.4,49.4
				c-10.9,9.5-30.3,14.2-57.9,14.2h-64.8V613H2641.9z M2629.7,669.8v202.7c2.8,0.2,5.9,0.3,9.2,0.5c3.3,0.2,5.2,0.3,5.5,0.3
				c6.5,0,11.2-1.7,13.9-5.2c2.8-3.5,4.1-9.1,4.1-16.9V690.7c0-8-1.5-13.5-4.4-16.6c-2.9-3.1-8.4-4.7-16.2-4.7c-3.2,0-5.7,0-7.4,0.1
				C2632.8,669.6,2631.2,669.7,2629.7,669.8z"/>
		</g>
		<g>
			<path class="st6" d="M1566.2,929.8l46.1-316.9h72.1l46.1,316.9H1675l-6.1-55.6h-41.1l-6.1,55.6H1566.2z M1633.5,816.5h29.3
				l-14.4-149.3L1633.5,816.5z"/>
			<path class="st6" d="M1885.5,853.4c0,31-5.1,52.5-15.2,64.6c-10.2,12.1-28.4,18.1-54.7,18.1c-26.4,0-44.7-6-54.8-18
				c-10.1-12-15.1-33.6-15.1-64.7V689.3c0-31.3,5-52.8,15.1-64.8c10.1-11.9,28.3-17.9,54.8-17.9c26.3,0,44.6,6,54.7,18.1
				c10.2,12.1,15.2,33.6,15.2,64.6V725h-53.3v-34.3c0-10.1-1.3-17.4-4-21.8c-2.6-4.4-7-6.6-13-6.6c-5.8,0-9.9,2.1-12.4,6.4
				c-2.5,4.3-3.8,11.3-3.8,21.2V853c0,10.1,1.2,17.3,3.6,21.4c2.4,4.1,6.6,6.2,12.6,6.2c6.2,0,10.5-2.3,13.1-6.8
				c2.6-4.6,3.9-12.4,3.9-23.5v-37.3h53.3L1885.5,853.4L1885.5,853.4z"/>
			<path class="st6" d="M1916.7,929.8V613h52.6v150.6l42.3-150.6h55.5l-48.7,153.2l53.3,163.6h-57.7l-44.6-156.5v156.5L1916.7,929.8
				L1916.7,929.8z"/>
			<path class="st6" d="M2129,929.8V810.2L2071.3,613h57.4l26.6,133.7l26-133.7h57.4l-57.7,197.3v119.6L2129,929.8L2129,929.8z"/>
			<path class="st6" d="M2221.3,929.8l46.1-316.9h72.1l46.1,316.9h-55.5l-6.1-55.6h-41.1l-6.1,55.6H2221.3z M2288.6,816.5h29.3
				l-14.4-149.3L2288.6,816.5z"/>
			<path class="st6" d="M2491,915.1v-97.7c0-8.4-2-14.7-6-18.8c-4-4.1-10.2-6.2-18.5-6.2c-1.1,0-2.4,0.1-4,0.2
				c-1.5,0.2-3.9,0.4-6.9,0.9v136.3h-51.5V613h72.7c19.7,0,35.1,5.1,46.3,15.4c11.2,10.3,16.8,24.4,16.8,42.3v46.2
				c0,13.8-3.3,24.7-9.8,33s-15.6,12.8-27.3,13.7c13.9,1.3,24.2,6.5,30.8,15.7c6.6,9.2,10,22.9,10,41.1v94.6
				c0.5,2.8,1.3,5.3,2.5,7.7c1.2,2.4,2.7,4.7,4.7,7.1h-52.6c-2.5-1.6-4.3-3.5-5.4-5.9C2491.5,921.6,2491,918.7,2491,915.1z
				 M2455.5,739.1c1,0.2,2.1,0.3,3.3,0.3c1.2,0.1,3,0.1,5.4,0.1c7.9,0,13.7-1.7,17.4-5.2s5.6-9,5.6-16.5v-28.4
				c0-7.2-1.9-12.6-5.8-16.1c-3.9-3.5-9.8-5.2-17.6-5.2c-2.2,0-3.9,0-5.1,0.1c-1.2,0.1-2.3,0.2-3.2,0.3L2455.5,739.1L2455.5,739.1z"
				/>
			<path class="st6" d="M2641.9,613c27.4,0,46.7,4.7,57.7,14.1s16.6,25.4,16.6,48v191.2c0,23.4-5.5,39.9-16.4,49.4
				c-10.9,9.5-30.3,14.2-57.9,14.2h-64.8V613H2641.9z M2629.7,669.8v202.7c2.8,0.2,5.9,0.3,9.2,0.5c3.3,0.2,5.2,0.3,5.5,0.3
				c6.5,0,11.2-1.7,13.9-5.2c2.8-3.5,4.1-9.1,4.1-16.9V690.7c0-8-1.5-13.5-4.4-16.6c-2.9-3.1-8.4-4.7-16.2-4.7c-3.2,0-5.7,0-7.4,0.1
				C2632.8,669.6,2631.2,669.7,2629.7,669.8z"/>
		</g>
		<g id="B1">
			<g>
				<path class="st6" d="M1511.2,621.4c-14.4-17.9-34.3-28-59.8-30.3c23.3-1.7,41.5-10.8,54.5-27.3c13-16.5,19.5-38.4,19.5-65.8
					v-92.3c0-35.8-11.2-64-33.5-84.5s-53.1-30.8-92.4-30.8h-145.1v632.4h145.1c46.6,0,80.5-9.9,101.6-29.7
					c21.1-19.8,31.7-51.6,31.7-95.5V692.4C1532.7,663,1525.5,639.3,1511.2,621.4z M1357.1,649.1c2.9-0.9,6-1.5,9.2-1.7
					c3.2-0.3,7.6-0.4,13.3-0.4c16.2,0,28.5,3.7,37,11.1c8.5,7.4,12.7,17.8,12.7,31.4v81.9c0,15.9-4,27.7-12,35.3
					c-8,7.7-20.3,11.5-37,11.5c-6.1,0-10.9-0.1-14.2-0.4c-3.3-0.3-6.3-0.7-9-1.3L1357.1,649.1L1357.1,649.1z M1357.1,397.9
					c2.2-0.3,4.7-0.5,7.4-0.6c2.7-0.1,6.5-0.2,11.4-0.2c16.4,0,28.6,3.5,36.4,10.4s11.8,17.6,11.8,32.1v63.7
					c0,13.3-4.1,23.2-12.3,29.9c-8.2,6.7-20.4,10-36.6,10c-4.9,0-8.7-0.1-11.2-0.2c-2.6-0.1-4.8-0.3-6.8-0.7L1357.1,397.9
					L1357.1,397.9z"/>
				<path d="M1412.3,407.4c-7.8-6.9-20-10.4-36.4-10.4c-4.9,0-8.7,0.1-11.4,0.2c-2.7,0.2-5.2,0.4-7.4,0.7v144.2
					c2,0.3,4.2,0.5,6.8,0.7c2.6,0.1,6.3,0.2,11.2,0.2c16.2,0,28.4-3.3,36.6-10c8.2-6.6,12.3-16.6,12.3-29.9v-63.7
					C1424.1,425,1420.1,414.3,1412.3,407.4z M1403.4,503.1c0,10-3.4,12.8-4.6,13.8c-3.9,3.2-11.3,5-21,5.3V417.7
					c13.3,0.3,18.7,3.3,20.8,5.2c3.9,3.5,4.8,10.9,4.8,16.5V503.1z M1416.5,658c-8.5-7.4-20.8-11-37-11c-5.7,0-10.1,0.1-13.3,0.4
					c-3.2,0.3-6.3,0.9-9.2,1.7v167.2c2.7,0.6,5.7,1,9,1.3c3.3,0.3,8,0.4,14.2,0.4c16.7,0,29-3.8,37-11.5c8-7.6,12-19.4,12-35.3
					v-81.9C1429.2,675.8,1425,665.3,1416.5,658z M1408.5,771.3c0,6.8-1,15.9-5.6,20.4c-3.8,3.7-11.9,5.7-22.7,5.7h-2.5V667.7
					c0.6,0,1.1,0,1.8,0c7.6,0,17.7,1,23.4,6c2.4,2.1,5.6,6,5.6,15.8V771.3z M1416.5,658c-8.5-7.4-20.8-11-37-11
					c-5.7,0-10.1,0.1-13.3,0.4c-3.2,0.3-6.3,0.9-9.2,1.7v167.2c2.7,0.6,5.7,1,9,1.3c3.3,0.3,8,0.4,14.2,0.4c16.7,0,29-3.8,37-11.5
					c8-7.6,12-19.4,12-35.3v-81.9C1429.2,675.8,1425,665.3,1416.5,658z M1408.5,771.3c0,6.8-1,15.9-5.6,20.4
					c-3.8,3.7-11.9,5.7-22.7,5.7h-2.5V667.7c0.6,0,1.1,0,1.8,0c7.6,0,17.7,1,23.4,6c2.4,2.1,5.6,6,5.6,15.8V771.3z M1412.3,407.4
					c-7.8-6.9-20-10.4-36.4-10.4c-4.9,0-8.7,0.1-11.4,0.2c-2.7,0.2-5.2,0.4-7.4,0.7v144.2c2,0.3,4.2,0.5,6.8,0.7
					c2.6,0.1,6.3,0.2,11.2,0.2c16.2,0,28.4-3.3,36.6-10c8.2-6.6,12.3-16.6,12.3-29.9v-63.7C1424.1,425,1420.1,414.3,1412.3,407.4z
					 M1403.4,503.1c0,10-3.4,12.8-4.6,13.8c-3.9,3.2-11.3,5-21,5.3V417.7c13.3,0.3,18.7,3.3,20.8,5.2c3.9,3.5,4.8,10.9,4.8,16.5
					V503.1z M1412.3,407.4c-7.8-6.9-20-10.4-36.4-10.4c-4.9,0-8.7,0.1-11.4,0.2c-2.7,0.2-5.2,0.4-7.4,0.7v144.2
					c2,0.3,4.2,0.5,6.8,0.7c2.6,0.1,6.3,0.2,11.2,0.2c16.2,0,28.4-3.3,36.6-10c8.2-6.6,12.3-16.6,12.3-29.9v-63.7
					C1424.1,425,1420.1,414.3,1412.3,407.4z M1403.4,503.1c0,10-3.4,12.8-4.6,13.8c-3.9,3.2-11.3,5-21,5.3V417.7
					c13.3,0.3,18.7,3.3,20.8,5.2c3.9,3.5,4.8,10.9,4.8,16.5V503.1z M1416.5,658c-8.5-7.4-20.8-11-37-11c-5.7,0-10.1,0.1-13.3,0.4
					c-3.2,0.3-6.3,0.9-9.2,1.7v167.2c2.7,0.6,5.7,1,9,1.3c3.3,0.3,8,0.4,14.2,0.4c16.7,0,29-3.8,37-11.5c8-7.6,12-19.4,12-35.3
					v-81.9C1429.2,675.8,1425,665.3,1416.5,658z M1408.5,771.3c0,6.8-1,15.9-5.6,20.4c-3.8,3.7-11.9,5.7-22.7,5.7h-2.5V667.7
					c0.6,0,1.1,0,1.8,0c7.6,0,17.7,1,23.4,6c2.4,2.1,5.6,6,5.6,15.8V771.3z M1416.5,658c-8.5-7.4-20.8-11-37-11
					c-5.7,0-10.1,0.1-13.3,0.4c-3.2,0.3-6.3,0.9-9.2,1.7v167.2c2.7,0.6,5.7,1,9,1.3c3.3,0.3,8,0.4,14.2,0.4c16.7,0,29-3.8,37-11.5
					c8-7.6,12-19.4,12-35.3v-81.9C1429.2,675.8,1425,665.3,1416.5,658z M1408.5,771.3c0,6.8-1,15.9-5.6,20.4
					c-3.8,3.7-11.9,5.7-22.7,5.7h-2.5V667.7c0.6,0,1.1,0,1.8,0c7.6,0,17.7,1,23.4,6c2.4,2.1,5.6,6,5.6,15.8V771.3z M1375.1,543
					c16.2,0,28.4-3.3,36.6-10c8.2-6.6,12.3-16.6,12.3-29.9v-63.7c0-14.4-3.9-25.1-11.8-32.1c-7.8-6.9-20-10.4-36.4-10.4
					c-4.9,0-8.7,0.1-11.4,0.2c-2.7,0.2-5.2,0.4-7.4,0.7v144.2c2,0.3,4.2,0.5,6.8,0.7C1366.4,542.9,1370.2,543,1375.1,543z
					 M1377.8,417.7c13.3,0.3,18.7,3.3,20.8,5.2c3.9,3.5,4.8,10.9,4.8,16.5v63.7c0,10-3.4,12.8-4.6,13.8c-3.9,3.2-11.3,5-21,5.3
					V417.7z M1527.3,608.4c-5.6-6.9-11.8-12.9-18.7-18c4.8-4,9.3-8.7,13.4-13.8c15.9-20.1,24-46.6,24-78.7v-92.3
					c0-41.7-13.5-75.2-40.2-99.7c-26.2-24-62-36.2-106.4-36.2h-165.8v673.8h165.8c51.8,0,90.8-11.9,115.8-35.3
					c25.4-23.8,38.2-61,38.2-110.6V692.4C1553.4,658.3,1544.6,630,1527.3,608.4z M1532.7,797.7c0,43.9-10.6,75.7-31.7,95.5
					c-21.1,19.8-55,29.7-101.6,29.7h-145.1V290.5h145.1c39.3,0,70.1,10.3,92.4,30.8c22.3,20.5,33.5,48.7,33.5,84.5v92.3
					c0,27.4-6.5,49.4-19.5,65.8c-13,16.5-31.2,25.6-54.5,27.3c25.5,2.3,45.5,12.4,59.8,30.3c14.4,17.9,21.5,41.6,21.5,71V797.7z
					 M1416.5,658c-8.5-7.4-20.8-11-37-11c-5.7,0-10.1,0.1-13.3,0.4c-3.2,0.3-6.3,0.9-9.2,1.7v167.2c2.7,0.6,5.7,1,9,1.3
					c3.3,0.3,8,0.4,14.2,0.4c16.7,0,29-3.8,37-11.5c8-7.6,12-19.4,12-35.3v-81.9C1429.2,675.8,1425,665.3,1416.5,658z M1408.5,771.3
					c0,6.8-1,15.9-5.6,20.4c-3.8,3.7-11.9,5.7-22.7,5.7h-2.5V667.7c0.6,0,1.1,0,1.8,0c7.6,0,17.7,1,23.4,6c2.4,2.1,5.6,6,5.6,15.8
					V771.3z M1375.1,543c16.2,0,28.4-3.3,36.6-10c8.2-6.6,12.3-16.6,12.3-29.9v-63.7c0-14.4-3.9-25.1-11.8-32.1
					c-7.8-6.9-20-10.4-36.4-10.4c-4.9,0-8.7,0.1-11.4,0.2c-2.7,0.2-5.2,0.4-7.4,0.7v144.2c2,0.3,4.2,0.5,6.8,0.7
					C1366.4,542.9,1370.2,543,1375.1,543z M1377.8,417.7c13.3,0.3,18.7,3.3,20.8,5.2c3.9,3.5,4.8,10.9,4.8,16.5v63.7
					c0,10-3.4,12.8-4.6,13.8c-3.9,3.2-11.3,5-21,5.3V417.7z M1412.3,407.4c-7.8-6.9-20-10.4-36.4-10.4c-4.9,0-8.7,0.1-11.4,0.2
					c-2.7,0.2-5.2,0.4-7.4,0.7v144.2c2,0.3,4.2,0.5,6.8,0.7c2.6,0.1,6.3,0.2,11.2,0.2c16.2,0,28.4-3.3,36.6-10
					c8.2-6.6,12.3-16.6,12.3-29.9v-63.7C1424.1,425,1420.1,414.3,1412.3,407.4z M1403.4,503.1c0,10-3.4,12.8-4.6,13.8
					c-3.9,3.2-11.3,5-21,5.3V417.7c13.3,0.3,18.7,3.3,20.8,5.2c3.9,3.5,4.8,10.9,4.8,16.5V503.1z M1416.5,658
					c-8.5-7.4-20.8-11-37-11c-5.7,0-10.1,0.1-13.3,0.4c-3.2,0.3-6.3,0.9-9.2,1.7v167.2c2.7,0.6,5.7,1,9,1.3c3.3,0.3,8,0.4,14.2,0.4
					c16.7,0,29-3.8,37-11.5c8-7.6,12-19.4,12-35.3v-81.9C1429.2,675.8,1425,665.3,1416.5,658z M1408.5,771.3c0,6.8-1,15.9-5.6,20.4
					c-3.8,3.7-11.9,5.7-22.7,5.7h-2.5V667.7c0.6,0,1.1,0,1.8,0c7.6,0,17.7,1,23.4,6c2.4,2.1,5.6,6,5.6,15.8V771.3z M1416.5,658
					c-8.5-7.4-20.8-11-37-11c-5.7,0-10.1,0.1-13.3,0.4c-3.2,0.3-6.3,0.9-9.2,1.7v167.2c2.7,0.6,5.7,1,9,1.3c3.3,0.3,8,0.4,14.2,0.4
					c16.7,0,29-3.8,37-11.5c8-7.6,12-19.4,12-35.3v-81.9C1429.2,675.8,1425,665.3,1416.5,658z M1408.5,771.3c0,6.8-1,15.9-5.6,20.4
					c-3.8,3.7-11.9,5.7-22.7,5.7h-2.5V667.7c0.6,0,1.1,0,1.8,0c7.6,0,17.7,1,23.4,6c2.4,2.1,5.6,6,5.6,15.8V771.3z M1412.3,407.4
					c-7.8-6.9-20-10.4-36.4-10.4c-4.9,0-8.7,0.1-11.4,0.2c-2.7,0.2-5.2,0.4-7.4,0.7v144.2c2,0.3,4.2,0.5,6.8,0.7
					c2.6,0.1,6.3,0.2,11.2,0.2c16.2,0,28.4-3.3,36.6-10c8.2-6.6,12.3-16.6,12.3-29.9v-63.7C1424.1,425,1420.1,414.3,1412.3,407.4z
					 M1403.4,503.1c0,10-3.4,12.8-4.6,13.8c-3.9,3.2-11.3,5-21,5.3V417.7c13.3,0.3,18.7,3.3,20.8,5.2c3.9,3.5,4.8,10.9,4.8,16.5
					V503.1z"/>
			</g>
		</g>
		<g id="B1_1_">
			<g>
				<path class="st6" d="M1854,1370c-14.4-17.9-34.3-28-59.8-30.3c23.3-1.7,41.5-10.8,54.5-27.3c13-16.5,19.5-38.4,19.5-65.8v-92.3
					c0-35.8-11.2-64-33.5-84.5c-22.3-20.5-53.1-30.8-92.4-30.8h-145.1v632.4h145.1c46.6,0,80.5-9.9,101.6-29.7
					c21.1-19.8,31.7-51.6,31.7-95.5v-105.3C1875.5,1411.6,1868.3,1387.9,1854,1370z M1699.9,1397.8c2.9-0.9,6-1.4,9.2-1.7
					c3.2-0.3,7.6-0.4,13.3-0.4c16.2,0,28.5,3.7,37,11c8.5,7.4,12.7,17.8,12.7,31.4v81.9c0,15.9-4,27.7-12,35.3
					c-8,7.7-20.3,11.5-37,11.5c-6.1,0-10.9-0.1-14.2-0.4c-3.3-0.3-6.3-0.7-9-1.3L1699.9,1397.8L1699.9,1397.8z M1699.9,1146.5
					c2.2-0.3,4.7-0.5,7.4-0.7c2.7-0.2,6.5-0.2,11.4-0.2c16.4,0,28.6,3.5,36.4,10.4c7.8,6.9,11.8,17.6,11.8,32.1v63.7
					c0,13.3-4.1,23.2-12.3,29.9c-8.2,6.7-20.4,10-36.6,10c-4.9,0-8.7-0.1-11.2-0.2c-2.6-0.1-4.8-0.3-6.8-0.7L1699.9,1146.5
					L1699.9,1146.5z"/>
				<path d="M1755.1,1156c-7.8-6.9-20-10.4-36.4-10.4c-4.9,0-8.7,0.1-11.4,0.2c-2.7,0.2-5.2,0.3-7.4,0.7v144.2
					c2,0.3,4.2,0.5,6.8,0.7c2.6,0.2,6.3,0.2,11.2,0.2c16.2,0,28.4-3.3,36.6-10c8.2-6.6,12.3-16.6,12.3-29.9v-63.7
					C1766.9,1173.7,1762.9,1163,1755.1,1156z M1746.2,1251.8c0,10-3.4,12.8-4.6,13.8c-3.9,3.2-11.3,5-21,5.3v-104.5
					c13.3,0.3,18.7,3.3,20.8,5.2c3.9,3.5,4.8,10.9,4.8,16.5V1251.8z M1759.3,1406.6c-8.5-7.4-20.8-11-37-11
					c-5.7,0-10.1,0.2-13.3,0.4c-3.2,0.3-6.3,0.9-9.2,1.7v167.2c2.7,0.6,5.7,1,9,1.3c3.3,0.3,8,0.4,14.2,0.4c16.7,0,29-3.8,37-11.5
					c8-7.6,12-19.4,12-35.3V1438C1772,1424.5,1767.8,1414,1759.3,1406.6z M1751.3,1519.9c0,6.8-1,15.9-5.6,20.4
					c-3.8,3.7-11.9,5.7-22.7,5.7h-2.5v-129.7c0.6,0,1.1,0,1.8,0c7.6,0,17.7,1,23.4,6c2.4,2.1,5.6,6,5.6,15.8V1519.9z M1759.3,1406.6
					c-8.5-7.4-20.8-11-37-11c-5.7,0-10.1,0.2-13.3,0.4c-3.2,0.3-6.3,0.9-9.2,1.7v167.2c2.7,0.6,5.7,1,9,1.3c3.3,0.3,8,0.4,14.2,0.4
					c16.7,0,29-3.8,37-11.5c8-7.6,12-19.4,12-35.3V1438C1772,1424.5,1767.8,1414,1759.3,1406.6z M1751.3,1519.9
					c0,6.8-1,15.9-5.6,20.4c-3.8,3.7-11.9,5.7-22.7,5.7h-2.5v-129.7c0.6,0,1.1,0,1.8,0c7.6,0,17.7,1,23.4,6c2.4,2.1,5.6,6,5.6,15.8
					V1519.9z M1755.1,1156c-7.8-6.9-20-10.4-36.4-10.4c-4.9,0-8.7,0.1-11.4,0.2c-2.7,0.2-5.2,0.3-7.4,0.7v144.2
					c2,0.3,4.2,0.5,6.8,0.7c2.6,0.2,6.3,0.2,11.2,0.2c16.2,0,28.4-3.3,36.6-10c8.2-6.6,12.3-16.6,12.3-29.9v-63.7
					C1766.9,1173.7,1762.9,1163,1755.1,1156z M1746.2,1251.8c0,10-3.4,12.8-4.6,13.8c-3.9,3.2-11.3,5-21,5.3v-104.5
					c13.3,0.3,18.7,3.3,20.8,5.2c3.9,3.5,4.8,10.9,4.8,16.5V1251.8z M1755.1,1156c-7.8-6.9-20-10.4-36.4-10.4
					c-4.9,0-8.7,0.1-11.4,0.2c-2.7,0.2-5.2,0.3-7.4,0.7v144.2c2,0.3,4.2,0.5,6.8,0.7c2.6,0.2,6.3,0.2,11.2,0.2
					c16.2,0,28.4-3.3,36.6-10c8.2-6.6,12.3-16.6,12.3-29.9v-63.7C1766.9,1173.7,1762.9,1163,1755.1,1156z M1746.2,1251.8
					c0,10-3.4,12.8-4.6,13.8c-3.9,3.2-11.3,5-21,5.3v-104.5c13.3,0.3,18.7,3.3,20.8,5.2c3.9,3.5,4.8,10.9,4.8,16.5V1251.8z
					 M1759.3,1406.6c-8.5-7.4-20.8-11-37-11c-5.7,0-10.1,0.2-13.3,0.4c-3.2,0.3-6.3,0.9-9.2,1.7v167.2c2.7,0.6,5.7,1,9,1.3
					c3.3,0.3,8,0.4,14.2,0.4c16.7,0,29-3.8,37-11.5c8-7.6,12-19.4,12-35.3V1438C1772,1424.5,1767.8,1414,1759.3,1406.6z
					 M1751.3,1519.9c0,6.8-1,15.9-5.6,20.4c-3.8,3.7-11.9,5.7-22.7,5.7h-2.5v-129.7c0.6,0,1.1,0,1.8,0c7.6,0,17.7,1,23.4,6
					c2.4,2.1,5.6,6,5.6,15.8V1519.9z M1759.3,1406.6c-8.5-7.4-20.8-11-37-11c-5.7,0-10.1,0.2-13.3,0.4c-3.2,0.3-6.3,0.9-9.2,1.7
					v167.2c2.7,0.6,5.7,1,9,1.3c3.3,0.3,8,0.4,14.2,0.4c16.7,0,29-3.8,37-11.5c8-7.6,12-19.4,12-35.3V1438
					C1772,1424.5,1767.8,1414,1759.3,1406.6z M1751.3,1519.9c0,6.8-1,15.9-5.6,20.4c-3.8,3.7-11.9,5.7-22.7,5.7h-2.5v-129.7
					c0.6,0,1.1,0,1.8,0c7.6,0,17.7,1,23.4,6c2.4,2.1,5.6,6,5.6,15.8V1519.9z M1717.9,1291.6c16.2,0,28.4-3.3,36.6-10
					c8.2-6.6,12.3-16.6,12.3-29.9v-63.7c0-14.4-3.9-25.1-11.8-32.1c-7.8-6.9-20-10.4-36.4-10.4c-4.9,0-8.7,0.1-11.4,0.2
					c-2.7,0.2-5.2,0.3-7.4,0.7v144.2c2,0.3,4.2,0.5,6.8,0.7C1709.3,1291.5,1713,1291.6,1717.9,1291.6z M1720.6,1166.3
					c13.3,0.3,18.7,3.3,20.8,5.2c3.9,3.5,4.8,10.9,4.8,16.5v63.7c0,10-3.4,12.8-4.6,13.8c-3.9,3.2-11.3,5-21,5.3V1166.3z
					 M1870.1,1357.1c-5.6-6.9-11.8-12.9-18.7-18c4.8-4,9.3-8.7,13.4-13.8c15.9-20.1,24-46.6,24-78.7v-92.3
					c0-41.7-13.5-75.2-40.2-99.7c-26.2-24-62-36.2-106.4-36.2h-165.8v673.8h165.8c51.8,0,90.8-11.9,115.8-35.3
					c25.4-23.8,38.2-61,38.2-110.6v-105.3C1896.2,1406.9,1887.4,1378.7,1870.1,1357.1z M1875.5,1546.3c0,43.9-10.6,75.7-31.7,95.5
					c-21.1,19.8-55,29.7-101.6,29.7h-145.1v-632.4h145.1c39.3,0,70.1,10.3,92.4,30.8c22.3,20.5,33.5,48.7,33.5,84.5v92.3
					c0,27.4-6.5,49.4-19.5,65.8s-31.2,25.6-54.5,27.3c25.5,2.3,45.5,12.4,59.8,30.3c14.4,17.9,21.5,41.6,21.5,71V1546.3z
					 M1759.3,1406.6c-8.5-7.4-20.8-11-37-11c-5.7,0-10.1,0.2-13.3,0.4c-3.2,0.3-6.3,0.9-9.2,1.7v167.2c2.7,0.6,5.7,1,9,1.3
					c3.3,0.3,8,0.4,14.2,0.4c16.7,0,29-3.8,37-11.5c8-7.6,12-19.4,12-35.3V1438C1772,1424.5,1767.8,1414,1759.3,1406.6z
					 M1751.3,1519.9c0,6.8-1,15.9-5.6,20.4c-3.8,3.7-11.9,5.7-22.7,5.7h-2.5v-129.7c0.6,0,1.1,0,1.8,0c7.6,0,17.7,1,23.4,6
					c2.4,2.1,5.6,6,5.6,15.8V1519.9z M1717.9,1291.6c16.2,0,28.4-3.3,36.6-10c8.2-6.6,12.3-16.6,12.3-29.9v-63.7
					c0-14.4-3.9-25.1-11.8-32.1c-7.8-6.9-20-10.4-36.4-10.4c-4.9,0-8.7,0.1-11.4,0.2c-2.7,0.2-5.2,0.3-7.4,0.7v144.2
					c2,0.3,4.2,0.5,6.8,0.7C1709.3,1291.5,1713,1291.6,1717.9,1291.6z M1720.6,1166.3c13.3,0.3,18.7,3.3,20.8,5.2
					c3.9,3.5,4.8,10.9,4.8,16.5v63.7c0,10-3.4,12.8-4.6,13.8c-3.9,3.2-11.3,5-21,5.3V1166.3z M1755.1,1156
					c-7.8-6.9-20-10.4-36.4-10.4c-4.9,0-8.7,0.1-11.4,0.2c-2.7,0.2-5.2,0.3-7.4,0.7v144.2c2,0.3,4.2,0.5,6.8,0.7
					c2.6,0.2,6.3,0.2,11.2,0.2c16.2,0,28.4-3.3,36.6-10c8.2-6.6,12.3-16.6,12.3-29.9v-63.7C1766.9,1173.7,1762.9,1163,1755.1,1156z
					 M1746.2,1251.8c0,10-3.4,12.8-4.6,13.8c-3.9,3.2-11.3,5-21,5.3v-104.5c13.3,0.3,18.7,3.3,20.8,5.2c3.9,3.5,4.8,10.9,4.8,16.5
					V1251.8z M1759.3,1406.6c-8.5-7.4-20.8-11-37-11c-5.7,0-10.1,0.2-13.3,0.4c-3.2,0.3-6.3,0.9-9.2,1.7v167.2c2.7,0.6,5.7,1,9,1.3
					c3.3,0.3,8,0.4,14.2,0.4c16.7,0,29-3.8,37-11.5c8-7.6,12-19.4,12-35.3V1438C1772,1424.5,1767.8,1414,1759.3,1406.6z
					 M1751.3,1519.9c0,6.8-1,15.9-5.6,20.4c-3.8,3.7-11.9,5.7-22.7,5.7h-2.5v-129.7c0.6,0,1.1,0,1.8,0c7.6,0,17.7,1,23.4,6
					c2.4,2.1,5.6,6,5.6,15.8V1519.9z M1759.3,1406.6c-8.5-7.4-20.8-11-37-11c-5.7,0-10.1,0.2-13.3,0.4c-3.2,0.3-6.3,0.9-9.2,1.7
					v167.2c2.7,0.6,5.7,1,9,1.3c3.3,0.3,8,0.4,14.2,0.4c16.7,0,29-3.8,37-11.5c8-7.6,12-19.4,12-35.3V1438
					C1772,1424.5,1767.8,1414,1759.3,1406.6z M1751.3,1519.9c0,6.8-1,15.9-5.6,20.4c-3.8,3.7-11.9,5.7-22.7,5.7h-2.5v-129.7
					c0.6,0,1.1,0,1.8,0c7.6,0,17.7,1,23.4,6c2.4,2.1,5.6,6,5.6,15.8V1519.9z M1755.1,1156c-7.8-6.9-20-10.4-36.4-10.4
					c-4.9,0-8.7,0.1-11.4,0.2c-2.7,0.2-5.2,0.3-7.4,0.7v144.2c2,0.3,4.2,0.5,6.8,0.7c2.6,0.2,6.3,0.2,11.2,0.2
					c16.2,0,28.4-3.3,36.6-10c8.2-6.6,12.3-16.6,12.3-29.9v-63.7C1766.9,1173.7,1762.9,1163,1755.1,1156z M1746.2,1251.8
					c0,10-3.4,12.8-4.6,13.8c-3.9,3.2-11.3,5-21,5.3v-104.5c13.3,0.3,18.7,3.3,20.8,5.2c3.9,3.5,4.8,10.9,4.8,16.5V1251.8z"/>
			</g>
		</g>
		<g>
			<g>
				<path class="st5" d="M1919.6,1347.4h52.7v230.5c0,17,1.1,27.6,3.3,31.9s6.3,6.4,12.2,6.4s10-2.1,12.2-6.3
					c2.2-4.2,3.3-14.7,3.3-31.6v-3.7v-227.2h52.7v251c0,26.8-5.1,45.8-15.4,56.7c-10.2,11-27.9,16.4-52.9,16.4
					c-25,0-42.7-5.5-52.9-16.4c-10.2-10.9-15.4-29.8-15.4-56.7L1919.6,1347.4L1919.6,1347.4z"/>
				<path class="st5" d="M2149.2,1347.4v317.8h-54.4v-317.8H2149.2z"/>
				<path class="st5" d="M2243.9,1347.4v259.9h58.1v57.9h-112.5v-317.8H2243.9z"/>
				<path class="st5" d="M2394.2,1347.4c27.5,0,46.8,4.7,57.9,14.2c11.1,9.4,16.6,25.5,16.6,48.1v191.8c0,23.5-5.5,40-16.5,49.5
					c-11,9.5-30.3,14.3-58.1,14.3h-64.9v-317.8H2394.2z M2381.9,1404.4v203.3c2.8,0.2,5.9,0.3,9.3,0.5c3.3,0.2,5.2,0.3,5.6,0.3
					c6.5,0,11.2-1.7,14-5.2c2.8-3.5,4.2-9.1,4.2-17v-161.1c0-8-1.5-13.5-4.4-16.7s-8.4-4.7-16.3-4.7c-3.2,0-5.7,0-7.4,0.1
					C2385,1404.2,2383.4,1404.3,2381.9,1404.4z"/>
				<path class="st5" d="M2615.4,1347.4v57.9h-60.7v65.1h58.3v57.9h-58.3v79h60.7v57.9H2502v-317.8H2615.4z"/>
				<path class="st5" d="M2739.2,1650.4v-97.9c0-8.4-2-14.7-6-18.8c-4-4.1-10.2-6.2-18.6-6.2c-1.1,0-2.4,0.1-4,0.2
					c-1.5,0.2-3.9,0.4-6.9,0.9v136.7h-51.6v-317.8h72.9c19.7,0,35.2,5.2,46.4,15.4c11.2,10.3,16.8,24.4,16.8,42.4v46.4
					c0,13.8-3.3,24.8-9.8,33.1c-6.5,8.3-15.7,12.8-27.4,13.7c13.9,1.3,24.2,6.6,30.9,15.8c6.7,9.2,10,23,10,41.3v94.9
					c0.5,2.8,1.3,5.3,2.5,7.7c1.2,2.4,2.7,4.8,4.7,7.1h-52.7c-2.5-1.6-4.3-3.6-5.5-5.9C2739.8,1657,2739.2,1654,2739.2,1650.4z
					 M2703.7,1473.9c1,0.2,2.1,0.3,3.3,0.3c1.2,0.1,3,0.1,5.4,0.1c7.9,0,13.7-1.7,17.5-5.2s5.6-9,5.6-16.5V1424
					c0-7.3-1.9-12.6-5.8-16.1c-3.9-3.5-9.8-5.2-17.7-5.2c-2.2,0-3.9,0-5.1,0.1c-1.2,0.1-2.3,0.2-3.2,0.3L2703.7,1473.9
					L2703.7,1473.9z"/>
			</g>
		</g>
		<g>
			<g>
				<path class="st6" d="M1919.6,1347.4h52.7v230.5c0,17,1.1,27.6,3.3,31.9s6.3,6.4,12.2,6.4s10-2.1,12.2-6.3
					c2.2-4.2,3.3-14.7,3.3-31.6v-3.7v-227.2h52.7v251c0,26.8-5.1,45.8-15.4,56.7c-10.2,11-27.9,16.4-52.9,16.4
					c-25,0-42.7-5.5-52.9-16.4c-10.2-10.9-15.4-29.8-15.4-56.7L1919.6,1347.4L1919.6,1347.4z"/>
				<path class="st6" d="M2149.2,1347.4v317.8h-54.4v-317.8H2149.2z"/>
				<path class="st6" d="M2243.9,1347.4v259.9h58.1v57.9h-112.5v-317.8H2243.9z"/>
				<path class="st6" d="M2394.2,1347.4c27.5,0,46.8,4.7,57.9,14.2c11.1,9.4,16.6,25.5,16.6,48.1v191.8c0,23.5-5.5,40-16.5,49.5
					c-11,9.5-30.3,14.3-58.1,14.3h-64.9v-317.8H2394.2z M2381.9,1404.4v203.3c2.8,0.2,5.9,0.3,9.3,0.5c3.3,0.2,5.2,0.3,5.6,0.3
					c6.5,0,11.2-1.7,14-5.2c2.8-3.5,4.2-9.1,4.2-17v-161.1c0-8-1.5-13.5-4.4-16.7s-8.4-4.7-16.3-4.7c-3.2,0-5.7,0-7.4,0.1
					C2385,1404.2,2383.4,1404.3,2381.9,1404.4z"/>
				<path class="st6" d="M2615.4,1347.4v57.9h-60.7v65.1h58.3v57.9h-58.3v79h60.7v57.9H2502v-317.8H2615.4z"/>
				<path class="st6" d="M2739.2,1650.4v-97.9c0-8.4-2-14.7-6-18.8c-4-4.1-10.2-6.2-18.6-6.2c-1.1,0-2.4,0.1-4,0.2
					c-1.5,0.2-3.9,0.4-6.9,0.9v136.7h-51.6v-317.8h72.9c19.7,0,35.2,5.2,46.4,15.4c11.2,10.3,16.8,24.4,16.8,42.4v46.4
					c0,13.8-3.3,24.8-9.8,33.1c-6.5,8.3-15.7,12.8-27.4,13.7c13.9,1.3,24.2,6.6,30.9,15.8c6.7,9.2,10,23,10,41.3v94.9
					c0.5,2.8,1.3,5.3,2.5,7.7c1.2,2.4,2.7,4.8,4.7,7.1h-52.7c-2.5-1.6-4.3-3.6-5.5-5.9C2739.8,1657,2739.2,1654,2739.2,1650.4z
					 M2703.7,1473.9c1,0.2,2.1,0.3,3.3,0.3c1.2,0.1,3,0.1,5.4,0.1c7.9,0,13.7-1.7,17.5-5.2s5.6-9,5.6-16.5V1424
					c0-7.3-1.9-12.6-5.8-16.1c-3.9-3.5-9.8-5.2-17.7-5.2c-2.2,0-3.9,0-5.1,0.1c-1.2,0.1-2.3,0.2-3.2,0.3L2703.7,1473.9
					L2703.7,1473.9z"/>
			</g>
		</g>
		<rect x="287.7" class="st7" width="1511.3" height="180"/>
		<text transform="matrix(0.85 0 0 1 287.6779 57.0407)" class="st8 st9 st10">FOLIO BOLD CONDENSED BT 85% WIDTH     </text>
		<rect x="1220.1" y="1927.1" class="st7" width="2689.3" height="285.4"/>
		<text transform="matrix(1 0 0 1 1220.0469 1992.7003)" class="st6 st11 st12">Brought to you by</text>
		<text transform="matrix(1 0 0 1 1739.5688 1992.7003)" class="st6 st11 st13"> </text>
		<text transform="matrix(1 0 0 1 1220.0469 2205.7002)" class="st6 st11 st14 st15">    </text>
		<text transform="matrix(0.85 0 0 1 1364.0461 2205.7)" class="st6 st9 st16">MOON VALLEY NURSERIES</text>
	</g>
	<g id="Layer_6">
		<g>
			<g>
				<defs>
					<rect id="SVGID_9_" y="306.4" width="4160" height="1664"/>
				</defs>
				<clipPath id="SVGID_10_">
					<use xlink:href="#SVGID_9_"  style="overflow:visible;"/>
				</clipPath>
				<path class="st17" d="M1018.5,425.1c-2,1-6.1,3.8-7.9,4.9c-299.2,174.5-434.1,521-355.4,839.5
					c35.6,143.9,112.7,274.3,221.6,374.9c120.5,112.1,274.3,183.6,438.8,203.1c159.8,18.6,321.4-13.6,461.9-92
					c-163.7,4.5-322.7-52-446.5-157.7c-76.5-61-136.8-139.9-175.8-229.6c-2.9-5.6-4.7-11.6-5.3-17.8c1.9-15.3-0.8-30.8-7.6-44.5
					c-9.1-16.5-18.8-32.7-29.1-48.5c0-0.1-0.1-0.1-0.1-0.2c5.8-1.5,11.6-3.3,17.2-5.3c7.3-2.4,14.5-5.4,21.5-8.8
					c16-7.2,29.9-18.4,40.3-32.5c5.9-8.9,5.6-20.4,0-29c-3.1-3.7-6.8-6.8-10.8-9.1c-1.8-1.1-3.7-2-5.7-2.7
					c-7.7-2.5-15.5-4.6-23.4-6.3c-21.7-3.6-42.7-10.7-62-21.2c-18-11.2-35.5-27.1-49.3-43c-29.1-34.8-53.3-73.1-72.2-113.7
					c-27.7-59.2-45-122.7-51.2-187.7c-8.3-87.6,5.4-176.4,40.6-257.9C974.2,500.8,996,461.2,1018.5,425.1"/>
			</g>
			<g>
				<defs>
					<rect id="SVGID_11_" y="306.4" width="4160" height="1664"/>
				</defs>
				<clipPath id="SVGID_12_">
					<use xlink:href="#SVGID_11_"  style="overflow:visible;"/>
				</clipPath>
				<path class="st18" d="M816.5,1357.7c0,0,0.1,0,0.2-0.1c40.2-3.7,75.8-27.5,94.5-63.2c0.1,0.1,0.2,0.3,0.4,0.4
					c29.2,28.6,65.7,48.8,105.5,58.3c27.8,6.5,57,5.7,84.6-2.5c16.1-7.7,28.3-22.3,32.5-40.2c0.1-0.3,0.2-0.6,0.3-0.8
					c2.4,5.1,4.3,10.4,5.6,15.8c4,12.2,1.4,25.5-6.8,35.3c-10.4,13.7-27.9,21.3-47.6,24.4c-35.7,3.3-71.7-2.5-104.5-17
					c-0.3-0.1-0.4-0.1-0.4-0.1s-0.5,2.7,0,4.9c0,0,0,0,0,0c50.9,33.7,116.2,37,170.3,8.5c105,217.2,317.7,362.1,558.3,380.2
					c-0.6,0.3-1.6,0.9-2.9,1.6c-109.9,42.6-227.6,61.6-345.3,55.7c-315.6-20.8-585.4-234.9-677.4-537.6
					c-97.2-314.9,30.5-658.7,315-832.6c0,0,0.1,0,0.1-0.1c-131.4,202.8-117,467.2,35.6,654.5c8.7,10.5,17.2,19.3,27,27.3
					c19.6,17,43,29,68.1,35.1c10,2.1,19.9,4.2,29.9,6.3c5.2,1.4,10.3,3.3,15.2,5.6c2.7,1.7,5.3,3.8,7.5,6.2c3.4,4,4.7,9.4,3.3,14.6
					c-0.5,3.6-1.6,7.1-3.5,10.2c-6.7,8.4-15.1,15.2-24.7,19.9c-30.5,15.9-80.9,24.4-103.7,21.8c-18.6-2.1-44-13.1-39.3-30.1
					c1.5-5.3,6.3-12.1,5.8-15c-0.3-1.8-4-1.8-6.3,0c-4.9,3.8-11.2,15.7-11.2,21.8c0,9,4.3,26,4.4,26.2c-23.4-0.8-46.7-3.8-69.5-8.8
					c-6.8-1.6-13.6-3.2-20.4-4.8c-7-3-12.6-8.7-15.5-15.7c-7.3-15.6-18.7-29-33-38.7c-3.2-2-6,3.1-2.6,4.7
					c20.7,16.2,33.7,40.2,35.8,66.4c2.8,16.4-1.2,33.5-11.3,47c-19.3,23.9-45,42-74.2,52c0,0.1,0,0.2,0,0.4L816.5,1357.7
					L816.5,1357.7z"/>
			</g>
			<g>
				<defs>
					<rect id="SVGID_13_" y="306.4" width="4160" height="1664"/>
				</defs>
				<clipPath id="SVGID_14_">
					<use xlink:href="#SVGID_13_"  style="overflow:visible;"/>
				</clipPath>
				<path class="st19" d="M851.4,908c1.5,36.6-21.6,69.5-56.2,80.8l0,0c-2.4,0.9-4.8,1.8-7.2,2.8c-1.7,1.3-1.6,4,0.3,5.2
					c1.6,0.8,3.4,1.2,5.2,1.2c33.8,0.2,64.8-18.6,80.2-48.6c1.7-3.5,1.8-7.5,0.4-11.1c-6.5-10.9-14.1-21-22.7-30.2
					C851.4,908.1,851.4,908,851.4,908"/>
			</g>
			<g>
				<defs>
					<rect id="SVGID_15_" y="306.4" width="4160" height="1664"/>
				</defs>
				<clipPath id="SVGID_16_">
					<use xlink:href="#SVGID_15_"  style="overflow:visible;"/>
				</clipPath>
				<path class="st20" d="M900.8,1092.9c22.5,8.3,44.8,17.1,66.8,26.7c1.2,0.6,2.5,1,3.9,1.2c0.7-0.1,1.3-0.6,1.4-1.3
					c1.6-5.2-12.8-16.5-19.5-23c-9.4-9.2-16.5-25.9-24.8-38.6c-12-18.3-30.6-31.9-51-41.5c-17.2-8.1-48-14.6-57.5,0.7
					c-9.4,15.2-5,28.7,3.6,48.8c3.2,7.3,7.3,16,7.3,16s-9.5,3.9-11.7,9c-1.3,3,0,6.3,0,6.3C845.5,1086.7,874.1,1085.4,900.8,1092.9"
					/>
			</g>
			<g>
				<defs>
					<rect id="SVGID_17_" y="306.4" width="4160" height="1664"/>
				</defs>
				<clipPath id="SVGID_18_">
					<use xlink:href="#SVGID_17_"  style="overflow:visible;"/>
				</clipPath>
				<path class="st21" d="M863.2,1019.3c19.1,5.5,39.9,21.4,50.1,34.1c2.3,2.8,9.3,12.3,13.5,20.3c2.8,4.3,3.9,9.4,3.3,14.4
					c0,0.2,0,0.3,0,0.3l-53.9-11.1c0,0,0,0,0-0.1c-0.7-19.2-11.4-36.5-28.2-45.7c-5.6-2.5-10.8-5.7-15.5-9.5c0,0,0,0,0,0
					c0,0,0,0,0,0c-0.4-1.5,0.4-3,1.8-3.6C843.9,1016.5,853.8,1016.8,863.2,1019.3"/>
			</g>
			<g>
				<defs>
					<rect id="SVGID_19_" y="306.4" width="4160" height="1664"/>
				</defs>
				<clipPath id="SVGID_20_">
					<use xlink:href="#SVGID_19_"  style="overflow:visible;"/>
				</clipPath>
				<path class="st22" d="M1001.6,1289.1c-29.5-2.2-57.8-12.8-81.5-30.6c57.4,15.2,117.6,16.9,175.8,5.1c4.5-0.5,9.2-0.1,12.5,3.2
					c0,0,5.3,9.1,5.3,9.2C1078,1289.3,1039.5,1293.8,1001.6,1289.1"/>
			</g>
			<g>
				<defs>
					<rect id="SVGID_21_" y="306.4" width="4160" height="1664"/>
				</defs>
				<clipPath id="SVGID_22_">
					<use xlink:href="#SVGID_21_"  style="overflow:visible;"/>
				</clipPath>
				<path class="st23" d="M985.4,1321.3c0,0,0.2,0,0.7,0.1c44.6,9.3,90.8,7.8,134.8-4.3c0.3-0.1,0.5-0.1,0.6-0.1
					c-3.4,10.7-11.7,18.9-22.1,22.4c-38.4,9.6-79.1,4.4-113.9-14.5c0,0,0,0,0-0.1C985.1,1323.2,985.4,1321.3,985.4,1321.3"/>
			</g>
		</g>
		<g class="st3">
			<g class="st24">
				<defs>
					<rect id="SVGID_23_" y="306.4" width="4160" height="1664"/>
				</defs>
				<clipPath id="SVGID_24_">
					<use xlink:href="#SVGID_23_"  style="overflow:visible;"/>
				</clipPath>
				<g class="st25">
					<g>
						<g>
							<defs>
								<rect id="SVGID_25_" x="1256.1" y="488.4" width="468.4" height="469.7"/>
							</defs>
							<clipPath id="SVGID_26_">
								<use xlink:href="#SVGID_25_"  style="overflow:visible;"/>
							</clipPath>
							<path class="st26" d="M1620.7,950.1c0.2,7,1.9,7.9,9.8,7.9h83.2c10.1,0,11.1-1.1,10.5-11.2c-11.2-174.8-7.3-237.1,0.3-447.3
								c0.4-10.1-0.7-11.2-10.8-11.2h-158.5c-8.8,0-10.7,1.8-12.1,11.1l-45.6,320.7c-0.7,4.7-10.5,4.7-11.2,0l-49.2-320.7
								c-1.4-9.3-3.4-11-12.2-11h-158.5c-10.1,0-11.1,1.1-10,11.1c14.1,127.6,5.6,295.6,2.7,447.4c-0.2,10.1,0.9,11.2,11,11.2h83.2
								c9,0,10-1.1,9.9-10.8l0-1.9l-0.3-322.6l13.2,0c0.5,1.5,1.1,4.2,2.2,10.9l52.9,313.8c1.5,8.9,3.7,10.7,13,10.7h95.7
								c8,0,10.7-1.3,12.3-7.4c0-0.1,0.4-2.5,1.2-6.9l55.8-320.6c0-0.1,0-0.1,0.1-0.2c0.5-2,12-0.6,13-0.4L1620.7,950.1z"/>
						</g>
					</g>
				</g>
			</g>
			<g class="st24">
				<defs>
					<rect id="SVGID_27_" y="306.4" width="4160" height="1664"/>
				</defs>
				<clipPath id="SVGID_28_">
					<use xlink:href="#SVGID_27_"  style="overflow:visible;"/>
				</clipPath>
				<path class="st27" d="M1555.2,473.9c-4,0-12.2,0-18.6,5.9c-5.3,4.9-6.9,11.4-7.8,17.6c0,0-26.1,183.3-37.2,261.8
					c-12-78.4-40.2-262-40.2-262c-1-6.2-2.6-12.7-7.9-17.5c-5.6-5.1-12.5-5.8-18.6-5.8h-158.5c-5.6,0-14,0-19.9,6.6
					c-5.9,6.6-5,15-4.4,20.5c11.3,101.8,8,230.8,4.7,355.5c-0.8,29.7-1.6,60.5-2.1,90c-0.1,5.4-0.3,13.6,5.8,19.8s14.2,6.1,19.6,6.1
					h83.2c4.7,0,12.6,0,18.5-5.9c5.3-5.4,5.8-12.4,5.8-17.7c0-0.6,0-1.2,0-1.8c0,0,0-1.7,0-1.8c0-0.1-0.1-135.2-0.2-229.4
					c14.9,88.8,39.4,233.9,39.4,233.9c1,5.9,2.8,12.6,8.6,17.4c5.7,4.7,12.3,5.3,18.6,5.3h95.7c5.9,0,21.5,0,26.3-18.1
					c0.2-0.7,0.2-0.7,1.5-8.1c0,0,23.4-134.5,39.7-228.2c-0.4,95.9-1,232.3-1,232.3l0,0.3c0.1,3.3,0.4,12.1,7.8,17.6
					c5.2,3.9,11,4.3,16.5,4.3h83.2c5.5,0,13.8,0,19.8-6.4c6-6.4,5.4-14.7,5.1-20.2c-10.2-159.5-7.8-224-1.5-396.3l1.8-49.6
					c0.2-5.5,0.5-13.7-5.5-19.9s-14.3-6.2-19.7-6.2L1555.2,473.9L1555.2,473.9z M1709.9,502.8c-0.4,11.6-1.7,45.8-1.7,45.8
					c-3.3,88.9-5.5,149.2-5.5,208.7c0,55.4,1.9,110.1,6.7,186.3h-74.4c0.1-12.7,1.5-332.6,1.5-332.6l-11.4-2.5
					c-1.8-0.4-5.9-0.8-9.2-1c-2.6-0.1-4.7,0-6.6,0.2c-10.7,1.3-13.7,9.1-14.3,11.5c0,0-0.2,0.9-0.2,0.9l-0.1,0.6l-55.8,320.6
					c0,0-0.2,1.1-0.4,2.3h-93.6c-0.5-2.7-52.6-312.4-52.6-312.4c-1.3-7.6-1.9-10.7-2.8-13.4l-3.5-9.4l-37.7-0.1
					c0,0,0.3,332,0.3,335.4h-75.1c0.6-28.4,1.3-57.8,2-86.3c1.5-59.4,3.1-119.8,3.1-177.9c0-62.9-1.8-123.1-7.5-176.7h151.7
					c0.4,2.4,49,319.5,49,319.5c1.4,9.3,9.7,15.8,20,15.8c10.3-0.1,18.4-6.6,19.8-15.9c0,0,45.1-316.7,45.4-319.3L1709.9,502.8
					L1709.9,502.8z"/>
			</g>
			<g class="st24">
				<defs>
					<rect id="SVGID_29_" y="306.4" width="4160" height="1664"/>
				</defs>
				<clipPath id="SVGID_30_">
					<use xlink:href="#SVGID_29_"  style="overflow:visible;"/>
				</clipPath>
				<g class="st28">
					<g>
						<g>
							<defs>
								<rect id="SVGID_31_" x="2519.3" y="492.1" width="323.2" height="465.9"/>
							</defs>
							<clipPath id="SVGID_32_">
								<use xlink:href="#SVGID_31_"  style="overflow:visible;"/>
							</clipPath>
							<path class="st29" d="M2715.2,958H2832c10.1,0,11.1-1.1,10.3-11.2c-10.5-130.9-10.9-313.3,0-443.6c0.8-10-0.2-11.1-10.3-11.1
								h-85.7c-10.1,0-11.1,1.1-10.4,11.2c5.4,80.5,15.7,229.2,14.7,257.7l-16,12.5c-0.1-0.1-0.2-0.3-0.3-0.4
								c-0.9-1.2-1.3-2.4-3.9-12.2l-69.4-258.4c-2.2-8.2-4.9-10.4-13.1-10.4H2530c-10.1,0-11.1,1.1-10.6,11.2
								c9.6,194.9,8.9,240.5-0.1,443.6c-0.4,10.1,0.6,11.2,10.7,11.2h85.7c10.1,0,11.1-1.1,10.7-11.2c-2.1-53.8-4.8-130.3-8.1-181.9
								c-1.7-27.9-4.6-55.7-8.9-83.3l13.2-9c0.1,0.2,0.2,0.4,0.3,0.7c27.6,90.7,53.6,182,77.9,273.6c0,0.1,0,0.1,0.1,0.2
								C2703.7,956.9,2705.1,958,2715.2,958"/>
						</g>
					</g>
				</g>
			</g>
			<g class="st24">
				<defs>
					<rect id="SVGID_33_" y="306.4" width="4160" height="1664"/>
				</defs>
				<clipPath id="SVGID_34_">
					<use xlink:href="#SVGID_33_"  style="overflow:visible;"/>
				</clipPath>
				<path class="st30" d="M2746.2,477.6c-5.5,0-13.8,0-19.8,6.4c-4.4,4.7-5.3,10.5-5.3,15.4c0,1.8,0.1,3.4,0.2,4.8l1.8,26.1
					c4.1,60.3,9.6,143.3,11.9,192.7c-13.8-51.4-60.3-224.3-60.3-224.3c-3.9-14.6-12.3-21.1-27-21.1H2530c-5.5,0-13.7,0-19.7,6.3
					s-5.6,14.6-5.3,20c9.5,193.9,8.8,240.5-0.1,442.3c-0.2,5.5-0.6,13.7,5.4,20s14.3,6.3,19.7,6.3h85.7c5.5,0,13.7,0,19.7-6.3
					c4.8-5,5.6-11.2,5.6-16.3c0-1.3-0.1-2.5-0.1-3.6l-1.3-33.1c-1.9-50.3-4.1-107.2-6.8-149.1c-0.2-3.1-0.4-6.1-0.6-9.2
					c19.1,65.1,37.4,130.7,54.7,195.9l0.1,0.3c1.7,6.3,3.8,12.3,9.5,16.7s12.1,4.7,18.6,4.7H2832c5.5,0,13.9,0,19.8-6.5
					c6-6.5,5.3-14.8,4.9-20.3c-10.6-132.8-10.6-314.3,0-441.3c0.5-5.5,1.2-13.8-4.8-20.3s-14.3-6.5-19.9-6.5L2746.2,477.6
					L2746.2,477.6z M2827.5,506.5c-5.1,63.3-7.7,139.3-7.7,216.1c0,77,2.6,154.8,7.7,221h-112.4c-0.1,0-0.1,0-0.2,0
					c0-0.1-0.1-0.3-0.1-0.3c-24.3-91.4-50.5-183.6-78-274l-0.2-0.8l-7.6-17.6l-14.4,10l-20.7,14.1l1.4,9c4.1,27.1,7.1,54.6,8.8,82
					c2.6,41.6,4.8,98.4,6.7,148.5c0,0,0.9,23.3,1.1,29.3h-78c4.4-101.3,6.8-163.4,6.8-225.4c0-59.3-2.2-118.5-6.7-211.7H2647
					c0.2,0.6,69.4,258.1,69.4,258.1c2.9,10.8,3.6,13.3,6.1,16.8l9.4,12.7l11.5-9.3l21.3-16.6l0.2-6.7c0.1-1.5,0.1-3.2,0.1-5.2
					c0-34.3-7.5-145.5-13-227.9c0,0-1.1-15.8-1.5-21.8L2827.5,506.5L2827.5,506.5z M2722.4,781.4L2722.4,781.4L2722.4,781.4"/>
			</g>
			<g class="st24">
				<defs>
					<rect id="SVGID_35_" y="306.4" width="4160" height="1664"/>
				</defs>
				<clipPath id="SVGID_36_">
					<use xlink:href="#SVGID_35_"  style="overflow:visible;"/>
				</clipPath>
				<path class="st31" d="M1769.6,648.4c0.1-34.2,8.7-83.7,21.1-107.5c29.6-57.1,117.6-60.7,194-52.6
					c106.4,11.4,116.3,67.2,120.4,182.6c2.2,60,11.5,182.5-28,238.6c-50.3,71.4-218,78-272.1,7.5
					C1759.1,857.2,1769.4,717.1,1769.6,648.4 M1978.4,627.4c-0.4-14.6-8.1-45.9-16.8-57c-15.5-19.8-38.3-12.2-52.2,7.5
					c-28,39.5-18.2,180.9-16.8,200.2c1.6,22.2,6.7,79,20.5,98c19.6,26.9,45.2,15.6,55.9-14.9
					C1986.3,812.1,1978.9,647.2,1978.4,627.4"/>
			</g>
			<g class="st24">
				<defs>
					<rect id="SVGID_37_" y="306.4" width="4160" height="1664"/>
				</defs>
				<clipPath id="SVGID_38_">
					<use xlink:href="#SVGID_37_"  style="overflow:visible;"/>
				</clipPath>
				<path class="st32" d="M1867.4,476c-43.8,8.7-73.9,28.3-89.5,58.3c-14.1,27.1-22.6,79.3-22.7,114.1c0,9.2-0.3,20-0.5,31.3
					c-0.8,37.4-1.7,84,2.6,128.4c5.2,54.1,17.1,92.6,36.3,117.7c14.3,18.6,36.3,33.5,63.7,43c24.6,8.6,53.2,12.8,82.6,12.2
					c30.3-0.6,59.8-6.3,85.2-16.3c28-11.1,50.1-27.3,63.9-46.8c17.4-24.7,27.6-61.6,31.4-112.8c3.1-41.7,1.2-85.2-0.1-116.9
					l-0.7-17.6c-2-54.8-5.1-102.8-23.6-136.7c-9.7-17.8-23.2-31.2-41.2-41c-17.7-9.6-40.1-15.7-68.5-18.8
					C1939.3,469,1899.3,469.6,1867.4,476 M1816.5,908.2c-15.6-20.3-25.8-54.9-30.5-102.8c-4.1-42.7-3.2-88.4-2.4-125.1
					c0.2-11.5,0.5-22.4,0.5-31.8c0.1-34.6,9-80.8,19.5-100.9c5.9-11.3,14.6-20.4,26.7-27.8c11.4-6.9,25.8-12.1,42.7-15.5
					c29-5.8,66.1-6.3,110.1-1.6c46.8,5,73,18.4,87.4,44.9c14.1,25.8,17.9,63.4,20.1,123.9l0.7,17.8c1.3,31,3.1,73.6,0.2,113.6
					c-3.4,45.3-12.2,78.4-26.2,98.3c-10.5,14.9-28.1,27.6-50.9,36.6c-22.3,8.8-48.3,13.8-75.1,14.3
					C1885.2,953.3,1838.1,936.4,1816.5,908.2"/>
			</g>
			<g class="st24">
				<defs>
					<rect id="SVGID_39_" y="306.4" width="4160" height="1664"/>
				</defs>
				<clipPath id="SVGID_40_">
					<use xlink:href="#SVGID_39_"  style="overflow:visible;"/>
				</clipPath>
				<path class="st33" d="M1939.2,544.3c-15.3,0.4-30.5,9.5-41.6,25.2c-13.7,19.3-20.9,57.2-22.1,115.8c-0.8,40.8,1.6,79.3,2.7,93.9
					c1.4,19.3,3.4,36.6,5.9,51.5c4.3,26.2,10,43.8,17.4,53.9c15.3,21.1,32.5,22,41.3,20.7c17.2-2.5,32.1-17.2,39.9-39.3
					c8.1-22.9,12.1-70.2,12.1-140.9c0-26.8-0.6-57.1-1.8-90.6l-0.2-7.4c-0.5-16.6-8.6-51.1-19.8-65.5
					C1964.1,550.1,1952.1,544,1939.2,544.3 M1924.8,867.5c-2.9-4-12.7-22.2-17.8-90.5c-5.7-77-3.5-165.8,14.2-190.8
					c5.6-7.9,12.7-12.8,18.7-13c1.4,0,5.5-0.1,10.3,6c6.1,7.8,13.4,35.6,13.7,48.5v0v0l0.3,7.6c5.1,147.5-1.9,201.5-8.8,220.9
					c-4.6,13-11.8,19.6-16.8,20.4C1933,877.5,1927.6,871.3,1924.8,867.5"/>
			</g>
			<g class="st24">
				<defs>
					<rect id="SVGID_41_" y="306.4" width="4160" height="1664"/>
				</defs>
				<clipPath id="SVGID_42_">
					<use xlink:href="#SVGID_41_"  style="overflow:visible;"/>
				</clipPath>
				<path class="st34" d="M2140.6,648.4c0.1-34.2,8.7-83.7,21.1-107.5c29.6-57.1,117.6-60.7,194-52.6
					c106.4,11.4,116.3,67.2,120.4,182.6c2.1,60,11.5,182.5-28,238.6c-50.3,71.4-218,78-272.1,7.5
					C2130.1,857.2,2140.4,717.1,2140.6,648.4 M2349.3,627.4c-0.4-14.6-8.1-45.9-16.8-57c-15.5-19.8-38.3-12.2-52.2,7.5
					c-28,39.5-18.2,180.9-16.8,200.2c1.6,22.2,6.7,79,20.5,98c19.6,26.9,45.2,15.6,55.9-14.9
					C2357.3,812.1,2349.9,647.2,2349.3,627.4"/>
			</g>
			<g class="st24">
				<defs>
					<rect id="SVGID_43_" y="306.4" width="4160" height="1664"/>
				</defs>
				<clipPath id="SVGID_44_">
					<use xlink:href="#SVGID_43_"  style="overflow:visible;"/>
				</clipPath>
				<path class="st35" d="M2238.3,476c-43.8,8.7-73.9,28.3-89.5,58.3c-14.1,27.1-22.6,79.3-22.7,114.1c0,9.2-0.3,20-0.5,31.3
					c-0.8,37.4-1.7,84,2.6,128.4c5.2,54.1,17.1,92.6,36.3,117.7c14.3,18.6,36.3,33.5,63.7,43c24.6,8.6,53.2,12.8,82.6,12.2
					c30.3-0.6,59.8-6.3,85.2-16.3c28-11.1,50.1-27.3,63.9-46.8c17.4-24.7,27.6-61.6,31.4-112.8c3.1-41.7,1.2-85.2-0.1-116.9
					l-0.7-17.6c-2-54.8-5.1-102.8-23.6-136.7c-9.7-17.8-23.2-31.2-41.2-41c-17.7-9.6-40.1-15.7-68.5-18.8
					C2310.2,469,2270.2,469.6,2238.3,476 M2187.5,908.2c-15.6-20.3-25.8-54.9-30.5-102.8c-4.1-42.7-3.2-88.4-2.4-125.1
					c0.2-11.5,0.5-22.4,0.5-31.8c0.1-34.6,9-80.8,19.5-100.9c5.9-11.3,14.6-20.4,26.7-27.8c11.4-6.9,25.8-12.1,42.7-15.5
					c29-5.8,66.1-6.3,110.1-1.6c46.8,5,73,18.4,87.4,44.9c14.1,25.8,17.9,63.4,20.1,123.9l0.7,17.8c1.3,31,3.1,73.6,0.2,113.6
					c-3.4,45.3-12.2,78.4-26.2,98.3c-10.5,14.9-28.1,27.6-50.9,36.6c-22.3,8.8-48.3,13.8-75.1,14.3
					C2256.1,953.3,2209.1,936.4,2187.5,908.2"/>
			</g>
			<g class="st24">
				<defs>
					<rect id="SVGID_45_" y="306.4" width="4160" height="1664"/>
				</defs>
				<clipPath id="SVGID_46_">
					<use xlink:href="#SVGID_45_"  style="overflow:visible;"/>
				</clipPath>
				<path class="st36" d="M2310.2,544.3c-15.4,0.4-30.5,9.5-41.6,25.2c-13.7,19.3-20.9,57.2-22.1,115.8c-0.8,40.8,1.6,79.3,2.7,93.9
					c4,54.3,11.8,89.7,23.2,105.4c15.3,21.1,32.5,22,41.3,20.7c17.2-2.5,32.1-17.2,39.9-39.3c11.1-31.6,14.6-109.5,10.4-231.5
					l-0.2-7.4c-0.5-16.6-8.6-51.1-19.8-65.5C2335.1,550.1,2323.1,544,2310.2,544.3 M2295.8,867.5c-2.9-4-12.7-22.2-17.8-90.5
					c-5.7-77-3.6-165.8,14.1-190.8c5.6-7.9,12.7-12.8,18.7-13c1.4,0,5.5-0.1,10.4,6c6.1,7.8,13.4,35.6,13.7,48.5v0v0l0.3,7.6
					c5.1,147.5-1.9,201.5-8.8,220.9c-4.6,13-11.8,19.6-16.8,20.4C2304,877.5,2298.5,871.3,2295.8,867.5"/>
			</g>
			<g class="st24">
				<defs>
					<rect id="SVGID_47_" y="306.4" width="4160" height="1664"/>
				</defs>
				<clipPath id="SVGID_48_">
					<use xlink:href="#SVGID_47_"  style="overflow:visible;"/>
				</clipPath>
				<g class="st37">
					<g>
						<g>
							<defs>
								<rect id="SVGID_49_" x="1248.1" y="1178.2" width="186" height="454.7"/>
							</defs>
							<clipPath id="SVGID_50_">
								<use xlink:href="#SVGID_49_"  style="overflow:visible;"/>
							</clipPath>
							<path class="st38" d="M1363.3,1633h61.2c8.7,0,9.7-1.1,9.6-11.2l-3.5-432.4c-0.1-10-1.3-11.2-11.3-11.2h-33.6
								c-10.1,0-11.2,1.1-10.9,10.7l6.9,250.2c0.1,2.4,0.1,4.3,0.1,5.8l-9.8,4.1c-5.7-16.2-28.5-176.2-40.6-259.8
								c-1.4-10-2.7-11.1-12.8-11.1H1259c-10.1,0-11.1,1.1-10.4,11.2c9.4,137.6,3.9,273.3-0.5,432.4c-0.3,10.1,0.8,11.2,10.9,11.2
								h43c8.3,0,9.2-1.1,8.8-10.7l-10.3-250.2c-0.1-3.3-0.2-5.7-0.2-7.3l9.1-3.9c0,0,0,0,0,0c0.1,0.1,0.3,0.3,0.4,0.7
								c17.7,84.9,32.2,170.5,43.5,256.5c0.2,2.3,0.2,4.6-0.1,6.9C1352.3,1632.2,1353.3,1633,1363.3,1633"/>
						</g>
					</g>
				</g>
			</g>
			<g class="st24">
				<defs>
					<rect id="SVGID_51_" y="306.4" width="4160" height="1664"/>
				</defs>
				<clipPath id="SVGID_52_">
					<use xlink:href="#SVGID_51_"  style="overflow:visible;"/>
				</clipPath>
				<path class="st39" d="M1385.7,1163.8c-5.5,0-13.7,0-19.7,6.2c-5,5.1-5.7,11.5-5.7,16.6c0,1,0,1.9,0.1,2.8
					c0,0,1.7,60.7,3.3,121.4c-5.4-36.4-10.7-73-14.5-99.1l-3.5-24.4c-0.7-5.1-1.9-12.8-8-18.1c-6.2-5.3-13.9-5.3-19.1-5.3H1259
					c-5.5,0-13.8,0-19.8,6.4s-5.4,14.7-5,20.2c8.4,122.2,4.9,242.1,0.9,380.8l-1.4,50.2c-0.2,5.4-0.4,13.6,5.6,19.8
					s14.2,6.2,19.7,6.2h43c4.5,0,12.1,0,17.9-6c4.7-4.8,5.4-10.8,5.4-15.9c0-1.3-0.1-2.6-0.1-3.8c0,0-2.6-64.1-5.3-128.2
					c7.1,41.9,13.4,84,18.9,125.9c0,0.6,0.1,1.2,0.1,1.7c0,0.8,0,1.6-0.1,2.3c-0.1,1.2-0.3,2.8-0.3,4.6c0,3.8,0.8,8.7,4.6,12.9
					c5.8,6.5,13.9,6.5,20.4,6.5h61.2c4.6,0,12.3,0,18.2-5.9c6-6,5.9-14,5.9-19.8l-3.5-432.4c0-5.4-0.1-13.5-6.2-19.5
					c-6.1-6-14.2-6-19.5-6L1385.7,1163.8L1385.7,1163.8z M1416.1,1192.7c0.1,6.2,3.4,419.3,3.5,425.9h-52c0-0.5,0-0.9,0-1.3l0-0.5
					l-0.1-0.5c-11.3-86-26-172.7-43.7-257.6l-0.3-1.5l-0.6-1.4c-1.1-2.4-2.5-4.4-4.4-5.9l-6.8-5.6l-8.1,3.4l-17.9,7.6l0.1,9.6
					c0,1.9,0.1,4.4,0.2,7.9c0,0,9.8,237.5,10.1,245.9h-33.5c0.3-11.5,1.3-46.5,1.3-46.5c2.2-76.4,4.2-147.1,4.2-215.7
					c0-55.3-1.3-109.2-5-163.7h54.1c0.7,5,3.3,23.1,3.3,23.1c17.6,121.5,32.5,223.2,37.8,238.1l5.1,14.5l33-13.9l-0.3-15.7
					c0,0-6.5-238.1-6.7-246.1L1416.1,1192.7L1416.1,1192.7z"/>
			</g>
			<g class="st24">
				<defs>
					<rect id="SVGID_53_" y="306.4" width="4160" height="1664"/>
				</defs>
				<clipPath id="SVGID_54_">
					<use xlink:href="#SVGID_53_"  style="overflow:visible;"/>
				</clipPath>
				<g class="st40">
					<g>
						<g>
							<defs>
								<rect id="SVGID_55_" x="1464.2" y="1178.2" width="182.3" height="466.8"/>
							</defs>
							<clipPath id="SVGID_56_">
								<use xlink:href="#SVGID_55_"  style="overflow:visible;"/>
							</clipPath>
							<path class="st41" d="M1643,1528.6l3.5-339.6c0.1-9.8-1-10.8-11.1-10.8H1587c-10.1,0-11.2,1.1-11.1,10.8l3.5,317.3
								c0.1,10.1,0,11.8-1,17.6c-3.5,19.2-18.1,28.1-29.9,23.3c-5.1-2-12.3-11.2-15.3-24.4c-1.8-8.1-2.1-10.2-2.1-20.2V1189
								c0-9.7-1.1-10.8-11.2-10.8h-44.7c-10.1,0-11.2,1.1-11,10.8l7,356.3c0.2,10.1,0.4,12.3,1.9,22.3c7.4,49,31.1,71.3,72.9,76.5
								c57.2,7.1,87.8-30,95.6-93.2C1642.8,1540.9,1642.9,1538.7,1643,1528.6"/>
						</g>
					</g>
				</g>
			</g>
			<g class="st24">
				<defs>
					<rect id="SVGID_57_" y="306.4" width="4160" height="1664"/>
				</defs>
				<clipPath id="SVGID_58_">
					<use xlink:href="#SVGID_57_"  style="overflow:visible;"/>
				</clipPath>
				<path class="st42" d="M1587,1163.8c-5.4,0-13.6,0-19.7,6.1c-6,6.1-5.9,14-5.8,19.3l3.5,317.3c0.1,9.8,0,10.5-0.8,14.8
					c-1,5.7-3.6,10.2-6.9,12.1c-1.1,0.6-2.1,0.8-3,0.5c-1.4-1.3-5.1-5.9-7-14.3c-1.6-6.8-1.7-7.7-1.7-17V1189c0-5.3,0-13.4-6.2-19.4
					c-6-5.8-14.1-5.8-19.4-5.8h-44.7c-5.4,0-13.7,0-19.7,6.1c-6,6.1-5.8,14.1-5.7,19.4l7,356.3c0.2,10.7,0.5,13.6,2.1,24.2
					c4.2,27.4,13.2,47.9,27.5,62.6c14.1,14.4,33,23,57.8,26.1c27.7,3.4,51.2-2.2,69.8-16.7c22.7-17.7,36.8-47.7,41.9-89.2
					c1.3-10.6,1.5-13.3,1.6-23.9l0,0l3.5-339.6c0.1-5.3,0.1-13.3-5.9-19.3c-6-6.1-14.2-6.1-19.7-6.1L1587,1163.8L1587,1163.8z
					 M1632,1192.7c-0.1,7.3-3.5,335.8-3.5,335.8c-0.1,9.5-0.2,11.2-1.4,20.7c-4.1,33.1-14.8,57.2-31,69.9
					c-12.3,9.6-28.6,13.2-48.4,10.8c-36.6-4.6-54.1-23.2-60.4-64.3c-1.4-9.4-1.6-10.9-1.7-20.4c0,0-6.8-344.8-6.9-352.4h37.9v309.9
					c0,11.1,0.3,14.2,2.4,23.4c3.7,16.4,13.4,30.4,24,34.6c9.1,3.6,19.3,2.9,28.2-2c11-6.1,18.7-17.8,21.3-32.2
					c1-5.8,1.3-8.7,1.3-15.2c0-1.5,0-3.2,0-5.1c0,0-3.4-306.1-3.4-313.5L1632,1192.7L1632,1192.7z"/>
			</g>
			<g class="st24">
				<defs>
					<rect id="SVGID_59_" y="306.4" width="4160" height="1664"/>
				</defs>
				<clipPath id="SVGID_60_">
					<use xlink:href="#SVGID_59_"  style="overflow:visible;"/>
				</clipPath>
				<g class="st43">
					<g>
						<g>
							<defs>
								<rect id="SVGID_61_" x="1880.8" y="1170.9" width="169.3" height="473.3"/>
							</defs>
							<clipPath id="SVGID_62_">
								<use xlink:href="#SVGID_61_"  style="overflow:visible;"/>
							</clipPath>
							<path class="st44" d="M1941.1,1509.5v-14.6c0-6.6-1.1-7.3-11.2-7.3h-33.6c-10.1,0-11.2,1-11.2,10.3v114
								c0,10.1,1,11.7,10.2,15.9c15.8,7.4,56.9,16.6,66.2,16.4c50.1-1.3,71.7-30.5,82-78.3c10.7-49.1,10.7-126.3-18.6-164
								c-16-20.6-44-39.1-61.5-59.6c-19-22.4-30.6-49.9-16.8-74.6c6.9-12.3,22-17.9,29.8-7.5c6.5,8.6,12,31,10.4,43.3
								c-1,8,0,8.9,10.1,8.9h32.2c7.9,0,8.8-1,8.8-10.2V1203c0-10.1-1-11.7-9.8-16.6c-30.5-16.8-67-19.7-90.8-10.1
								c-51.7,21-59.2,89.4-55.9,151.7c2.9,54.2,11.3,84.4,51.5,117.6c32.5,26.8,65,49.4,52.9,92.9c-3.6,12.8-14.2,28.1-31.1,19.8
								c-6.2-3.1-11.9-17.9-12.9-28.9C1941.2,1521.3,1941.1,1519.3,1941.1,1509.5"/>
						</g>
					</g>
				</g>
			</g>
			<g class="st24">
				<defs>
					<rect id="SVGID_63_" y="306.4" width="4160" height="1664"/>
				</defs>
				<clipPath id="SVGID_64_">
					<use xlink:href="#SVGID_63_"  style="overflow:visible;"/>
				</clipPath>
				<path class="st45" d="M1932,1163c-27.8,11.3-46.9,34.7-57,69.7c-7.4,25.6-9.9,57-7.9,96.1c1.3,23.8,3.7,48.8,12.8,71.3
					c8.5,20.9,22.4,38.9,43.9,56.6l6.8,5.6c32,26.1,49.7,42.4,41.3,72.3c-1.7,6.1-4.9,10.4-7.1,11.4c-0.3,0.1-1,0.4-2.7-0.3
					c-1.9-2.4-5.2-10.2-5.8-17.5c-0.7-7.8-0.7-9.4-0.7-18.9v-14.6c0-3.5,0-12.8-8.4-18.2c-5-3.3-10.6-3.5-17.3-3.5h-33.6
					c-5.6,0-13.2,0-19.1,5.5c-6.5,6-6.5,14.3-6.5,19.2v114c0,6.2,0.3,12.2,3.9,17.9c3.6,5.7,9,8.5,14.6,11.1
					c17.2,8,60.5,18,72.7,17.7c68.8-1.7,87.6-52,95.8-89.7c4.5-20.7,6.9-44.2,6.9-67c0-8-0.3-15.8-0.9-23.5
					c-2-25.5-8.3-61.1-27.3-85.5c-9.3-11.9-21.8-22.8-33.9-33.4c-10.5-9.2-20.4-17.8-28-26.7c-8.9-10.5-15.1-21.2-17.8-30.9
					c-1.1-3.9-1.6-7.6-1.6-11.2c0-5.7,1.4-11,4.2-16.1c1.9-3.4,4.6-5,5.9-5.4c3.5,5.1,7.5,20,7.5,29.4c0,1.1-0.1,2.1-0.2,3
					c-0.2,1.5-0.4,3.4-0.4,5.5c0,4,0.8,8.9,4.6,13.1c5.8,6.6,14.2,6.6,20.3,6.6h32.2c4.4,0,12.5,0,18.3-6.6
					c4.9-5.7,4.9-12.8,4.9-17.9V1203c0-6.1-0.3-12-3.6-17.6c-3.3-5.6-8.4-8.7-13.7-11.7c-16.3-9-34.8-14.8-53.4-16.7
					C1963.3,1155.2,1946.1,1157.2,1932,1163 M1976.6,1572.5c10.6-4.7,19.2-16,23.1-30c6.3-22.6,3.2-42.7-9.5-61.6
					c-10.4-15.5-25.5-27.8-41.4-40.9l-6.7-5.5c-36.6-30.2-43.6-56.3-46.3-107.2c-1.9-35.8,0.3-64.2,6.8-86.6
					c7.6-26.4,20.7-43.1,40.1-51c20.8-8.4,53.1-4.6,78.4,9.3c1,0.6,1.8,1,2.3,1.3c0,0.6,0,1.5,0,2.6v94.9h-21.9
					c-0.2-15.8-6-36.4-13.6-46.4c-5.8-7.7-14.7-11.8-24.2-11.1c-11.8,0.8-23.2,8.6-29.7,20.2c-8.2,14.7-10,31.7-5.2,49
					c3.9,13.9,11.8,28.1,23.6,41.9c9,10.6,20.2,20.3,31,29.8c11.6,10.1,22.5,19.7,30.1,29.4c11.6,14.9,18.9,39.1,21.3,70
					c2.1,26.8,0.1,56.8-5.4,82.1c-5,22.9-12.3,39.1-22.4,49.6c-10.7,11.1-25.7,16.8-45.9,17.3c-7,0.1-45.9-8.6-59.8-15
					c-0.7-0.3-1.3-0.6-1.8-0.9c0-0.5,0-1.2,0-1.9V1502h27v7.4c0,10.2,0.1,12.6,0.8,21.3c0.7,8.8,5.9,33.3,20.9,40.6
					C1960.5,1577.3,1970.4,1575.3,1976.6,1572.5"/>
			</g>
			<g class="st24">
				<defs>
					<rect id="SVGID_65_" y="306.4" width="4160" height="1664"/>
				</defs>
				<clipPath id="SVGID_66_">
					<use xlink:href="#SVGID_65_"  style="overflow:visible;"/>
				</clipPath>
				<g class="st46">
					<g>
						<g>
							<defs>
								<rect id="SVGID_67_" x="2074.3" y="1178.2" width="139" height="454.7"/>
							</defs>
							<clipPath id="SVGID_68_">
								<use xlink:href="#SVGID_67_"  style="overflow:visible;"/>
							</clipPath>
							<path class="st47" d="M2213.2,1263.9v-75.8c0-8.9-1-9.9-10.3-9.9h-116.5c-10.1,0-11.2,1.1-11,11.2
								c2.3,121.4,6.9,333.9,3.5,364.4c-0.1,0.8-0.2,1.7-0.3,2.7c0.9,20.6-0.6,41.3-4.4,61.6c0.1,1.2,0.1,2.5,0.2,3.7
								c0.7,10.1,1.9,11.2,12,11.2h116.5c9.3,0,10.3-1.1,10.3-11.2V1551c0-10.1-1.1-11.2-11.2-11.2h-48.5
								c-10.1,0-11.2-1.1-11.2-11.2v-70.8c0-10.1,1.1-11.2,11.2-11.2h44.7c10.1,0,11.2-1.1,11.2-11.2v-67.1
								c0-10.1-1.1-11.2-11.2-11.2h-44.7c-10.1,0-11.2-1.1-11.2-11.2v-63.4c0-10.1,0.9-11.1,9.4-10.7c0,0,34.8-0.8,58.9,4.6
								C2214,1280.5,2213.2,1274,2213.2,1263.9"/>
						</g>
					</g>
				</g>
			</g>
			<g class="st24">
				<defs>
					<rect id="SVGID_69_" y="306.4" width="4160" height="1664"/>
				</defs>
				<clipPath id="SVGID_70_">
					<use xlink:href="#SVGID_69_"  style="overflow:visible;"/>
				</clipPath>
				<path class="st48" d="M2086.5,1163.8c-5.4,0-13.6,0-19.6,6.1s-5.9,14.3-5.8,19.8l0.9,45.7c2.3,115.8,5.7,290.9,2.7,316.8
					l-0.4,3.7l0,1.2c0.9,19.5-0.5,39.1-4.2,58.3l-0.3,1.8l0.3,5.7c0.4,5.3,0.9,13.2,7,18.9c6.1,5.7,14.1,5.7,19.3,5.7h116.5
					c5,0,13.3,0,19.2-6.5c5.5-6,5.5-13.6,5.5-19.1v-70.8c0-5.4,0-13.5-6.1-19.6c-6.1-6.1-14.2-6.1-19.6-6.1h-45.2V1461h41.5
					c5.4,0,13.5,0,19.6-6.1c6.1-6.1,6.1-14.2,6.1-19.6v-67.1c0-5.4,0-13.5-6.1-19.6c-6.1-6.1-14.2-6.1-19.6-6.1h-41.5v-56.4
					c9.4,0,30.8,0.4,47.6,3.6c5.7,3.5,11.2,2,13.1,1.3c3.5-1.3,9.5-5,10.2-15.2c0.1-2.1,0.1-4.4,0.1-7.2l-0.1-4.9v-75.8
					c0-4.8,0-12.8-6.1-18.7c-5.9-5.7-13.5-5.7-18.6-5.7L2086.5,1163.8L2086.5,1163.8z M2198.8,1192.7v67.1c-21-2.7-43-2.4-46.8-2.3
					c-4.6-0.2-11.9-0.4-17.8,5.2c-6.2,5.9-6.2,14.1-6.2,20v63.4c0,5.4,0,13.5,6.1,19.6c6.1,6.1,14.2,6.1,19.6,6.1h41.5v60.6h-41.5
					c-5.4,0-13.5,0-19.6,6.1c-6.1,6.1-6.1,14.2-6.1,19.6v70.8c0,5.4,0,13.5,6.1,19.6c6.1,6.1,14.2,6.1,19.6,6.1h45.2v64.3h-109.9
					c3-16.6,4.5-33.4,4.5-50.3c0-3.7-0.1-7.4-0.2-11.2c0.1-0.8,0.2-1.7,0.2-1.7c0.9-8.3,1.3-27.7,1.3-55.6c0-59.1-1.8-156.2-3.9-265
					c0,0-0.7-36.1-0.8-42.1L2198.8,1192.7L2198.8,1192.7z"/>
			</g>
			<g class="st24">
				<defs>
					<rect id="SVGID_71_" y="306.4" width="4160" height="1664"/>
				</defs>
				<clipPath id="SVGID_72_">
					<use xlink:href="#SVGID_71_"  style="overflow:visible;"/>
				</clipPath>
				<g class="st49">
					<g>
						<g>
							<defs>
								<rect id="SVGID_73_" x="2444.7" y="1178.2" width="78.3" height="454.7"/>
							</defs>
							<clipPath id="SVGID_74_">
								<use xlink:href="#SVGID_73_"  style="overflow:visible;"/>
							</clipPath>
							<path class="st50" d="M2444.8,1188.8c6.1,144.1,6.1,288.5,0.2,432.6c0,0.1,0,0.3,0,0.4c-0.6,10.1,0.5,11.2,10.6,11.2
								l57.4-0.6c8.6,0,9.4-0.3,9.4-10.3c0,0,0,0,0-0.7c-6.5-145.2-6.3-290.6,0.7-435.8c1.1-7.3-5.3-6.7-12.5-6.7l-54.9-0.7
								C2445.6,1178.2,2444.4,1179.3,2444.8,1188.8"/>
						</g>
					</g>
				</g>
			</g>
			<g class="st24">
				<defs>
					<rect id="SVGID_75_" y="306.4" width="4160" height="1664"/>
				</defs>
				<clipPath id="SVGID_76_">
					<use xlink:href="#SVGID_75_"  style="overflow:visible;"/>
				</clipPath>
				<path class="st51" d="M2455.5,1163.8c-5.4,0-13.7,0-19.7,6.2c-4.8,5-5.6,11.4-5.6,16.3c0,1.1,0,2.2,0.1,3.1v0.1
					c3.1,72.3,4.6,145.1,4.6,218c0,71.3-1.5,142.6-4.4,213.4c0,0.1,0,0.3,0,0.3c-0.1,1.3-0.1,2.8-0.1,4.3c0,5,0.8,10.9,5.4,15.7
					c6,6.3,14.3,6.3,19.8,6.3c0,0,57.4-0.6,57.5-0.6c5.6,0,12.5,0,18.1-5.6c5.2-5.3,5.7-12.2,5.7-17.6c0-0.5,0-1,0-1.5
					c0-0.1,0-1,0-1l0-0.3c-3.1-69.7-4.7-139.9-4.7-210.1c0-74.8,1.8-149.7,5.3-224c0.1-0.9,0.2-1.8,0.2-2.6c0-5.9-2.3-10-4.5-12.5
					c-6.1-7.1-14.9-7.1-21.3-7.1c0,0-1.1,0-1.2,0C2510.3,1164.4,2455.6,1163.8,2455.5,1163.8L2455.5,1163.8z M2463.8,1407.4
					c0-71.7-1.5-143.4-4.4-214.7c6.7,0.1,45.1,0.5,48.7,0.6c-3.3,72.1-5,144.8-5,217.4c0,69.3,1.5,138.5,4.5,207.3
					c-7.8,0.1-41.6,0.4-48.1,0.5C2462.4,1548.4,2463.8,1477.9,2463.8,1407.4"/>
			</g>
			<g class="st24">
				<defs>
					<rect id="SVGID_77_" y="306.4" width="4160" height="1664"/>
				</defs>
				<clipPath id="SVGID_78_">
					<use xlink:href="#SVGID_77_"  style="overflow:visible;"/>
				</clipPath>
				<g class="st52">
					<g>
						<g>
							<defs>
								<rect id="SVGID_79_" x="2547.6" y="1178.2" width="139" height="454.7"/>
							</defs>
							<clipPath id="SVGID_80_">
								<use xlink:href="#SVGID_79_"  style="overflow:visible;"/>
							</clipPath>
							<path class="st53" d="M2686.5,1263.9v-75.8c0-8.9-1-9.9-10.3-9.9h-116.5c-10.1,0-11.2,1.1-11,11.2
								c2.3,121.4,6.9,333.9,3.5,364.4c-0.1,0.8-0.2,1.7-0.3,2.7c0.9,20.6-0.6,41.3-4.4,61.6c0.1,1.2,0.1,2.5,0.2,3.7
								c0.7,10.1,1.9,11.2,12,11.2h116.5c9.3,0,10.3-1.1,10.3-11.2V1551c0-10.1-1.1-11.2-11.2-11.2h-48.5
								c-10.1,0-11.2-1.1-11.2-11.2v-70.8c0-10.1,1.1-11.2,11.2-11.2h44.7c10.1,0,11.2-1.1,11.2-11.2v-67.1
								c0-10.1-1.1-11.2-11.2-11.2h-44.7c-10.1,0-11.2-1.1-11.2-11.2v-63.4c0-10.1,0.9-11.1,9.4-10.7c0,0,34.8-0.8,58.9,4.6
								C2687.4,1280.5,2686.5,1274,2686.5,1263.9"/>
						</g>
					</g>
				</g>
			</g>
			<g class="st24">
				<defs>
					<rect id="SVGID_81_" y="306.4" width="4160" height="1664"/>
				</defs>
				<clipPath id="SVGID_82_">
					<use xlink:href="#SVGID_81_"  style="overflow:visible;"/>
				</clipPath>
				<path class="st54" d="M2559.8,1163.8c-5.4,0-13.6,0-19.6,6.1c-6,6.1-5.9,14.3-5.8,19.8l0.9,45.6c2.3,115.8,5.6,290.9,2.7,316.8
					l-0.4,3.7l0,1.2c0.9,19.5-0.5,39.1-4.2,58.3l-0.3,1.8l0.3,5.7c0.4,5.3,0.9,13.2,7,18.9c6.1,5.7,14.1,5.7,19.4,5.7h116.5
					c5,0,13.3,0,19.2-6.5c5.5-6,5.5-13.6,5.5-19.1v-70.8c0-5.4,0-13.5-6.1-19.6c-6.1-6.1-14.2-6.1-19.6-6.1h-45.2V1461h41.5
					c5.4,0,13.5,0,19.6-6.1s6.1-14.2,6.1-19.6v-67.1c0-5.4,0-13.5-6.1-19.6c-6.1-6.1-14.2-6.1-19.6-6.1h-41.5v-56.4
					c9.4,0,30.8,0.4,47.6,3.6c5.7,3.5,11.2,2,13.1,1.3c3.5-1.3,9.5-5,10.2-15.2c0.1-2.1,0.1-4.4,0.1-7.2l-0.1-4.9v-75.8
					c0-4.8,0-12.8-6.1-18.7c-5.9-5.7-13.5-5.7-18.6-5.7L2559.8,1163.8L2559.8,1163.8z M2672.1,1192.7v67.1c-21-2.7-43-2.4-46.8-2.3
					c-4.6-0.2-11.9-0.4-17.8,5.2c-6.2,5.9-6.2,14.1-6.2,20v63.4c0,5.4,0,13.5,6.1,19.6c6.1,6.1,14.2,6.1,19.6,6.1h41.5v60.6h-41.5
					c-5.4,0-13.5,0-19.6,6.1s-6.1,14.2-6.1,19.6v70.8c0,5.4,0,13.5,6.1,19.6c6.1,6.1,14.2,6.1,19.6,6.1h45.2v64.3h-109.9
					c3-16.6,4.5-33.4,4.5-50.3c0-3.7-0.1-7.4-0.2-11.2c0.1-0.8,0.2-1.7,0.2-1.7c0.9-8.3,1.3-27.7,1.3-55.7c0-59.1-1.8-156.2-3.9-265
					c0,0-0.7-36.1-0.8-42.1L2672.1,1192.7L2672.1,1192.7z"/>
			</g>
			<g class="st24">
				<defs>
					<rect id="SVGID_83_" y="306.4" width="4160" height="1664"/>
				</defs>
				<clipPath id="SVGID_84_">
					<use xlink:href="#SVGID_83_"  style="overflow:visible;"/>
				</clipPath>
				<g class="st55">
					<g>
						<g>
							<defs>
								<rect id="SVGID_85_" x="2710" y="1170.9" width="169.3" height="473.3"/>
							</defs>
							<clipPath id="SVGID_86_">
								<use xlink:href="#SVGID_85_"  style="overflow:visible;"/>
							</clipPath>
							<path class="st56" d="M2770.3,1509.5v-14.6c0-6.6-1.1-7.3-11.2-7.3h-33.6c-10.1,0-11.2,1-11.2,10.3v114
								c0,10.1,1,11.7,10.2,15.9c15.9,7.4,56.9,16.6,66.2,16.4c50.1-1.3,71.6-30.5,82-78.3c10.6-49.1,10.7-126.3-18.6-164
								c-16-20.6-44-39.1-61.5-59.6c-19-22.4-30.6-49.9-16.8-74.6c6.9-12.3,22-17.9,29.8-7.5c6.5,8.6,12,31,10.4,43.3
								c-1,8,0,8.9,10.1,8.9h32.2c7.9,0,8.8-1,8.8-10.2V1203c0-10.1-1-11.7-9.8-16.6c-30.5-16.8-67-19.7-90.8-10.1
								c-51.7,21-59.2,89.4-55.9,151.7c2.9,54.2,11.3,84.4,51.5,117.6c32.5,26.8,65,49.4,52.9,92.9c-3.6,12.8-14.2,28.1-31.1,19.8
								c-6.2-3.1-12-17.9-12.9-28.9C2770.4,1521.3,2770.3,1519.3,2770.3,1509.5"/>
						</g>
					</g>
				</g>
			</g>
			<g class="st24">
				<defs>
					<rect id="SVGID_87_" y="306.4" width="4160" height="1664"/>
				</defs>
				<clipPath id="SVGID_88_">
					<use xlink:href="#SVGID_87_"  style="overflow:visible;"/>
				</clipPath>
				<path class="st57" d="M2761.2,1163c-27.8,11.3-46.9,34.7-57,69.7c-7.4,25.6-9.9,57-7.9,96.1c1.3,23.8,3.7,48.8,12.8,71.3
					c8.5,20.9,22.4,38.9,43.9,56.6l6.8,5.6c32,26.1,49.7,42.4,41.4,72.3c-1.7,6.1-4.9,10.4-7.1,11.4c-0.3,0.1-1,0.4-2.7-0.3
					c-1.9-2.4-5.2-10.2-5.8-17.5c-0.7-7.8-0.7-9.4-0.7-18.9v-14.6c0-3.5,0-12.8-8.4-18.2c-5-3.3-10.5-3.5-17.3-3.5h-33.6
					c-5.6,0-13.2,0-19.1,5.5c-6.5,6-6.5,14.3-6.5,19.2v114c0,6.2,0.3,12.2,3.9,17.9c3.6,5.7,9,8.5,14.6,11.1
					c17.2,8,60.5,18,72.7,17.7c68.8-1.7,87.6-52,95.8-89.7c4.5-20.7,6.9-44.2,6.9-67c0-8-0.3-15.8-0.9-23.5
					c-2-25.5-8.3-61.1-27.3-85.5c-9.3-11.9-21.8-22.8-33.9-33.4c-10.5-9.2-20.4-17.8-28-26.7c-8.9-10.5-15.1-21.2-17.8-30.9
					c-1.1-3.9-1.6-7.6-1.6-11.2c0-5.7,1.4-11,4.2-16.1c1.9-3.4,4.6-5,5.9-5.4c3.5,5.1,7.5,20,7.5,29.4c0,1.1-0.1,2.1-0.2,3
					c-0.2,1.5-0.4,3.4-0.4,5.5c0,4,0.9,8.9,4.6,13.1c5.8,6.6,14.2,6.6,20.3,6.6h32.2c4.4,0,12.5,0,18.3-6.6
					c4.9-5.7,4.9-12.8,4.9-17.9V1203c0-6.1-0.3-12-3.6-17.6c-3.3-5.6-8.4-8.7-13.7-11.6c-16.3-9-34.8-14.8-53.4-16.7
					C2792.5,1155.2,2775.3,1157.2,2761.2,1163 M2805.8,1572.5c10.6-4.7,19.2-16,23.1-30c6.3-22.6,3.2-42.7-9.5-61.6
					c-10.4-15.5-25.5-27.8-41.4-40.9l-6.7-5.5c-36.6-30.2-43.6-56.3-46.3-107.2c-1.9-35.8,0.3-64.2,6.8-86.6
					c7.6-26.4,20.7-43.1,40.1-51c20.9-8.4,53.1-4.6,78.4,9.3c1,0.6,1.8,1,2.3,1.3c0,0.6,0,1.5,0,2.6v94.9h-21.9
					c-0.2-15.8-6-36.4-13.6-46.4c-5.8-7.7-14.7-11.8-24.2-11.1c-11.8,0.8-23.2,8.6-29.7,20.2c-8.2,14.7-10,31.7-5.2,49
					c3.9,13.9,11.8,28.1,23.6,41.9c9,10.6,20.2,20.3,31,29.8c11.6,10.1,22.5,19.7,30.1,29.4c11.6,14.9,18.9,39.1,21.3,70
					c2.1,26.8,0.1,56.8-5.4,82.1c-5,22.9-12.3,39.1-22.4,49.6c-10.7,11.1-25.7,16.8-45.9,17.3c-7,0.1-45.9-8.6-59.8-15
					c-0.7-0.3-1.3-0.6-1.8-0.9c0-0.5,0-1.2,0-1.9V1502h27v7.4c0,10.2,0.1,12.6,0.8,21.3c0.7,8.8,5.9,33.3,20.9,40.6
					C2789.7,1577.3,2799.6,1575.3,2805.8,1572.5"/>
			</g>
			<g class="st24">
				<defs>
					<rect id="SVGID_89_" y="306.4" width="4160" height="1664"/>
				</defs>
				<clipPath id="SVGID_90_">
					<use xlink:href="#SVGID_89_"  style="overflow:visible;"/>
				</clipPath>
				<path class="st58" d="M1845.9,1436.3c1.8,9.2,2.1,11.4,2.7,21.4l9.9,164.7c0.6,9.4-0.5,10.5-10.6,10.5h-41
					c-9.8,0-11.2-1.2-11.7-10.4l-6.4-138.8c-0.5-10.1-0.6-11.8-1.7-17.6c-2.5-14.1-8.9-20-19.7-21.1c-5.6-0.4-11.2,0.1-16.5,1.5
					c-3.2,1.3-3.6,4-3.6,11.1v164.7c0,9.5-0.9,10.5-9.4,10.5h-50.2c-10.1,0-11.2-0.7-11.5-6.5c-0.1-1,0-2.1,0.1-3.1
					c2.8-10.2,4.1-20.8,3.9-31.4c0-0.9,0-1.8,0-2.8l-3.5-400.1c-0.1-9.8,0.9-10.9,9.9-10.9h88.2c10.1,0,12,0.1,19.6,0.9
					c9,1,25.8,8.2,31.2,12.1c16.6,12.3,24.5,53.9,26.1,74.2c3.6,45.1,0.8,107.4-47,130.9c-0.6,0.3-1.2,0.6-1.8,0.9l0.2,4.8
					c0.6,0.1,1.3,0.1,2.1,0.2C1830.7,1404.6,1841.4,1414,1845.9,1436.3 M1747.3,1353.4c0,10.1,0.6,11.3,6,11.9
					c18.7,2.1,30-6.7,33.2-15.6c9.5-26.6,11.5-71.9-7.4-86.2c-3.9-2.9-5.3-3.3-13.5-3.3h-12.2c-5.5,0-6.1,1-6.1,10V1353.4z"/>
			</g>
			<g class="st24">
				<defs>
					<rect id="SVGID_91_" y="306.4" width="4160" height="1664"/>
				</defs>
				<clipPath id="SVGID_92_">
					<use xlink:href="#SVGID_91_"  style="overflow:visible;"/>
				</clipPath>
				<path class="st59" d="M1686.5,1163.8c-4.7,0-12.7,0-18.6,5.9c-6,6-5.9,14.1-5.8,19.5l3.5,400.1l0,2.9c0.1,9.3-1,18.5-3.4,27.4
					l-0.3,1.3l-0.1,1.3c-0.2,1.8-0.2,3.4-0.1,5c0.2,3.1,0.6,12.3,9.4,17.3c4.8,2.7,9.9,2.9,16.5,2.9h50.2c4.8,0,12.8,0,18.6-6.5
					c5.2-5.8,5.2-13.1,5.2-18.4v-163c1.5-0.1,3-0.1,4.5,0.1c3.1,0.3,5.1,0.7,6.7,9.2c0.9,4.8,1,5.8,1.5,15.7l6.4,138.8
					c0.2,4.8,0.6,12.9,7.1,18.7c6.1,5.4,13.8,5.4,19,5.4h41c5.5,0,13.9,0,19.9-6.3c4.5-4.7,5.3-10.6,5.3-15.3c0-1.5-0.1-2.9-0.2-4.1
					l-9.9-164.7c-0.6-10.7-1-13.5-3-23.4l0,0c-3.9-19.6-12.5-32.2-27.4-39.2c13.5-12.8,23.2-30.1,28.8-51.7
					c3.9-15,5.8-31.8,5.8-51.1c0-8.6-0.4-17.7-1.2-27.2c-0.5-6.6-5.9-65.4-31.9-84.6c-7.6-5.7-26.8-13.6-38.2-14.9
					c-8.2-0.9-10.6-1-21.2-1L1686.5,1163.8L1686.5,1163.8z M1774.7,1192.7c9.5,0,11.1,0.1,18.1,0.8c6.1,0.7,20.6,6.8,24.2,9.4
					c1.7,1.3,7.6,6.8,13.4,26.5c4,13.5,6.2,28.1,6.9,37.2c2.2,27.7,1,50.2-3.8,68.8c-6.1,23.7-17.6,39.4-35.2,48l-2,1l-8.4,4.2
					l0.4,9.3l0.7,17.3l14.7,1.4c20.3,1.9,25,7.5,28,22.5l0,0c1.7,8.6,1.9,10.1,2.5,19.5c0,0,9.1,150.8,9.6,159.9h-34.2
					c-0.3-6.4-6.3-135.4-6.3-135.4c-0.5-10.1-0.7-12.7-1.9-19.5c-4.5-25-20.2-31.7-32.5-32.9l-0.1,0l-0.1,0
					c-7.2-0.6-14.4,0.1-21.3,1.9l-1,0.3l-0.9,0.4c-12.5,5.2-12.5,17.8-12.5,24.5v160.8h-40.7c1.6-8.2,2.4-16.4,2.4-24.8
					c0-0.7,0-1.3,0-2v0.2l0-2.9c0,0-3.4-389.2-3.5-396.4H1774.7z"/>
			</g>
			<g class="st24">
				<defs>
					<rect id="SVGID_93_" y="306.4" width="4160" height="1664"/>
				</defs>
				<clipPath id="SVGID_94_">
					<use xlink:href="#SVGID_93_"  style="overflow:visible;"/>
				</clipPath>
				<path class="st60" d="M1753.4,1245.8c-3,0-12.2,0-17.4,8.6c-2.9,4.7-3.1,9.8-3.1,15.9v83.2c0,6.4,0.2,11.3,2.5,16
					c4.5,8.9,13.3,9.9,16.3,10.3c26.2,3,43.2-10.4,48.4-25.1c10.6-29.6,14-82.7-12.3-102.6c-7.4-5.6-12.5-6.2-22.2-6.2H1753.4z
					 M1765.5,1274.7c2.1,0,3.5,0,4.4,0.1c0.1,0.1,0.2,0.2,0.4,0.3c3.7,2.8,8,11.5,8.6,27.5c0.1,1.4,0.1,2.8,0.1,4.3
					c0,12.9-2.3,27.1-6.2,38c-0.9,2.4-4.4,5.5-11.1,6.2v-76.3L1765.5,1274.7L1765.5,1274.7z"/>
			</g>
			<g class="st24">
				<defs>
					<rect id="SVGID_95_" y="306.4" width="4160" height="1664"/>
				</defs>
				<clipPath id="SVGID_96_">
					<use xlink:href="#SVGID_95_"  style="overflow:visible;"/>
				</clipPath>
				<path class="st61" d="M2405.8,1436.3c1.8,9.2,2.1,11.4,2.7,21.4l9.9,164.7c0.6,9.4-0.5,10.5-10.6,10.5h-41
					c-9.9,0-11.2-1.2-11.7-10.4l-6.4-138.8c-0.5-10.1-0.6-11.8-1.7-17.6c-2.5-14.1-8.9-20-19.7-21.1c-5.6-0.4-11.1,0.1-16.5,1.5
					c-3.2,1.3-3.6,4-3.6,11.1v164.7c0,9.5-0.9,10.5-9.4,10.5h-50.2c-10.1,0-11.2-0.7-11.5-6.5c-0.1-1,0-2.1,0.1-3.1
					c2.8-10.2,4.1-20.8,3.9-31.4c0-0.9,0-1.8,0-2.8l-3.5-400.1c-0.1-9.8,0.9-10.9,9.9-10.9h88.2c10.1,0,12,0.1,19.6,0.9
					c9,1,25.8,8.2,31.2,12.1c16.6,12.3,24.5,53.9,26.1,74.2c3.6,45.1,0.8,107.4-47,130.9c-0.6,0.3-1.2,0.6-1.8,0.9l0.2,4.8
					c0.6,0.1,1.3,0.1,2.1,0.2C2390.7,1404.6,2401.4,1414,2405.8,1436.3 M2307.2,1353.4c0,10.1,0.6,11.3,6,11.9
					c18.7,2.1,30-6.7,33.2-15.6c9.5-26.6,11.5-71.9-7.4-86.2c-3.9-2.9-5.3-3.3-13.5-3.3h-12.2c-5.5,0-6.1,1-6.1,10V1353.4z"/>
			</g>
			<g class="st24">
				<defs>
					<rect id="SVGID_97_" y="306.4" width="4160" height="1664"/>
				</defs>
				<clipPath id="SVGID_98_">
					<use xlink:href="#SVGID_97_"  style="overflow:visible;"/>
				</clipPath>
				<path class="st62" d="M2246.5,1163.8c-4.7,0-12.7,0-18.6,5.9c-6,6-5.9,14.1-5.8,19.5l3.5,400.1l0,2.9c0.1,9.3-1,18.5-3.4,27.4
					l-0.3,1.3l-0.1,1.3c-0.1,1.8-0.2,3.4-0.1,5c0.2,3,0.6,12.3,9.4,17.3c4.8,2.7,9.9,2.9,16.5,2.9h50.2c4.8,0,12.8,0,18.6-6.5
					c5.2-5.8,5.2-13.1,5.2-18.4v-163c1.5-0.1,3-0.1,4.5,0.1c3.1,0.3,5.1,0.7,6.7,9.2c0.9,4.8,1,5.8,1.5,15.7l6.4,138.8
					c0.2,4.8,0.6,12.9,7.1,18.7c6.1,5.4,13.8,5.4,19,5.4h41c5.5,0,13.9,0,19.9-6.3c4.5-4.7,5.3-10.6,5.3-15.3c0-1.5-0.1-2.9-0.2-4.1
					l-9.9-164.7c-0.6-10.7-1-13.5-3-23.4c-3.9-19.6-12.5-32.2-27.4-39.2c13.5-12.8,23.2-30.1,28.8-51.7c3.9-15,5.8-31.8,5.8-51.1
					c0-8.6-0.4-17.7-1.1-27.2c-0.5-6.6-5.9-65.4-31.9-84.6c-7.6-5.7-26.8-13.6-38.2-14.9c-8.2-0.9-10.6-1-21.2-1L2246.5,1163.8
					L2246.5,1163.8z M2334.7,1192.7c9.5,0,11.1,0.1,18.1,0.8c6.1,0.7,20.6,6.8,24.2,9.4c1.7,1.3,7.6,6.8,13.4,26.5
					c4,13.5,6.2,28.1,6.9,37.2c2.2,27.7,1,50.2-3.8,68.8c-6.1,23.7-17.6,39.4-35.2,48l-2,1l-8.4,4.2l0.4,9.3l0.7,17.3l14.7,1.4
					c20.3,1.9,25,7.5,28,22.5l0,0c1.7,8.6,1.9,10.1,2.5,19.5c0,0,9.1,150.8,9.6,159.9h-34.2c-0.3-6.4-6.3-135.4-6.3-135.4
					c-0.5-10.1-0.7-12.7-1.9-19.5c-4.5-25-20.2-31.7-32.5-32.9l-0.1,0l-0.1,0c-7.2-0.6-14.4,0.1-21.4,1.9l-1,0.3l-0.9,0.4
					c-12.5,5.2-12.5,17.8-12.5,24.5v160.8h-40.7c1.6-8.2,2.4-16.4,2.4-24.8c0-0.7,0-1.3,0-2v0.2l0-2.9c0,0-3.4-389.2-3.5-396.4
					L2334.7,1192.7L2334.7,1192.7z M2420,1433.5L2420,1433.5L2420,1433.5L2420,1433.5z"/>
			</g>
			<g class="st24">
				<defs>
					<rect id="SVGID_99_" y="306.4" width="4160" height="1664"/>
				</defs>
				<clipPath id="SVGID_100_">
					<use xlink:href="#SVGID_99_"  style="overflow:visible;"/>
				</clipPath>
				<path class="st63" d="M2313.3,1245.8c-3,0-12.2,0-17.4,8.6c-2.9,4.7-3.1,9.8-3.1,15.9v83.2c0,6.4,0.2,11.3,2.5,16
					c4.5,8.9,13.3,9.9,16.3,10.3c26.2,3,43.2-10.4,48.4-25.1c10.6-29.6,14-82.7-12.3-102.6c-7.4-5.6-12.5-6.2-22.1-6.2H2313.3z
					 M2325.5,1274.7c2.1,0,3.5,0,4.4,0.1c0.1,0.1,0.2,0.2,0.4,0.3c3.7,2.8,8,11.5,8.6,27.5c0.1,1.4,0.1,2.8,0.1,4.3
					c0,12.9-2.3,27.1-6.2,38c-0.9,2.4-4.4,5.5-11.1,6.2v-76.3L2325.5,1274.7L2325.5,1274.7z"/>
			</g>
		</g>
		<g class="st3">
			<g class="st24">
				<defs>
					<rect id="SVGID_101_" y="306.4" width="4160" height="1664"/>
				</defs>
				<clipPath id="SVGID_102_">
					<use xlink:href="#SVGID_101_"  style="overflow:visible;"/>
				</clipPath>
				<path class="st64" d="M1620.7,950.1c0.2,7,1.9,7.9,9.8,7.9h83.2c10.1,0,11.1-1.1,10.5-11.2c-11.2-174.8-7.3-237.1,0.3-447.3
					c0.4-10.1-0.7-11.2-10.8-11.2h-158.5c-8.8,0-10.7,1.8-12.1,11.1l-45.6,320.7c-0.7,4.7-10.5,4.7-11.2,0l-49.2-320.7
					c-1.4-9.3-3.4-11-12.2-11h-158.5c-10.1,0-11.1,1.1-10,11.1c14.1,127.6,5.6,295.6,2.7,447.4c-0.2,10.1,0.9,11.2,11,11.2h83.2
					c9,0,10-1.1,9.9-10.8l0-1.9l-0.3-322.6l13.2,0c0.5,1.5,1.1,4.2,2.2,10.9l52.9,313.8c1.5,8.9,3.7,10.7,13,10.7h95.7
					c8,0,10.7-1.3,12.3-7.4c0-0.1,0.4-2.5,1.2-6.9l55.8-320.6c0-0.1,0-0.1,0.1-0.2c0.5-2,12-0.6,13-0.4L1620.7,950.1z"/>
			</g>
			<g class="st24">
				<defs>
					<rect id="SVGID_103_" y="306.4" width="4160" height="1664"/>
				</defs>
				<clipPath id="SVGID_104_">
					<use xlink:href="#SVGID_103_"  style="overflow:visible;"/>
				</clipPath>
				<path class="st65" d="M2715.2,958H2832c10.1,0,11.1-1.1,10.3-11.2c-10.5-130.9-10.9-313.3,0-443.6c0.8-10-0.2-11.1-10.3-11.1
					h-85.7c-10.1,0-11.1,1.1-10.4,11.2c5.4,80.5,15.7,229.2,14.7,257.7l-16,12.5c-0.1-0.1-0.2-0.3-0.3-0.4
					c-0.9-1.2-1.3-2.4-3.9-12.2l-69.4-258.4c-2.2-8.2-4.9-10.4-13.1-10.4H2530c-10.1,0-11.1,1.1-10.6,11.2
					c9.6,194.9,8.9,240.5-0.1,443.6c-0.4,10.1,0.6,11.2,10.7,11.2h85.7c10.1,0,11.1-1.1,10.7-11.2c-2.1-53.8-4.8-130.3-8.1-181.9
					c-1.7-27.9-4.6-55.7-8.9-83.3l13.2-9c0.1,0.2,0.2,0.4,0.3,0.7c27.6,90.7,53.6,182,77.9,273.6c0,0.1,0,0.1,0.1,0.2
					C2703.7,956.9,2705.1,958,2715.2,958"/>
			</g>
			<g class="st24">
				<defs>
					<rect id="SVGID_105_" y="306.4" width="4160" height="1664"/>
				</defs>
				<clipPath id="SVGID_106_">
					<use xlink:href="#SVGID_105_"  style="overflow:visible;"/>
				</clipPath>
				<path class="st66" d="M1769.6,648.4c0.1-34.2,8.7-83.7,21.1-107.5c29.6-57.1,117.6-60.7,194-52.6
					c106.4,11.4,116.3,67.2,120.4,182.6c2.2,60,11.5,182.5-28,238.6c-50.3,71.4-218,78-272.1,7.5
					C1759.1,857.2,1769.4,717.1,1769.6,648.4 M1978.4,627.4c-0.4-14.6-8.1-45.9-16.8-57c-15.5-19.8-38.3-12.2-52.2,7.5
					c-28,39.5-18.2,180.9-16.8,200.2c1.6,22.2,6.7,79,20.5,98c19.6,26.9,45.2,15.6,55.9-14.9
					C1986.3,812.1,1978.9,647.2,1978.4,627.4"/>
			</g>
			<g class="st24">
				<defs>
					<rect id="SVGID_107_" y="306.4" width="4160" height="1664"/>
				</defs>
				<clipPath id="SVGID_108_">
					<use xlink:href="#SVGID_107_"  style="overflow:visible;"/>
				</clipPath>
				<path class="st67" d="M2140.6,648.4c0.1-34.2,8.7-83.7,21.1-107.5c29.6-57.1,117.6-60.7,194-52.6
					c106.4,11.4,116.3,67.2,120.4,182.6c2.1,60,11.5,182.5-28,238.6c-50.3,71.4-218,78-272.1,7.5
					C2130.1,857.2,2140.4,717.1,2140.6,648.4 M2349.3,627.4c-0.4-14.6-8.1-45.9-16.8-57c-15.5-19.8-38.3-12.2-52.2,7.5
					c-28,39.5-18.2,180.9-16.8,200.2c1.6,22.2,6.7,79,20.5,98c19.6,26.9,45.2,15.6,55.9-14.9
					C2357.3,812.1,2349.9,647.2,2349.3,627.4"/>
			</g>
			<g class="st24">
				<defs>
					<rect id="SVGID_109_" y="306.4" width="4160" height="1664"/>
				</defs>
				<clipPath id="SVGID_110_">
					<use xlink:href="#SVGID_109_"  style="overflow:visible;"/>
				</clipPath>
				<path class="st68" d="M1363.3,1633h61.2c8.7,0,9.7-1.1,9.6-11.2l-3.5-432.4c-0.1-10-1.3-11.2-11.3-11.2h-33.6
					c-10.1,0-11.2,1.1-10.9,10.7l6.9,250.2c0.1,2.4,0.1,4.3,0.1,5.8l-9.8,4.1c-5.7-16.2-28.5-176.2-40.6-259.8
					c-1.4-10-2.7-11.1-12.8-11.1H1259c-10.1,0-11.1,1.1-10.4,11.2c9.4,137.6,3.9,273.3-0.5,432.4c-0.3,10.1,0.8,11.2,10.9,11.2h43
					c8.3,0,9.2-1.1,8.8-10.7l-10.3-250.2c-0.1-3.3-0.2-5.7-0.2-7.3l9.1-3.9c0,0,0,0,0,0c0.1,0.1,0.3,0.3,0.4,0.7
					c17.7,84.9,32.2,170.5,43.5,256.5c0.2,2.3,0.2,4.6-0.1,6.9C1352.3,1632.2,1353.3,1633,1363.3,1633"/>
			</g>
			<g class="st24">
				<defs>
					<rect id="SVGID_111_" y="306.4" width="4160" height="1664"/>
				</defs>
				<clipPath id="SVGID_112_">
					<use xlink:href="#SVGID_111_"  style="overflow:visible;"/>
				</clipPath>
				<path class="st69" d="M1643,1528.6l3.5-339.6c0.1-9.8-1-10.8-11.1-10.8H1587c-10.1,0-11.2,1.1-11.1,10.8l3.5,317.3
					c0.1,10.1,0,11.8-1,17.6c-3.5,19.2-18.1,28.1-29.9,23.3c-5.1-2-12.3-11.2-15.3-24.4c-1.8-8.1-2.1-10.2-2.1-20.2V1189
					c0-9.7-1.1-10.8-11.2-10.8h-44.7c-10.1,0-11.2,1.1-11,10.8l7,356.3c0.2,10.1,0.4,12.3,1.9,22.3c7.4,49,31.1,71.3,72.9,76.5
					c57.2,7.1,87.8-30,95.6-93.2C1642.8,1540.9,1642.9,1538.7,1643,1528.6"/>
			</g>
			<g class="st24">
				<defs>
					<rect id="SVGID_113_" y="306.4" width="4160" height="1664"/>
				</defs>
				<clipPath id="SVGID_114_">
					<use xlink:href="#SVGID_113_"  style="overflow:visible;"/>
				</clipPath>
				<path class="st70" d="M1941.1,1509.5v-14.6c0-6.6-1.1-7.3-11.2-7.3h-33.6c-10.1,0-11.2,1-11.2,10.3v114c0,10.1,1,11.7,10.2,15.9
					c15.8,7.4,56.9,16.6,66.2,16.4c50.1-1.3,71.7-30.5,82-78.3c10.7-49.1,10.7-126.3-18.6-164c-16-20.6-44-39.1-61.5-59.6
					c-19-22.4-30.6-49.9-16.8-74.6c6.9-12.3,22-17.9,29.8-7.5c6.5,8.6,12,31,10.4,43.3c-1,8,0,8.9,10.1,8.9h32.2
					c7.9,0,8.8-1,8.8-10.2V1203c0-10.1-1-11.7-9.8-16.6c-30.5-16.8-67-19.7-90.8-10.1c-51.7,21-59.2,89.4-55.9,151.7
					c2.9,54.2,11.3,84.4,51.5,117.6c32.5,26.8,65,49.4,52.9,92.9c-3.6,12.8-14.2,28.1-31.1,19.8c-6.2-3.1-11.9-17.9-12.9-28.9
					C1941.2,1521.3,1941.1,1519.3,1941.1,1509.5"/>
			</g>
			<g class="st24">
				<defs>
					<rect id="SVGID_115_" y="306.4" width="4160" height="1664"/>
				</defs>
				<clipPath id="SVGID_116_">
					<use xlink:href="#SVGID_115_"  style="overflow:visible;"/>
				</clipPath>
				<path class="st71" d="M2213.2,1263.9v-75.8c0-8.9-1-9.9-10.3-9.9h-116.5c-10.1,0-11.2,1.1-11,11.2
					c2.3,121.4,6.9,333.9,3.5,364.4c-0.1,0.8-0.2,1.7-0.3,2.7c0.9,20.6-0.6,41.3-4.4,61.6c0.1,1.2,0.1,2.5,0.2,3.7
					c0.7,10.1,1.9,11.2,12,11.2h116.5c9.3,0,10.3-1.1,10.3-11.2V1551c0-10.1-1.1-11.2-11.2-11.2h-48.5c-10.1,0-11.2-1.1-11.2-11.2
					v-70.8c0-10.1,1.1-11.2,11.2-11.2h44.7c10.1,0,11.2-1.1,11.2-11.2v-67.1c0-10.1-1.1-11.2-11.2-11.2h-44.7
					c-10.1,0-11.2-1.1-11.2-11.2v-63.4c0-10.1,0.9-11.1,9.4-10.7c0,0,34.8-0.8,58.9,4.6C2214,1280.5,2213.2,1274,2213.2,1263.9"/>
			</g>
			<g class="st24">
				<defs>
					<rect id="SVGID_117_" y="306.4" width="4160" height="1664"/>
				</defs>
				<clipPath id="SVGID_118_">
					<use xlink:href="#SVGID_117_"  style="overflow:visible;"/>
				</clipPath>
				<path class="st72" d="M2444.8,1188.8c6.1,144.1,6.1,288.5,0.2,432.6c0,0.1,0,0.3,0,0.4c-0.6,10.1,0.5,11.2,10.6,11.2l57.4-0.6
					c8.6,0,9.4-0.3,9.4-10.3c0,0,0,0,0-0.7c-6.5-145.2-6.3-290.6,0.7-435.8c1.1-7.3-5.3-6.7-12.5-6.7l-54.9-0.7
					C2445.6,1178.2,2444.4,1179.3,2444.8,1188.8"/>
			</g>
			<g class="st24">
				<defs>
					<rect id="SVGID_119_" y="306.4" width="4160" height="1664"/>
				</defs>
				<clipPath id="SVGID_120_">
					<use xlink:href="#SVGID_119_"  style="overflow:visible;"/>
				</clipPath>
				<path class="st73" d="M2686.5,1263.9v-75.8c0-8.9-1-9.9-10.3-9.9h-116.5c-10.1,0-11.2,1.1-11,11.2
					c2.3,121.4,6.9,333.9,3.5,364.4c-0.1,0.8-0.2,1.7-0.3,2.7c0.9,20.6-0.6,41.3-4.4,61.6c0.1,1.2,0.1,2.5,0.2,3.7
					c0.7,10.1,1.9,11.2,12,11.2h116.5c9.3,0,10.3-1.1,10.3-11.2V1551c0-10.1-1.1-11.2-11.2-11.2h-48.5c-10.1,0-11.2-1.1-11.2-11.2
					v-70.8c0-10.1,1.1-11.2,11.2-11.2h44.7c10.1,0,11.2-1.1,11.2-11.2v-67.1c0-10.1-1.1-11.2-11.2-11.2h-44.7
					c-10.1,0-11.2-1.1-11.2-11.2v-63.4c0-10.1,0.9-11.1,9.4-10.7c0,0,34.8-0.8,58.9,4.6C2687.4,1280.5,2686.5,1274,2686.5,1263.9"/>
			</g>
			<g class="st24">
				<defs>
					<rect id="SVGID_121_" y="306.4" width="4160" height="1664"/>
				</defs>
				<clipPath id="SVGID_122_">
					<use xlink:href="#SVGID_121_"  style="overflow:visible;"/>
				</clipPath>
				<path class="st74" d="M2770.3,1509.5v-14.6c0-6.6-1.1-7.3-11.2-7.3h-33.6c-10.1,0-11.2,1-11.2,10.3v114c0,10.1,1,11.7,10.2,15.9
					c15.9,7.4,56.9,16.6,66.2,16.4c50.1-1.3,71.6-30.5,82-78.3c10.6-49.1,10.7-126.3-18.6-164c-16-20.6-44-39.1-61.5-59.6
					c-19-22.4-30.6-49.9-16.8-74.6c6.9-12.3,22-17.9,29.8-7.5c6.5,8.6,12,31,10.4,43.3c-1,8,0,8.9,10.1,8.9h32.2
					c7.9,0,8.8-1,8.8-10.2V1203c0-10.1-1-11.7-9.8-16.6c-30.5-16.8-67-19.7-90.8-10.1c-51.7,21-59.2,89.4-55.9,151.7
					c2.9,54.2,11.3,84.4,51.5,117.6c32.5,26.8,65,49.4,52.9,92.9c-3.6,12.8-14.2,28.1-31.1,19.8c-6.2-3.1-12-17.9-12.9-28.9
					C2770.4,1521.3,2770.3,1519.3,2770.3,1509.5"/>
			</g>
			<g class="st24">
				<defs>
					<rect id="SVGID_123_" y="306.4" width="4160" height="1664"/>
				</defs>
				<clipPath id="SVGID_124_">
					<use xlink:href="#SVGID_123_"  style="overflow:visible;"/>
				</clipPath>
				<path class="st75" d="M1845.9,1436.3c1.8,9.2,2.1,11.4,2.7,21.4l9.9,164.7c0.6,9.4-0.5,10.5-10.6,10.5h-41
					c-9.8,0-11.2-1.2-11.7-10.4l-6.4-138.8c-0.5-10.1-0.6-11.8-1.7-17.6c-2.5-14.1-8.9-20-19.7-21.1c-5.6-0.4-11.2,0.1-16.5,1.5
					c-3.2,1.3-3.6,4-3.6,11.1v164.7c0,9.5-0.9,10.5-9.4,10.5h-50.2c-10.1,0-11.2-0.7-11.5-6.5c-0.1-1,0-2.1,0.1-3.1
					c2.8-10.2,4.1-20.8,3.9-31.4c0-0.9,0-1.8,0-2.8l-3.5-400.1c-0.1-9.8,0.9-10.9,9.9-10.9h88.2c10.1,0,12,0.1,19.6,0.9
					c9,1,25.8,8.2,31.2,12.1c16.6,12.3,24.5,53.9,26.1,74.2c3.6,45.1,0.8,107.4-47,130.9c-0.6,0.3-1.2,0.6-1.8,0.9l0.2,4.8
					c0.6,0.1,1.3,0.1,2.1,0.2C1830.7,1404.6,1841.4,1414,1845.9,1436.3 M1747.3,1353.4c0,10.1,0.6,11.3,6,11.9
					c18.7,2.1,30-6.7,33.2-15.6c9.5-26.6,11.5-71.9-7.4-86.2c-3.9-2.9-5.3-3.3-13.5-3.3h-12.2c-5.5,0-6.1,1-6.1,10V1353.4z"/>
			</g>
			<g class="st24">
				<defs>
					<rect id="SVGID_125_" y="306.4" width="4160" height="1664"/>
				</defs>
				<clipPath id="SVGID_126_">
					<use xlink:href="#SVGID_125_"  style="overflow:visible;"/>
				</clipPath>
				<path class="st76" d="M2405.8,1436.3c1.8,9.2,2.1,11.4,2.7,21.4l9.9,164.7c0.6,9.4-0.5,10.5-10.6,10.5h-41
					c-9.9,0-11.2-1.2-11.7-10.4l-6.4-138.8c-0.5-10.1-0.6-11.8-1.7-17.6c-2.5-14.1-8.9-20-19.7-21.1c-5.6-0.4-11.1,0.1-16.5,1.5
					c-3.2,1.3-3.6,4-3.6,11.1v164.7c0,9.5-0.9,10.5-9.4,10.5h-50.2c-10.1,0-11.2-0.7-11.5-6.5c-0.1-1,0-2.1,0.1-3.1
					c2.8-10.2,4.1-20.8,3.9-31.4c0-0.9,0-1.8,0-2.8l-3.5-400.1c-0.1-9.8,0.9-10.9,9.9-10.9h88.2c10.1,0,12,0.1,19.6,0.9
					c9,1,25.8,8.2,31.2,12.1c16.6,12.3,24.5,53.9,26.1,74.2c3.6,45.1,0.8,107.4-47,130.9c-0.6,0.3-1.2,0.6-1.8,0.9l0.2,4.8
					c0.6,0.1,1.3,0.1,2.1,0.2C2390.7,1404.6,2401.4,1414,2405.8,1436.3 M2307.2,1353.4c0,10.1,0.6,11.3,6,11.9
					c18.7,2.1,30-6.7,33.2-15.6c9.5-26.6,11.5-71.9-7.4-86.2c-3.9-2.9-5.3-3.3-13.5-3.3h-12.2c-5.5,0-6.1,1-6.1,10V1353.4z"/>
			</g>
		</g>
		<g class="st3">
			<rect x="1230.7" y="999.8" class="st77" width="1666.6" height="127"/>
			<polygon class="st78" points="1743,1106.3 1692.4,1011.9 1723.4,1011.9 1759.2,1081.7 1793.8,1011.9 1824.1,1011.9 
				1773.6,1106.3 			"/>
			<path class="st78" d="M1951.6,1106.3h-31.1l-12.3-21.4h-56.6l-11.7,21.4h-30.3l55-94.4h30.4L1951.6,1106.3z M1899.1,1068.8
				l-19.6-35l-19.1,35H1899.1L1899.1,1068.8z"/>
			<polygon class="st78" points="1967.6,1106.3 1967.6,1012.7 1996.2,1012.7 1996.2,1090.3 2067.3,1090.3 2067.3,1106.3 			"/>
			<polygon class="st78" points="2088.4,1106.3 2088.4,1012.7 2116.9,1012.7 2116.9,1090.3 2188,1090.3 2188,1106.3 			"/>
			<polygon class="st78" points="2208.4,1106.3 2208.4,1011.9 2313.3,1011.9 2313.3,1027.8 2236.9,1027.8 2236.9,1048.8 
				2308,1048.8 2308,1064.7 2236.9,1064.7 2236.9,1090.3 2316,1090.3 2316,1106.3 			"/>
			<polygon class="st78" points="2377.3,1106.3 2377.3,1066.5 2325.5,1011.9 2359,1011.9 2392.4,1049.3 2425,1011.9 2457.9,1011.9 
				2405.9,1066.7 2405.9,1106.3 			"/>
		</g>
	</g>
</g>
</svg>
