<?xml version="1.0" encoding="utf-8"?>
<!-- Generator: Adobe Illustrator 23.0.1, SVG Export Plug-In . SVG Version: 6.00 Build 0)  -->
<svg version="1.1" xmlns="http://www.w3.org/2000/svg" xmlns:xlink="http://www.w3.org/1999/xlink" x="0px" y="0px"
	 viewBox="0 0 3107.4 2181.7" style="enable-background:new 0 0 3107.4 2181.7;" xml:space="preserve">
<style type="text/css">
	.st0{display:none;}
	.st1{display:inline;fill:#49B741;}
	.st2{clip-path:url(#SVGID_2_);fill-rule:evenodd;clip-rule:evenodd;}
	.st3{clip-path:url(#SVGID_4_);fill-rule:evenodd;clip-rule:evenodd;}
	.st4{clip-path:url(#SVGID_6_);fill-rule:evenodd;clip-rule:evenodd;}
	.st5{clip-path:url(#SVGID_8_);fill:#FF0000;}
	.st6{clip-path:url(#SVGID_10_);}
	.st7{clip-path:url(#SVGID_12_);fill:#FFFF00;}
	.st8{clip-path:url(#SVGID_14_);}
	.st9{clip-path:url(#SVGID_16_);}
	.st10{clip-path:url(#SVGID_18_);fill:#FFFFFF;}
	.st11{clip-path:url(#SVGID_20_);fill:#FFFFFF;}
	.st12{clip-path:url(#SVGID_22_);fill:#FFFFFF;}
	.st13{display:inline;}
	.st14{clip-path:url(#SVGID_24_);enable-background:new    ;}
	.st15{clip-path:url(#SVGID_26_);fill-rule:evenodd;clip-rule:evenodd;}
	.st16{clip-path:url(#SVGID_28_);fill-rule:evenodd;clip-rule:evenodd;}
	.st17{clip-path:url(#SVGID_30_);enable-background:new    ;}
	.st18{clip-path:url(#SVGID_32_);fill-rule:evenodd;clip-rule:evenodd;}
	.st19{clip-path:url(#SVGID_34_);fill-rule:evenodd;clip-rule:evenodd;}
	.st20{clip-path:url(#SVGID_36_);fill-rule:evenodd;clip-rule:evenodd;}
	.st21{clip-path:url(#SVGID_38_);fill-rule:evenodd;clip-rule:evenodd;}
	.st22{clip-path:url(#SVGID_40_);fill-rule:evenodd;clip-rule:evenodd;}
	.st23{clip-path:url(#SVGID_42_);fill-rule:evenodd;clip-rule:evenodd;}
	.st24{clip-path:url(#SVGID_44_);fill-rule:evenodd;clip-rule:evenodd;}
	.st25{clip-path:url(#SVGID_46_);fill-rule:evenodd;clip-rule:evenodd;}
	.st26{clip-path:url(#SVGID_48_);enable-background:new    ;}
	.st27{clip-path:url(#SVGID_50_);fill-rule:evenodd;clip-rule:evenodd;}
	.st28{clip-path:url(#SVGID_52_);fill-rule:evenodd;clip-rule:evenodd;}
	.st29{clip-path:url(#SVGID_54_);enable-background:new    ;}
	.st30{clip-path:url(#SVGID_56_);fill-rule:evenodd;clip-rule:evenodd;}
	.st31{clip-path:url(#SVGID_58_);fill-rule:evenodd;clip-rule:evenodd;}
	.st32{clip-path:url(#SVGID_60_);enable-background:new    ;}
	.st33{clip-path:url(#SVGID_62_);fill-rule:evenodd;clip-rule:evenodd;}
	.st34{clip-path:url(#SVGID_64_);fill-rule:evenodd;clip-rule:evenodd;}
	.st35{clip-path:url(#SVGID_66_);enable-background:new    ;}
	.st36{clip-path:url(#SVGID_68_);fill-rule:evenodd;clip-rule:evenodd;}
	.st37{clip-path:url(#SVGID_70_);fill-rule:evenodd;clip-rule:evenodd;}
	.st38{clip-path:url(#SVGID_72_);enable-background:new    ;}
	.st39{clip-path:url(#SVGID_74_);fill-rule:evenodd;clip-rule:evenodd;}
	.st40{clip-path:url(#SVGID_76_);fill-rule:evenodd;clip-rule:evenodd;}
	.st41{clip-path:url(#SVGID_78_);enable-background:new    ;}
	.st42{clip-path:url(#SVGID_80_);fill-rule:evenodd;clip-rule:evenodd;}
	.st43{clip-path:url(#SVGID_82_);fill-rule:evenodd;clip-rule:evenodd;}
	.st44{clip-path:url(#SVGID_84_);enable-background:new    ;}
	.st45{clip-path:url(#SVGID_86_);fill-rule:evenodd;clip-rule:evenodd;}
	.st46{clip-path:url(#SVGID_88_);fill-rule:evenodd;clip-rule:evenodd;}
	.st47{clip-path:url(#SVGID_90_);fill-rule:evenodd;clip-rule:evenodd;}
	.st48{clip-path:url(#SVGID_92_);fill-rule:evenodd;clip-rule:evenodd;}
	.st49{clip-path:url(#SVGID_94_);fill-rule:evenodd;clip-rule:evenodd;}
	.st50{clip-path:url(#SVGID_96_);fill-rule:evenodd;clip-rule:evenodd;}
	.st51{clip-path:url(#SVGID_98_);fill-rule:evenodd;clip-rule:evenodd;}
	.st52{clip-path:url(#SVGID_100_);fill-rule:evenodd;clip-rule:evenodd;}
	.st53{clip-path:url(#SVGID_102_);fill-rule:evenodd;clip-rule:evenodd;fill:#FFFFFF;}
	.st54{clip-path:url(#SVGID_104_);fill-rule:evenodd;clip-rule:evenodd;fill:#FFFFFF;}
	.st55{clip-path:url(#SVGID_106_);fill-rule:evenodd;clip-rule:evenodd;fill:#FFFFFF;}
	.st56{clip-path:url(#SVGID_108_);fill-rule:evenodd;clip-rule:evenodd;fill:#FFFFFF;}
	.st57{clip-path:url(#SVGID_110_);fill-rule:evenodd;clip-rule:evenodd;fill:#FFFFFF;}
	.st58{clip-path:url(#SVGID_112_);fill-rule:evenodd;clip-rule:evenodd;fill:#FFFFFF;}
	.st59{clip-path:url(#SVGID_114_);fill-rule:evenodd;clip-rule:evenodd;fill:#FFFFFF;}
	.st60{clip-path:url(#SVGID_116_);fill-rule:evenodd;clip-rule:evenodd;fill:#FFFFFF;}
	.st61{clip-path:url(#SVGID_118_);fill-rule:evenodd;clip-rule:evenodd;fill:#FFFFFF;}
	.st62{clip-path:url(#SVGID_120_);fill-rule:evenodd;clip-rule:evenodd;fill:#FFFFFF;}
	.st63{clip-path:url(#SVGID_122_);fill-rule:evenodd;clip-rule:evenodd;fill:#FFFFFF;}
	.st64{clip-path:url(#SVGID_124_);fill-rule:evenodd;clip-rule:evenodd;fill:#FFFFFF;}
	.st65{clip-path:url(#SVGID_126_);fill-rule:evenodd;clip-rule:evenodd;fill:#FFFFFF;}
	.st66{display:inline;fill-rule:evenodd;clip-rule:evenodd;}
	.st67{display:inline;fill-rule:evenodd;clip-rule:evenodd;fill:#FFFFFF;}
	.st68{fill:#FFFFFF;}
	.st69{fill:none;}
	.st70{font-family:'ArialMT';}
	.st71{font-size:169px;}
	.st72{font-size:200px;}
	.st73{fill:#FFFFFF;stroke:#000000;stroke-width:41;stroke-miterlimit:10;}
</style>
<g id="Layer_1">
	<g id="Layer_8" class="st0">
		<rect class="st1" width="3107.4" height="2181.7"/>
	</g>
	<g id="Layer_7">
		<g>
			<g>
				<defs>
					<rect id="SVGID_1_" x="-254.3" y="92.4" width="4160" height="1664"/>
				</defs>
				<clipPath id="SVGID_2_">
					<use xlink:href="#SVGID_1_"  style="overflow:visible;"/>
				</clipPath>
				<path class="st2" d="M523.4,496.7c-0.7,1-1.3,2.1-2,3.1c-7.9,5.9-15.6,11.9-23.2,18c-48.6,38.9-90.4,80.6-124.3,123.9
					c-34.8,44.5-61.6,91.3-79.6,138.9c-18.5,49-28,99.5-28.1,150v-0.8c0-50.8,9.5-101.6,28.1-150.8c18-47.6,44.8-94.3,79.6-138.9
					c33.9-43.3,75.7-85,124.3-123.9C506.3,509.6,514.8,503.1,523.4,496.7z"/>
			</g>
			<g>
				<defs>
					<rect id="SVGID_3_" x="-254.3" y="92.4" width="4160" height="1664"/>
				</defs>
				<clipPath id="SVGID_4_">
					<use xlink:href="#SVGID_3_"  style="overflow:visible;"/>
				</clipPath>
				<path class="st3" d="M2925.3,929.8v1.7c0,50.8-9.4,101.6-28.1,150.8c-18,47.6-44.8,94.3-79.6,138.9
					c-33.9,43.3-75.7,85-124.3,123.9c-47.8,38.3-102.7,74.3-163,106.9c-60.1,32.5-126.2,62-196.4,87.7c-70.7,25.8-146.3,48-224.6,66
					c-162.7,37.2-335.5,56.1-513.5,56.1c-39.1,0-78-0.9-116.6-2.7c-136.9-6.4-270-24.3-396.9-53.4c-78.3-17.9-153.9-40.1-224.7-66
					c-37.4-13.7-108.4-44.1-108.4-44.1l-144.9-76.3c0,0-55.6-35.8-80.9-54.6c-0.7-1.1-1.3-2.1-2-3.2c-7.9-5.9-15.6-11.9-23.2-18
					c-48.6-38.9-90.4-80.6-124.3-123.9c-34.8-44.5-61.6-91.3-79.6-138.9c-18.5-49-28-99.5-28.1-150c0.1-50.6,9.5-101,28.1-150
					c18-47.6,44.8-94.3,79.6-138.9c33.9-43.3,75.7-85,124.3-123.9c7.6-6.1,15.3-12.1,23.2-18c0.7-1,1.3-2.1,2-3.1
					c25.3-18.9,52.3-37.1,80.9-54.6l144.9-76.3c34.8-15.7,71-30.5,108.4-44.1c70.7-25.9,146.3-48,224.7-66
					c126.9-29,260-46.9,396.9-53.4c38.6-1.8,77.5-2.7,116.6-2.7c178.1,0,350.8,18.9,513.5,56.1c78.3,17.9,153.9,40.1,224.6,66
					c70.2,25.7,136.3,55.2,196.4,87.7c60.3,32.6,115.2,68.6,163,106.9c48.6,38.9,90.4,80.6,124.3,123.9
					c34.8,44.5,61.6,91.3,79.6,138.9C2915.9,828.2,2925.3,879,2925.3,929.8z"/>
			</g>
			<g>
				<defs>
					<rect id="SVGID_5_" x="-254.3" y="92.4" width="4160" height="1664"/>
				</defs>
				<clipPath id="SVGID_6_">
					<use xlink:href="#SVGID_5_"  style="overflow:visible;"/>
				</clipPath>
				<path class="st4" d="M523.4,1364.6c-8.6-6.4-17-12.9-25.2-19.5c-48.6-38.9-90.4-80.6-124.3-123.9
					c-34.8-44.5-61.6-91.3-79.6-138.9c-18.6-49.3-28.1-100-28.1-150.8v-0.8c0.1,50.6,9.5,101,28.1,150c18,47.6,44.8,94.3,79.6,138.9
					c33.9,43.3,75.7,85,124.3,123.9c7.6,6.1,15.3,12.1,23.2,18C522,1362.5,522.7,1363.5,523.4,1364.6z"/>
			</g>
		</g>
		<g>
			<path d="M2863.1,718.9c-18-47.6-44.8-94.3-79.6-138.9c-33.9-43.3-75.7-85-124.3-123.9c-47.8-38.3-102.7-74.3-163-106.9
				c-60.1-32.5-126.2-62-196.4-87.7c-70.7-25.9-146.3-48-224.6-66c-162.7-37.2-335.5-56.1-513.5-56.1s-350.8,18.9-513.5,56.1
				c-78.3,17.9-153.9,40.1-224.7,66c-37.4,13.7-73.6,28.4-108.4,44.1c12.4-24.6,35-71.8,49.2-94.6c-2,1-143.8,116-194.1,170.9
				c-38.3,23.4-73.8,48.3-106.1,74.1C415.4,495,373.6,536.7,339.7,580c-34.8,44.5-61.6,91.3-79.6,138.9
				c-18.6,49.3-28.1,100-28.1,150.8c0,50.8,9.4,101.6,28.1,150.8c18,47.6,44.8,94.3,79.6,138.9c33.9,43.3,75.7,85,124.3,123.9
				c7.6,6.1,15.3,12.1,23.2,18c35.2,55.8,77.7,107,126.6,152.2c120.5,112.1,274.3,183.6,438.8,203.1
				c135.3,15.7,271.8-4.9,395.8-59.2c37.4,1.7,75.2,2.6,113.2,2.6c178.1,0,350.8-18.9,513.5-56.1c78.3-17.9,153.9-40.1,224.6-66
				c49-17.9,96.1-37.7,140.4-59.1c0.4,0.7,235.4-145.2,226.2-141.3c45.6-37.2,84.9-76.9,117.1-118.1c34.8-44.5,61.6-91.3,79.6-138.9
				c18.6-49.3,28.1-100,28.1-150.8C2891.2,818.9,2881.7,768.1,2863.1,718.9L2863.1,718.9z"/>
			<path class="st0" d="M2536.9,1444.6"/>
			<g>
				<g>
					<path d="M1561.6,1599.7c-178,0-350.8-18.9-513.5-56.1c-78.3-17.9-153.9-40.1-224.6-66c-70.2-25.7-136.3-55.2-196.4-87.7
						c-60.3-32.6-115.2-68.6-163-106.9c-48.6-38.9-90.4-80.6-124.3-123.9c-34.8-44.5-61.6-91.2-79.6-138.8
						c-18.6-49.2-28.1-100-28.1-150.8c0-50.8,9.4-101.5,28.1-150.8c18-47.6,44.8-94.3,79.6-138.8c33.9-43.3,75.7-85,124.3-123.9
						C512,418,566.8,382,627.1,349.4c60.1-32.5,126.2-62,196.4-87.6c70.7-25.9,146.3-48,224.6-66c162.7-37.2,335.5-56.1,513.5-56.1
						s350.8,18.9,513.5,56.1c78.3,17.9,153.9,40.1,224.6,66c70.2,25.7,136.3,55.1,196.4,87.6c60.3,32.6,115.2,68.6,163,106.9
						c48.6,38.9,90.4,80.6,124.3,123.9c34.8,44.5,61.6,91.2,79.6,138.8c18.6,49.2,28.1,100,28.1,150.8s-9.4,101.5-28.1,150.8
						c-18,47.6-44.8,94.3-79.6,138.8c-33.9,43.3-75.7,85-124.3,123.9c-47.8,38.3-102.6,74.2-163,106.9
						c-60.1,32.5-126.2,62-196.4,87.7c-70.7,25.8-146.3,48-224.6,66C1912.4,1580.9,1739.6,1599.7,1561.6,1599.7z M1561.6,187.4
						c-344.8,0-668.6,72.4-911.8,204c-238.5,129-369.9,298.9-369.9,478.4s131.4,349.4,369.9,478.4c243.2,131.5,567,204,911.8,204
						s668.6-72.4,911.8-204c238.5-129,369.9-298.9,369.9-478.4s-131.4-349.4-369.9-478.4C2230.2,259.8,1906.4,187.4,1561.6,187.4z"
						/>
				</g>
			</g>
		</g>
		<g id="Layer_3">
			<g>
				<g>
					<defs>
						<rect id="SVGID_7_" x="-254.3" y="92.4" width="4160" height="1664"/>
					</defs>
					<clipPath id="SVGID_8_">
						<use xlink:href="#SVGID_7_"  style="overflow:visible;"/>
					</clipPath>
					<path class="st5" d="M2867.1,869.7c0,390-584.5,706.2-1305.5,706.2S256.1,1259.7,256.1,869.7s584.5-706.2,1305.5-706.2
						C2282.6,163.5,2867.1,479.7,2867.1,869.7"/>
				</g>
			</g>
		</g>
	</g>
	<g>
		<g id="Layer_5">
			<g id="Layer_6">
				<g>
					<g>
						<defs>
							<rect id="SVGID_9_" x="-254.3" y="92.4" width="4160" height="1664"/>
						</defs>
						<clipPath id="SVGID_10_">
							<use xlink:href="#SVGID_9_"  style="overflow:visible;"/>
						</clipPath>
						<path class="st6" d="M764.2,211.1c-2,1-6.1,3.8-7.9,4.9c-299.2,174.5-434.1,521-355.4,839.5
							c35.6,143.9,112.7,274.3,221.6,374.9c120.5,112.1,274.3,183.6,438.8,203.1c159.8,18.6,321.4-13.6,461.9-92
							c-163.7,4.5-322.7-52-446.5-157.7c-76.5-61-136.8-139.9-175.8-229.6c-2.9-5.6-4.7-11.6-5.3-17.8c2-15.3-0.8-30.8-7.6-44.5
							c-9.1-16.5-18.8-32.7-29.1-48.5c0-0.1-0.1-0.1-0.1-0.2c5.8-1.5,11.5-3.3,17.2-5.3c7.3-2.4,14.5-5.4,21.5-8.8
							c16-7.2,29.9-18.4,40.3-32.5c5.9-8.9,5.6-20.4,0-29c-3.1-3.7-6.8-6.8-10.8-9.1c-1.8-1.1-3.7-2-5.7-2.7
							c-7.7-2.5-15.5-4.6-23.4-6.3c-21.7-3.6-42.7-10.7-62-21.2c-18-11.2-35.5-27.1-49.3-43c-29.1-34.8-53.3-73.1-72.2-113.7
							C686.5,712.5,669.2,649,663,584c-8.3-87.6,5.4-176.4,40.6-257.9C719.9,286.8,741.7,247.1,764.2,211.1"/>
					</g>
					<g>
						<defs>
							<rect id="SVGID_11_" x="-254.3" y="92.4" width="4160" height="1664"/>
						</defs>
						<clipPath id="SVGID_12_">
							<use xlink:href="#SVGID_11_"  style="overflow:visible;"/>
						</clipPath>
						<path class="st7" d="M562.2,1143.7c0,0,0.1,0,0.2-0.1c40.2-3.7,75.8-27.5,94.5-63.2c0.1,0.1,0.2,0.3,0.4,0.4
							c29.2,28.6,65.7,48.8,105.5,58.3c27.8,6.5,57,5.7,84.6-2.5c16.1-7.7,28.3-22.3,32.5-40.2c0.1-0.3,0.2-0.6,0.3-0.8
							c2.4,5.1,4.3,10.4,5.6,15.8c4,12.2,1.4,25.5-6.8,35.3c-10.4,13.7-27.9,21.3-47.6,24.4c-35.7,3.3-71.7-2.5-104.5-17
							c-0.3-0.1-0.4-0.1-0.4-0.1s-0.5,2.7,0,4.9c0,0,0,0,0,0c50.9,33.7,116.2,37,170.3,8.5c105,217.2,317.7,362.1,558.3,380.2
							c-0.6,0.3-1.6,0.9-2.9,1.6c-109.9,42.6-227.6,61.6-345.3,55.7c-315.6-20.8-585.4-234.9-677.4-537.6
							c-97.2-314.9,30.5-658.7,315-832.6c0,0,0.1,0,0.1-0.1c-131.4,202.8-117,467.2,35.6,654.5c8.7,10.5,17.2,19.3,27,27.3
							c19.6,17,43,29,68.1,35.1c10,2.1,19.9,4.2,29.9,6.3c5.2,1.4,10.3,3.3,15.2,5.6c2.7,1.7,5.3,3.8,7.5,6.2
							c3.4,4,4.7,9.4,3.3,14.6c-0.5,3.6-1.6,7-3.5,10.2c-6.7,8.4-15.1,15.2-24.7,19.9c-30.5,15.9-80.9,24.4-103.7,21.8
							c-18.6-2.1-44-13.1-39.3-30.1c1.5-5.3,6.3-12.1,5.8-15c-0.3-1.8-4-1.8-6.3,0c-4.9,3.8-11.2,15.7-11.2,21.8
							c0,9,4.3,26,4.4,26.2c-23.4-0.8-46.7-3.8-69.5-8.8c-6.8-1.6-13.6-3.2-20.4-4.8c-7-3-12.6-8.7-15.5-15.7
							c-7.3-15.6-18.7-29-33-38.7c-3.2-2-6,3-2.6,4.7c20.7,16.2,33.7,40.2,35.8,66.4c2.8,16.4-1.2,33.5-11.3,47
							c-19.3,23.9-45,42-74.2,52c0,0.1,0,0.2,0,0.4L562.2,1143.7L562.2,1143.7z"/>
					</g>
					<g>
						<defs>
							<rect id="SVGID_13_" x="-254.3" y="92.4" width="4160" height="1664"/>
						</defs>
						<clipPath id="SVGID_14_">
							<use xlink:href="#SVGID_13_"  style="overflow:visible;"/>
						</clipPath>
						<path class="st8" d="M597.1,694c1.5,36.6-21.6,69.5-56.2,80.8l0,0c-2.4,0.9-4.8,1.8-7.2,2.8c-1.7,1.3-1.6,4,0.3,5.2
							c1.6,0.8,3.4,1.2,5.2,1.2c33.8,0.2,64.8-18.6,80.2-48.6c1.7-3.5,1.8-7.5,0.4-11.1c-6.5-10.9-14.1-21-22.7-30.2
							C597.1,694,597.1,694,597.1,694"/>
					</g>
					<g>
						<defs>
							<rect id="SVGID_15_" x="-254.3" y="92.4" width="4160" height="1664"/>
						</defs>
						<clipPath id="SVGID_16_">
							<use xlink:href="#SVGID_15_"  style="overflow:visible;"/>
						</clipPath>
						<path class="st9" d="M646.5,878.8c22.5,8.3,44.8,17.1,66.8,26.7c1.2,0.6,2.5,1,3.9,1.2c0.7,0,1.3-0.6,1.4-1.3
							c1.6-5.2-12.8-16.5-19.5-23c-9.4-9.2-16.5-25.9-24.8-38.6c-12-18.3-30.6-31.9-51-41.5c-17.2-8.1-48-14.6-57.5,0.7
							c-9.4,15.2-5,28.7,3.6,48.8c3.2,7.3,7.3,16,7.3,16s-9.5,4-11.7,9c-1.3,3,0,6.3,0,6.3C591.2,872.7,619.8,871.4,646.5,878.8"/>
					</g>
					<g>
						<defs>
							<rect id="SVGID_17_" x="-254.3" y="92.4" width="4160" height="1664"/>
						</defs>
						<clipPath id="SVGID_18_">
							<use xlink:href="#SVGID_17_"  style="overflow:visible;"/>
						</clipPath>
						<path class="st10" d="M608.9,805.3c19.1,5.5,39.9,21.4,50.1,34.1c2.3,2.8,9.3,12.3,13.5,20.3c2.8,4.3,3.9,9.4,3.3,14.4
							c0,0.2,0,0.3,0,0.3l-53.9-11.1c0,0,0,0,0-0.1c-0.7-19.2-11.4-36.5-28.2-45.7c-5.6-2.5-10.8-5.7-15.5-9.5c0,0,0,0,0,0
							c0,0,0,0,0,0c-0.4-1.5,0.4-3,1.8-3.6C589.6,802.4,599.5,802.8,608.9,805.3"/>
					</g>
					<g>
						<defs>
							<rect id="SVGID_19_" x="-254.3" y="92.4" width="4160" height="1664"/>
						</defs>
						<clipPath id="SVGID_20_">
							<use xlink:href="#SVGID_19_"  style="overflow:visible;"/>
						</clipPath>
						<path class="st11" d="M747.3,1075c-29.5-2.2-57.8-12.8-81.5-30.6c57.4,15.2,117.6,16.9,175.8,5.1c4.5-0.5,9.2-0.1,12.5,3.2
							c0,0,5.3,9.1,5.3,9.2C823.7,1075.2,785.2,1079.7,747.3,1075"/>
					</g>
					<g>
						<defs>
							<rect id="SVGID_21_" x="-254.3" y="92.4" width="4160" height="1664"/>
						</defs>
						<clipPath id="SVGID_22_">
							<use xlink:href="#SVGID_21_"  style="overflow:visible;"/>
						</clipPath>
						<path class="st12" d="M731.1,1107.3c0,0,0.2,0,0.7,0.1c44.6,9.3,90.8,7.8,134.8-4.3c0.3-0.1,0.5-0.1,0.6-0.1
							c-3.4,10.7-11.7,18.9-22.1,22.4c-38.4,9.6-79.1,4.4-113.9-14.5c0,0,0,0,0-0.1C730.8,1109.1,731.1,1107.3,731.1,1107.3"/>
					</g>
				</g>
				<g class="st0">
					<g class="st13">
						<defs>
							<rect id="SVGID_23_" x="-254.3" y="92.4" width="4160" height="1664"/>
						</defs>
						<clipPath id="SVGID_24_">
							<use xlink:href="#SVGID_23_"  style="overflow:visible;"/>
						</clipPath>
						<g class="st14">
							<g>
								<g>
									<defs>
										<rect id="SVGID_25_" x="1001.8" y="274.3" width="468.4" height="469.7"/>
									</defs>
									<clipPath id="SVGID_26_">
										<use xlink:href="#SVGID_25_"  style="overflow:visible;"/>
									</clipPath>
									<path class="st15" d="M1366.4,736.1c0.2,7,1.9,7.9,9.8,7.9h83.2c10.1,0,11.1-1.1,10.5-11.2c-11.2-174.8-7.3-237,0.3-447.3
										c0.4-10.1-0.7-11.2-10.8-11.2h-158.5c-8.8,0-10.7,1.8-12.1,11.1l-45.6,320.7c-0.7,4.7-10.5,4.7-11.2,0l-49.2-320.7
										c-1.4-9.3-3.4-11-12.2-11h-158.5c-10.1,0-11.1,1.1-10,11.1c14.1,127.6,5.6,295.6,2.7,447.4c-0.2,10.1,0.9,11.2,11,11.2
										h83.2c9,0,10-1.1,9.9-10.8l0-1.9l-0.3-322.6l13.2,0c0.5,1.5,1.1,4.2,2.2,10.9l52.9,313.8c1.5,8.9,3.7,10.7,13,10.7h95.7
										c8,0,10.7-1.3,12.3-7.4c0-0.1,0.4-2.5,1.2-6.9l55.8-320.6c0-0.1,0-0.1,0.1-0.2c0.5-2,12-0.6,13-0.4L1366.4,736.1z"/>
								</g>
							</g>
						</g>
					</g>
					<g class="st13">
						<defs>
							<rect id="SVGID_27_" x="-254.3" y="92.4" width="4160" height="1664"/>
						</defs>
						<clipPath id="SVGID_28_">
							<use xlink:href="#SVGID_27_"  style="overflow:visible;"/>
						</clipPath>
						<path class="st16" d="M1300.9,259.9c-4,0-12.2,0-18.6,5.9c-5.3,4.9-6.9,11.4-7.8,17.6c0,0-26.1,183.3-37.2,261.8
							c-12-78.4-40.2-262-40.2-262c-1-6.2-2.6-12.7-7.9-17.5c-5.6-5.1-12.5-5.8-18.6-5.8h-158.5c-5.6,0-14,0-19.9,6.6
							s-5,15-4.4,20.5c11.3,101.8,8,230.8,4.7,355.5c-0.8,29.7-1.6,60.5-2.1,90c-0.1,5.4-0.3,13.6,5.8,19.8s14.2,6.1,19.6,6.1h83.2
							c4.7,0,12.6,0,18.5-5.9c5.3-5.4,5.8-12.5,5.8-17.7c0-0.6,0-1.2,0-1.8c0,0,0-1.7,0-1.8c0-0.1-0.1-135.2-0.2-229.4
							c14.9,88.8,39.4,233.9,39.4,233.9c1,5.9,2.8,12.6,8.6,17.4c5.7,4.7,12.3,5.3,18.6,5.3h95.7c5.9,0,21.5,0,26.3-18.1
							c0.2-0.7,0.2-0.7,1.5-8.1c0,0,23.4-134.5,39.7-228.2c-0.4,95.9-1,232.3-1,232.3l0,0.3c0.1,3.3,0.4,12,7.8,17.6
							c5.2,3.9,11,4.3,16.5,4.3h83.2c5.5,0,13.8,0,19.8-6.4c6-6.4,5.4-14.7,5.1-20.2c-10.2-159.5-7.8-224-1.5-396.3l1.8-49.6
							c0.2-5.5,0.5-13.7-5.5-19.9s-14.3-6.2-19.7-6.2L1300.9,259.9L1300.9,259.9z M1455.6,288.8c-0.4,11.6-1.7,45.8-1.7,45.8
							c-3.3,88.9-5.5,149.2-5.5,208.7c0,55.4,1.9,110.1,6.7,186.3h-74.4c0.1-12.7,1.5-332.6,1.5-332.6l-11.4-2.5
							c-1.8-0.4-5.9-0.8-9.2-1c-2.6-0.1-4.7,0-6.6,0.2c-10.7,1.3-13.7,9.1-14.3,11.5c0,0-0.2,0.9-0.2,0.9l-0.1,0.6l-55.8,320.6
							c0,0-0.2,1-0.4,2.3h-93.6c-0.5-2.7-52.6-312.4-52.6-312.4c-1.3-7.6-1.9-10.7-2.8-13.4l-3.5-9.4l-37.7-0.1
							c0,0,0.3,332,0.3,335.4h-75c0.6-28.4,1.3-57.8,2-86.3c1.5-59.4,3.1-119.8,3.1-177.9c0-62.9-1.8-123.1-7.5-176.6h151.7
							c0.4,2.4,49,319.5,49,319.5c1.4,9.3,9.7,15.8,20,15.8c10.3-0.1,18.4-6.6,19.8-15.9c0,0,45.1-316.7,45.4-319.3L1455.6,288.8
							L1455.6,288.8z"/>
					</g>
					<g class="st13">
						<defs>
							<rect id="SVGID_29_" x="-254.3" y="92.4" width="4160" height="1664"/>
						</defs>
						<clipPath id="SVGID_30_">
							<use xlink:href="#SVGID_29_"  style="overflow:visible;"/>
						</clipPath>
						<g class="st17">
							<g>
								<g>
									<defs>
										<rect id="SVGID_31_" x="2265" y="278.1" width="323.2" height="465.9"/>
									</defs>
									<clipPath id="SVGID_32_">
										<use xlink:href="#SVGID_31_"  style="overflow:visible;"/>
									</clipPath>
									<path class="st18" d="M2460.9,744h116.8c10.1,0,11.1-1.1,10.3-11.2c-10.5-130.9-10.9-313.3,0-443.6
										c0.8-10-0.2-11.1-10.3-11.1h-85.7c-10.1,0-11.1,1.1-10.4,11.2c5.4,80.5,15.7,229.2,14.7,257.7l-16,12.5
										c-0.1-0.1-0.2-0.3-0.3-0.4c-0.9-1.2-1.3-2.5-3.9-12.2l-69.4-258.4c-2.2-8.2-4.9-10.4-13.1-10.4h-117.7
										c-10.1,0-11.1,1.1-10.6,11.2c9.6,194.9,8.9,240.6-0.1,443.6c-0.4,10.1,0.6,11.2,10.7,11.2h85.7c10.1,0,11.1-1.1,10.7-11.2
										c-2.1-53.8-4.8-130.3-8.1-181.9c-1.7-27.9-4.6-55.7-8.9-83.3l13.2-9c0.1,0.2,0.2,0.4,0.3,0.7
										c27.6,90.7,53.6,182,77.9,273.6c0,0.1,0,0.1,0.1,0.2C2449.4,742.9,2450.8,744,2460.9,744"/>
								</g>
							</g>
						</g>
					</g>
					<g class="st13">
						<defs>
							<rect id="SVGID_33_" x="-254.3" y="92.4" width="4160" height="1664"/>
						</defs>
						<clipPath id="SVGID_34_">
							<use xlink:href="#SVGID_33_"  style="overflow:visible;"/>
						</clipPath>
						<path class="st19" d="M2491.9,263.6c-5.5,0-13.8,0-19.8,6.4c-4.4,4.7-5.3,10.5-5.3,15.4c0,1.8,0.1,3.4,0.2,4.8l1.8,26
							c4.1,60.3,9.6,143.3,11.9,192.7c-13.8-51.4-60.3-224.3-60.3-224.3c-3.9-14.6-12.3-21.1-27-21.1h-117.7c-5.5,0-13.7,0-19.7,6.3
							s-5.6,14.6-5.3,20c9.5,193.9,8.8,240.5-0.1,442.2c-0.2,5.5-0.6,13.7,5.4,20c6,6.3,14.3,6.3,19.7,6.3h85.7
							c5.5,0,13.7,0,19.7-6.3c4.8-5,5.6-11.2,5.6-16.3c0-1.3-0.1-2.5-0.1-3.6l-1.3-33.1c-1.9-50.3-4.1-107.2-6.8-149.1
							c-0.2-3.1-0.4-6.1-0.6-9.2c19.1,65.1,37.4,130.7,54.7,195.9l0.1,0.3c1.7,6.3,3.8,12.3,9.5,16.7s12.1,4.7,18.6,4.7h116.8
							c5.5,0,13.9,0,19.8-6.5s5.3-14.8,4.9-20.3c-10.6-132.8-10.6-314.3,0-441.3c0.5-5.5,1.2-13.8-4.8-20.3s-14.3-6.5-19.9-6.5
							L2491.9,263.6L2491.9,263.6z M2573.2,292.5c-5.1,63.3-7.7,139.3-7.7,216.1c0,77,2.6,154.8,7.7,221h-112.4c-0.1,0-0.1,0-0.2,0
							c0-0.1-0.1-0.3-0.1-0.3c-24.3-91.4-50.5-183.6-78-274l-0.2-0.8l-7.6-17.6l-14.4,10l-20.7,14.1l1.4,9
							c4.1,27.1,7.1,54.6,8.8,81.9c2.6,41.6,4.8,98.4,6.7,148.5c0,0,0.9,23.3,1.1,29.3h-78c4.4-101.3,6.8-163.4,6.8-225.4
							c0-59.3-2.2-118.5-6.7-211.7h112.9c0.2,0.6,69.4,258.1,69.4,258.1c2.9,10.8,3.6,13.3,6.1,16.8l9.4,12.7l11.5-9.3l21.3-16.6
							l0.2-6.7c0.1-1.5,0.1-3.2,0.1-5.2c0-34.3-7.5-145.5-13-227.9c0,0-1.1-15.8-1.5-21.8L2573.2,292.5L2573.2,292.5z M2468.1,567.4
							L2468.1,567.4L2468.1,567.4"/>
					</g>
					<g class="st13">
						<defs>
							<rect id="SVGID_35_" x="-254.3" y="92.4" width="4160" height="1664"/>
						</defs>
						<clipPath id="SVGID_36_">
							<use xlink:href="#SVGID_35_"  style="overflow:visible;"/>
						</clipPath>
						<path class="st20" d="M1515.3,434.4c0.1-34.2,8.7-83.7,21.1-107.5c29.6-57.1,117.6-60.7,194-52.5
							c106.4,11.4,116.3,67.2,120.4,182.6c2.2,60,11.5,182.5-28,238.6c-50.3,71.4-218,78-272.1,7.5
							C1504.8,643.2,1515.1,503.1,1515.3,434.4 M1724.1,413.4c-0.4-14.6-8.1-45.9-16.8-57c-15.5-19.9-38.3-12.2-52.2,7.5
							c-28,39.5-18.2,180.9-16.8,200.2c1.6,22.2,6.7,79,20.5,98c19.6,26.9,45.2,15.6,55.9-14.9C1732,598,1724.6,433.2,1724.1,413.4"
							/>
					</g>
					<g class="st13">
						<defs>
							<rect id="SVGID_37_" x="-254.3" y="92.4" width="4160" height="1664"/>
						</defs>
						<clipPath id="SVGID_38_">
							<use xlink:href="#SVGID_37_"  style="overflow:visible;"/>
						</clipPath>
						<path class="st21" d="M1613.1,262c-43.8,8.7-73.9,28.3-89.5,58.3c-14.1,27.1-22.6,79.3-22.7,114.1c0,9.2-0.3,20-0.5,31.3
							c-0.8,37.4-1.7,84,2.6,128.4c5.2,54.1,17.1,92.6,36.3,117.7c14.3,18.6,36.3,33.5,63.7,43c24.6,8.6,53.2,12.8,82.6,12.2
							c30.3-0.6,59.8-6.3,85.2-16.3c28-11.1,50.1-27.3,63.9-46.8c17.4-24.7,27.6-61.5,31.4-112.8c3.1-41.7,1.2-85.2-0.1-116.9
							l-0.7-17.6c-2-54.8-5.1-102.8-23.6-136.7c-9.7-17.8-23.2-31.2-41.2-41c-17.7-9.6-40.1-15.7-68.5-18.8
							C1685,254.9,1645,255.6,1613.1,262 M1562.2,694.2c-15.6-20.3-25.8-54.9-30.5-102.8c-4.1-42.7-3.2-88.4-2.4-125.1
							c0.2-11.5,0.5-22.4,0.5-31.8c0.1-34.6,9-80.8,19.5-100.9c5.9-11.3,14.6-20.4,26.7-27.8c11.4-6.9,25.8-12.1,42.7-15.5
							c29-5.8,66.1-6.3,110.1-1.6c46.8,5,73,18.4,87.4,44.9c14.1,25.8,17.9,63.4,20.1,123.9l0.7,17.8c1.3,31,3.1,73.6,0.2,113.6
							c-3.3,45.3-12.2,78.4-26.2,98.3c-10.5,14.9-28.1,27.6-50.9,36.6c-22.3,8.8-48.3,13.8-75.1,14.3
							C1630.9,739.2,1583.8,722.4,1562.2,694.2"/>
					</g>
					<g class="st13">
						<defs>
							<rect id="SVGID_39_" x="-254.3" y="92.4" width="4160" height="1664"/>
						</defs>
						<clipPath id="SVGID_40_">
							<use xlink:href="#SVGID_39_"  style="overflow:visible;"/>
						</clipPath>
						<path class="st22" d="M1684.9,330.3c-15.3,0.4-30.5,9.5-41.6,25.1c-13.7,19.3-20.9,57.1-22.1,115.8
							c-0.8,40.8,1.6,79.2,2.7,93.9c1.4,19.3,3.4,36.6,5.9,51.5c4.3,26.2,10,43.8,17.4,53.9c15.3,21.1,32.5,22,41.3,20.7
							c17.2-2.5,32.1-17.2,39.9-39.3c8.1-22.9,12.1-70.2,12.1-140.9c0-26.8-0.6-57.1-1.8-90.6l-0.2-7.4
							c-0.5-16.6-8.6-51.1-19.8-65.5C1709.8,336.1,1697.8,330,1684.9,330.3 M1670.5,653.5c-2.9-4-12.7-22.2-17.8-90.5
							c-5.7-77-3.5-165.8,14.2-190.8c5.6-7.9,12.7-12.8,18.7-13c1.4,0,5.5-0.1,10.3,6c6.1,7.8,13.4,35.6,13.7,48.5v0v0l0.3,7.6
							c5.1,147.5-1.9,201.5-8.8,220.9c-4.6,13-11.8,19.6-16.8,20.4C1678.7,663.5,1673.3,657.3,1670.5,653.5"/>
					</g>
					<g class="st13">
						<defs>
							<rect id="SVGID_41_" x="-254.3" y="92.4" width="4160" height="1664"/>
						</defs>
						<clipPath id="SVGID_42_">
							<use xlink:href="#SVGID_41_"  style="overflow:visible;"/>
						</clipPath>
						<path class="st23" d="M1886.3,434.4c0.1-34.2,8.7-83.7,21.1-107.5c29.6-57.1,117.6-60.7,194-52.5
							c106.4,11.4,116.3,67.2,120.4,182.6c2.1,60,11.5,182.5-28,238.6c-50.3,71.4-218,78-272.1,7.5
							C1875.8,643.2,1886.1,503.1,1886.3,434.4 M2095,413.4c-0.4-14.6-8.1-45.9-16.8-57c-15.5-19.9-38.3-12.2-52.2,7.5
							c-28,39.5-18.2,180.9-16.8,200.2c1.6,22.2,6.7,79,20.5,98c19.6,26.9,45.2,15.6,55.9-14.9C2103,598,2095.6,433.2,2095,413.4"/>
					</g>
					<g class="st13">
						<defs>
							<rect id="SVGID_43_" x="-254.3" y="92.4" width="4160" height="1664"/>
						</defs>
						<clipPath id="SVGID_44_">
							<use xlink:href="#SVGID_43_"  style="overflow:visible;"/>
						</clipPath>
						<path class="st24" d="M1984,262c-43.8,8.7-73.9,28.3-89.5,58.3c-14.1,27.1-22.6,79.3-22.7,114.1c0,9.2-0.3,20-0.5,31.3
							c-0.8,37.4-1.7,84,2.6,128.4c5.2,54.1,17.1,92.6,36.3,117.7c14.3,18.6,36.3,33.5,63.7,43c24.6,8.6,53.2,12.8,82.6,12.2
							c30.3-0.6,59.8-6.3,85.2-16.3c28-11.1,50.1-27.3,63.9-46.8c17.4-24.7,27.6-61.6,31.4-112.8c3.1-41.7,1.2-85.2-0.1-116.9
							l-0.7-17.6c-2-54.8-5.1-102.8-23.6-136.7c-9.7-17.8-23.2-31.2-41.2-41c-17.7-9.6-40.1-15.7-68.5-18.8
							C2055.9,254.9,2015.9,255.6,1984,262 M1933.2,694.2c-15.6-20.3-25.8-54.9-30.5-102.8c-4.1-42.7-3.2-88.4-2.4-125.1
							c0.2-11.5,0.5-22.4,0.5-31.8c0.1-34.6,9-80.8,19.5-100.9c5.9-11.3,14.6-20.4,26.7-27.8c11.4-6.9,25.8-12.1,42.7-15.5
							c29-5.8,66.1-6.3,110.1-1.6c46.8,5,73,18.4,87.4,44.9c14.1,25.8,17.9,63.4,20.1,123.9l0.7,17.8c1.3,31,3.1,73.6,0.2,113.6
							c-3.4,45.3-12.2,78.4-26.2,98.3c-10.5,14.9-28.1,27.6-50.9,36.6c-22.3,8.8-48.3,13.8-75.1,14.3
							C2001.8,739.2,1954.8,722.4,1933.2,694.2"/>
					</g>
					<g class="st13">
						<defs>
							<rect id="SVGID_45_" x="-254.3" y="92.4" width="4160" height="1664"/>
						</defs>
						<clipPath id="SVGID_46_">
							<use xlink:href="#SVGID_45_"  style="overflow:visible;"/>
						</clipPath>
						<path class="st25" d="M2055.9,330.3c-15.3,0.4-30.5,9.5-41.6,25.1c-13.7,19.3-20.9,57.1-22.1,115.8
							c-0.8,40.8,1.6,79.2,2.7,93.9c4,54.3,11.8,89.7,23.2,105.4c15.3,21.1,32.5,22,41.3,20.7c17.2-2.5,32.1-17.2,39.9-39.3
							c11.1-31.6,14.6-109.5,10.4-231.5l-0.2-7.4c-0.5-16.6-8.6-51.1-19.8-65.5C2080.8,336.1,2068.8,330,2055.9,330.3 M2041.5,653.5
							c-2.9-4-12.7-22.2-17.8-90.5c-5.7-77-3.6-165.8,14.2-190.8c5.6-7.9,12.7-12.8,18.7-13c1.4,0,5.5-0.1,10.4,6
							c6.1,7.8,13.4,35.6,13.7,48.5v0v0l0.3,7.6c5.1,147.5-1.9,201.5-8.8,220.9c-4.6,13-11.8,19.6-16.8,20.4
							C2049.7,663.5,2044.2,657.3,2041.5,653.5"/>
					</g>
					<g class="st13">
						<defs>
							<rect id="SVGID_47_" x="-254.3" y="92.4" width="4160" height="1664"/>
						</defs>
						<clipPath id="SVGID_48_">
							<use xlink:href="#SVGID_47_"  style="overflow:visible;"/>
						</clipPath>
						<g class="st26">
							<g>
								<g>
									<defs>
										<rect id="SVGID_49_" x="993.8" y="964.2" width="186" height="454.7"/>
									</defs>
									<clipPath id="SVGID_50_">
										<use xlink:href="#SVGID_49_"  style="overflow:visible;"/>
									</clipPath>
									<path class="st27" d="M1109,1418.9h61.2c8.7,0,9.7-1.1,9.6-11.2l-3.5-432.4c-0.1-10-1.3-11.2-11.3-11.2h-33.6
										c-10.1,0-11.2,1.1-10.9,10.7l6.9,250.2c0.1,2.4,0.1,4.3,0.1,5.8l-9.8,4.1c-5.7-16.2-28.5-176.2-40.6-259.8
										c-1.4-10-2.7-11.1-12.8-11.1h-59.6c-10.1,0-11.1,1.1-10.4,11.2c9.4,137.6,3.9,273.3-0.5,432.4
										c-0.3,10.1,0.8,11.2,10.9,11.2h43c8.3,0,9.2-1.1,8.8-10.7l-10.3-250.2c-0.1-3.3-0.2-5.7-0.2-7.3l9.1-3.9c0,0,0,0,0,0
										c0.1,0.1,0.3,0.3,0.4,0.7c17.7,84.9,32.2,170.5,43.5,256.5c0.2,2.3,0.2,4.6-0.1,6.9C1097.9,1418.1,1099,1418.9,1109,1418.9
										"/>
								</g>
							</g>
						</g>
					</g>
					<g class="st13">
						<defs>
							<rect id="SVGID_51_" x="-254.3" y="92.4" width="4160" height="1664"/>
						</defs>
						<clipPath id="SVGID_52_">
							<use xlink:href="#SVGID_51_"  style="overflow:visible;"/>
						</clipPath>
						<path class="st28" d="M1131.4,949.7c-5.5,0-13.7,0-19.7,6.2c-5,5.1-5.7,11.5-5.7,16.6c0,1,0,1.9,0.1,2.8
							c0,0,1.7,60.7,3.3,121.4c-5.4-36.4-10.7-73-14.5-99.1l-3.5-24.4c-0.7-5.1-1.9-12.8-8-18.1c-6.2-5.3-13.9-5.3-19.1-5.3h-59.6
							c-5.5,0-13.8,0-19.8,6.4s-5.4,14.7-5,20.2c8.4,122.2,4.9,242.1,0.9,380.8l-1.4,50.2c-0.2,5.4-0.4,13.6,5.6,19.8
							s14.2,6.2,19.7,6.2h43c4.5,0,12.1,0,17.9-6c4.7-4.8,5.4-10.8,5.4-15.9c0-1.3-0.1-2.6-0.1-3.8c0,0-2.6-64.1-5.3-128.2
							c7.1,41.9,13.4,84,18.9,125.9c0,0.6,0.1,1.2,0.1,1.7c0,0.8,0,1.6-0.1,2.3c-0.1,1.2-0.3,2.8-0.3,4.6c0,3.8,0.8,8.7,4.6,12.9
							c5.8,6.5,13.9,6.5,20.4,6.5h61.2c4.6,0,12.3,0,18.2-5.9c6-6,5.9-14,5.9-19.8l-3.5-432.4c0-5.4-0.1-13.5-6.2-19.5
							c-6.1-6-14.2-6-19.5-6L1131.4,949.7L1131.4,949.7z M1161.8,978.6c0.1,6.2,3.4,419.3,3.5,425.9h-52c0-0.5,0-0.9,0-1.3l0-0.5
							l-0.1-0.5c-11.3-86-26-172.7-43.7-257.6l-0.3-1.5l-0.6-1.4c-1.1-2.4-2.5-4.4-4.4-5.9l-6.8-5.6l-8.1,3.4l-17.9,7.6l0.1,9.6
							c0,1.9,0.1,4.4,0.2,7.9c0,0,9.8,237.5,10.1,245.9h-33.5c0.3-11.5,1.3-46.5,1.3-46.5c2.2-76.4,4.2-147.1,4.2-215.7
							c0-55.3-1.3-109.2-5-163.7h54.1c0.7,5,3.3,23.1,3.3,23.1c17.6,121.5,32.5,223.2,37.8,238.1l5.1,14.5l33-13.9l-0.3-15.7
							c0,0-6.5-238.1-6.7-246.1L1161.8,978.6L1161.8,978.6z"/>
					</g>
					<g class="st13">
						<defs>
							<rect id="SVGID_53_" x="-254.3" y="92.4" width="4160" height="1664"/>
						</defs>
						<clipPath id="SVGID_54_">
							<use xlink:href="#SVGID_53_"  style="overflow:visible;"/>
						</clipPath>
						<g class="st29">
							<g>
								<g>
									<defs>
										<rect id="SVGID_55_" x="1209.9" y="964.2" width="182.3" height="466.8"/>
									</defs>
									<clipPath id="SVGID_56_">
										<use xlink:href="#SVGID_55_"  style="overflow:visible;"/>
									</clipPath>
									<path class="st30" d="M1388.7,1314.6l3.5-339.5c0.1-9.8-1-10.8-11.1-10.8h-48.5c-10.1,0-11.2,1.1-11.1,10.8l3.5,317.3
										c0.1,10.1,0,11.8-1,17.6c-3.5,19.2-18.1,28.1-29.9,23.3c-5.1-2-12.3-11.2-15.3-24.4c-1.8-8.1-2.1-10.2-2.1-20.2V975
										c0-9.7-1.1-10.8-11.2-10.8h-44.7c-10.1,0-11.2,1.1-11,10.8l7,356.3c0.2,10.1,0.4,12.3,1.9,22.3c7.4,49,31.1,71.3,72.9,76.5
										c57.2,7.1,87.8-30,95.6-93.2C1388.5,1326.9,1388.6,1324.6,1388.7,1314.6"/>
								</g>
							</g>
						</g>
					</g>
					<g class="st13">
						<defs>
							<rect id="SVGID_57_" x="-254.3" y="92.4" width="4160" height="1664"/>
						</defs>
						<clipPath id="SVGID_58_">
							<use xlink:href="#SVGID_57_"  style="overflow:visible;"/>
						</clipPath>
						<path class="st31" d="M1332.7,949.7c-5.4,0-13.6,0-19.7,6.1c-6,6.1-5.9,14-5.8,19.3l3.5,317.3c0.1,9.8,0,10.5-0.8,14.8
							c-1,5.7-3.6,10.2-6.9,12.1c-1.1,0.6-2.1,0.8-3,0.5c-1.4-1.3-5.1-5.9-7-14.3c-1.6-6.8-1.7-7.7-1.7-17V975
							c0-5.3,0-13.4-6.2-19.4c-6-5.8-14.1-5.8-19.4-5.8h-44.7c-5.4,0-13.7,0-19.7,6.1c-6,6.1-5.8,14.1-5.7,19.4l7,356.3
							c0.2,10.7,0.5,13.6,2.1,24.2c4.2,27.4,13.2,47.9,27.5,62.6c14.1,14.4,33,23,57.8,26.1c27.7,3.4,51.2-2.2,69.8-16.7
							c22.7-17.7,36.8-47.7,41.9-89.2c1.3-10.6,1.5-13.3,1.6-23.9l0,0l3.5-339.5c0.1-5.3,0.1-13.3-5.9-19.3
							c-6-6.1-14.2-6.1-19.7-6.1L1332.7,949.7L1332.7,949.7z M1377.7,978.6c-0.1,7.3-3.5,335.8-3.5,335.8
							c-0.1,9.5-0.2,11.2-1.4,20.7c-4.1,33.1-14.8,57.2-31,69.9c-12.3,9.6-28.6,13.2-48.4,10.8c-36.6-4.6-54.1-23.2-60.4-64.3
							c-1.4-9.4-1.6-10.9-1.7-20.4c0,0-6.8-344.8-6.9-352.4h37.9v309.9c0,11.1,0.3,14.2,2.4,23.4c3.7,16.4,13.4,30.4,24,34.6
							c9.1,3.6,19.3,2.9,28.2-2c11-6.1,18.7-17.8,21.3-32.2c1-5.8,1.3-8.7,1.3-15.2c0-1.5,0-3.2,0-5.1c0,0-3.4-306.1-3.4-313.5
							L1377.7,978.6L1377.7,978.6z"/>
					</g>
					<g class="st13">
						<defs>
							<rect id="SVGID_59_" x="-254.3" y="92.4" width="4160" height="1664"/>
						</defs>
						<clipPath id="SVGID_60_">
							<use xlink:href="#SVGID_59_"  style="overflow:visible;"/>
						</clipPath>
						<g class="st32">
							<g>
								<g>
									<defs>
										<rect id="SVGID_61_" x="1626.5" y="956.8" width="169.3" height="473.3"/>
									</defs>
									<clipPath id="SVGID_62_">
										<use xlink:href="#SVGID_61_"  style="overflow:visible;"/>
									</clipPath>
									<path class="st33" d="M1686.8,1295.4v-14.6c0-6.6-1.1-7.3-11.2-7.3h-33.6c-10.1,0-11.2,1-11.2,10.3v114
										c0,10.1,1,11.7,10.2,15.9c15.8,7.4,56.9,16.6,66.2,16.4c50.1-1.3,71.7-30.5,82-78.3c10.7-49.1,10.7-126.3-18.6-164
										c-16-20.6-44-39.1-61.5-59.6c-19-22.4-30.6-49.9-16.8-74.6c6.9-12.3,22-17.9,29.8-7.5c6.5,8.6,12,31,10.4,43.3
										c-1,8,0,8.9,10.1,8.9h32.2c7.9,0,8.8-1,8.8-10.2V989c0-10.1-1-11.7-9.8-16.6c-30.5-16.8-67-19.7-90.8-10.1
										c-51.7,21-59.2,89.4-55.9,151.7c2.9,54.2,11.3,84.4,51.5,117.6c32.5,26.8,65,49.4,52.9,92.9c-3.6,12.8-14.2,28.1-31.1,19.8
										c-6.2-3.1-11.9-17.9-12.9-28.9C1686.9,1307.3,1686.8,1305.3,1686.8,1295.4"/>
								</g>
							</g>
						</g>
					</g>
					<g class="st13">
						<defs>
							<rect id="SVGID_63_" x="-254.3" y="92.4" width="4160" height="1664"/>
						</defs>
						<clipPath id="SVGID_64_">
							<use xlink:href="#SVGID_63_"  style="overflow:visible;"/>
						</clipPath>
						<path class="st34" d="M1677.7,948.9c-27.8,11.3-46.9,34.7-57,69.7c-7.4,25.6-9.9,57-7.9,96.1c1.3,23.8,3.7,48.8,12.8,71.3
							c8.5,20.9,22.4,38.9,43.9,56.6l6.8,5.6c32,26.1,49.7,42.4,41.3,72.3c-1.7,6.1-4.9,10.4-7.1,11.4c-0.3,0.1-1,0.4-2.7-0.3
							c-1.9-2.4-5.2-10.2-5.8-17.5c-0.7-7.8-0.7-9.4-0.7-18.9v-14.6c0-3.5,0-12.8-8.4-18.2c-5-3.3-10.6-3.5-17.3-3.5h-33.6
							c-5.6,0-13.2,0-19.1,5.5c-6.5,6-6.5,14.3-6.5,19.2v114c0,6.2,0.3,12.2,3.9,17.9c3.6,5.7,9,8.5,14.6,11.1
							c17.2,8,60.5,18,72.7,17.7c68.8-1.7,87.6-52,95.8-89.7c4.5-20.7,6.9-44.2,6.9-67c0-8-0.3-15.8-0.9-23.5
							c-2-25.5-8.3-61.1-27.3-85.5c-9.3-11.9-21.8-22.8-33.9-33.4c-10.5-9.2-20.4-17.8-28-26.7c-8.9-10.5-15.1-21.2-17.8-30.9
							c-1.1-3.9-1.6-7.6-1.6-11.2c0-5.7,1.4-11,4.2-16.1c1.9-3.4,4.6-5,5.9-5.4c3.5,5.1,7.5,20,7.5,29.4c0,1.1-0.1,2.1-0.2,3
							c-0.2,1.5-0.4,3.4-0.4,5.5c0,4,0.8,8.9,4.6,13.1c5.8,6.6,14.2,6.6,20.3,6.6h32.2c4.4,0,12.5,0,18.3-6.6
							c4.9-5.7,4.9-12.8,4.9-17.9V989c0-6.1-0.3-12-3.6-17.6c-3.3-5.6-8.4-8.7-13.7-11.7c-16.3-9-34.8-14.8-53.4-16.7
							C1709,941.2,1691.8,943.2,1677.7,948.9 M1722.3,1358.4c10.6-4.7,19.2-16,23.1-30c6.3-22.6,3.2-42.7-9.5-61.6
							c-10.4-15.5-25.5-27.8-41.4-40.9l-6.7-5.5c-36.6-30.2-43.6-56.3-46.3-107.2c-1.9-35.8,0.3-64.2,6.8-86.6
							c7.6-26.4,20.7-43.1,40.1-51c20.8-8.4,53.1-4.6,78.4,9.3c1,0.6,1.8,1,2.3,1.3c0,0.6,0,1.5,0,2.6v94.9h-21.9
							c-0.2-15.8-6-36.4-13.6-46.4c-5.8-7.7-14.7-11.8-24.2-11.1c-11.8,0.8-23.2,8.6-29.7,20.2c-8.2,14.7-10,31.7-5.2,49
							c3.9,13.9,11.8,28.1,23.6,41.9c9,10.6,20.2,20.3,31,29.8c11.6,10.1,22.5,19.7,30.1,29.4c11.6,14.9,18.9,39.1,21.3,70
							c2.1,26.8,0.1,56.8-5.4,82.1c-5,22.9-12.3,39.1-22.4,49.6c-10.7,11.1-25.7,16.8-45.9,17.3c-7,0.1-45.9-8.6-59.8-15
							c-0.7-0.3-1.3-0.6-1.8-0.9c0-0.5,0-1.2,0-1.9V1288h27v7.4c0,10.2,0.1,12.6,0.8,21.3c0.7,8.8,5.9,33.3,20.9,40.6
							C1706.2,1363.3,1716.1,1361.2,1722.3,1358.4"/>
					</g>
					<g class="st13">
						<defs>
							<rect id="SVGID_65_" x="-254.3" y="92.4" width="4160" height="1664"/>
						</defs>
						<clipPath id="SVGID_66_">
							<use xlink:href="#SVGID_65_"  style="overflow:visible;"/>
						</clipPath>
						<g class="st35">
							<g>
								<g>
									<defs>
										<rect id="SVGID_67_" x="1820" y="964.2" width="139" height="454.7"/>
									</defs>
									<clipPath id="SVGID_68_">
										<use xlink:href="#SVGID_67_"  style="overflow:visible;"/>
									</clipPath>
									<path class="st36" d="M1958.9,1049.9v-75.8c0-8.9-1-9.9-10.3-9.9h-116.5c-10.1,0-11.2,1.1-11,11.2
										c2.3,121.4,6.9,333.9,3.5,364.4c-0.1,0.8-0.2,1.7-0.3,2.7c0.9,20.6-0.6,41.3-4.4,61.6c0.1,1.2,0.1,2.5,0.2,3.7
										c0.7,10.1,1.9,11.2,12,11.2h116.5c9.3,0,10.3-1.1,10.3-11.2v-70.8c0-10.1-1.1-11.2-11.2-11.2h-48.5
										c-10.1,0-11.2-1.1-11.2-11.2v-70.8c0-10.1,1.1-11.2,11.2-11.2h44.7c10.1,0,11.2-1.1,11.2-11.2v-67.1
										c0-10.1-1.1-11.2-11.2-11.2h-44.7c-10.1,0-11.2-1.1-11.2-11.2v-63.4c0-10.1,0.9-11.1,9.4-10.7c0,0,34.8-0.8,58.9,4.6
										C1959.7,1066.4,1958.9,1060,1958.9,1049.9"/>
								</g>
							</g>
						</g>
					</g>
					<g class="st13">
						<defs>
							<rect id="SVGID_69_" x="-254.3" y="92.4" width="4160" height="1664"/>
						</defs>
						<clipPath id="SVGID_70_">
							<use xlink:href="#SVGID_69_"  style="overflow:visible;"/>
						</clipPath>
						<path class="st37" d="M1832.2,949.7c-5.4,0-13.6,0-19.6,6.1s-5.9,14.3-5.8,19.8l0.9,45.7c2.3,115.8,5.7,290.9,2.7,316.8
							l-0.4,3.7l0,1.2c0.9,19.5-0.5,39.1-4.2,58.3l-0.3,1.8l0.3,5.7c0.4,5.3,0.9,13.2,7,18.9c6.1,5.7,14.1,5.7,19.3,5.7h116.5
							c5,0,13.3,0,19.2-6.5c5.5-6,5.5-13.6,5.5-19.1v-70.8c0-5.4,0-13.5-6.1-19.6c-6.1-6.1-14.2-6.1-19.6-6.1h-45.2V1247h41.5
							c5.4,0,13.5,0,19.6-6.1c6.1-6.1,6.1-14.2,6.1-19.6v-67.1c0-5.4,0-13.5-6.1-19.6c-6.1-6.1-14.2-6.1-19.6-6.1h-41.5v-56.4
							c9.4,0,30.8,0.4,47.6,3.6c5.7,3.5,11.2,2,13.1,1.3c3.5-1.3,9.5-5,10.2-15.2c0.1-2.1,0.1-4.4,0.1-7.2l-0.1-4.9v-75.8
							c0-4.8,0-12.8-6.1-18.7c-5.9-5.7-13.5-5.7-18.6-5.7L1832.2,949.7L1832.2,949.7z M1944.5,978.6v67.1c-21-2.7-43-2.4-46.8-2.3
							c-4.6-0.2-11.9-0.4-17.8,5.2c-6.2,5.9-6.2,14.1-6.2,20v63.4c0,5.4,0,13.5,6.1,19.6c6.1,6.1,14.2,6.1,19.6,6.1h41.5v60.6h-41.5
							c-5.4,0-13.5,0-19.6,6.1c-6.1,6.1-6.1,14.2-6.1,19.6v70.8c0,5.4,0,13.5,6.1,19.6c6.1,6.1,14.2,6.1,19.6,6.1h45.2v64.3h-109.9
							c3-16.6,4.5-33.4,4.5-50.3c0-3.7-0.1-7.4-0.2-11.2c0.1-0.8,0.2-1.7,0.2-1.7c0.9-8.3,1.3-27.7,1.3-55.6
							c0-59.1-1.8-156.2-3.9-265c0,0-0.7-36.1-0.8-42.1L1944.5,978.6L1944.5,978.6z"/>
					</g>
					<g class="st13">
						<defs>
							<rect id="SVGID_71_" x="-254.3" y="92.4" width="4160" height="1664"/>
						</defs>
						<clipPath id="SVGID_72_">
							<use xlink:href="#SVGID_71_"  style="overflow:visible;"/>
						</clipPath>
						<g class="st38">
							<g>
								<g>
									<defs>
										<rect id="SVGID_73_" x="2190.4" y="964.2" width="78.3" height="454.7"/>
									</defs>
									<clipPath id="SVGID_74_">
										<use xlink:href="#SVGID_73_"  style="overflow:visible;"/>
									</clipPath>
									<path class="st39" d="M2190.4,974.8c6.1,144.1,6.1,288.5,0.2,432.6c0,0.1,0,0.3,0,0.4c-0.6,10.1,0.5,11.2,10.6,11.2
										l57.4-0.6c8.6,0,9.4-0.3,9.4-10.3c0,0,0,0,0-0.7c-6.5-145.2-6.3-290.6,0.7-435.8c1.1-7.3-5.3-6.7-12.5-6.7l-54.9-0.7
										C2191.3,964.2,2190.1,965.3,2190.4,974.8"/>
								</g>
							</g>
						</g>
					</g>
					<g class="st13">
						<defs>
							<rect id="SVGID_75_" x="-254.3" y="92.4" width="4160" height="1664"/>
						</defs>
						<clipPath id="SVGID_76_">
							<use xlink:href="#SVGID_75_"  style="overflow:visible;"/>
						</clipPath>
						<path class="st40" d="M2201.2,949.7c-5.4,0-13.7,0-19.7,6.2c-4.8,5-5.6,11.4-5.6,16.3c0,1.1,0,2.2,0.1,3.1v0.1
							c3.1,72.3,4.6,145.1,4.6,218c0,71.3-1.5,142.6-4.4,213.4c0,0.1,0,0.3,0,0.3c-0.1,1.3-0.1,2.8-0.1,4.3c0,5,0.8,10.9,5.4,15.7
							c6,6.3,14.3,6.3,19.8,6.3c0,0,57.4-0.6,57.5-0.6c5.6,0,12.5,0,18.1-5.6c5.2-5.3,5.7-12.2,5.7-17.6c0-0.5,0-1,0-1.5
							c0-0.1,0-1,0-1l0-0.3c-3.1-69.7-4.7-139.9-4.7-210.1c0-74.8,1.8-149.7,5.3-224c0.1-0.9,0.2-1.8,0.2-2.6c0-5.9-2.3-10-4.5-12.5
							c-6.1-7.1-14.9-7.1-21.3-7.1c0,0-1.1,0-1.2,0C2256,950.4,2201.3,949.7,2201.2,949.7L2201.2,949.7z M2209.5,1193.4
							c0-71.7-1.5-143.4-4.4-214.7c6.7,0.1,45.1,0.5,48.7,0.6c-3.3,72.1-5,144.8-5,217.4c0,69.3,1.5,138.5,4.5,207.3
							c-7.8,0.1-41.6,0.4-48.1,0.5C2208.1,1334.4,2209.5,1263.9,2209.5,1193.4"/>
					</g>
					<g class="st13">
						<defs>
							<rect id="SVGID_77_" x="-254.3" y="92.4" width="4160" height="1664"/>
						</defs>
						<clipPath id="SVGID_78_">
							<use xlink:href="#SVGID_77_"  style="overflow:visible;"/>
						</clipPath>
						<g class="st41">
							<g>
								<g>
									<defs>
										<rect id="SVGID_79_" x="2293.3" y="964.2" width="139" height="454.7"/>
									</defs>
									<clipPath id="SVGID_80_">
										<use xlink:href="#SVGID_79_"  style="overflow:visible;"/>
									</clipPath>
									<path class="st42" d="M2432.2,1049.9v-75.8c0-8.9-1-9.9-10.3-9.9h-116.5c-10.1,0-11.2,1.1-11,11.2
										c2.3,121.4,6.9,333.9,3.5,364.4c-0.1,0.8-0.2,1.7-0.3,2.7c0.9,20.6-0.6,41.3-4.4,61.6c0.1,1.2,0.1,2.5,0.2,3.7
										c0.7,10.1,1.9,11.2,12,11.2H2422c9.3,0,10.3-1.1,10.3-11.2v-70.8c0-10.1-1.1-11.2-11.2-11.2h-48.5
										c-10.1,0-11.2-1.1-11.2-11.2v-70.8c0-10.1,1.1-11.2,11.2-11.2h44.7c10.1,0,11.2-1.1,11.2-11.2v-67.1
										c0-10.1-1.1-11.2-11.2-11.2h-44.7c-10.1,0-11.2-1.1-11.2-11.2v-63.4c0-10.1,0.9-11.1,9.4-10.7c0,0,34.8-0.8,58.9,4.6
										C2433.1,1066.4,2432.2,1060,2432.2,1049.9"/>
								</g>
							</g>
						</g>
					</g>
					<g class="st13">
						<defs>
							<rect id="SVGID_81_" x="-254.3" y="92.4" width="4160" height="1664"/>
						</defs>
						<clipPath id="SVGID_82_">
							<use xlink:href="#SVGID_81_"  style="overflow:visible;"/>
						</clipPath>
						<path class="st43" d="M2305.5,949.7c-5.4,0-13.6,0-19.6,6.1c-6,6.1-5.9,14.3-5.8,19.8l0.9,45.6c2.3,115.8,5.6,290.9,2.7,316.8
							l-0.4,3.7l0,1.2c0.9,19.5-0.5,39.1-4.2,58.3l-0.3,1.8l0.3,5.7c0.4,5.3,0.9,13.2,7,18.9c6.1,5.7,14.1,5.7,19.4,5.7H2422
							c5,0,13.3,0,19.2-6.5c5.5-6,5.5-13.6,5.5-19.1v-70.8c0-5.4,0-13.5-6.1-19.6c-6.1-6.1-14.2-6.1-19.6-6.1h-45.2V1247h41.5
							c5.4,0,13.5,0,19.6-6.1s6.1-14.2,6.1-19.6v-67.1c0-5.4,0-13.5-6.1-19.6c-6.1-6.1-14.2-6.1-19.6-6.1h-41.5v-56.4
							c9.4,0,30.8,0.4,47.6,3.6c5.7,3.5,11.2,2,13.1,1.3c3.5-1.3,9.5-5,10.2-15.2c0.1-2.1,0.1-4.4,0.1-7.2l-0.1-4.9v-75.8
							c0-4.8,0-12.8-6.1-18.7c-5.9-5.7-13.5-5.7-18.6-5.7L2305.5,949.7L2305.5,949.7z M2417.8,978.6v67.1c-21-2.7-43-2.4-46.8-2.3
							c-4.6-0.2-11.9-0.4-17.8,5.2c-6.2,5.9-6.2,14.1-6.2,20v63.4c0,5.4,0,13.5,6.1,19.6c6.1,6.1,14.2,6.1,19.6,6.1h41.5v60.6h-41.5
							c-5.4,0-13.5,0-19.6,6.1s-6.1,14.2-6.1,19.6v70.8c0,5.4,0,13.5,6.1,19.6c6.1,6.1,14.2,6.1,19.6,6.1h45.2v64.3h-109.9
							c3-16.6,4.5-33.4,4.5-50.3c0-3.7-0.1-7.4-0.2-11.2c0.1-0.8,0.2-1.7,0.2-1.7c0.9-8.3,1.3-27.7,1.3-55.7
							c0-59.1-1.8-156.2-3.9-265c0,0-0.7-36-0.8-42.1L2417.8,978.6L2417.8,978.6z"/>
					</g>
					<g class="st13">
						<defs>
							<rect id="SVGID_83_" x="-254.3" y="92.4" width="4160" height="1664"/>
						</defs>
						<clipPath id="SVGID_84_">
							<use xlink:href="#SVGID_83_"  style="overflow:visible;"/>
						</clipPath>
						<g class="st44">
							<g>
								<g>
									<defs>
										<rect id="SVGID_85_" x="2455.7" y="956.8" width="169.3" height="473.3"/>
									</defs>
									<clipPath id="SVGID_86_">
										<use xlink:href="#SVGID_85_"  style="overflow:visible;"/>
									</clipPath>
									<path class="st45" d="M2516,1295.4v-14.6c0-6.6-1.1-7.3-11.2-7.3h-33.6c-10.1,0-11.2,1-11.2,10.3v114
										c0,10.1,1,11.7,10.2,15.9c15.9,7.4,56.9,16.6,66.2,16.4c50.1-1.3,71.6-30.5,82-78.3c10.6-49.1,10.7-126.3-18.6-164
										c-16-20.6-44-39.1-61.5-59.6c-19-22.4-30.6-49.9-16.8-74.6c6.9-12.3,22-17.9,29.8-7.5c6.5,8.6,12,31,10.4,43.3
										c-1,8,0,8.9,10.1,8.9h32.2c7.9,0,8.8-1,8.8-10.2V989c0-10.1-1-11.7-9.8-16.6c-30.5-16.8-67-19.7-90.8-10.1
										c-51.7,21-59.2,89.4-55.9,151.7c2.9,54.2,11.3,84.4,51.5,117.6c32.5,26.8,65,49.4,52.9,92.9c-3.6,12.8-14.2,28.1-31.1,19.8
										c-6.2-3.1-12-17.9-12.9-28.9C2516.1,1307.3,2516,1305.3,2516,1295.4"/>
								</g>
							</g>
						</g>
					</g>
					<g class="st13">
						<defs>
							<rect id="SVGID_87_" x="-254.3" y="92.4" width="4160" height="1664"/>
						</defs>
						<clipPath id="SVGID_88_">
							<use xlink:href="#SVGID_87_"  style="overflow:visible;"/>
						</clipPath>
						<path class="st46" d="M2506.9,948.9c-27.8,11.3-46.9,34.7-57,69.7c-7.4,25.6-9.9,57-7.9,96.1c1.3,23.8,3.7,48.8,12.8,71.3
							c8.5,20.9,22.4,38.9,43.9,56.6l6.8,5.6c32,26.1,49.7,42.4,41.4,72.3c-1.7,6.1-4.9,10.4-7.1,11.4c-0.3,0.1-1,0.4-2.7-0.3
							c-1.9-2.4-5.2-10.2-5.8-17.5c-0.7-7.8-0.7-9.4-0.7-18.9v-14.6c0-3.5,0-12.8-8.4-18.2c-5-3.3-10.5-3.5-17.3-3.5h-33.6
							c-5.6,0-13.2,0-19.1,5.5c-6.5,6-6.5,14.3-6.5,19.2v114c0,6.2,0.3,12.2,3.9,17.9c3.6,5.7,9,8.5,14.6,11.1
							c17.2,8,60.5,18,72.7,17.7c68.8-1.7,87.6-52,95.8-89.7c4.5-20.7,6.9-44.2,6.9-67c0-8-0.3-15.8-0.9-23.5
							c-2-25.5-8.3-61.1-27.3-85.5c-9.3-11.9-21.8-22.8-33.9-33.4c-10.5-9.2-20.4-17.8-28-26.7c-8.9-10.5-15.1-21.2-17.8-30.9
							c-1.1-3.9-1.6-7.6-1.6-11.2c0-5.7,1.4-11,4.2-16.1c1.9-3.4,4.6-5,5.9-5.4c3.5,5.1,7.5,20,7.5,29.4c0,1.1-0.1,2.1-0.2,3
							c-0.2,1.5-0.4,3.4-0.4,5.5c0,4,0.9,8.9,4.6,13.1c5.8,6.6,14.2,6.6,20.3,6.6h32.2c4.4,0,12.5,0,18.3-6.6
							c4.9-5.7,4.9-12.8,4.9-17.9V989c0-6.1-0.3-12-3.6-17.6c-3.3-5.6-8.4-8.7-13.7-11.6c-16.3-9-34.8-14.8-53.4-16.7
							C2538.2,941.2,2521,943.2,2506.9,948.9 M2551.5,1358.4c10.6-4.7,19.2-16,23.1-30c6.3-22.6,3.2-42.7-9.5-61.6
							c-10.4-15.5-25.5-27.8-41.4-40.9l-6.7-5.5c-36.6-30.2-43.6-56.3-46.3-107.2c-1.9-35.8,0.3-64.2,6.8-86.6
							c7.6-26.4,20.7-43.1,40.1-51c20.9-8.4,53.1-4.6,78.4,9.3c1,0.6,1.8,1,2.3,1.3c0,0.6,0,1.5,0,2.6v94.9h-21.9
							c-0.2-15.8-6-36.4-13.6-46.4c-5.8-7.7-14.7-11.8-24.2-11.1c-11.8,0.8-23.2,8.6-29.7,20.2c-8.2,14.7-10,31.7-5.2,49
							c3.9,13.9,11.8,28.1,23.6,41.9c9,10.6,20.2,20.3,31,29.8c11.6,10.1,22.5,19.7,30.1,29.4c11.6,14.9,18.9,39.1,21.3,70
							c2.1,26.8,0.1,56.8-5.4,82.1c-5,22.9-12.3,39.1-22.4,49.6c-10.7,11.1-25.7,16.8-45.9,17.3c-7,0.1-45.9-8.6-59.8-15
							c-0.7-0.3-1.3-0.6-1.8-0.9c0-0.5,0-1.2,0-1.9V1288h27v7.4c0,10.2,0.1,12.6,0.8,21.3c0.7,8.8,5.9,33.3,20.9,40.6
							C2535.4,1363.3,2545.3,1361.2,2551.5,1358.4"/>
					</g>
					<g class="st13">
						<defs>
							<rect id="SVGID_89_" x="-254.3" y="92.4" width="4160" height="1664"/>
						</defs>
						<clipPath id="SVGID_90_">
							<use xlink:href="#SVGID_89_"  style="overflow:visible;"/>
						</clipPath>
						<path class="st47" d="M1591.6,1222.3c1.8,9.2,2.1,11.4,2.7,21.4l9.9,164.7c0.6,9.4-0.5,10.5-10.6,10.5h-41
							c-9.8,0-11.2-1.2-11.7-10.4l-6.4-138.8c-0.5-10.1-0.6-11.8-1.7-17.6c-2.5-14.1-8.9-20-19.7-21.1c-5.6-0.4-11.2,0.1-16.5,1.5
							c-3.2,1.3-3.6,4-3.6,11.1v164.7c0,9.5-0.9,10.5-9.4,10.5h-50.2c-10.1,0-11.2-0.7-11.5-6.5c-0.1-1,0-2.1,0.1-3.1
							c2.8-10.2,4.1-20.8,3.9-31.4c0-0.9,0-1.8,0-2.8l-3.5-400.1c-0.1-9.8,0.9-10.9,9.9-10.9h88.2c10.1,0,12,0.1,19.6,0.9
							c9,1,25.8,8.2,31.2,12.1c16.6,12.3,24.5,53.9,26.1,74.2c3.6,45.1,0.8,107.4-47,130.9c-0.6,0.3-1.2,0.6-1.8,0.9l0.2,4.8
							c0.6,0.1,1.3,0.1,2.1,0.2C1576.4,1190.6,1587.1,1199.9,1591.6,1222.3 M1493,1139.4c0,10.1,0.6,11.3,6,11.9
							c18.7,2.1,30-6.7,33.2-15.6c9.5-26.6,11.5-71.9-7.4-86.2c-3.9-2.9-5.3-3.3-13.5-3.3H1499c-5.5,0-6.1,1-6.1,10V1139.4z"/>
					</g>
					<g class="st13">
						<defs>
							<rect id="SVGID_91_" x="-254.3" y="92.4" width="4160" height="1664"/>
						</defs>
						<clipPath id="SVGID_92_">
							<use xlink:href="#SVGID_91_"  style="overflow:visible;"/>
						</clipPath>
						<path class="st48" d="M1432.2,949.7c-4.7,0-12.7,0-18.6,5.9c-6,6-5.9,14.1-5.8,19.5l3.5,400.1l0,2.9c0.1,9.3-1,18.5-3.4,27.4
							l-0.3,1.3l-0.1,1.3c-0.2,1.8-0.2,3.4-0.1,5c0.2,3.1,0.6,12.3,9.4,17.3c4.8,2.7,9.9,2.9,16.5,2.9h50.2c4.8,0,12.8,0,18.6-6.5
							c5.2-5.8,5.2-13.1,5.2-18.4v-163c1.5-0.1,3-0.1,4.5,0.1c3.1,0.3,5.1,0.7,6.7,9.2c0.9,4.8,1,5.8,1.5,15.7l6.4,138.8
							c0.2,4.8,0.6,12.9,7.1,18.7c6.1,5.4,13.8,5.4,19,5.4h41c5.5,0,13.9,0,19.9-6.3c4.5-4.7,5.3-10.6,5.3-15.3
							c0-1.5-0.1-2.9-0.2-4.1l-9.9-164.7c-0.6-10.7-1-13.5-3-23.4l0,0c-3.9-19.6-12.5-32.2-27.4-39.2c13.5-12.8,23.2-30.1,28.8-51.7
							c3.9-15,5.8-31.8,5.8-51.1c0-8.6-0.4-17.7-1.2-27.2c-0.5-6.6-5.9-65.4-31.9-84.6c-7.6-5.7-26.8-13.6-38.2-14.9
							c-8.2-0.9-10.6-1-21.2-1L1432.2,949.7L1432.2,949.7z M1520.4,978.6c9.5,0,11.1,0.1,18.1,0.8c6.1,0.7,20.6,6.8,24.2,9.4
							c1.7,1.3,7.6,6.8,13.4,26.5c4,13.5,6.2,28.1,6.9,37.2c2.2,27.7,1,50.2-3.8,68.8c-6.1,23.7-17.6,39.4-35.2,48l-2,1l-8.4,4.2
							l0.4,9.3l0.7,17.3l14.7,1.4c20.3,1.9,25,7.5,28,22.5l0,0c1.7,8.6,1.9,10.1,2.5,19.5c0,0,9.1,150.8,9.6,159.9h-34.2
							c-0.3-6.4-6.3-135.4-6.3-135.4c-0.5-10.1-0.7-12.7-1.9-19.5c-4.5-25-20.2-31.7-32.5-32.9l-0.1,0l-0.1,0
							c-7.2-0.6-14.4,0.1-21.3,1.9l-1,0.3l-0.9,0.4c-12.5,5.2-12.5,17.8-12.5,24.5v160.8h-40.7c1.6-8.2,2.4-16.4,2.4-24.8
							c0-0.7,0-1.3,0-2v0.2l0-2.9c0,0-3.4-389.2-3.5-396.4H1520.4z"/>
					</g>
					<g class="st13">
						<defs>
							<rect id="SVGID_93_" x="-254.3" y="92.4" width="4160" height="1664"/>
						</defs>
						<clipPath id="SVGID_94_">
							<use xlink:href="#SVGID_93_"  style="overflow:visible;"/>
						</clipPath>
						<path class="st49" d="M1499.1,1031.7c-3,0-12.2,0-17.4,8.6c-2.9,4.7-3.1,9.8-3.1,15.9v83.2c0,6.4,0.2,11.3,2.5,16
							c4.5,8.9,13.3,9.9,16.3,10.3c26.2,3,43.2-10.4,48.4-25.1c10.6-29.6,14-82.7-12.3-102.6c-7.4-5.6-12.5-6.2-22.2-6.2H1499.1z
							 M1511.2,1060.6c2.1,0,3.5,0,4.4,0.1c0.1,0.1,0.2,0.2,0.4,0.3c3.7,2.8,8,11.5,8.6,27.5c0.1,1.4,0.1,2.8,0.1,4.3
							c0,12.9-2.3,27.1-6.2,38c-0.9,2.4-4.4,5.5-11.1,6.2v-76.3L1511.2,1060.6L1511.2,1060.6z"/>
					</g>
					<g class="st13">
						<defs>
							<rect id="SVGID_95_" x="-254.3" y="92.4" width="4160" height="1664"/>
						</defs>
						<clipPath id="SVGID_96_">
							<use xlink:href="#SVGID_95_"  style="overflow:visible;"/>
						</clipPath>
						<path class="st50" d="M2151.5,1222.3c1.8,9.2,2.1,11.4,2.7,21.4l9.9,164.7c0.6,9.4-0.5,10.5-10.6,10.5h-41
							c-9.9,0-11.2-1.2-11.7-10.4l-6.4-138.8c-0.5-10.1-0.6-11.8-1.7-17.6c-2.5-14.1-8.9-20-19.7-21.1c-5.6-0.4-11.1,0.1-16.5,1.5
							c-3.2,1.3-3.6,4-3.6,11.1v164.7c0,9.5-0.9,10.5-9.4,10.5h-50.2c-10.1,0-11.2-0.7-11.5-6.5c-0.1-1,0-2.1,0.1-3.1
							c2.8-10.2,4.1-20.8,3.9-31.4c0-0.9,0-1.8,0-2.8l-3.5-400.1c-0.1-9.8,0.9-10.9,9.9-10.9h88.2c10.1,0,12,0.1,19.6,0.9
							c9,1,25.8,8.2,31.2,12.1c16.6,12.3,24.5,53.9,26.1,74.2c3.6,45.1,0.8,107.4-47,130.9c-0.6,0.3-1.2,0.6-1.8,0.9l0.2,4.8
							c0.6,0.1,1.3,0.1,2.1,0.2C2136.4,1190.6,2147.1,1199.9,2151.5,1222.3 M2052.9,1139.4c0,10.1,0.6,11.3,6,11.9
							c18.7,2.1,30-6.7,33.2-15.6c9.5-26.6,11.5-71.9-7.4-86.2c-3.9-2.9-5.3-3.3-13.5-3.3H2059c-5.5,0-6.1,1-6.1,10V1139.4z"/>
					</g>
					<g class="st13">
						<defs>
							<rect id="SVGID_97_" x="-254.3" y="92.4" width="4160" height="1664"/>
						</defs>
						<clipPath id="SVGID_98_">
							<use xlink:href="#SVGID_97_"  style="overflow:visible;"/>
						</clipPath>
						<path class="st51" d="M1992.2,949.7c-4.7,0-12.7,0-18.6,5.9c-6,6-5.9,14.1-5.8,19.5l3.5,400.1l0,2.9c0.1,9.3-1,18.5-3.4,27.4
							l-0.3,1.3l-0.1,1.3c-0.2,1.8-0.2,3.4-0.1,5c0.2,3,0.6,12.3,9.4,17.3c4.8,2.7,9.9,2.9,16.5,2.9h50.2c4.8,0,12.8,0,18.6-6.5
							c5.2-5.8,5.2-13.1,5.2-18.4v-163c1.5-0.1,3-0.1,4.5,0.1c3.1,0.3,5.1,0.7,6.7,9.2c0.9,4.8,1,5.8,1.5,15.7l6.4,138.8
							c0.2,4.8,0.6,12.9,7.1,18.7c6.1,5.4,13.8,5.4,19,5.4h41c5.5,0,13.9,0,19.9-6.3c4.5-4.7,5.3-10.6,5.3-15.3
							c0-1.5-0.1-2.9-0.2-4.1l-9.9-164.7c-0.6-10.7-1-13.5-3-23.4c-3.9-19.6-12.5-32.2-27.4-39.2c13.5-12.8,23.2-30.1,28.8-51.7
							c3.9-15,5.8-31.8,5.8-51.1c0-8.6-0.4-17.7-1.1-27.2c-0.5-6.6-5.9-65.4-31.9-84.6c-7.6-5.7-26.8-13.6-38.2-14.9
							c-8.2-0.9-10.6-1-21.2-1L1992.2,949.7L1992.2,949.7z M2080.4,978.6c9.5,0,11.1,0.1,18.1,0.8c6.1,0.7,20.6,6.8,24.2,9.4
							c1.7,1.3,7.6,6.8,13.4,26.5c4,13.5,6.2,28.1,6.9,37.2c2.2,27.7,1,50.2-3.8,68.8c-6.1,23.7-17.6,39.4-35.2,48l-2,1l-8.4,4.2
							l0.4,9.3l0.7,17.3l14.7,1.4c20.3,1.9,25,7.5,28,22.5l0,0c1.7,8.6,1.9,10.1,2.5,19.5c0,0,9.1,150.8,9.6,159.9h-34.2
							c-0.3-6.4-6.3-135.4-6.3-135.4c-0.5-10.1-0.7-12.7-1.9-19.5c-4.5-25-20.2-31.7-32.5-32.9l-0.1,0l-0.1,0
							c-7.2-0.6-14.4,0.1-21.4,1.9l-1,0.3l-0.9,0.4c-12.5,5.2-12.5,17.8-12.5,24.5v160.8h-40.7c1.6-8.2,2.4-16.4,2.4-24.8
							c0-0.7,0-1.3,0-2v0.2l0-2.9c0,0-3.4-389.2-3.5-396.4L2080.4,978.6L2080.4,978.6z M2165.7,1219.5L2165.7,1219.5L2165.7,1219.5
							L2165.7,1219.5z"/>
					</g>
					<g class="st13">
						<defs>
							<rect id="SVGID_99_" x="-254.3" y="92.4" width="4160" height="1664"/>
						</defs>
						<clipPath id="SVGID_100_">
							<use xlink:href="#SVGID_99_"  style="overflow:visible;"/>
						</clipPath>
						<path class="st52" d="M2059,1031.7c-3,0-12.2,0-17.4,8.6c-2.9,4.7-3.1,9.8-3.1,15.9v83.2c0,6.4,0.2,11.3,2.5,16
							c4.5,8.9,13.3,9.9,16.3,10.3c26.2,3,43.2-10.4,48.4-25.1c10.6-29.6,14-82.7-12.3-102.6c-7.4-5.6-12.5-6.2-22.1-6.2H2059z
							 M2071.2,1060.6c2.1,0,3.5,0,4.4,0.1c0.1,0.1,0.2,0.2,0.4,0.3c3.7,2.8,8,11.5,8.6,27.5c0.1,1.4,0.1,2.8,0.1,4.3
							c0,12.9-2.3,27.1-6.2,38c-0.9,2.4-4.4,5.5-11.1,6.2v-76.3L2071.2,1060.6L2071.2,1060.6z"/>
					</g>
				</g>
				<g class="st0">
					<g class="st13">
						<defs>
							<rect id="SVGID_101_" x="-254.3" y="92.4" width="4160" height="1664"/>
						</defs>
						<clipPath id="SVGID_102_">
							<use xlink:href="#SVGID_101_"  style="overflow:visible;"/>
						</clipPath>
						<path class="st53" d="M1366.4,736.1c0.2,7,1.9,7.9,9.8,7.9h83.2c10.1,0,11.1-1.1,10.5-11.2c-11.2-174.8-7.3-237,0.3-447.3
							c0.4-10.1-0.7-11.2-10.8-11.2h-158.5c-8.8,0-10.7,1.8-12.1,11.1l-45.6,320.7c-0.7,4.7-10.5,4.7-11.2,0l-49.2-320.7
							c-1.4-9.3-3.4-11-12.2-11h-158.5c-10.1,0-11.1,1.1-10,11.1c14.1,127.6,5.6,295.6,2.7,447.4c-0.2,10.1,0.9,11.2,11,11.2h83.2
							c9,0,10-1.1,9.9-10.8l0-1.9l-0.3-322.6l13.2,0c0.5,1.5,1.1,4.2,2.2,10.9l52.9,313.8c1.5,8.9,3.7,10.7,13,10.7h95.7
							c8,0,10.7-1.3,12.3-7.4c0-0.1,0.4-2.5,1.2-6.9l55.8-320.6c0-0.1,0-0.1,0.1-0.2c0.5-2,12-0.6,13-0.4L1366.4,736.1z"/>
					</g>
					<g class="st13">
						<defs>
							<rect id="SVGID_103_" x="-254.3" y="92.4" width="4160" height="1664"/>
						</defs>
						<clipPath id="SVGID_104_">
							<use xlink:href="#SVGID_103_"  style="overflow:visible;"/>
						</clipPath>
						<path class="st54" d="M2460.9,744h116.8c10.1,0,11.1-1.1,10.3-11.2c-10.5-130.9-10.9-313.3,0-443.6c0.8-10-0.2-11.1-10.3-11.1
							h-85.7c-10.1,0-11.1,1.1-10.4,11.2c5.4,80.5,15.7,229.2,14.7,257.7l-16,12.5c-0.1-0.1-0.2-0.3-0.3-0.4
							c-0.9-1.2-1.3-2.5-3.9-12.2l-69.4-258.4c-2.2-8.2-4.9-10.4-13.1-10.4h-117.7c-10.1,0-11.1,1.1-10.6,11.2
							c9.6,194.9,8.9,240.6-0.1,443.6c-0.4,10.1,0.6,11.2,10.7,11.2h85.7c10.1,0,11.1-1.1,10.7-11.2c-2.1-53.8-4.8-130.3-8.1-181.9
							c-1.7-27.9-4.6-55.7-8.9-83.3l13.2-9c0.1,0.2,0.2,0.4,0.3,0.7c27.6,90.7,53.6,182,77.9,273.6c0,0.1,0,0.1,0.1,0.2
							C2449.4,742.9,2450.8,744,2460.9,744"/>
					</g>
					<g class="st13">
						<defs>
							<rect id="SVGID_105_" x="-254.3" y="92.4" width="4160" height="1664"/>
						</defs>
						<clipPath id="SVGID_106_">
							<use xlink:href="#SVGID_105_"  style="overflow:visible;"/>
						</clipPath>
						<path class="st55" d="M1515.3,434.4c0.1-34.2,8.7-83.7,21.1-107.5c29.6-57.1,117.6-60.7,194-52.5
							c106.4,11.4,116.3,67.2,120.4,182.6c2.2,60,11.5,182.5-28,238.6c-50.3,71.4-218,78-272.1,7.5
							C1504.8,643.2,1515.1,503.1,1515.3,434.4 M1724.1,413.4c-0.4-14.6-8.1-45.9-16.8-57c-15.5-19.9-38.3-12.2-52.2,7.5
							c-28,39.5-18.2,180.9-16.8,200.2c1.6,22.2,6.7,79,20.5,98c19.6,26.9,45.2,15.6,55.9-14.9C1732,598,1724.6,433.2,1724.1,413.4"
							/>
					</g>
					<g class="st13">
						<defs>
							<rect id="SVGID_107_" x="-254.3" y="92.4" width="4160" height="1664"/>
						</defs>
						<clipPath id="SVGID_108_">
							<use xlink:href="#SVGID_107_"  style="overflow:visible;"/>
						</clipPath>
						<path class="st56" d="M1886.3,434.4c0.1-34.2,8.7-83.7,21.1-107.5c29.6-57.1,117.6-60.7,194-52.5
							c106.4,11.4,116.3,67.2,120.4,182.6c2.1,60,11.5,182.5-28,238.6c-50.3,71.4-218,78-272.1,7.5
							C1875.8,643.2,1886.1,503.1,1886.3,434.4 M2095,413.4c-0.4-14.6-8.1-45.9-16.8-57c-15.5-19.9-38.3-12.2-52.2,7.5
							c-28,39.5-18.2,180.9-16.8,200.2c1.6,22.2,6.7,79,20.5,98c19.6,26.9,45.2,15.6,55.9-14.9C2103,598,2095.6,433.2,2095,413.4"/>
					</g>
					<g class="st13">
						<defs>
							<rect id="SVGID_109_" x="-254.3" y="92.4" width="4160" height="1664"/>
						</defs>
						<clipPath id="SVGID_110_">
							<use xlink:href="#SVGID_109_"  style="overflow:visible;"/>
						</clipPath>
						<path class="st57" d="M1109,1418.9h61.2c8.7,0,9.7-1.1,9.6-11.2l-3.5-432.4c-0.1-10-1.3-11.2-11.3-11.2h-33.6
							c-10.1,0-11.2,1.1-10.9,10.7l6.9,250.2c0.1,2.4,0.1,4.3,0.1,5.8l-9.8,4.1c-5.7-16.2-28.5-176.2-40.6-259.8
							c-1.4-10-2.7-11.1-12.8-11.1h-59.6c-10.1,0-11.1,1.1-10.4,11.2c9.4,137.6,3.9,273.3-0.5,432.4c-0.3,10.1,0.8,11.2,10.9,11.2
							h43c8.3,0,9.2-1.1,8.8-10.7l-10.3-250.2c-0.1-3.3-0.2-5.7-0.2-7.3l9.1-3.9c0,0,0,0,0,0c0.1,0.1,0.3,0.3,0.4,0.7
							c17.7,84.9,32.2,170.5,43.5,256.5c0.2,2.3,0.2,4.6-0.1,6.9C1097.9,1418.1,1099,1418.9,1109,1418.9"/>
					</g>
					<g class="st13">
						<defs>
							<rect id="SVGID_111_" x="-254.3" y="92.4" width="4160" height="1664"/>
						</defs>
						<clipPath id="SVGID_112_">
							<use xlink:href="#SVGID_111_"  style="overflow:visible;"/>
						</clipPath>
						<path class="st58" d="M1388.7,1314.6l3.5-339.5c0.1-9.8-1-10.8-11.1-10.8h-48.5c-10.1,0-11.2,1.1-11.1,10.8l3.5,317.3
							c0.1,10.1,0,11.8-1,17.6c-3.5,19.2-18.1,28.1-29.9,23.3c-5.1-2-12.3-11.2-15.3-24.4c-1.8-8.1-2.1-10.2-2.1-20.2V975
							c0-9.7-1.1-10.8-11.2-10.8h-44.7c-10.1,0-11.2,1.1-11,10.8l7,356.3c0.2,10.1,0.4,12.3,1.9,22.3c7.4,49,31.1,71.3,72.9,76.5
							c57.2,7.1,87.8-30,95.6-93.2C1388.5,1326.9,1388.6,1324.6,1388.7,1314.6"/>
					</g>
					<g class="st13">
						<defs>
							<rect id="SVGID_113_" x="-254.3" y="92.4" width="4160" height="1664"/>
						</defs>
						<clipPath id="SVGID_114_">
							<use xlink:href="#SVGID_113_"  style="overflow:visible;"/>
						</clipPath>
						<path class="st59" d="M1686.8,1295.4v-14.6c0-6.6-1.1-7.3-11.2-7.3h-33.6c-10.1,0-11.2,1-11.2,10.3v114
							c0,10.1,1,11.7,10.2,15.9c15.8,7.4,56.9,16.6,66.2,16.4c50.1-1.3,71.7-30.5,82-78.3c10.7-49.1,10.7-126.3-18.6-164
							c-16-20.6-44-39.1-61.5-59.6c-19-22.4-30.6-49.9-16.8-74.6c6.9-12.3,22-17.9,29.8-7.5c6.5,8.6,12,31,10.4,43.3
							c-1,8,0,8.9,10.1,8.9h32.2c7.9,0,8.8-1,8.8-10.2V989c0-10.1-1-11.7-9.8-16.6c-30.5-16.8-67-19.7-90.8-10.1
							c-51.7,21-59.2,89.4-55.9,151.7c2.9,54.2,11.3,84.4,51.5,117.6c32.5,26.8,65,49.4,52.9,92.9c-3.6,12.8-14.2,28.1-31.1,19.8
							c-6.2-3.1-11.9-17.9-12.9-28.9C1686.9,1307.3,1686.8,1305.3,1686.8,1295.4"/>
					</g>
					<g class="st13">
						<defs>
							<rect id="SVGID_115_" x="-254.3" y="92.4" width="4160" height="1664"/>
						</defs>
						<clipPath id="SVGID_116_">
							<use xlink:href="#SVGID_115_"  style="overflow:visible;"/>
						</clipPath>
						<path class="st60" d="M1958.9,1049.9v-75.8c0-8.9-1-9.9-10.3-9.9h-116.5c-10.1,0-11.2,1.1-11,11.2
							c2.3,121.4,6.9,333.9,3.5,364.4c-0.1,0.8-0.2,1.7-0.3,2.7c0.9,20.6-0.6,41.3-4.4,61.6c0.1,1.2,0.1,2.5,0.2,3.7
							c0.7,10.1,1.9,11.2,12,11.2h116.5c9.3,0,10.3-1.1,10.3-11.2v-70.8c0-10.1-1.1-11.2-11.2-11.2h-48.5
							c-10.1,0-11.2-1.1-11.2-11.2v-70.8c0-10.1,1.1-11.2,11.2-11.2h44.7c10.1,0,11.2-1.1,11.2-11.2v-67.1
							c0-10.1-1.1-11.2-11.2-11.2h-44.7c-10.1,0-11.2-1.1-11.2-11.2v-63.4c0-10.1,0.9-11.1,9.4-10.7c0,0,34.8-0.8,58.9,4.6
							C1959.7,1066.4,1958.9,1060,1958.9,1049.9"/>
					</g>
					<g class="st13">
						<defs>
							<rect id="SVGID_117_" x="-254.3" y="92.4" width="4160" height="1664"/>
						</defs>
						<clipPath id="SVGID_118_">
							<use xlink:href="#SVGID_117_"  style="overflow:visible;"/>
						</clipPath>
						<path class="st61" d="M2190.4,974.8c6.1,144.1,6.1,288.5,0.2,432.6c0,0.1,0,0.3,0,0.4c-0.6,10.1,0.5,11.2,10.6,11.2l57.4-0.6
							c8.6,0,9.4-0.3,9.4-10.3c0,0,0,0,0-0.7c-6.5-145.2-6.3-290.6,0.7-435.8c1.1-7.3-5.3-6.7-12.5-6.7l-54.9-0.7
							C2191.3,964.2,2190.1,965.3,2190.4,974.8"/>
					</g>
					<g class="st13">
						<defs>
							<rect id="SVGID_119_" x="-254.3" y="92.4" width="4160" height="1664"/>
						</defs>
						<clipPath id="SVGID_120_">
							<use xlink:href="#SVGID_119_"  style="overflow:visible;"/>
						</clipPath>
						<path class="st62" d="M2432.2,1049.9v-75.8c0-8.9-1-9.9-10.3-9.9h-116.5c-10.1,0-11.2,1.1-11,11.2
							c2.3,121.4,6.9,333.9,3.5,364.4c-0.1,0.8-0.2,1.7-0.3,2.7c0.9,20.6-0.6,41.3-4.4,61.6c0.1,1.2,0.1,2.5,0.2,3.7
							c0.7,10.1,1.9,11.2,12,11.2H2422c9.3,0,10.3-1.1,10.3-11.2v-70.8c0-10.1-1.1-11.2-11.2-11.2h-48.5c-10.1,0-11.2-1.1-11.2-11.2
							v-70.8c0-10.1,1.1-11.2,11.2-11.2h44.7c10.1,0,11.2-1.1,11.2-11.2v-67.1c0-10.1-1.1-11.2-11.2-11.2h-44.7
							c-10.1,0-11.2-1.1-11.2-11.2v-63.4c0-10.1,0.9-11.1,9.4-10.7c0,0,34.8-0.8,58.9,4.6C2433.1,1066.4,2432.2,1060,2432.2,1049.9"
							/>
					</g>
					<g class="st13">
						<defs>
							<rect id="SVGID_121_" x="-254.3" y="92.4" width="4160" height="1664"/>
						</defs>
						<clipPath id="SVGID_122_">
							<use xlink:href="#SVGID_121_"  style="overflow:visible;"/>
						</clipPath>
						<path class="st63" d="M2516,1295.4v-14.6c0-6.6-1.1-7.3-11.2-7.3h-33.6c-10.1,0-11.2,1-11.2,10.3v114c0,10.1,1,11.7,10.2,15.9
							c15.9,7.4,56.9,16.6,66.2,16.4c50.1-1.3,71.6-30.5,82-78.3c10.6-49.1,10.7-126.3-18.6-164c-16-20.6-44-39.1-61.5-59.6
							c-19-22.4-30.6-49.9-16.8-74.6c6.9-12.3,22-17.9,29.8-7.5c6.5,8.6,12,31,10.4,43.3c-1,8,0,8.9,10.1,8.9h32.2
							c7.9,0,8.8-1,8.8-10.2V989c0-10.1-1-11.7-9.8-16.6c-30.5-16.8-67-19.7-90.8-10.1c-51.7,21-59.2,89.4-55.9,151.7
							c2.9,54.2,11.3,84.4,51.5,117.6c32.5,26.8,65,49.4,52.9,92.9c-3.6,12.8-14.2,28.1-31.1,19.8c-6.2-3.1-12-17.9-12.9-28.9
							C2516.1,1307.3,2516,1305.3,2516,1295.4"/>
					</g>
					<g class="st13">
						<defs>
							<rect id="SVGID_123_" x="-254.3" y="92.4" width="4160" height="1664"/>
						</defs>
						<clipPath id="SVGID_124_">
							<use xlink:href="#SVGID_123_"  style="overflow:visible;"/>
						</clipPath>
						<path class="st64" d="M1591.6,1222.3c1.8,9.2,2.1,11.4,2.7,21.4l9.9,164.7c0.6,9.4-0.5,10.5-10.6,10.5h-41
							c-9.8,0-11.2-1.2-11.7-10.4l-6.4-138.8c-0.5-10.1-0.6-11.8-1.7-17.6c-2.5-14.1-8.9-20-19.7-21.1c-5.6-0.4-11.2,0.1-16.5,1.5
							c-3.2,1.3-3.6,4-3.6,11.1v164.7c0,9.5-0.9,10.5-9.4,10.5h-50.2c-10.1,0-11.2-0.7-11.5-6.5c-0.1-1,0-2.1,0.1-3.1
							c2.8-10.2,4.1-20.8,3.9-31.4c0-0.9,0-1.8,0-2.8l-3.5-400.1c-0.1-9.8,0.9-10.9,9.9-10.9h88.2c10.1,0,12,0.1,19.6,0.9
							c9,1,25.8,8.2,31.2,12.1c16.6,12.3,24.5,53.9,26.1,74.2c3.6,45.1,0.8,107.4-47,130.9c-0.6,0.3-1.2,0.6-1.8,0.9l0.2,4.8
							c0.6,0.1,1.3,0.1,2.1,0.2C1576.4,1190.6,1587.1,1199.9,1591.6,1222.3 M1493,1139.4c0,10.1,0.6,11.3,6,11.9
							c18.7,2.1,30-6.7,33.2-15.6c9.5-26.6,11.5-71.9-7.4-86.2c-3.9-2.9-5.3-3.3-13.5-3.3H1499c-5.5,0-6.1,1-6.1,10V1139.4z"/>
					</g>
					<g class="st13">
						<defs>
							<rect id="SVGID_125_" x="-254.3" y="92.4" width="4160" height="1664"/>
						</defs>
						<clipPath id="SVGID_126_">
							<use xlink:href="#SVGID_125_"  style="overflow:visible;"/>
						</clipPath>
						<path class="st65" d="M2151.5,1222.3c1.8,9.2,2.1,11.4,2.7,21.4l9.9,164.7c0.6,9.4-0.5,10.5-10.6,10.5h-41
							c-9.9,0-11.2-1.2-11.7-10.4l-6.4-138.8c-0.5-10.1-0.6-11.8-1.7-17.6c-2.5-14.1-8.9-20-19.7-21.1c-5.6-0.4-11.1,0.1-16.5,1.5
							c-3.2,1.3-3.6,4-3.6,11.1v164.7c0,9.5-0.9,10.5-9.4,10.5h-50.2c-10.1,0-11.2-0.7-11.5-6.5c-0.1-1,0-2.1,0.1-3.1
							c2.8-10.2,4.1-20.8,3.9-31.4c0-0.9,0-1.8,0-2.8l-3.5-400.1c-0.1-9.8,0.9-10.9,9.9-10.9h88.2c10.1,0,12,0.1,19.6,0.9
							c9,1,25.8,8.2,31.2,12.1c16.6,12.3,24.5,53.9,26.1,74.2c3.6,45.1,0.8,107.4-47,130.9c-0.6,0.3-1.2,0.6-1.8,0.9l0.2,4.8
							c0.6,0.1,1.3,0.1,2.1,0.2C2136.4,1190.6,2147.1,1199.9,2151.5,1222.3 M2052.9,1139.4c0,10.1,0.6,11.3,6,11.9
							c18.7,2.1,30-6.7,33.2-15.6c9.5-26.6,11.5-71.9-7.4-86.2c-3.9-2.9-5.3-3.3-13.5-3.3H2059c-5.5,0-6.1,1-6.1,10V1139.4z"/>
					</g>
				</g>
				<g class="st0">
					<rect x="976.4" y="785.8" class="st66" width="1666.6" height="127"/>
					<polygon class="st67" points="1488.7,892.2 1438.1,797.8 1469.1,797.8 1504.9,867.7 1539.5,797.8 1569.8,797.8 1519.3,892.2 
											"/>
					<path class="st67" d="M1697.3,892.2h-31.1l-12.3-21.4h-56.6l-11.7,21.4h-30.3l55-94.4h30.4L1697.3,892.2z M1644.8,854.8
						l-19.6-35l-19.1,35L1644.8,854.8L1644.8,854.8z"/>
					<polygon class="st67" points="1713.3,892.2 1713.3,798.6 1741.9,798.6 1741.9,876.3 1812.9,876.3 1812.9,892.2 					"/>
					<polygon class="st67" points="1834.1,892.2 1834.1,798.6 1862.7,798.6 1862.7,876.3 1933.7,876.3 1933.7,892.2 					"/>
					<polygon class="st67" points="1954.1,892.2 1954.1,797.8 2059,797.8 2059,813.8 1982.7,813.8 1982.7,834.7 2053.7,834.7 
						2053.7,850.7 1982.7,850.7 1982.7,876.3 2061.7,876.3 2061.7,892.2 					"/>
					<polygon class="st67" points="2123,892.2 2123,852.5 2071.2,797.8 2104.7,797.8 2138.1,835.2 2170.7,797.8 2203.6,797.8 
						2151.6,852.6 2151.6,892.2 					"/>
				</g>
			</g>
			<g id="Layer_4">
			</g>
			<g>
				<g>
					<g>
						<g>
							<path d="M1419.4,897.8v381.5c0,34.2-3.1,41.6-3.4,42.3c-0.2,0.3-0.7,1.3-4.9,1.3c-4.1,0-4.6-0.9-4.8-1.3
								c-0.4-0.7-3.5-8.3-3.5-42.9V897.8h-116V1311c0,47.2,9.4,80.1,28.7,100.8c19.3,20.7,51.5,31.2,95.6,31.2s76.3-10.5,95.6-31.2
								c19.3-20.6,28.7-53.6,28.7-100.8V897.8H1419.4z M1519.1,1311c0,42.4-8.1,72.3-24.3,89.7c-16.2,17.3-44.1,26-83.7,26
								c-39.6,0-67.5-8.7-83.7-26c-16.2-17.3-24.3-47.2-24.3-89.7V914.1h83.4v364.5c0,26.8,1.8,43.7,5.3,50.4
								c3.5,6.8,9.9,10.2,19.3,10.2c9.4,0,15.8-3.3,19.3-10c3.5-6.7,5.3-23.3,5.3-49.9V914.1h83.4L1519.1,1311L1519.1,1311z"/>
						</g>
						<g>
							<path d="M1563.9,897.8v535.1h118.6V897.8L1563.9,897.8L1563.9,897.8z M1666.2,1416.6h-86V914.1h86V1416.6z"/>
						</g>
						<g>
							<path d="M1832.3,1308.8v-411h-118.6v535.1h210.5v-124.1H1832.3z M1907.9,1416.6H1730V914.1h86v411h91.9V1416.6z"/>
						</g>
						<g>
							<path d="M2079.3,1011c-4.7-4.9-13.3-7.4-25.7-7.4c-5.1,0-9,0.1-11.7,0.2c-2.7,0.1-5.3,0.3-7.6,0.5v321.5
								c4.5,0.2,9.3,0.5,14.6,0.9s8.2,0.5,8.8,0.5c10.3,0,17.7-2.8,22.1-8.3c4.4-5.5,6.6-14.5,6.6-26.8v-254.7
								C2086.3,1024.7,2084,1016,2079.3,1011z M2070,1292.1c0,12.3-2.5,16.1-3,16.7c-0.8,1-3.6,2.1-9.2,2.1c-0.4,0-2-0.1-7.3-0.4
								v-290.5c0.9,0,2,0,3,0c5.5,0,9,0.6,11.1,1.2c2.1,0.6,2.9,1.2,2.9,1.2c0,0,2.6,3.1,2.6,15.1L2070,1292.1L2070,1292.1z
								 M2079.3,1011c-4.7-4.9-13.3-7.4-25.7-7.4c-5.1,0-9,0.1-11.7,0.2c-2.7,0.1-5.3,0.3-7.6,0.5v321.5c4.5,0.2,9.3,0.5,14.6,0.9
								s8.2,0.5,8.8,0.5c10.3,0,17.7-2.8,22.1-8.3c4.4-5.5,6.6-14.5,6.6-26.8v-254.7C2086.3,1024.7,2084,1016,2079.3,1011z
								 M2070,1292.1c0,12.3-2.5,16.1-3,16.7c-0.8,1-3.6,2.1-9.2,2.1c-0.4,0-2-0.1-7.3-0.4v-290.5c0.9,0,2,0,3,0
								c5.5,0,9,0.6,11.1,1.2c2.1,0.6,2.9,1.2,2.9,1.2c0,0,2.6,3.1,2.6,15.1L2070,1292.1L2070,1292.1z M2155.7,924.1
								c-20.8-17.7-54.2-26.2-102.1-26.2h-119v535.1h119c48.4,0,81.9-8.7,102.5-26.5c21-18.2,31.7-48.7,31.7-90.6v-303.2
								C2187.8,971.9,2177,942.2,2155.7,924.1z M2171.5,1315.8c0,37.2-8.7,63.3-26,78.3s-48,22.5-91.9,22.5h-102.7V914.1h102.7
								c43.5,0,74,7.5,91.6,22.4c17.6,14.9,26.3,40.3,26.3,76.1V1315.8z M2053.6,1003.6c-5.1,0-9,0.1-11.7,0.2
								c-2.7,0.1-5.3,0.3-7.6,0.5v321.5c4.5,0.2,9.3,0.5,14.6,0.9s8.2,0.5,8.8,0.5c10.3,0,17.7-2.8,22.1-8.3
								c4.4-5.5,6.6-14.5,6.6-26.8v-254.7c0-12.6-2.3-21.4-7-26.3C2074.6,1006.1,2066.1,1003.6,2053.6,1003.6z M2070,1292.1
								c0,12.3-2.5,16.1-3,16.7c-0.8,1-3.6,2.1-9.2,2.1c-0.4,0-2-0.1-7.3-0.4v-290.5c0.9,0,2,0,3,0c5.5,0,9,0.6,11.1,1.2
								c2.1,0.6,2.9,1.2,2.9,1.2c0,0,2.6,3.1,2.6,15.1L2070,1292.1L2070,1292.1z M2079.3,1011c-4.7-4.9-13.3-7.4-25.7-7.4
								c-5.1,0-9,0.1-11.7,0.2c-2.7,0.1-5.3,0.3-7.6,0.5v321.5c4.5,0.2,9.3,0.5,14.6,0.9s8.2,0.5,8.8,0.5c10.3,0,17.7-2.8,22.1-8.3
								c4.4-5.5,6.6-14.5,6.6-26.8v-254.7C2086.3,1024.7,2084,1016,2079.3,1011z M2070,1292.1c0,12.3-2.5,16.1-3,16.7
								c-0.8,1-3.6,2.1-9.2,2.1c-0.4,0-2-0.1-7.3-0.4v-290.5c0.9,0,2,0,3,0c5.5,0,9,0.6,11.1,1.2c2.1,0.6,2.9,1.2,2.9,1.2
								c0,0,2.6,3.1,2.6,15.1L2070,1292.1L2070,1292.1z M2079.3,1011c-4.7-4.9-13.3-7.4-25.7-7.4c-5.1,0-9,0.1-11.7,0.2
								c-2.7,0.1-5.3,0.3-7.6,0.5v321.5c4.5,0.2,9.3,0.5,14.6,0.9s8.2,0.5,8.8,0.5c10.3,0,17.7-2.8,22.1-8.3
								c4.4-5.5,6.6-14.5,6.6-26.8v-254.7C2086.3,1024.7,2084,1016,2079.3,1011z M2070,1292.1c0,12.3-2.5,16.1-3,16.7
								c-0.8,1-3.6,2.1-9.2,2.1c-0.4,0-2-0.1-7.3-0.4v-290.5c0.9,0,2,0,3,0c5.5,0,9,0.6,11.1,1.2c2.1,0.6,2.9,1.2,2.9,1.2
								c0,0,2.6,3.1,2.6,15.1L2070,1292.1L2070,1292.1z"/>
						</g>
						<g>
							<path d="M2419.8,1022V897.8h-211.9v535.1h211.9v-124.1h-96v-92.4h92.2v-124.1h-92.2V1022L2419.8,1022L2419.8,1022z
								 M2399.7,1108.6v91.6h-92.2v124.9h96v91.6h-179.3V914.1h179.3v91.5h-96v102.9H2399.7z"/>
						</g>
						<g>
							<path d="M2584.1,1009.8c-6.1-5.5-15.5-8.3-27.9-8.3c-3.5,0-6.2,0.1-8.1,0.2c-1.9,0.1-3.6,0.3-5.1,0.5v111.9
								c1.6,0.2,3.3,0.4,5.3,0.5c1.9,0.1,4.8,0.2,8.5,0.2c12.5,0,21.7-2.8,27.6-8.3s8.9-14.2,8.9-26.2v-45.1
								C2593.4,1023.8,2590.3,1015.3,2584.1,1009.8z M2577.1,1080.4c0,6.9-1.3,12-3.7,14.2c-2.4,2.3-7.4,3.6-14,3.9v-80.5
								c6.5,0.3,11.4,1.7,13.9,4c3.1,2.8,3.8,8.8,3.8,13.3V1080.4z M2584.1,1009.8c-6.1-5.5-15.5-8.3-27.9-8.3
								c-3.5,0-6.2,0.1-8.1,0.2c-1.9,0.1-3.6,0.3-5.1,0.5v111.9c1.6,0.2,3.3,0.4,5.3,0.5c1.9,0.1,4.8,0.2,8.5,0.2
								c12.5,0,21.7-2.8,27.6-8.3s8.9-14.2,8.9-26.2v-45.1C2593.4,1023.8,2590.3,1015.3,2584.1,1009.8z M2577.1,1080.4
								c0,6.9-1.3,12-3.7,14.2c-2.4,2.3-7.4,3.6-14,3.9v-80.5c6.5,0.3,11.4,1.7,13.9,4c3.1,2.8,3.8,8.8,3.8,13.3V1080.4z
								 M2706.4,1406.1c-2.2-2.6-4-5.2-5.2-7.8c-1-2.1-1.8-4.3-2.3-6.6v-148.5c0-32.7-6.2-57.2-18.9-74.8
								c-4.6-6.4-10.1-11.8-16.3-16.3c3.7-3.1,7.2-6.7,10.3-10.7c12.6-16,19-37,19-62.4v-73.3c0-33.1-10.7-59.7-31.9-79.1
								c-20.8-19.1-49.2-28.7-84.5-28.7h-131.6v535.1h114.2v-217.9c0.4,0,0.7,0,1,0c5.9,0,13.8,0.8,17.7,4.9
								c4.1,4.2,4.9,12.3,4.9,18.4v154.9c0,8.3,1.5,15.5,4.5,21.4c3.2,6.3,8,11.5,14.3,15.6l4,2.6h123.5L2706.4,1406.1z
								 M2610.6,1416.6c-3.9-2.5-6.8-5.6-8.6-9.3c-1.9-3.7-2.8-8.4-2.8-14.1v-154.9c0-13.3-3.2-23.2-9.5-29.8s-16.1-9.8-29.4-9.8
								c-1.8,0-3.9,0.1-6.3,0.3c-2.4,0.2-6.1,0.7-11,1.4v216.2h-81.6V914.1h115.3c31.2,0,55.7,8.2,73.4,24.4
								c17.7,16.3,26.6,38.7,26.6,67.1v73.3c0,21.8-5.2,39.2-15.5,52.3c-10.3,13.1-24.8,20.3-43.3,21.7c22,2.1,38.3,10.4,48.9,25
								c10.5,14.6,15.8,36.3,15.8,65.2v150.1c0.8,4.4,2.1,8.4,3.9,12.2c1.9,3.8,4.3,7.5,7.5,11.2H2610.6z M2584.1,1009.8
								c-6.1-5.5-15.5-8.3-27.9-8.3c-3.5,0-6.2,0.1-8.1,0.2c-1.9,0.1-3.6,0.3-5.1,0.5v111.9c1.6,0.2,3.3,0.4,5.3,0.5
								c1.9,0.1,4.8,0.2,8.5,0.2c12.5,0,21.7-2.8,27.6-8.3s8.9-14.2,8.9-26.2v-45.1C2593.4,1023.8,2590.3,1015.3,2584.1,1009.8z
								 M2577.1,1080.4c0,6.9-1.3,12-3.7,14.2c-2.4,2.3-7.4,3.6-14,3.9v-80.5c6.5,0.3,11.4,1.7,13.9,4c3.1,2.8,3.8,8.8,3.8,13.3
								V1080.4z M2584.1,1009.8c-6.1-5.5-15.5-8.3-27.9-8.3c-3.5,0-6.2,0.1-8.1,0.2c-1.9,0.1-3.6,0.3-5.1,0.5v111.9
								c1.6,0.2,3.3,0.4,5.3,0.5c1.9,0.1,4.8,0.2,8.5,0.2c12.5,0,21.7-2.8,27.6-8.3s8.9-14.2,8.9-26.2v-45.1
								C2593.4,1023.8,2590.3,1015.3,2584.1,1009.8z M2577.1,1080.4c0,6.9-1.3,12-3.7,14.2c-2.4,2.3-7.4,3.6-14,3.9v-80.5
								c6.5,0.3,11.4,1.7,13.9,4c3.1,2.8,3.8,8.8,3.8,13.3V1080.4z M2584.1,1009.8c-6.1-5.5-15.5-8.3-27.9-8.3
								c-3.5,0-6.2,0.1-8.1,0.2c-1.9,0.1-3.6,0.3-5.1,0.5v111.9c1.6,0.2,3.3,0.4,5.3,0.5c1.9,0.1,4.8,0.2,8.5,0.2
								c12.5,0,21.7-2.8,27.6-8.3s8.9-14.2,8.9-26.2v-45.1C2593.4,1023.8,2590.3,1015.3,2584.1,1009.8z M2577.1,1080.4
								c0,6.9-1.3,12-3.7,14.2c-2.4,2.3-7.4,3.6-14,3.9v-80.5c6.5,0.3,11.4,1.7,13.9,4c3.1,2.8,3.8,8.8,3.8,13.3V1080.4z"/>
						</g>
					</g>
				</g>
				<g>
					<g>
						<path class="st68" d="M1519.1,914.1V1311c0,42.4-8.1,72.3-24.3,89.7c-16.2,17.3-44.1,26-83.7,26c-39.6,0-67.5-8.7-83.7-26
							c-16.2-17.3-24.3-47.2-24.3-89.7V914.1h83.4v364.5c0,26.8,1.8,43.7,5.3,50.4c3.5,6.8,9.9,10.2,19.3,10.2
							c9.4,0,15.8-3.3,19.3-10c3.5-6.7,5.3-23.3,5.3-49.9V914.1H1519.1z"/>
						<rect x="1580.2" y="914.1" class="st68" width="86" height="502.5"/>
						<polygon class="st68" points="1907.9,1325.1 1907.9,1416.6 1730,1416.6 1730,914.1 1816,914.1 1816,1325.1 						"/>
						<path class="st68" d="M2145.1,936.5c-17.6-14.9-48.1-22.4-91.6-22.4h-102.7v502.5h102.7c43.9,0,74.5-7.5,91.9-22.5
							s26-41.1,26-78.3v-303.2C2171.5,976.8,2162.7,951.4,2145.1,936.5z M2034.3,1325.8v-321.5c2.3-0.2,4.9-0.4,7.6-0.5
							c2.7-0.1,6.6-0.2,11.7-0.2c12.5,0,21.1,2.5,25.7,7.4c4.7,4.9,7,13.7,7,26.3v254.7c0,12.4-2.2,21.3-6.6,26.8
							c-4.4,5.5-11.8,8.3-22.1,8.3c-0.6,0-3.5-0.2-8.8-0.5C2043.6,1326.3,2038.8,1326,2034.3,1325.8z"/>
						<polygon class="st68" points="2307.5,1005.7 2307.5,1108.6 2399.7,1108.6 2399.7,1200.2 2307.5,1200.2 2307.5,1325.1 
							2403.5,1325.1 2403.5,1416.6 2224.1,1416.6 2224.1,914.1 2403.5,914.1 2403.5,1005.7 						"/>
						<path class="st68" d="M2686.5,1405.5c-1.9-3.8-3.2-7.9-3.9-12.2v-150.1c0-28.9-5.3-50.6-15.8-65.2
							c-10.5-14.6-26.8-22.9-48.9-25c18.5-1.4,32.9-8.6,43.3-21.7c10.3-13.1,15.5-30.5,15.5-52.3v-73.3c0-28.5-8.9-50.8-26.6-67.1
							c-17.8-16.3-42.2-24.4-73.4-24.4h-115.3v502.5h81.6v-216.1c4.9-0.7,8.5-1.1,11-1.4c2.4-0.2,4.5-0.3,6.3-0.3
							c13.3,0,23.1,3.3,29.4,9.8c6.3,6.5,9.5,16.5,9.5,29.8v154.9c0,5.7,0.9,10.4,2.8,14.1s4.7,6.8,8.6,9.3h83.4
							C2690.9,1413,2688.4,1409.2,2686.5,1405.5z M2593.4,1080.4c0,11.9-3,20.7-8.9,26.2s-15.2,8.3-27.6,8.3c-3.7,0-6.5-0.1-8.5-0.2
							c-2-0.1-3.7-0.3-5.3-0.5v-111.9c1.6-0.2,3.3-0.4,5.1-0.5c1.9-0.1,4.5-0.2,8.1-0.2c12.5,0,21.8,2.8,27.9,8.3
							c6.1,5.5,9.2,14,9.2,25.5L2593.4,1080.4L2593.4,1080.4z"/>
					</g>
				</g>
				<g id="B1_1_">
					<g>
						<path class="st68" d="M1222.2,1177.2c-11.4-14.2-27.3-22.3-47.6-24.1c18.5-1.4,33-8.6,43.3-21.7
							c10.3-13.1,15.5-30.5,15.5-52.3v-73.3c0-28.5-8.9-50.8-26.6-67.1s-42.2-24.4-73.4-24.4h-115.3v502.7h115.3
							c37.1,0,64-7.8,80.8-23.6c16.8-15.7,25.2-41,25.2-75.9v-83.7C1239.3,1210.2,1233.7,1191.4,1222.2,1177.2z M1099.8,1199.2
							c2.3-0.7,4.8-1.2,7.3-1.4c2.5-0.2,6.1-0.3,10.5-0.3c12.9,0,22.7,2.9,29.4,8.8c6.7,5.8,10.1,14.2,10.1,25v65.1
							c0,12.6-3.2,22-9.5,28.1c-6.3,6.1-16.1,9.1-29.4,9.1c-4.9,0-8.6-0.1-11.3-0.3c-2.6-0.2-5-0.6-7.2-1L1099.8,1199.2
							L1099.8,1199.2z M1099.8,999.5c1.8-0.2,3.7-0.4,5.8-0.5c2.1-0.1,5.2-0.2,9.1-0.2c13.1,0,22.7,2.8,29,8.3s9.4,14,9.4,25.5v50.6
							c0,10.6-3.3,18.5-9.8,23.8c-6.5,5.3-16.2,7.9-29.1,7.9c-3.9,0-6.9-0.1-8.9-0.2c-2.1-0.1-3.8-0.3-5.4-0.5L1099.8,999.5
							L1099.8,999.5z"/>
						<path d="M1143.7,1007.1c-6.2-5.5-15.9-8.3-29-8.3c-3.9,0-6.9,0.1-9.1,0.2c-2.2,0.1-4.1,0.3-5.8,0.5v114.6
							c1.6,0.2,3.4,0.4,5.4,0.5c2,0.1,5,0.2,8.9,0.2c12.9,0,22.6-2.6,29.1-7.9c6.5-5.3,9.8-13.2,9.8-23.8v-50.6
							C1153,1021.1,1149.9,1012.6,1143.7,1007.1z M1136.6,1083.2c0,8-2.7,10.1-3.7,10.9c-3.1,2.5-9,4-16.7,4.2v-83.1
							c10.5,0.2,14.9,2.7,16.6,4.1c3.1,2.8,3.8,8.7,3.8,13.1L1136.6,1083.2L1136.6,1083.2z M1147,1206.3c-6.7-5.8-16.5-8.8-29.4-8.8
							c-4.5,0-8,0.1-10.5,0.3c-2.5,0.2-5,0.7-7.3,1.4v132.9c2.1,0.5,4.5,0.8,7.2,1c2.6,0.2,6.4,0.3,11.3,0.3c13.3,0,23.1-3,29.4-9.1
							c6.3-6.1,9.5-15.4,9.5-28.1v-65.1C1157.1,1220.4,1153.8,1212.1,1147,1206.3z M1140.7,1296.3c0,5.4-0.8,12.7-4.4,16.2
							c-3.1,2.9-9.4,4.5-18,4.5h-2v-103.1c0.4,0,0.9,0,1.4,0c6,0,14.1,0.8,18.6,4.8c1.9,1.7,4.4,4.8,4.4,12.5L1140.7,1296.3
							L1140.7,1296.3z M1147,1206.3c-6.7-5.8-16.5-8.8-29.4-8.8c-4.5,0-8,0.1-10.5,0.3c-2.5,0.2-5,0.7-7.3,1.4v132.9
							c2.1,0.5,4.5,0.8,7.2,1c2.6,0.2,6.4,0.3,11.3,0.3c13.3,0,23.1-3,29.4-9.1c6.3-6.1,9.5-15.4,9.5-28.1v-65.1
							C1157.1,1220.4,1153.8,1212.1,1147,1206.3z M1140.7,1296.3c0,5.4-0.8,12.7-4.4,16.2c-3.1,2.9-9.4,4.5-18,4.5h-2v-103.1
							c0.4,0,0.9,0,1.4,0c6,0,14.1,0.8,18.6,4.8c1.9,1.7,4.4,4.8,4.4,12.5L1140.7,1296.3L1140.7,1296.3z M1143.7,1007.1
							c-6.2-5.5-15.9-8.3-29-8.3c-3.9,0-6.9,0.1-9.1,0.2c-2.2,0.1-4.1,0.3-5.8,0.5v114.6c1.6,0.2,3.4,0.4,5.4,0.5
							c2,0.1,5,0.2,8.9,0.2c12.9,0,22.6-2.6,29.1-7.9c6.5-5.3,9.8-13.2,9.8-23.8v-50.6C1153,1021.1,1149.9,1012.6,1143.7,1007.1z
							 M1136.6,1083.2c0,8-2.7,10.1-3.7,10.9c-3.1,2.5-9,4-16.7,4.2v-83.1c10.5,0.2,14.9,2.7,16.6,4.1c3.1,2.8,3.8,8.7,3.8,13.1
							L1136.6,1083.2L1136.6,1083.2z M1143.7,1007.1c-6.2-5.5-15.9-8.3-29-8.3c-3.9,0-6.9,0.1-9.1,0.2c-2.2,0.1-4.1,0.3-5.8,0.5
							v114.6c1.6,0.2,3.4,0.4,5.4,0.5c2,0.1,5,0.2,8.9,0.2c12.9,0,22.6-2.6,29.1-7.9c6.5-5.3,9.8-13.2,9.8-23.8v-50.6
							C1153,1021.1,1149.9,1012.6,1143.7,1007.1z M1136.6,1083.2c0,8-2.7,10.1-3.7,10.9c-3.1,2.5-9,4-16.7,4.2v-83.1
							c10.5,0.2,14.9,2.7,16.6,4.1c3.1,2.8,3.8,8.7,3.8,13.1L1136.6,1083.2L1136.6,1083.2z M1147,1206.3c-6.7-5.8-16.5-8.8-29.4-8.8
							c-4.5,0-8,0.1-10.5,0.3c-2.5,0.2-5,0.7-7.3,1.4v132.9c2.1,0.5,4.5,0.8,7.2,1c2.6,0.2,6.4,0.3,11.3,0.3c13.3,0,23.1-3,29.4-9.1
							c6.3-6.1,9.5-15.4,9.5-28.1v-65.1C1157.1,1220.4,1153.8,1212.1,1147,1206.3z M1140.7,1296.3c0,5.4-0.8,12.7-4.4,16.2
							c-3.1,2.9-9.4,4.5-18,4.5h-2v-103.1c0.4,0,0.9,0,1.4,0c6,0,14.1,0.8,18.6,4.8c1.9,1.7,4.4,4.8,4.4,12.5L1140.7,1296.3
							L1140.7,1296.3z M1147,1206.3c-6.7-5.8-16.5-8.8-29.4-8.8c-4.5,0-8,0.1-10.5,0.3c-2.5,0.2-5,0.7-7.3,1.4v132.9
							c2.1,0.5,4.5,0.8,7.2,1c2.6,0.2,6.4,0.3,11.3,0.3c13.3,0,23.1-3,29.4-9.1c6.3-6.1,9.5-15.4,9.5-28.1v-65.1
							C1157.1,1220.4,1153.8,1212.1,1147,1206.3z M1140.7,1296.3c0,5.4-0.8,12.7-4.4,16.2c-3.1,2.9-9.4,4.5-18,4.5h-2v-103.1
							c0.4,0,0.9,0,1.4,0c6,0,14.1,0.8,18.6,4.8c1.9,1.7,4.4,4.8,4.4,12.5L1140.7,1296.3L1140.7,1296.3z M1114.1,1114.8
							c12.9,0,22.6-2.6,29.1-7.9c6.5-5.3,9.8-13.2,9.8-23.8v-50.6c0-11.5-3.1-20-9.4-25.5s-15.9-8.3-29-8.3c-3.9,0-6.9,0.1-9.1,0.2
							c-2.2,0.1-4.1,0.3-5.8,0.5v114.6c1.6,0.2,3.4,0.4,5.4,0.5C1107.2,1114.8,1110.2,1114.8,1114.1,1114.8z M1116.2,1015.3
							c10.5,0.2,14.9,2.7,16.6,4.1c3.1,2.8,3.8,8.7,3.8,13.1v50.6c0,8-2.7,10.1-3.7,10.9c-3.1,2.5-9,4-16.7,4.2L1116.2,1015.3
							L1116.2,1015.3z M1235.1,1166.9c-4.4-5.5-9.4-10.3-14.8-14.3c3.8-3.2,7.4-6.9,10.7-11c12.6-16,19.1-37,19.1-62.5v-73.3
							c0-33.1-10.8-59.8-31.9-79.3c-20.8-19.1-49.3-28.8-84.6-28.8h-131.8v535.6h131.8c41.2,0,72.2-9.4,92-28
							c20.2-18.9,30.4-48.5,30.4-87.9v-83.7C1255.8,1206.5,1248.8,1184,1235.1,1166.9z M1239.3,1317.3c0,34.9-8.4,60.2-25.2,75.9
							c-16.8,15.7-43.7,23.6-80.8,23.6h-115.3V914.1h115.3c31.2,0,55.7,8.1,73.4,24.4s26.6,38.7,26.6,67.1v73.3
							c0,21.8-5.2,39.3-15.5,52.3s-24.8,20.3-43.3,21.7c20.3,1.8,36.1,9.9,47.6,24.1c11.4,14.2,17.1,33.1,17.1,56.4L1239.3,1317.3
							L1239.3,1317.3z M1147,1206.3c-6.7-5.8-16.5-8.8-29.4-8.8c-4.5,0-8,0.1-10.5,0.3c-2.5,0.2-5,0.7-7.3,1.4v132.9
							c2.1,0.5,4.5,0.8,7.2,1c2.6,0.2,6.4,0.3,11.3,0.3c13.3,0,23.1-3,29.4-9.1c6.3-6.1,9.5-15.4,9.5-28.1v-65.1
							C1157.1,1220.4,1153.8,1212.1,1147,1206.3z M1140.7,1296.3c0,5.4-0.8,12.7-4.4,16.2c-3.1,2.9-9.4,4.5-18,4.5h-2v-103.1
							c0.4,0,0.9,0,1.4,0c6,0,14.1,0.8,18.6,4.8c1.9,1.7,4.4,4.8,4.4,12.5L1140.7,1296.3L1140.7,1296.3z M1114.1,1114.8
							c12.9,0,22.6-2.6,29.1-7.9c6.5-5.3,9.8-13.2,9.8-23.8v-50.6c0-11.5-3.1-20-9.4-25.5s-15.9-8.3-29-8.3c-3.9,0-6.9,0.1-9.1,0.2
							c-2.2,0.1-4.1,0.3-5.8,0.5v114.6c1.6,0.2,3.4,0.4,5.4,0.5C1107.2,1114.8,1110.2,1114.8,1114.1,1114.8z M1116.2,1015.3
							c10.5,0.2,14.9,2.7,16.6,4.1c3.1,2.8,3.8,8.7,3.8,13.1v50.6c0,8-2.7,10.1-3.7,10.9c-3.1,2.5-9,4-16.7,4.2L1116.2,1015.3
							L1116.2,1015.3z M1143.7,1007.1c-6.2-5.5-15.9-8.3-29-8.3c-3.9,0-6.9,0.1-9.1,0.2c-2.2,0.1-4.1,0.3-5.8,0.5v114.6
							c1.6,0.2,3.4,0.4,5.4,0.5c2,0.1,5,0.2,8.9,0.2c12.9,0,22.6-2.6,29.1-7.9c6.5-5.3,9.8-13.2,9.8-23.8v-50.6
							C1153,1021.1,1149.9,1012.6,1143.7,1007.1z M1136.6,1083.2c0,8-2.7,10.1-3.7,10.9c-3.1,2.5-9,4-16.7,4.2v-83.1
							c10.5,0.2,14.9,2.7,16.6,4.1c3.1,2.8,3.8,8.7,3.8,13.1L1136.6,1083.2L1136.6,1083.2z M1147,1206.3c-6.7-5.8-16.5-8.8-29.4-8.8
							c-4.5,0-8,0.1-10.5,0.3c-2.5,0.2-5,0.7-7.3,1.4v132.9c2.1,0.5,4.5,0.8,7.2,1c2.6,0.2,6.4,0.3,11.3,0.3c13.3,0,23.1-3,29.4-9.1
							c6.3-6.1,9.5-15.4,9.5-28.1v-65.1C1157.1,1220.4,1153.8,1212.1,1147,1206.3z M1140.7,1296.3c0,5.4-0.8,12.7-4.4,16.2
							c-3.1,2.9-9.4,4.5-18,4.5h-2v-103.1c0.4,0,0.9,0,1.4,0c6,0,14.1,0.8,18.6,4.8c1.9,1.7,4.4,4.8,4.4,12.5L1140.7,1296.3
							L1140.7,1296.3z M1147,1206.3c-6.7-5.8-16.5-8.8-29.4-8.8c-4.5,0-8,0.1-10.5,0.3c-2.5,0.2-5,0.7-7.3,1.4v132.9
							c2.1,0.5,4.5,0.8,7.2,1c2.6,0.2,6.4,0.3,11.3,0.3c13.3,0,23.1-3,29.4-9.1c6.3-6.1,9.5-15.4,9.5-28.1v-65.1
							C1157.1,1220.4,1153.8,1212.1,1147,1206.3z M1140.7,1296.3c0,5.4-0.8,12.7-4.4,16.2c-3.1,2.9-9.4,4.5-18,4.5h-2v-103.1
							c0.4,0,0.9,0,1.4,0c6,0,14.1,0.8,18.6,4.8c1.9,1.7,4.4,4.8,4.4,12.5L1140.7,1296.3L1140.7,1296.3z M1143.7,1007.1
							c-6.2-5.5-15.9-8.3-29-8.3c-3.9,0-6.9,0.1-9.1,0.2c-2.2,0.1-4.1,0.3-5.8,0.5v114.6c1.6,0.2,3.4,0.4,5.4,0.5
							c2,0.1,5,0.2,8.9,0.2c12.9,0,22.6-2.6,29.1-7.9c6.5-5.3,9.8-13.2,9.8-23.8v-50.6C1153,1021.1,1149.9,1012.6,1143.7,1007.1z
							 M1136.6,1083.2c0,8-2.7,10.1-3.7,10.9c-3.1,2.5-9,4-16.7,4.2v-83.1c10.5,0.2,14.9,2.7,16.6,4.1c3.1,2.8,3.8,8.7,3.8,13.1
							L1136.6,1083.2L1136.6,1083.2z"/>
					</g>
				</g>
			</g>
			<rect x="33.4" y="-214" class="st69" width="1511.3" height="180"/>
			
				<text transform="matrix(0.85 0 0 1 33.3779 -156.9893)" class="st70" style="display:none;enable-background:new    ; font-size:80px;">FOLIO BOLD CONDENSED BT 85% WIDTH     </text>
			<rect x="233.7" y="1731.8" class="st69" width="2689.3" height="497.5"/>
			<text transform="matrix(1 0 0 1 941.256 1871.78)" class="st68 st70 st71">brought to you by</text>
			<text transform="matrix(1 0 0 1 2215.4961 1871.78)" class="st68 st70 st72"> </text>
			<text transform="matrix(1 0 0 1 510.696 2111.78)" class="st68 st70 st72">MOON VALLEY NURSERIES</text>
			<g>
				<g>
					<path class="st73" d="M1057.3,831.7l73.8-502.6h115.4l73.8,502.6h-88.8l-9.7-88.1h-65.8l-9.7,88.1H1057.3z M1165.1,652h46.9
						l-23-236.9L1165.1,652z"/>
					<path class="st73" d="M1568.2,710.5c0,49.1-8.1,83.3-24.3,102.4s-45.4,28.8-87.5,28.8c-42.3,0-71.5-9.5-87.7-28.6
						c-16.1-19-24.2-53.2-24.2-102.6V450.3c0-49.6,8.1-83.8,24.2-102.8c16.1-18.9,45.3-28.4,87.7-28.4c42.1,0,71.3,9.6,87.5,28.8
						c16.2,19.2,24.3,53.3,24.3,102.4v56.5h-85.3v-54.4c0-16.1-2.1-27.6-6.3-34.6s-11.2-10.5-20.8-10.5c-9.3,0-15.9,3.4-19.9,10.2
						c-4,6.8-6.1,18-6.1,33.6v258.9c0,16.1,1.9,27.4,5.8,33.9c3.8,6.5,10.6,9.8,20.2,9.8c9.8,0,16.8-3.6,20.9-10.8
						c4.1-7.2,6.2-19.7,6.2-37.3v-59.2h85.3L1568.2,710.5L1568.2,710.5z"/>
					<path class="st73" d="M1618.1,831.7V329.1h84.1V568l67.6-238.9h88.8l-77.9,243l85.3,259.6h-92.4l-71.4-248.2v248.2H1618.1z"/>
					<path class="st73" d="M1957.8,831.7V642l-92.4-312.9h91.8l42.5,212.1l41.6-212.1h91.8L2040.8,642v189.7H1957.8z"/>
					<path class="st73" d="M2105.4,831.7l73.8-502.6h115.4l73.8,502.6h-88.8l-9.7-88.1H2204l-9.7,88.1H2105.4z M2213.2,652h46.9
						l-23-236.9L2213.2,652z"/>
					<path class="st73" d="M2536.9,808.3V653.4c0-13.3-3.2-23.2-9.6-29.8c-6.4-6.5-16.3-9.8-29.7-9.8c-1.8,0-3.9,0.1-6.4,0.3
						c-2.5,0.2-6.1,0.7-11.1,1.4v216.2h-82.4V329.1h116.3c31.5,0,56.2,8.1,74.1,24.4c17.9,16.3,26.9,38.7,26.9,67.1V494
						c0,21.8-5.2,39.3-15.6,52.3c-10.4,13.1-25,20.3-43.7,21.7c22.2,2.1,38.7,10.4,49.3,25c10.6,14.6,15.9,36.3,15.9,65.2v150.1
						c0.8,4.4,2.1,8.4,4,12.2c1.9,3.8,4.4,7.5,7.5,11.2h-84.1c-3.9-2.5-6.8-5.6-8.7-9.3C2537.9,818.8,2536.9,814.1,2536.9,808.3z
						 M2480.3,529.1c1.6,0.2,3.4,0.4,5.3,0.5c2,0.1,4.8,0.2,8.6,0.2c12.6,0,21.9-2.8,27.9-8.3s9-14.2,9-26.2v-45.1
						c0-11.5-3.1-20-9.3-25.5s-15.6-8.3-28.2-8.3c-3.5,0-6.3,0.1-8.1,0.2c-1.9,0.1-3.6,0.3-5.2,0.5L2480.3,529.1L2480.3,529.1z"/>
					<path class="st73" d="M2778.4,329.1c43.9,0,74.7,7.5,92.4,22.4s26.6,40.3,26.6,76.1v303.3c0,37.2-8.8,63.3-26.3,78.3
						s-48.4,22.5-92.7,22.5h-103.6V329.1H2778.4z M2758.9,419.3v321.5c4.5,0.2,9.4,0.5,14.8,0.9c5.3,0.3,8.3,0.5,8.9,0.5
						c10.4,0,17.9-2.8,22.3-8.3s6.6-14.5,6.6-26.8V452.4c0-12.6-2.4-21.4-7.1-26.3c-4.7-4.9-13.4-7.4-26-7.4
						c-5.1,0-9.1,0.1-11.8,0.2C2763.8,418.9,2761.3,419.1,2758.9,419.3z"/>
				</g>
				<g>
					<path class="st68" d="M1057.3,831.7l73.8-502.6h115.4l73.8,502.6h-88.8l-9.7-88.1h-65.8l-9.7,88.1H1057.3z M1165.1,652h46.9
						l-23-236.9L1165.1,652z"/>
					<path class="st68" d="M1568.2,710.5c0,49.1-8.1,83.3-24.3,102.4s-45.4,28.8-87.5,28.8c-42.3,0-71.5-9.5-87.7-28.6
						c-16.1-19-24.2-53.2-24.2-102.6V450.3c0-49.6,8.1-83.8,24.2-102.8c16.1-18.9,45.3-28.4,87.7-28.4c42.1,0,71.3,9.6,87.5,28.8
						c16.2,19.2,24.3,53.3,24.3,102.4v56.5h-85.3v-54.4c0-16.1-2.1-27.6-6.3-34.6s-11.2-10.5-20.8-10.5c-9.3,0-15.9,3.4-19.9,10.2
						c-4,6.8-6.1,18-6.1,33.6v258.9c0,16.1,1.9,27.4,5.8,33.9c3.8,6.5,10.6,9.8,20.2,9.8c9.8,0,16.8-3.6,20.9-10.8
						c4.1-7.2,6.2-19.7,6.2-37.3v-59.2h85.3L1568.2,710.5L1568.2,710.5z"/>
					<path class="st68" d="M1618.1,831.7V329.1h84.1V568l67.6-238.9h88.8l-77.9,243l85.3,259.6h-92.4l-71.4-248.2v248.2H1618.1z"/>
					<path class="st68" d="M1957.8,831.7V642l-92.4-312.9h91.8l42.5,212.1l41.6-212.1h91.8L2040.8,642v189.7H1957.8z"/>
					<path class="st68" d="M2105.4,831.7l73.8-502.6h115.4l73.8,502.6h-88.8l-9.7-88.1H2204l-9.7,88.1H2105.4z M2213.2,652h46.9
						l-23-236.9L2213.2,652z"/>
					<path class="st68" d="M2536.9,808.3V653.4c0-13.3-3.2-23.2-9.6-29.8c-6.4-6.5-16.3-9.8-29.7-9.8c-1.8,0-3.9,0.1-6.4,0.3
						c-2.5,0.2-6.1,0.7-11.1,1.4v216.2h-82.4V329.1h116.3c31.5,0,56.2,8.1,74.1,24.4c17.9,16.3,26.9,38.7,26.9,67.1V494
						c0,21.8-5.2,39.3-15.6,52.3c-10.4,13.1-25,20.3-43.7,21.7c22.2,2.1,38.7,10.4,49.3,25c10.6,14.6,15.9,36.3,15.9,65.2v150.1
						c0.8,4.4,2.1,8.4,4,12.2c1.9,3.8,4.4,7.5,7.5,11.2h-84.1c-3.9-2.5-6.8-5.6-8.7-9.3C2537.9,818.8,2536.9,814.1,2536.9,808.3z
						 M2480.3,529.1c1.6,0.2,3.4,0.4,5.3,0.5c2,0.1,4.8,0.2,8.6,0.2c12.6,0,21.9-2.8,27.9-8.3s9-14.2,9-26.2v-45.1
						c0-11.5-3.1-20-9.3-25.5s-15.6-8.3-28.2-8.3c-3.5,0-6.3,0.1-8.1,0.2c-1.9,0.1-3.6,0.3-5.2,0.5L2480.3,529.1L2480.3,529.1z"/>
					<path class="st68" d="M2778.4,329.1c43.9,0,74.7,7.5,92.4,22.4s26.6,40.3,26.6,76.1v303.3c0,37.2-8.8,63.3-26.3,78.3
						s-48.4,22.5-92.7,22.5h-103.6V329.1H2778.4z M2758.9,419.3v321.5c4.5,0.2,9.4,0.5,14.8,0.9c5.3,0.3,8.3,0.5,8.9,0.5
						c10.4,0,17.9-2.8,22.3-8.3s6.6-14.5,6.6-26.8V452.4c0-12.6-2.4-21.4-7.1-26.3c-4.7-4.9-13.4-7.4-26-7.4
						c-5.1,0-9.1,0.1-11.8,0.2C2763.8,418.9,2761.3,419.1,2758.9,419.3z"/>
				</g>
				<g id="B1">
					<g>
						<path class="st68" d="M1013.6,592.2c-11.4-14.2-27.3-22.3-47.6-24.1c18.5-1.4,33-8.6,43.3-21.7c10.3-13.1,15.5-30.5,15.5-52.3
							v-73.3c0-28.5-8.9-50.8-26.6-67.1c-17.8-16.3-42.2-24.4-73.5-24.4H809.5v502.7h115.3c37.1,0,64-7.8,80.8-23.6
							c16.8-15.7,25.2-41,25.2-75.9v-83.7C1030.7,625.2,1025,606.4,1013.6,592.2z M891.1,614.2c2.3-0.7,4.8-1.2,7.3-1.4
							c2.5-0.2,6-0.3,10.5-0.3c12.9,0,22.7,2.9,29.4,8.8c6.7,5.8,10.1,14.2,10.1,25v65.1c0,12.6-3.2,22-9.5,28.1
							c-6.3,6.1-16.1,9.1-29.4,9.1c-4.9,0-8.6-0.1-11.3-0.3c-2.6-0.2-5-0.6-7.2-1L891.1,614.2L891.1,614.2z M891.1,414.5
							c1.8-0.2,3.7-0.4,5.8-0.5c2.1-0.1,5.2-0.2,9.1-0.2c13.1,0,22.7,2.8,29,8.3s9.4,14,9.4,25.5v50.6c0,10.5-3.3,18.5-9.8,23.8
							c-6.5,5.3-16.2,7.9-29.1,7.9c-3.9,0-6.9-0.1-8.9-0.2c-2.1-0.1-3.8-0.3-5.4-0.5V414.5z"/>
						<path d="M935,422.1c-6.2-5.5-15.9-8.3-29-8.3c-3.9,0-6.9,0.1-9.1,0.2c-2.2,0.1-4.1,0.3-5.8,0.5v114.6c1.6,0.2,3.4,0.4,5.4,0.5
							c2,0.1,5,0.2,8.9,0.2c12.9,0,22.6-2.6,29.1-7.9c6.5-5.3,9.8-13.2,9.8-23.8v-50.6C944.4,436.1,941.2,427.6,935,422.1z
							 M927.9,498.2c0,8-2.7,10.1-3.7,11c-3.1,2.5-9,4-16.7,4.2v-83.1c10.5,0.2,14.9,2.7,16.6,4.1c3.1,2.8,3.8,8.7,3.8,13.1
							L927.9,498.2L927.9,498.2z M938.4,621.2c-6.7-5.8-16.5-8.8-29.4-8.8c-4.5,0-8,0.1-10.5,0.3c-2.5,0.2-5,0.7-7.3,1.4v132.9
							c2.1,0.5,4.5,0.8,7.2,1c2.6,0.2,6.4,0.3,11.3,0.3c13.3,0,23.1-3,29.4-9.1c6.3-6.1,9.5-15.4,9.5-28.1v-65.1
							C948.5,635.4,945.1,627.1,938.4,621.2z M932,711.3c0,5.4-0.8,12.7-4.5,16.2c-3.1,2.9-9.5,4.5-18,4.5h-2V628.9
							c0.5,0,0.9,0,1.4,0c6,0,14.1,0.8,18.6,4.8c1.9,1.7,4.4,4.8,4.4,12.5L932,711.3L932,711.3z M938.4,621.2
							c-6.7-5.8-16.5-8.8-29.4-8.8c-4.5,0-8,0.1-10.5,0.3c-2.5,0.2-5,0.7-7.3,1.4v132.9c2.1,0.5,4.5,0.8,7.2,1
							c2.6,0.2,6.4,0.3,11.3,0.3c13.3,0,23.1-3,29.4-9.1c6.3-6.1,9.5-15.4,9.5-28.1v-65.1C948.5,635.4,945.1,627.1,938.4,621.2z
							 M932,711.3c0,5.4-0.8,12.7-4.5,16.2c-3.1,2.9-9.5,4.5-18,4.5h-2V628.9c0.5,0,0.9,0,1.4,0c6,0,14.1,0.8,18.6,4.8
							c1.9,1.7,4.4,4.8,4.4,12.5L932,711.3L932,711.3z M935,422.1c-6.2-5.5-15.9-8.3-29-8.3c-3.9,0-6.9,0.1-9.1,0.2
							c-2.2,0.1-4.1,0.3-5.8,0.5v114.6c1.6,0.2,3.4,0.4,5.4,0.5c2,0.1,5,0.2,8.9,0.2c12.9,0,22.6-2.6,29.1-7.9
							c6.5-5.3,9.8-13.2,9.8-23.8v-50.6C944.4,436.1,941.2,427.6,935,422.1z M927.9,498.2c0,8-2.7,10.1-3.7,11
							c-3.1,2.5-9,4-16.7,4.2v-83.1c10.5,0.2,14.9,2.7,16.6,4.1c3.1,2.8,3.8,8.7,3.8,13.1L927.9,498.2L927.9,498.2z M935,422.1
							c-6.2-5.5-15.9-8.3-29-8.3c-3.9,0-6.9,0.1-9.1,0.2c-2.2,0.1-4.1,0.3-5.8,0.5v114.6c1.6,0.2,3.4,0.4,5.4,0.5
							c2,0.1,5,0.2,8.9,0.2c12.9,0,22.6-2.6,29.1-7.9c6.5-5.3,9.8-13.2,9.8-23.8v-50.6C944.4,436.1,941.2,427.6,935,422.1z
							 M927.9,498.2c0,8-2.7,10.1-3.7,11c-3.1,2.5-9,4-16.7,4.2v-83.1c10.5,0.2,14.9,2.7,16.6,4.1c3.1,2.8,3.8,8.7,3.8,13.1
							L927.9,498.2L927.9,498.2z M938.4,621.2c-6.7-5.8-16.5-8.8-29.4-8.8c-4.5,0-8,0.1-10.5,0.3c-2.5,0.2-5,0.7-7.3,1.4v132.9
							c2.1,0.5,4.5,0.8,7.2,1c2.6,0.2,6.4,0.3,11.3,0.3c13.3,0,23.1-3,29.4-9.1c6.3-6.1,9.5-15.4,9.5-28.1v-65.1
							C948.5,635.4,945.1,627.1,938.4,621.2z M932,711.3c0,5.4-0.8,12.7-4.5,16.2c-3.1,2.9-9.5,4.5-18,4.5h-2V628.9
							c0.5,0,0.9,0,1.4,0c6,0,14.1,0.8,18.6,4.8c1.9,1.7,4.4,4.8,4.4,12.5L932,711.3L932,711.3z M938.4,621.2
							c-6.7-5.8-16.5-8.8-29.4-8.8c-4.5,0-8,0.1-10.5,0.3c-2.5,0.2-5,0.7-7.3,1.4v132.9c2.1,0.5,4.5,0.8,7.2,1
							c2.6,0.2,6.4,0.3,11.3,0.3c13.3,0,23.1-3,29.4-9.1c6.3-6.1,9.5-15.4,9.5-28.1v-65.1C948.5,635.4,945.1,627.1,938.4,621.2z
							 M932,711.3c0,5.4-0.8,12.7-4.5,16.2c-3.1,2.9-9.5,4.5-18,4.5h-2V628.9c0.5,0,0.9,0,1.4,0c6,0,14.1,0.8,18.6,4.8
							c1.9,1.7,4.4,4.8,4.4,12.5L932,711.3L932,711.3z M905.4,529.8c12.9,0,22.6-2.6,29.1-7.9c6.5-5.3,9.8-13.2,9.8-23.8v-50.6
							c0-11.5-3.1-20-9.4-25.5s-15.9-8.3-29-8.3c-3.9,0-6.9,0.1-9.1,0.2c-2.2,0.1-4.1,0.3-5.8,0.5v114.6c1.6,0.2,3.4,0.4,5.4,0.5
							C898.6,529.8,901.5,529.8,905.4,529.8z M907.6,430.3c10.5,0.2,14.9,2.7,16.6,4.1c3.1,2.8,3.8,8.7,3.8,13.1v50.6
							c0,8-2.7,10.1-3.7,11c-3.1,2.5-9,4-16.7,4.2L907.6,430.3L907.6,430.3z M1026.4,581.9c-4.4-5.5-9.4-10.3-14.8-14.3
							c3.8-3.2,7.4-6.9,10.7-11c12.7-16,19.1-37,19.1-62.5v-73.3c0-33.1-10.8-59.8-32-79.3c-20.8-19.1-49.3-28.8-84.6-28.8H793
							v535.6h131.8c41.2,0,72.2-9.4,92-28c20.2-18.9,30.4-48.5,30.4-87.9v-83.7C1047.1,621.5,1040.2,599,1026.4,581.9z
							 M1030.7,732.3c0,34.9-8.4,60.2-25.2,75.9c-16.8,15.7-43.7,23.6-80.8,23.6H809.5V329.1h115.3c31.2,0,55.7,8.1,73.5,24.4
							s26.6,38.7,26.6,67.1V494c0,21.8-5.2,39.3-15.5,52.3S984.6,566.7,966,568c20.3,1.8,36.1,9.9,47.6,24.1
							c11.4,14.2,17.1,33,17.1,56.5L1030.7,732.3L1030.7,732.3z M938.4,621.2c-6.7-5.8-16.5-8.8-29.4-8.8c-4.5,0-8,0.1-10.5,0.3
							c-2.5,0.2-5,0.7-7.3,1.4v132.9c2.1,0.5,4.5,0.8,7.2,1c2.6,0.2,6.4,0.3,11.3,0.3c13.3,0,23.1-3,29.4-9.1
							c6.3-6.1,9.5-15.4,9.5-28.1v-65.1C948.5,635.4,945.1,627.1,938.4,621.2z M932,711.3c0,5.4-0.8,12.7-4.5,16.2
							c-3.1,2.9-9.5,4.5-18,4.5h-2V628.9c0.5,0,0.9,0,1.4,0c6,0,14.1,0.8,18.6,4.8c1.9,1.7,4.4,4.8,4.4,12.5L932,711.3L932,711.3z
							 M905.4,529.8c12.9,0,22.6-2.6,29.1-7.9c6.5-5.3,9.8-13.2,9.8-23.8v-50.6c0-11.5-3.1-20-9.4-25.5s-15.9-8.3-29-8.3
							c-3.9,0-6.9,0.1-9.1,0.2c-2.2,0.1-4.1,0.3-5.8,0.5v114.6c1.6,0.2,3.4,0.4,5.4,0.5C898.6,529.8,901.5,529.8,905.4,529.8z
							 M907.6,430.3c10.5,0.2,14.9,2.7,16.6,4.1c3.1,2.8,3.8,8.7,3.8,13.1v50.6c0,8-2.7,10.1-3.7,11c-3.1,2.5-9,4-16.7,4.2
							L907.6,430.3L907.6,430.3z M935,422.1c-6.2-5.5-15.9-8.3-29-8.3c-3.9,0-6.9,0.1-9.1,0.2c-2.2,0.1-4.1,0.3-5.8,0.5v114.6
							c1.6,0.2,3.4,0.4,5.4,0.5c2,0.1,5,0.2,8.9,0.2c12.9,0,22.6-2.6,29.1-7.9c6.5-5.3,9.8-13.2,9.8-23.8v-50.6
							C944.4,436.1,941.2,427.6,935,422.1z M927.9,498.2c0,8-2.7,10.1-3.7,11c-3.1,2.5-9,4-16.7,4.2v-83.1
							c10.5,0.2,14.9,2.7,16.6,4.1c3.1,2.8,3.8,8.7,3.8,13.1L927.9,498.2L927.9,498.2z M938.4,621.2c-6.7-5.8-16.5-8.8-29.4-8.8
							c-4.5,0-8,0.1-10.5,0.3c-2.5,0.2-5,0.7-7.3,1.4v132.9c2.1,0.5,4.5,0.8,7.2,1c2.6,0.2,6.4,0.3,11.3,0.3c13.3,0,23.1-3,29.4-9.1
							c6.3-6.1,9.5-15.4,9.5-28.1v-65.1C948.5,635.4,945.1,627.1,938.4,621.2z M932,711.3c0,5.4-0.8,12.7-4.5,16.2
							c-3.1,2.9-9.5,4.5-18,4.5h-2V628.9c0.5,0,0.9,0,1.4,0c6,0,14.1,0.8,18.6,4.8c1.9,1.7,4.4,4.8,4.4,12.5L932,711.3L932,711.3z
							 M938.4,621.2c-6.7-5.8-16.5-8.8-29.4-8.8c-4.5,0-8,0.1-10.5,0.3c-2.5,0.2-5,0.7-7.3,1.4v132.9c2.1,0.5,4.5,0.8,7.2,1
							c2.6,0.2,6.4,0.3,11.3,0.3c13.3,0,23.1-3,29.4-9.1c6.3-6.1,9.5-15.4,9.5-28.1v-65.1C948.5,635.4,945.1,627.1,938.4,621.2z
							 M932,711.3c0,5.4-0.8,12.7-4.5,16.2c-3.1,2.9-9.5,4.5-18,4.5h-2V628.9c0.5,0,0.9,0,1.4,0c6,0,14.1,0.8,18.6,4.8
							c1.9,1.7,4.4,4.8,4.4,12.5L932,711.3L932,711.3z M935,422.1c-6.2-5.5-15.9-8.3-29-8.3c-3.9,0-6.9,0.1-9.1,0.2
							c-2.2,0.1-4.1,0.3-5.8,0.5v114.6c1.6,0.2,3.4,0.4,5.4,0.5c2,0.1,5,0.2,8.9,0.2c12.9,0,22.6-2.6,29.1-7.9
							c6.5-5.3,9.8-13.2,9.8-23.8v-50.6C944.4,436.1,941.2,427.6,935,422.1z M927.9,498.2c0,8-2.7,10.1-3.7,11
							c-3.1,2.5-9,4-16.7,4.2v-83.1c10.5,0.2,14.9,2.7,16.6,4.1c3.1,2.8,3.8,8.7,3.8,13.1L927.9,498.2L927.9,498.2z"/>
					</g>
				</g>
			</g>
		</g>
	</g>
</g>
<g id="Layer_2">
</g>
</svg>
