<?xml version="1.0" encoding="utf-8"?>
<!-- Generator: Adobe Illustrator 23.0.1, SVG Export Plug-In . SVG Version: 6.00 Build 0)  -->
<svg version="1.1" xmlns="http://www.w3.org/2000/svg" xmlns:xlink="http://www.w3.org/1999/xlink" x="0px" y="0px"
	 viewBox="0 0 3107.38 2043.41" style="enable-background:new 0 0 3107.38 2043.41;" xml:space="preserve">
<style type="text/css">
	.st0{clip-path:url(#SVGID_2_);fill-rule:evenodd;clip-rule:evenodd;}
	.st1{display:none;}
	.st2{clip-path:url(#SVGID_4_);fill:#FF0000;}
	.st3{fill:#FFFFFF;stroke:#000000;stroke-width:28;stroke-miterlimit:10;}
	.st4{fill:#FFFFFF;}
	.st5{fill:none;}
	.st6{font-family:'Oswald-Regular';}
	.st7{font-size:81px;}
	.st8{font-size:64px;}
	.st9{font-size:100px;}
	.st10{letter-spacing:13;}
	.st11{font-family:'FolioBT-BoldCondensed';}
	.st12{font-size:256px;}
	.st13{clip-path:url(#SVGID_6_);}
	.st14{clip-path:url(#SVGID_6_);fill:#FFFF00;}
	.st15{clip-path:url(#SVGID_6_);fill:#FFFFFF;}
	.st16{display:inline;}
	.st17{display:inline;clip-path:url(#SVGID_8_);enable-background:new    ;}
	.st18{clip-path:url(#SVGID_10_);fill-rule:evenodd;clip-rule:evenodd;}
	.st19{display:inline;clip-path:url(#SVGID_8_);fill-rule:evenodd;clip-rule:evenodd;}
	.st20{clip-path:url(#SVGID_12_);fill-rule:evenodd;clip-rule:evenodd;}
	.st21{clip-path:url(#SVGID_14_);fill-rule:evenodd;clip-rule:evenodd;}
	.st22{clip-path:url(#SVGID_16_);fill-rule:evenodd;clip-rule:evenodd;}
	.st23{clip-path:url(#SVGID_18_);fill-rule:evenodd;clip-rule:evenodd;}
	.st24{clip-path:url(#SVGID_20_);fill-rule:evenodd;clip-rule:evenodd;}
	.st25{clip-path:url(#SVGID_22_);fill-rule:evenodd;clip-rule:evenodd;}
	.st26{clip-path:url(#SVGID_24_);fill-rule:evenodd;clip-rule:evenodd;}
	.st27{clip-path:url(#SVGID_26_);fill-rule:evenodd;clip-rule:evenodd;}
	.st28{display:inline;clip-path:url(#SVGID_28_);fill-rule:evenodd;clip-rule:evenodd;fill:#FFFFFF;}
	.st29{display:inline;fill-rule:evenodd;clip-rule:evenodd;}
	.st30{display:inline;fill-rule:evenodd;clip-rule:evenodd;fill:#FFFFFF;}
</style>
<g id="Layer_7">
	<g>
		<defs>
			<rect id="SVGID_1_" x="-254.3" y="92.41" width="4160" height="1664"/>
		</defs>
		<clipPath id="SVGID_2_">
			<use xlink:href="#SVGID_1_"  style="overflow:visible;"/>
		</clipPath>
		<path class="st0" d="M523.36,496.67c-0.67,1.05-1.34,2.1-2,3.15c-7.91,5.94-15.65,11.94-23.22,18
			c-48.61,38.92-90.42,80.61-124.29,123.92c-34.82,44.54-61.61,91.26-79.62,138.87c-18.53,48.99-27.98,99.45-28.08,150.01v-0.83
			c0-50.83,9.45-101.58,28.08-150.84c18.01-47.61,44.8-94.34,79.62-138.87c33.86-43.31,75.68-85,124.29-123.92
			C506.34,509.59,514.75,503.09,523.36,496.67z"/>
		<path class="st0" d="M2925.32,929.79v1.66c0,50.83-9.45,101.58-28.08,150.84c-18.01,47.62-44.8,94.34-79.62,138.87
			c-33.87,43.31-75.68,85-124.29,123.92c-47.83,38.29-102.67,74.26-163.01,106.9c-60.1,32.51-126.18,62-196.4,87.67
			c-70.73,25.85-146.32,48.04-224.65,65.97c-162.71,37.23-335.49,56.1-513.54,56.1c-39.14,0-78.03-0.91-116.61-2.74
			c-136.91-6.45-269.98-24.32-396.92-53.37c-78.34-17.93-153.92-40.12-224.65-65.97c-37.4-13.67-108.4-44.14-108.4-44.14
			l-144.9-76.29c0,0-55.58-35.75-80.88-54.64c-0.67-1.05-1.34-2.1-2.01-3.16c-7.91-5.94-15.65-11.94-23.22-18
			c-48.61-38.91-90.42-80.61-124.29-123.92c-34.82-44.53-61.61-91.25-79.62-138.87c-18.53-48.99-27.98-99.46-28.08-150.02
			c0.1-50.56,9.55-101.02,28.08-150.01c18.01-47.61,44.8-94.34,79.62-138.87c33.86-43.31,75.68-85,124.29-123.92
			c7.57-6.06,15.31-12.06,23.22-18c0.66-1.05,1.33-2.1,2-3.15c25.31-18.9,52.34-37.15,80.89-54.65l144.9-76.28
			c34.77-15.72,71-30.48,108.4-44.15c70.73-25.85,146.32-48.04,224.65-65.96c126.94-29.04,260.01-46.92,396.92-53.37
			c38.58-1.82,77.47-2.73,116.61-2.73c178.05,0,350.83,18.88,513.54,56.11c78.33,17.92,153.92,40.12,224.65,65.96
			c70.22,25.66,136.3,55.16,196.4,87.67c60.34,32.64,115.18,68.6,163.01,106.89c48.61,38.92,90.42,80.61,124.29,123.92
			c34.82,44.54,61.61,91.26,79.62,138.87C2915.88,828.21,2925.32,878.96,2925.32,929.79z"/>
		<path class="st0" d="M523.36,1364.58c-8.61-6.43-17.03-12.93-25.23-19.5c-48.61-38.91-90.42-80.61-124.29-123.92
			c-34.82-44.53-61.61-91.26-79.62-138.87c-18.63-49.26-28.08-100-28.08-150.84v-0.83c0.1,50.56,9.55,101.03,28.08,150.02
			c18.01,47.61,44.8,94.34,79.62,138.87c33.86,43.31,75.68,85.01,124.29,123.92c7.57,6.06,15.31,12.06,23.22,18
			C522.02,1362.47,522.69,1363.53,523.36,1364.58z"/>
	</g>
	<g>
		<path d="M2863.1,718.87c-18.01-47.61-44.8-94.34-79.62-138.87c-33.87-43.31-75.68-85-124.29-123.92
			c-47.82-38.29-102.67-74.26-163.01-106.9c-60.1-32.51-126.18-62.01-196.4-87.67c-70.73-25.85-146.32-48.04-224.65-65.97
			c-162.71-37.23-335.49-56.1-513.54-56.1s-350.83,18.88-513.54,56.1c-78.33,17.92-153.92,40.12-224.65,65.97
			c-37.4,13.67-73.63,28.42-108.4,44.14c12.42-24.59,35-71.83,49.24-94.57c-1.95,1.01-143.77,115.97-194.13,170.86
			c-38.26,23.44-73.8,48.26-106.12,74.14c-48.6,38.92-90.42,80.61-124.29,123.92c-34.82,44.53-61.61,91.26-79.62,138.87
			C241.45,768.12,232,818.87,232,869.71c0,50.83,9.45,101.58,28.08,150.84c18.01,47.61,44.8,94.34,79.62,138.87
			c33.87,43.31,75.68,85,124.29,123.92c7.57,6.06,15.31,12.06,23.22,18c35.2,55.75,77.69,106.96,126.62,152.18
			c120.54,112.05,274.25,183.6,438.8,203.06c135.28,15.74,271.84-4.91,395.8-59.18c37.45,1.71,75.19,2.57,113.16,2.57
			c178.05,0,350.83-18.88,513.54-56.1c78.34-17.92,153.92-40.12,224.65-65.97c49.04-17.92,96.06-37.71,140.43-59.1
			c0.38,0.71,235.36-145.22,226.16-141.28c45.55-37.24,84.92-76.94,117.11-118.11c34.82-44.53,61.61-91.26,79.62-138.87
			c18.63-49.26,28.08-100.01,28.08-150.84C2891.19,818.87,2881.74,768.12,2863.1,718.87L2863.1,718.87z"/>
		<path class="st1" d="M2536.86,1444.55"/>
		<g>
			<g>
				<path d="M1561.6,1599.73c-178.03,0-350.79-18.87-513.48-56.1c-78.33-17.92-153.9-40.11-224.63-65.96
					c-70.21-25.66-136.28-55.15-196.37-87.66c-60.33-32.63-115.16-68.59-162.97-106.87c-48.59-38.91-90.39-80.58-124.25-123.88
					c-34.81-44.51-61.58-91.22-79.59-138.81c-18.62-49.23-28.07-99.95-28.07-150.75c0-50.81,9.44-101.53,28.07-150.76
					c18-47.59,44.78-94.29,79.59-138.81c33.85-43.3,75.66-84.98,124.25-123.88c47.81-38.28,102.64-74.24,162.97-106.87
					c60.09-32.5,126.16-62,196.37-87.65c70.73-25.85,146.3-48.04,224.63-65.96c162.69-37.22,335.45-56.1,513.48-56.1
					s350.79,18.87,513.48,56.1c78.33,17.92,153.9,40.11,224.63,65.96c70.21,25.66,136.28,55.15,196.37,87.65
					c60.33,32.63,115.16,68.59,162.97,106.87c48.59,38.9,90.39,80.58,124.25,123.88c34.81,44.51,61.58,91.22,79.59,138.81
					c18.62,49.23,28.06,99.95,28.06,150.76c0,50.81-9.44,101.53-28.06,150.75c-18,47.59-44.78,94.29-79.59,138.81
					c-33.85,43.3-75.66,84.98-124.25,123.88c-47.81,38.28-102.64,74.24-162.97,106.87c-60.09,32.5-126.16,62-196.37,87.66
					c-70.72,25.85-146.3,48.04-224.63,65.96C1912.38,1580.86,1739.62,1599.73,1561.6,1599.73z M1561.6,187.35
					c-344.83,0-668.64,72.44-911.8,203.97C411.27,520.34,279.91,690.24,279.91,869.71c0,179.47,131.36,349.37,369.88,478.39
					c243.16,131.53,566.98,203.97,911.8,203.97c344.82,0,668.64-72.44,911.8-203.97c238.52-129.02,369.88-298.92,369.88-478.39
					c0-179.47-131.36-349.37-369.88-478.39C2230.24,259.79,1906.42,187.35,1561.6,187.35z"/>
			</g>
		</g>
	</g>
	<g id="Layer_3">
		<g>
			<defs>
				<rect id="SVGID_3_" x="-254.3" y="92.41" width="4160" height="1664"/>
			</defs>
			<clipPath id="SVGID_4_">
				<use xlink:href="#SVGID_3_"  style="overflow:visible;"/>
			</clipPath>
			<path class="st2" d="M2867.11,869.71c0,390.02-584.5,706.19-1305.52,706.19c-721.02,0-1305.52-316.17-1305.52-706.19
				c0-390.02,584.5-706.19,1305.52-706.19C2282.61,163.52,2867.11,479.69,2867.11,869.71"/>
		</g>
	</g>
</g>
<g id="Layer_1">
	<g id="Layer_5">
		<g id="Layer_4">
		</g>
		<g>
			<path class="st3" d="M1311.89,715.79l46.12-316.86h72.13l46.12,316.86h-55.53l-6.09-55.56h-41.14l-6.09,55.56H1311.89z
				 M1379.22,602.5h29.33l-14.39-149.32L1379.22,602.5z"/>
			<path class="st3" d="M1631.22,639.39c0,30.96-5.07,52.49-15.22,64.57c-10.15,12.08-28.38,18.12-54.7,18.12
				c-26.44,0-44.71-6.01-54.79-18.01c-10.08-12.01-15.13-33.57-15.13-64.67V475.32c0-31.25,5.04-52.85,15.13-64.78
				c10.08-11.94,28.35-17.9,54.79-17.9c26.32,0,44.55,6.04,54.7,18.12c10.15,12.08,15.22,33.61,15.22,64.57v35.59h-53.31v-34.29
				c0-10.13-1.32-17.4-3.97-21.81c-2.64-4.41-6.98-6.62-13-6.62c-5.78,0-9.93,2.14-12.45,6.4c-2.52,4.27-3.78,11.32-3.78,21.16
				v163.21c0,10.13,1.2,17.25,3.6,21.38c2.4,4.12,6.61,6.19,12.64,6.19c6.15,0,10.51-2.28,13.1-6.84c2.58-4.56,3.87-12.4,3.87-23.55
				v-37.33h53.31V639.39z"/>
			<path class="st3" d="M1662.39,715.79V398.92h52.57v150.62l42.25-150.62h55.53l-48.7,153.22l53.31,163.64h-57.74l-44.64-156.48
				v156.48H1662.39z"/>
			<path class="st3" d="M1874.72,715.79V596.2l-57.74-197.28h57.37l26.56,133.69l26.01-133.69h57.37l-57.74,197.28v119.58H1874.72z"
				/>
			<path class="st3" d="M1966.96,715.79l46.12-316.86h72.13l46.12,316.86h-55.53l-6.09-55.56h-41.14l-6.09,55.56H1966.96z
				 M2034.29,602.5h29.33l-14.39-149.32L2034.29,602.5z"/>
			<path class="st3" d="M2236.66,701.03v-97.66c0-8.39-2-14.65-5.99-18.77c-4-4.12-10.18-6.19-18.54-6.19
				c-1.11,0-2.43,0.07-3.97,0.22c-1.54,0.15-3.85,0.43-6.92,0.87v136.29h-51.47V398.92h72.68c19.67,0,35.11,5.14,46.3,15.41
				c11.19,10.27,16.79,24.38,16.79,42.32v46.23c0,13.75-3.26,24.74-9.78,32.99c-6.52,8.25-15.62,12.8-27.3,13.67
				c13.9,1.3,24.17,6.55,30.81,15.73c6.64,9.19,9.96,22.9,9.96,41.13v94.62c0.49,2.75,1.32,5.32,2.49,7.7
				c1.17,2.39,2.74,4.74,4.7,7.05h-52.57c-2.46-1.59-4.28-3.54-5.44-5.86C2237.24,707.61,2236.66,704.65,2236.66,701.03z
				 M2201.24,525.02c0.98,0.15,2.09,0.25,3.32,0.33c1.23,0.07,3.01,0.11,5.35,0.11c7.87,0,13.68-1.74,17.43-5.21
				c3.75-3.47,5.63-8.97,5.63-16.49v-28.43c0-7.23-1.94-12.59-5.81-16.06c-3.87-3.47-9.75-5.21-17.62-5.21
				c-2.21,0-3.91,0.04-5.07,0.11c-1.17,0.07-2.25,0.18-3.23,0.33V525.02z"/>
			<path class="st3" d="M2387.56,398.92c27.42,0,46.67,4.7,57.74,14.11c11.07,9.41,16.6,25.39,16.6,47.96v191.2
				c0,23.44-5.47,39.9-16.42,49.37c-10.95,9.48-30.25,14.22-57.93,14.22h-64.75V398.92H2387.56z M2375.39,455.79v202.71
				c2.83,0.15,5.9,0.33,9.22,0.54c3.32,0.22,5.17,0.33,5.53,0.33c6.52,0,11.16-1.74,13.93-5.21c2.77-3.47,4.15-9.12,4.15-16.93
				v-160.6c0-7.96-1.48-13.49-4.43-16.6c-2.95-3.11-8.36-4.67-16.23-4.67c-3.2,0-5.66,0.04-7.38,0.11
				C2378.46,455.54,2376.86,455.64,2375.39,455.79z"/>
		</g>
		<g>
			<path class="st4" d="M1311.89,715.79l46.12-316.86h72.13l46.12,316.86h-55.53l-6.09-55.56h-41.14l-6.09,55.56H1311.89z
				 M1379.22,602.5h29.33l-14.39-149.32L1379.22,602.5z"/>
			<path class="st4" d="M1631.22,639.39c0,30.96-5.07,52.49-15.22,64.57c-10.15,12.08-28.38,18.12-54.7,18.12
				c-26.44,0-44.71-6.01-54.79-18.01c-10.08-12.01-15.13-33.57-15.13-64.67V475.32c0-31.25,5.04-52.85,15.13-64.78
				c10.08-11.94,28.35-17.9,54.79-17.9c26.32,0,44.55,6.04,54.7,18.12c10.15,12.08,15.22,33.61,15.22,64.57v35.59h-53.31v-34.29
				c0-10.13-1.32-17.4-3.97-21.81c-2.64-4.41-6.98-6.62-13-6.62c-5.78,0-9.93,2.14-12.45,6.4c-2.52,4.27-3.78,11.32-3.78,21.16
				v163.21c0,10.13,1.2,17.25,3.6,21.38c2.4,4.12,6.61,6.19,12.64,6.19c6.15,0,10.51-2.28,13.1-6.84c2.58-4.56,3.87-12.4,3.87-23.55
				v-37.33h53.31V639.39z"/>
			<path class="st4" d="M1662.39,715.79V398.92h52.57v150.62l42.25-150.62h55.53l-48.7,153.22l53.31,163.64h-57.74l-44.64-156.48
				v156.48H1662.39z"/>
			<path class="st4" d="M1874.72,715.79V596.2l-57.74-197.28h57.37l26.56,133.69l26.01-133.69h57.37l-57.74,197.28v119.58H1874.72z"
				/>
			<path class="st4" d="M1966.96,715.79l46.12-316.86h72.13l46.12,316.86h-55.53l-6.09-55.56h-41.14l-6.09,55.56H1966.96z
				 M2034.29,602.5h29.33l-14.39-149.32L2034.29,602.5z"/>
			<path class="st4" d="M2236.66,701.03v-97.66c0-8.39-2-14.65-5.99-18.77c-4-4.12-10.18-6.19-18.54-6.19
				c-1.11,0-2.43,0.07-3.97,0.22c-1.54,0.15-3.85,0.43-6.92,0.87v136.29h-51.47V398.92h72.68c19.67,0,35.11,5.14,46.3,15.41
				c11.19,10.27,16.79,24.38,16.79,42.32v46.23c0,13.75-3.26,24.74-9.78,32.99c-6.52,8.25-15.62,12.8-27.3,13.67
				c13.9,1.3,24.17,6.55,30.81,15.73c6.64,9.19,9.96,22.9,9.96,41.13v94.62c0.49,2.75,1.32,5.32,2.49,7.7
				c1.17,2.39,2.74,4.74,4.7,7.05h-52.57c-2.46-1.59-4.28-3.54-5.44-5.86C2237.24,707.61,2236.66,704.65,2236.66,701.03z
				 M2201.24,525.02c0.98,0.15,2.09,0.25,3.32,0.33c1.23,0.07,3.01,0.11,5.35,0.11c7.87,0,13.68-1.74,17.43-5.21
				c3.75-3.47,5.63-8.97,5.63-16.49v-28.43c0-7.23-1.94-12.59-5.81-16.06c-3.87-3.47-9.75-5.21-17.62-5.21
				c-2.21,0-3.91,0.04-5.07,0.11c-1.17,0.07-2.25,0.18-3.23,0.33V525.02z"/>
			<path class="st4" d="M2387.56,398.92c27.42,0,46.67,4.7,57.74,14.11c11.07,9.41,16.6,25.39,16.6,47.96v191.2
				c0,23.44-5.47,39.9-16.42,49.37c-10.95,9.48-30.25,14.22-57.93,14.22h-64.75V398.92H2387.56z M2375.39,455.79v202.71
				c2.83,0.15,5.9,0.33,9.22,0.54c3.32,0.22,5.17,0.33,5.53,0.33c6.52,0,11.16-1.74,13.93-5.21c2.77-3.47,4.15-9.12,4.15-16.93
				v-160.6c0-7.96-1.48-13.49-4.43-16.6c-2.95-3.11-8.36-4.67-16.23-4.67c-3.2,0-5.66,0.04-7.38,0.11
				C2378.46,455.54,2376.86,455.64,2375.39,455.79z"/>
		</g>
		<g id="B1">
			<g>
				<path class="st4" d="M1256.85,407.36c-14.37-17.91-34.32-28.02-59.84-30.32c23.32-1.73,41.47-10.84,54.48-27.29
					c13.01-16.46,19.52-38.4,19.52-65.84v-92.26c0-35.81-11.16-63.96-33.5-84.47c-22.34-20.51-53.14-30.75-92.41-30.75h-145.08
					v632.42h145.08c46.63,0,80.51-9.88,101.62-29.67c21.1-19.77,31.66-51.6,31.66-95.5V478.39
					C1278.37,448.94,1271.2,425.27,1256.85,407.36z M1102.75,435.09c2.94-0.87,6.02-1.45,9.2-1.73c3.19-0.3,7.61-0.44,13.26-0.44
					c16.21,0,28.54,3.68,37.01,11.05c8.46,7.36,12.7,17.83,12.7,31.4v81.87c0,15.89-3.99,27.66-11.98,35.31
					c-7.97,7.66-20.3,11.47-36.99,11.47c-6.14,0-10.87-0.13-14.18-0.43c-3.31-0.28-6.33-0.71-9.02-1.3V435.09z M1102.75,183.85
					c2.2-0.3,4.66-0.5,7.36-0.65c2.69-0.15,6.51-0.22,11.41-0.22c16.44,0,28.6,3.46,36.45,10.39c7.85,6.93,11.78,17.62,11.78,32.06
					v63.68c0,13.28-4.11,23.24-12.33,29.88c-8.22,6.65-20.43,9.97-36.64,9.97c-4.91,0-8.65-0.07-11.22-0.22
					c-2.59-0.13-4.85-0.35-6.82-0.65V183.85z"/>
				<path d="M1157.97,193.37c-7.85-6.93-20-10.39-36.45-10.39c-4.91,0-8.72,0.07-11.41,0.22c-2.71,0.15-5.16,0.35-7.36,0.65v144.23
					c1.97,0.3,4.23,0.52,6.82,0.65c2.57,0.15,6.31,0.22,11.22,0.22c16.21,0,28.42-3.31,36.64-9.97c8.22-6.64,12.33-16.6,12.33-29.88
					v-63.68C1169.76,211,1165.83,200.31,1157.97,193.37z M1149.06,289.11c0,10.04-3.37,12.76-4.64,13.78
					c-3.93,3.18-11.31,5.04-20.97,5.32V203.69c13.25,0.28,18.72,3.34,20.83,5.2c3.95,3.49,4.78,10.91,4.78,16.53V289.11z
					 M1162.22,443.96c-8.47-7.36-20.8-11.05-37.01-11.05c-5.65,0-10.07,0.15-13.26,0.44c-3.18,0.28-6.25,0.86-9.2,1.73v167.2
					c2.69,0.59,5.71,1.02,9.02,1.3c3.31,0.3,8.04,0.43,14.18,0.43c16.69,0,29.02-3.81,36.99-11.47
					c7.98-7.64,11.98-19.41,11.98-35.31v-81.87C1174.92,461.79,1170.68,451.32,1162.22,443.96z M1154.22,557.23
					c0,6.85-0.98,15.94-5.6,20.37c-3.84,3.68-11.89,5.71-22.67,5.71h-2.5V453.63c0.56-0.01,1.14-0.01,1.76-0.01
					c7.56,0,17.74,1.04,23.42,5.97c2.4,2.08,5.59,5.99,5.59,15.78V557.23z M1162.22,443.96c-8.47-7.36-20.8-11.05-37.01-11.05
					c-5.65,0-10.07,0.15-13.26,0.44c-3.18,0.28-6.25,0.86-9.2,1.73v167.2c2.69,0.59,5.71,1.02,9.02,1.3
					c3.31,0.3,8.04,0.43,14.18,0.43c16.69,0,29.02-3.81,36.99-11.47c7.98-7.64,11.98-19.41,11.98-35.31v-81.87
					C1174.92,461.79,1170.68,451.32,1162.22,443.96z M1154.22,557.23c0,6.85-0.98,15.94-5.6,20.37c-3.84,3.68-11.89,5.71-22.67,5.71
					h-2.5V453.63c0.56-0.01,1.14-0.01,1.76-0.01c7.56,0,17.74,1.04,23.42,5.97c2.4,2.08,5.59,5.99,5.59,15.78V557.23z
					 M1157.97,193.37c-7.85-6.93-20-10.39-36.45-10.39c-4.91,0-8.72,0.07-11.41,0.22c-2.71,0.15-5.16,0.35-7.36,0.65v144.23
					c1.97,0.3,4.23,0.52,6.82,0.65c2.57,0.15,6.31,0.22,11.22,0.22c16.21,0,28.42-3.31,36.64-9.97c8.22-6.64,12.33-16.6,12.33-29.88
					v-63.68C1169.76,211,1165.83,200.31,1157.97,193.37z M1149.06,289.11c0,10.04-3.37,12.76-4.64,13.78
					c-3.93,3.18-11.31,5.04-20.97,5.32V203.69c13.25,0.28,18.72,3.34,20.83,5.2c3.95,3.49,4.78,10.91,4.78,16.53V289.11z
					 M1157.97,193.37c-7.85-6.93-20-10.39-36.45-10.39c-4.91,0-8.72,0.07-11.41,0.22c-2.71,0.15-5.16,0.35-7.36,0.65v144.23
					c1.97,0.3,4.23,0.52,6.82,0.65c2.57,0.15,6.31,0.22,11.22,0.22c16.21,0,28.42-3.31,36.64-9.97c8.22-6.64,12.33-16.6,12.33-29.88
					v-63.68C1169.76,211,1165.83,200.31,1157.97,193.37z M1149.06,289.11c0,10.04-3.37,12.76-4.64,13.78
					c-3.93,3.18-11.31,5.04-20.97,5.32V203.69c13.25,0.28,18.72,3.34,20.83,5.2c3.95,3.49,4.78,10.91,4.78,16.53V289.11z
					 M1162.22,443.96c-8.47-7.36-20.8-11.05-37.01-11.05c-5.65,0-10.07,0.15-13.26,0.44c-3.18,0.28-6.25,0.86-9.2,1.73v167.2
					c2.69,0.59,5.71,1.02,9.02,1.3c3.31,0.3,8.04,0.43,14.18,0.43c16.69,0,29.02-3.81,36.99-11.47
					c7.98-7.64,11.98-19.41,11.98-35.31v-81.87C1174.92,461.79,1170.68,451.32,1162.22,443.96z M1154.22,557.23
					c0,6.85-0.98,15.94-5.6,20.37c-3.84,3.68-11.89,5.71-22.67,5.71h-2.5V453.63c0.56-0.01,1.14-0.01,1.76-0.01
					c7.56,0,17.74,1.04,23.42,5.97c2.4,2.08,5.59,5.99,5.59,15.78V557.23z M1162.22,443.96c-8.47-7.36-20.8-11.05-37.01-11.05
					c-5.65,0-10.07,0.15-13.26,0.44c-3.18,0.28-6.25,0.86-9.2,1.73v167.2c2.69,0.59,5.71,1.02,9.02,1.3
					c3.31,0.3,8.04,0.43,14.18,0.43c16.69,0,29.02-3.81,36.99-11.47c7.98-7.64,11.98-19.41,11.98-35.31v-81.87
					C1174.92,461.79,1170.68,451.32,1162.22,443.96z M1154.22,557.23c0,6.85-0.98,15.94-5.6,20.37c-3.84,3.68-11.89,5.71-22.67,5.71
					h-2.5V453.63c0.56-0.01,1.14-0.01,1.76-0.01c7.56,0,17.74,1.04,23.42,5.97c2.4,2.08,5.59,5.99,5.59,15.78V557.23z
					 M1120.79,328.96c16.21,0,28.42-3.31,36.64-9.97c8.22-6.64,12.33-16.6,12.33-29.88v-63.68c0-14.43-3.93-25.12-11.78-32.06
					c-7.85-6.93-20-10.39-36.45-10.39c-4.91,0-8.72,0.07-11.41,0.22c-2.71,0.15-5.16,0.35-7.36,0.65v144.23
					c1.97,0.3,4.23,0.52,6.82,0.65C1112.14,328.88,1115.88,328.96,1120.79,328.96z M1123.45,203.69c13.25,0.28,18.72,3.34,20.83,5.2
					c3.95,3.49,4.78,10.91,4.78,16.53v63.68c0,10.04-3.37,12.76-4.64,13.78c-3.93,3.18-11.31,5.04-20.97,5.32V203.69z
					 M1272.99,394.41c-5.56-6.93-11.78-12.94-18.66-18.02c4.85-4.04,9.33-8.65,13.41-13.81c15.91-20.12,23.97-46.6,23.97-78.67
					v-92.26c0-41.67-13.53-75.21-40.2-99.73c-26.19-24.01-61.98-36.2-106.41-36.2H979.32v673.82h165.78
					c51.84,0,90.8-11.86,115.77-35.26c25.36-23.76,38.21-60.98,38.21-110.61V478.39C1299.07,444.25,1290.31,416,1272.99,394.41z
					 M1278.37,583.67c0,43.9-10.56,75.73-31.66,95.5c-21.11,19.8-54.99,29.67-101.62,29.67h-145.08V76.42h145.08
					c39.27,0,70.07,10.25,92.41,30.75c22.34,20.51,33.5,48.66,33.5,84.47v92.26c0,27.44-6.51,49.38-19.52,65.84
					c-13.01,16.46-31.17,25.56-54.48,27.29c25.52,2.31,45.47,12.42,59.84,30.32c14.36,17.91,21.53,41.58,21.53,71.03V583.67z
					 M1162.22,443.96c-8.47-7.36-20.8-11.05-37.01-11.05c-5.65,0-10.07,0.15-13.26,0.44c-3.18,0.28-6.25,0.86-9.2,1.73v167.2
					c2.69,0.59,5.71,1.02,9.02,1.3c3.31,0.3,8.04,0.43,14.18,0.43c16.69,0,29.02-3.81,36.99-11.47
					c7.98-7.64,11.98-19.41,11.98-35.31v-81.87C1174.92,461.79,1170.68,451.32,1162.22,443.96z M1154.22,557.23
					c0,6.85-0.98,15.94-5.6,20.37c-3.84,3.68-11.89,5.71-22.67,5.71h-2.5V453.63c0.56-0.01,1.14-0.01,1.76-0.01
					c7.56,0,17.74,1.04,23.42,5.97c2.4,2.08,5.59,5.99,5.59,15.78V557.23z M1120.79,328.96c16.21,0,28.42-3.31,36.64-9.97
					c8.22-6.64,12.33-16.6,12.33-29.88v-63.68c0-14.43-3.93-25.12-11.78-32.06c-7.85-6.93-20-10.39-36.45-10.39
					c-4.91,0-8.72,0.07-11.41,0.22c-2.71,0.15-5.16,0.35-7.36,0.65v144.23c1.97,0.3,4.23,0.52,6.82,0.65
					C1112.14,328.88,1115.88,328.96,1120.79,328.96z M1123.45,203.69c13.25,0.28,18.72,3.34,20.83,5.2
					c3.95,3.49,4.78,10.91,4.78,16.53v63.68c0,10.04-3.37,12.76-4.64,13.78c-3.93,3.18-11.31,5.04-20.97,5.32V203.69z
					 M1157.97,193.37c-7.85-6.93-20-10.39-36.45-10.39c-4.91,0-8.72,0.07-11.41,0.22c-2.71,0.15-5.16,0.35-7.36,0.65v144.23
					c1.97,0.3,4.23,0.52,6.82,0.65c2.57,0.15,6.31,0.22,11.22,0.22c16.21,0,28.42-3.31,36.64-9.97c8.22-6.64,12.33-16.6,12.33-29.88
					v-63.68C1169.76,211,1165.83,200.31,1157.97,193.37z M1149.06,289.11c0,10.04-3.37,12.76-4.64,13.78
					c-3.93,3.18-11.31,5.04-20.97,5.32V203.69c13.25,0.28,18.72,3.34,20.83,5.2c3.95,3.49,4.78,10.91,4.78,16.53V289.11z
					 M1162.22,443.96c-8.47-7.36-20.8-11.05-37.01-11.05c-5.65,0-10.07,0.15-13.26,0.44c-3.18,0.28-6.25,0.86-9.2,1.73v167.2
					c2.69,0.59,5.71,1.02,9.02,1.3c3.31,0.3,8.04,0.43,14.18,0.43c16.69,0,29.02-3.81,36.99-11.47
					c7.98-7.64,11.98-19.41,11.98-35.31v-81.87C1174.92,461.79,1170.68,451.32,1162.22,443.96z M1154.22,557.23
					c0,6.85-0.98,15.94-5.6,20.37c-3.84,3.68-11.89,5.71-22.67,5.71h-2.5V453.63c0.56-0.01,1.14-0.01,1.76-0.01
					c7.56,0,17.74,1.04,23.42,5.97c2.4,2.08,5.59,5.99,5.59,15.78V557.23z M1162.22,443.96c-8.47-7.36-20.8-11.05-37.01-11.05
					c-5.65,0-10.07,0.15-13.26,0.44c-3.18,0.28-6.25,0.86-9.2,1.73v167.2c2.69,0.59,5.71,1.02,9.02,1.3
					c3.31,0.3,8.04,0.43,14.18,0.43c16.69,0,29.02-3.81,36.99-11.47c7.98-7.64,11.98-19.41,11.98-35.31v-81.87
					C1174.92,461.79,1170.68,451.32,1162.22,443.96z M1154.22,557.23c0,6.85-0.98,15.94-5.6,20.37c-3.84,3.68-11.89,5.71-22.67,5.71
					h-2.5V453.63c0.56-0.01,1.14-0.01,1.76-0.01c7.56,0,17.74,1.04,23.42,5.97c2.4,2.08,5.59,5.99,5.59,15.78V557.23z
					 M1157.97,193.37c-7.85-6.93-20-10.39-36.45-10.39c-4.91,0-8.72,0.07-11.41,0.22c-2.71,0.15-5.16,0.35-7.36,0.65v144.23
					c1.97,0.3,4.23,0.52,6.82,0.65c2.57,0.15,6.31,0.22,11.22,0.22c16.21,0,28.42-3.31,36.64-9.97c8.22-6.64,12.33-16.6,12.33-29.88
					v-63.68C1169.76,211,1165.83,200.31,1157.97,193.37z M1149.06,289.11c0,10.04-3.37,12.76-4.64,13.78
					c-3.93,3.18-11.31,5.04-20.97,5.32V203.69c13.25,0.28,18.72,3.34,20.83,5.2c3.95,3.49,4.78,10.91,4.78,16.53V289.11z"/>
			</g>
		</g>
		<g id="B1_1_">
			<g>
				<path class="st4" d="M1599.66,1155.99c-14.37-17.91-34.32-28.02-59.84-30.32c23.32-1.73,41.47-10.84,54.48-27.29
					c13.01-16.46,19.52-38.4,19.52-65.84v-92.26c0-35.81-11.16-63.96-33.5-84.47c-22.34-20.51-53.14-30.75-92.41-30.75h-145.08
					v632.42h145.08c46.63,0,80.51-9.88,101.62-29.67c21.1-19.77,31.66-51.6,31.66-95.5v-105.27
					C1621.19,1197.57,1614.02,1173.9,1599.66,1155.99z M1445.57,1183.72c2.94-0.87,6.02-1.45,9.2-1.73
					c3.19-0.3,7.61-0.44,13.26-0.44c16.21,0,28.54,3.68,37.01,11.04c8.46,7.36,12.7,17.83,12.7,31.4v81.87
					c0,15.89-3.99,27.66-11.98,35.31c-7.97,7.66-20.3,11.47-36.99,11.47c-6.14,0-10.87-0.13-14.18-0.43
					c-3.31-0.28-6.33-0.71-9.02-1.3V1183.72z M1445.57,932.48c2.2-0.3,4.66-0.5,7.36-0.65c2.69-0.15,6.51-0.22,11.41-0.22
					c16.44,0,28.6,3.46,36.45,10.39c7.85,6.93,11.78,17.62,11.78,32.06v63.68c0,13.28-4.11,23.24-12.33,29.88
					c-8.22,6.65-20.43,9.97-36.64,9.97c-4.91,0-8.65-0.07-11.22-0.22c-2.59-0.13-4.85-0.35-6.82-0.65V932.48z"/>
				<path d="M1500.79,942c-7.85-6.93-20-10.39-36.45-10.39c-4.91,0-8.72,0.07-11.41,0.22c-2.71,0.15-5.16,0.35-7.36,0.65v144.23
					c1.97,0.3,4.23,0.52,6.82,0.65c2.57,0.15,6.31,0.22,11.22,0.22c16.2,0,28.42-3.31,36.64-9.97c8.22-6.64,12.33-16.6,12.33-29.88
					v-63.68C1512.58,959.63,1508.64,948.94,1500.79,942z M1491.88,1037.74c0,10.04-3.37,12.76-4.64,13.78
					c-3.93,3.18-11.31,5.04-20.97,5.32V952.32c13.25,0.28,18.72,3.34,20.83,5.2c3.95,3.49,4.78,10.91,4.78,16.53V1037.74z
					 M1505.04,1192.59c-8.47-7.36-20.8-11.04-37.01-11.04c-5.65,0-10.07,0.15-13.26,0.44c-3.18,0.28-6.25,0.86-9.2,1.73v167.2
					c2.69,0.59,5.71,1.02,9.02,1.3c3.31,0.3,8.04,0.43,14.18,0.43c16.69,0,29.02-3.81,36.99-11.47
					c7.98-7.64,11.98-19.41,11.98-35.31v-81.87C1517.74,1210.42,1513.49,1199.95,1505.04,1192.59z M1497.04,1305.86
					c0,6.85-0.98,15.94-5.6,20.37c-3.84,3.68-11.89,5.71-22.67,5.71h-2.5v-129.68c0.56-0.01,1.14-0.01,1.76-0.01
					c7.56,0,17.74,1.04,23.42,5.97c2.4,2.08,5.59,5.99,5.59,15.78V1305.86z M1505.04,1192.59c-8.47-7.36-20.8-11.04-37.01-11.04
					c-5.65,0-10.07,0.15-13.26,0.44c-3.18,0.28-6.25,0.86-9.2,1.73v167.2c2.69,0.59,5.71,1.02,9.02,1.3
					c3.31,0.3,8.04,0.43,14.18,0.43c16.69,0,29.02-3.81,36.99-11.47c7.98-7.64,11.98-19.41,11.98-35.31v-81.87
					C1517.74,1210.42,1513.49,1199.95,1505.04,1192.59z M1497.04,1305.86c0,6.85-0.98,15.94-5.6,20.37
					c-3.84,3.68-11.89,5.71-22.67,5.71h-2.5v-129.68c0.56-0.01,1.14-0.01,1.76-0.01c7.56,0,17.74,1.04,23.42,5.97
					c2.4,2.08,5.59,5.99,5.59,15.78V1305.86z M1500.79,942c-7.85-6.93-20-10.39-36.45-10.39c-4.91,0-8.72,0.07-11.41,0.22
					c-2.71,0.15-5.16,0.35-7.36,0.65v144.23c1.97,0.3,4.23,0.52,6.82,0.65c2.57,0.15,6.31,0.22,11.22,0.22
					c16.2,0,28.42-3.31,36.64-9.97c8.22-6.64,12.33-16.6,12.33-29.88v-63.68C1512.58,959.63,1508.64,948.94,1500.79,942z
					 M1491.88,1037.74c0,10.04-3.37,12.76-4.64,13.78c-3.93,3.18-11.31,5.04-20.97,5.32V952.32c13.25,0.28,18.72,3.34,20.83,5.2
					c3.95,3.49,4.78,10.91,4.78,16.53V1037.74z M1500.79,942c-7.85-6.93-20-10.39-36.45-10.39c-4.91,0-8.72,0.07-11.41,0.22
					c-2.71,0.15-5.16,0.35-7.36,0.65v144.23c1.97,0.3,4.23,0.52,6.82,0.65c2.57,0.15,6.31,0.22,11.22,0.22
					c16.2,0,28.42-3.31,36.64-9.97c8.22-6.64,12.33-16.6,12.33-29.88v-63.68C1512.58,959.63,1508.64,948.94,1500.79,942z
					 M1491.88,1037.74c0,10.04-3.37,12.76-4.64,13.78c-3.93,3.18-11.31,5.04-20.97,5.32V952.32c13.25,0.28,18.72,3.34,20.83,5.2
					c3.95,3.49,4.78,10.91,4.78,16.53V1037.74z M1505.04,1192.59c-8.47-7.36-20.8-11.04-37.01-11.04c-5.65,0-10.07,0.15-13.26,0.44
					c-3.18,0.28-6.25,0.86-9.2,1.73v167.2c2.69,0.59,5.71,1.02,9.02,1.3c3.31,0.3,8.04,0.43,14.18,0.43
					c16.69,0,29.02-3.81,36.99-11.47c7.98-7.64,11.98-19.41,11.98-35.31v-81.87C1517.74,1210.42,1513.49,1199.95,1505.04,1192.59z
					 M1497.04,1305.86c0,6.85-0.98,15.94-5.6,20.37c-3.84,3.68-11.89,5.71-22.67,5.71h-2.5v-129.68c0.56-0.01,1.14-0.01,1.76-0.01
					c7.56,0,17.74,1.04,23.42,5.97c2.4,2.08,5.59,5.99,5.59,15.78V1305.86z M1505.04,1192.59c-8.47-7.36-20.8-11.04-37.01-11.04
					c-5.65,0-10.07,0.15-13.26,0.44c-3.18,0.28-6.25,0.86-9.2,1.73v167.2c2.69,0.59,5.71,1.02,9.02,1.3
					c3.31,0.3,8.04,0.43,14.18,0.43c16.69,0,29.02-3.81,36.99-11.47c7.98-7.64,11.98-19.41,11.98-35.31v-81.87
					C1517.74,1210.42,1513.49,1199.95,1505.04,1192.59z M1497.04,1305.86c0,6.85-0.98,15.94-5.6,20.37
					c-3.84,3.68-11.89,5.71-22.67,5.71h-2.5v-129.68c0.56-0.01,1.14-0.01,1.76-0.01c7.56,0,17.74,1.04,23.42,5.97
					c2.4,2.08,5.59,5.99,5.59,15.78V1305.86z M1463.61,1077.59c16.2,0,28.42-3.31,36.64-9.97c8.22-6.64,12.33-16.6,12.33-29.88
					v-63.68c0-14.43-3.93-25.12-11.78-32.06c-7.85-6.93-20-10.39-36.45-10.39c-4.91,0-8.72,0.07-11.41,0.22
					c-2.71,0.15-5.16,0.35-7.36,0.65v144.23c1.97,0.3,4.23,0.52,6.82,0.65C1454.96,1077.51,1458.7,1077.59,1463.61,1077.59z
					 M1466.27,952.32c13.25,0.28,18.72,3.34,20.83,5.2c3.95,3.49,4.78,10.91,4.78,16.53v63.68c0,10.04-3.37,12.76-4.64,13.78
					c-3.93,3.18-11.31,5.04-20.97,5.32V952.32z M1615.81,1143.04c-5.56-6.93-11.78-12.94-18.66-18.02
					c4.85-4.04,9.33-8.65,13.41-13.81c15.91-20.12,23.97-46.6,23.97-78.67v-92.26c0-41.67-13.53-75.21-40.2-99.73
					c-26.19-24.01-61.98-36.2-106.41-36.2h-165.78v673.82h165.78c51.84,0,90.8-11.86,115.77-35.26
					c25.36-23.76,38.21-60.98,38.21-110.61v-105.27C1641.89,1192.88,1633.12,1164.63,1615.81,1143.04z M1621.19,1332.3
					c0,43.9-10.56,75.73-31.66,95.5c-21.11,19.8-54.99,29.67-101.62,29.67h-145.08V825.05h145.08c39.27,0,70.07,10.25,92.41,30.75
					c22.34,20.51,33.5,48.66,33.5,84.47v92.26c0,27.44-6.51,49.38-19.52,65.84c-13.01,16.46-31.17,25.56-54.48,27.29
					c25.52,2.31,45.47,12.42,59.84,30.32c14.36,17.91,21.53,41.58,21.53,71.03V1332.3z M1505.04,1192.59
					c-8.47-7.36-20.8-11.04-37.01-11.04c-5.65,0-10.07,0.15-13.26,0.44c-3.18,0.28-6.25,0.86-9.2,1.73v167.2
					c2.69,0.59,5.71,1.02,9.02,1.3c3.31,0.3,8.04,0.43,14.18,0.43c16.69,0,29.02-3.81,36.99-11.47
					c7.98-7.64,11.98-19.41,11.98-35.31v-81.87C1517.74,1210.42,1513.49,1199.95,1505.04,1192.59z M1497.04,1305.86
					c0,6.85-0.98,15.94-5.6,20.37c-3.84,3.68-11.89,5.71-22.67,5.71h-2.5v-129.68c0.56-0.01,1.14-0.01,1.76-0.01
					c7.56,0,17.74,1.04,23.42,5.97c2.4,2.08,5.59,5.99,5.59,15.78V1305.86z M1463.61,1077.59c16.2,0,28.42-3.31,36.64-9.97
					c8.22-6.64,12.33-16.6,12.33-29.88v-63.68c0-14.43-3.93-25.12-11.78-32.06c-7.85-6.93-20-10.39-36.45-10.39
					c-4.91,0-8.72,0.07-11.41,0.22c-2.71,0.15-5.16,0.35-7.36,0.65v144.23c1.97,0.3,4.23,0.52,6.82,0.65
					C1454.96,1077.51,1458.7,1077.59,1463.61,1077.59z M1466.27,952.32c13.25,0.28,18.72,3.34,20.83,5.2
					c3.95,3.49,4.78,10.91,4.78,16.53v63.68c0,10.04-3.37,12.76-4.64,13.78c-3.93,3.18-11.31,5.04-20.97,5.32V952.32z M1500.79,942
					c-7.85-6.93-20-10.39-36.45-10.39c-4.91,0-8.72,0.07-11.41,0.22c-2.71,0.15-5.16,0.35-7.36,0.65v144.23
					c1.97,0.3,4.23,0.52,6.82,0.65c2.57,0.15,6.31,0.22,11.22,0.22c16.2,0,28.42-3.31,36.64-9.97c8.22-6.64,12.33-16.6,12.33-29.88
					v-63.68C1512.58,959.63,1508.64,948.94,1500.79,942z M1491.88,1037.74c0,10.04-3.37,12.76-4.64,13.78
					c-3.93,3.18-11.31,5.04-20.97,5.32V952.32c13.25,0.28,18.72,3.34,20.83,5.2c3.95,3.49,4.78,10.91,4.78,16.53V1037.74z
					 M1505.04,1192.59c-8.47-7.36-20.8-11.04-37.01-11.04c-5.65,0-10.07,0.15-13.26,0.44c-3.18,0.28-6.25,0.86-9.2,1.73v167.2
					c2.69,0.59,5.71,1.02,9.02,1.3c3.31,0.3,8.04,0.43,14.18,0.43c16.69,0,29.02-3.81,36.99-11.47
					c7.98-7.64,11.98-19.41,11.98-35.31v-81.87C1517.74,1210.42,1513.49,1199.95,1505.04,1192.59z M1497.04,1305.86
					c0,6.85-0.98,15.94-5.6,20.37c-3.84,3.68-11.89,5.71-22.67,5.71h-2.5v-129.68c0.56-0.01,1.14-0.01,1.76-0.01
					c7.56,0,17.74,1.04,23.42,5.97c2.4,2.08,5.59,5.99,5.59,15.78V1305.86z M1505.04,1192.59c-8.47-7.36-20.8-11.04-37.01-11.04
					c-5.65,0-10.07,0.15-13.26,0.44c-3.18,0.28-6.25,0.86-9.2,1.73v167.2c2.69,0.59,5.71,1.02,9.02,1.3
					c3.31,0.3,8.04,0.43,14.18,0.43c16.69,0,29.02-3.81,36.99-11.47c7.98-7.64,11.98-19.41,11.98-35.31v-81.87
					C1517.74,1210.42,1513.49,1199.95,1505.04,1192.59z M1497.04,1305.86c0,6.85-0.98,15.94-5.6,20.37
					c-3.84,3.68-11.89,5.71-22.67,5.71h-2.5v-129.68c0.56-0.01,1.14-0.01,1.76-0.01c7.56,0,17.74,1.04,23.42,5.97
					c2.4,2.08,5.59,5.99,5.59,15.78V1305.86z M1500.79,942c-7.85-6.93-20-10.39-36.45-10.39c-4.91,0-8.72,0.07-11.41,0.22
					c-2.71,0.15-5.16,0.35-7.36,0.65v144.23c1.97,0.3,4.23,0.52,6.82,0.65c2.57,0.15,6.31,0.22,11.22,0.22
					c16.2,0,28.42-3.31,36.64-9.97c8.22-6.64,12.33-16.6,12.33-29.88v-63.68C1512.58,959.63,1508.64,948.94,1500.79,942z
					 M1491.88,1037.74c0,10.04-3.37,12.76-4.64,13.78c-3.93,3.18-11.31,5.04-20.97,5.32V952.32c13.25,0.28,18.72,3.34,20.83,5.2
					c3.95,3.49,4.78,10.91,4.78,16.53V1037.74z"/>
			</g>
		</g>
		<g>
			<g>
				<path class="st3" d="M1665.3,1133.37h52.73v230.5c0,16.98,1.11,27.61,3.33,31.89c2.22,4.28,6.29,6.42,12.21,6.42
					s9.99-2.1,12.21-6.31c2.22-4.21,3.33-14.73,3.33-31.56v-3.7v-227.24h52.73v250.96c0,26.85-5.12,45.75-15.36,56.7
					c-10.24,10.96-27.88,16.43-52.91,16.43c-25.04,0-42.68-5.48-52.91-16.43c-10.24-10.95-15.36-29.85-15.36-56.7V1133.37z"/>
				<path class="st3" d="M1894.9,1133.37v317.79h-54.39v-317.79H1894.9z"/>
				<path class="st3" d="M1989.62,1133.37v259.89h58.09v57.9h-112.49v-317.79H1989.62z"/>
				<path class="st3" d="M2139.86,1133.37c27.5,0,46.81,4.72,57.91,14.15c11.1,9.43,16.65,25.47,16.65,48.1v191.76
					c0,23.51-5.49,40.02-16.47,49.52c-10.98,9.51-30.34,14.26-58.09,14.26h-64.94v-317.79H2139.86z M2127.64,1190.4v203.3
					c2.84,0.15,5.92,0.33,9.25,0.54c3.33,0.22,5.18,0.33,5.55,0.33c6.54,0,11.19-1.74,13.97-5.22c2.77-3.48,4.16-9.14,4.16-16.98
					v-161.07c0-7.98-1.48-13.53-4.44-16.65c-2.96-3.12-8.39-4.68-16.28-4.68c-3.21,0-5.67,0.04-7.4,0.11
					C2130.73,1190.15,2129.13,1190.26,2127.64,1190.4z"/>
				<path class="st3" d="M2361.13,1133.37v57.9h-60.68v65.08h58.28v57.9h-58.28v79.01h60.68v57.9h-113.41v-317.79H2361.13z"/>
				<path class="st3" d="M2484.91,1436.36v-97.95c0-8.41-2.01-14.69-6.01-18.83c-4.01-4.14-10.21-6.2-18.59-6.2
					c-1.11,0-2.44,0.08-3.98,0.22c-1.54,0.15-3.86,0.44-6.94,0.87v136.69h-51.62v-317.79h72.9c19.73,0,35.21,5.15,46.44,15.45
					c11.22,10.31,16.84,24.45,16.84,42.44v46.36c0,13.79-3.27,24.81-9.8,33.08c-6.54,8.27-15.67,12.84-27.38,13.71
					c13.94,1.31,24.24,6.57,30.9,15.78c6.66,9.22,9.99,22.96,9.99,41.25v94.9c0.49,2.76,1.32,5.33,2.5,7.73
					c1.17,2.39,2.74,4.76,4.72,7.07h-52.73c-2.47-1.59-4.29-3.55-5.46-5.88C2485.49,1442.96,2484.91,1439.99,2484.91,1436.36z
					 M2449.38,1259.83c0.99,0.15,2.1,0.26,3.33,0.33c1.23,0.08,3.02,0.11,5.36,0.11c7.89,0,13.72-1.74,17.48-5.22
					c3.76-3.48,5.64-9,5.64-16.54v-28.51c0-7.25-1.94-12.62-5.83-16.11c-3.88-3.48-9.78-5.22-17.67-5.22
					c-2.22,0-3.92,0.04-5.09,0.11c-1.17,0.08-2.25,0.18-3.24,0.33V1259.83z"/>
			</g>
		</g>
		<g>
			<g>
				<path class="st4" d="M1665.3,1133.37h52.73v230.5c0,16.98,1.11,27.61,3.33,31.89c2.22,4.28,6.29,6.42,12.21,6.42
					s9.99-2.1,12.21-6.31c2.22-4.21,3.33-14.73,3.33-31.56v-3.7v-227.24h52.73v250.96c0,26.85-5.12,45.75-15.36,56.7
					c-10.24,10.96-27.88,16.43-52.91,16.43c-25.04,0-42.68-5.48-52.91-16.43c-10.24-10.95-15.36-29.85-15.36-56.7V1133.37z"/>
				<path class="st4" d="M1894.9,1133.37v317.79h-54.39v-317.79H1894.9z"/>
				<path class="st4" d="M1989.62,1133.37v259.89h58.09v57.9h-112.49v-317.79H1989.62z"/>
				<path class="st4" d="M2139.86,1133.37c27.5,0,46.81,4.72,57.91,14.15c11.1,9.43,16.65,25.47,16.65,48.1v191.76
					c0,23.51-5.49,40.02-16.47,49.52c-10.98,9.51-30.34,14.26-58.09,14.26h-64.94v-317.79H2139.86z M2127.64,1190.4v203.3
					c2.84,0.15,5.92,0.33,9.25,0.54c3.33,0.22,5.18,0.33,5.55,0.33c6.54,0,11.19-1.74,13.97-5.22c2.77-3.48,4.16-9.14,4.16-16.98
					v-161.07c0-7.98-1.48-13.53-4.44-16.65c-2.96-3.12-8.39-4.68-16.28-4.68c-3.21,0-5.67,0.04-7.4,0.11
					C2130.73,1190.15,2129.13,1190.26,2127.64,1190.4z"/>
				<path class="st4" d="M2361.13,1133.37v57.9h-60.68v65.08h58.28v57.9h-58.28v79.01h60.68v57.9h-113.41v-317.79H2361.13z"/>
				<path class="st4" d="M2484.91,1436.36v-97.95c0-8.41-2.01-14.69-6.01-18.83c-4.01-4.14-10.21-6.2-18.59-6.2
					c-1.11,0-2.44,0.08-3.98,0.22c-1.54,0.15-3.86,0.44-6.94,0.87v136.69h-51.62v-317.79h72.9c19.73,0,35.21,5.15,46.44,15.45
					c11.22,10.31,16.84,24.45,16.84,42.44v46.36c0,13.79-3.27,24.81-9.8,33.08c-6.54,8.27-15.67,12.84-27.38,13.71
					c13.94,1.31,24.24,6.57,30.9,15.78c6.66,9.22,9.99,22.96,9.99,41.25v94.9c0.49,2.76,1.32,5.33,2.5,7.73
					c1.17,2.39,2.74,4.76,4.72,7.07h-52.73c-2.47-1.59-4.29-3.55-5.46-5.88C2485.49,1442.96,2484.91,1439.99,2484.91,1436.36z
					 M2449.38,1259.83c0.99,0.15,2.1,0.26,3.33,0.33c1.23,0.08,3.02,0.11,5.36,0.11c7.89,0,13.72-1.74,17.48-5.22
					c3.76-3.48,5.64-9,5.64-16.54v-28.51c0-7.25-1.94-12.62-5.83-16.11c-3.88-3.48-9.78-5.22-17.67-5.22
					c-2.22,0-3.92,0.04-5.09,0.11c-1.17,0.08-2.25,0.18-3.24,0.33V1259.83z"/>
			</g>
		</g>
		<rect x="33.38" y="-214.03" class="st5" width="1511.26" height="180"/>
		<text transform="matrix(0.85 0 0 1 33.3784 -156.9893)" class="st1 st11" style="font-size:80px;">FOLIO BOLD CONDENSED BT 85% WIDTH     </text>
		<rect x="965.75" y="1713.06" class="st5" width="2689.34" height="285.41"/>
		<text transform="matrix(1 0 0 1 965.7469 1778.6703)" class="st4 st6 st7">Brought to you by</text>
		<text transform="matrix(1 0 0 1 1485.2688 1778.6703)" class="st4 st6 st8"> </text>
		<text transform="matrix(1 0 0 1 965.7469 1991.6703)" class="st4 st6 st9 st10">				</text>
		<text transform="matrix(0.85 0 0 1 1109.7468 1991.6703)" class="st4 st11 st12">MOON VALLEY NURSERIES</text>
	</g>
	<g id="Layer_6">
		<g>
			<defs>
				<rect id="SVGID_5_" x="-254.3" y="92.41" width="4160" height="1664"/>
			</defs>
			<clipPath id="SVGID_6_">
				<use xlink:href="#SVGID_5_"  style="overflow:visible;"/>
			</clipPath>
			<path class="st13" d="M764.24,211.08c-1.95,1.01-6.06,3.8-7.94,4.94C457.14,390.49,322.17,737,400.92,1055.52
				c35.65,143.93,112.69,274.26,221.59,374.89c120.54,112.05,274.25,183.6,438.8,203.06c159.81,18.6,321.41-13.59,461.9-91.99
				c-163.67,4.53-322.69-51.97-446.52-157.71c-76.47-61.04-136.83-139.87-175.83-229.58c-2.86-5.57-4.66-11.6-5.3-17.8
				c1.95-15.32-0.75-30.79-7.63-44.46c-9.13-16.5-18.83-32.69-29.07-48.53c-0.04-0.05-0.07-0.11-0.1-0.16
				c5.81-1.5,11.55-3.25,17.2-5.25c7.35-2.45,14.52-5.4,21.46-8.82c16-7.19,29.86-18.39,40.25-32.52c5.89-8.94,5.62-20.4-0.02-28.99
				c-3.07-3.69-6.75-6.75-10.83-9.1c-1.81-1.09-3.71-1.99-5.69-2.7c-7.67-2.53-15.46-4.62-23.36-6.28
				c-21.71-3.56-42.68-10.71-62.04-21.17c-17.98-11.16-35.45-27.09-49.32-43c-29.13-34.8-53.35-73.06-72.23-113.72
				c-27.72-59.17-45.03-122.68-51.18-187.73c-8.35-87.6,5.41-176.36,40.59-257.92C719.9,286.75,741.65,247.15,764.24,211.08"/>
			<path class="st14" d="M562.18,1143.65c0,0,0.08-0.02,0.24-0.07c40.2-3.68,75.79-27.48,94.55-63.23c0.1,0.11,0.23,0.25,0.38,0.42
				c29.23,28.64,65.72,48.78,105.53,58.25c27.83,6.52,57.01,5.71,84.64-2.52c16.13-7.65,28.26-22.28,32.5-40.16
				c0.12-0.3,0.23-0.58,0.34-0.85c2.43,5.07,4.32,10.37,5.63,15.82c4,12.16,1.43,25.52-6.8,35.33
				c-10.38,13.65-27.86,21.35-47.56,24.39c-35.73,3.33-71.71-2.53-104.53-17.04c-0.26-0.09-0.4-0.13-0.4-0.13s-0.46,2.73,0,4.86
				c0,0.01,0,0.02,0.01,0.03c50.94,33.73,116.23,36.99,170.27,8.49c104.99,217.2,317.7,362.06,558.27,380.17
				c-0.62,0.33-1.63,0.87-2.94,1.55c-109.92,42.62-227.58,61.59-345.32,55.67c-315.6-20.8-585.41-234.87-677.38-537.59
				c-97.17-314.88,30.53-658.74,315.03-832.64c0.03-0.02,0.07-0.04,0.1-0.06c-131.36,202.8-117,467.17,35.57,654.54
				c8.68,10.55,17.22,19.34,26.96,27.34c19.62,17.03,43,29.04,68.14,35.1c9.97,2.06,19.93,4.17,29.88,6.33
				c5.23,1.39,10.33,3.27,15.21,5.61c2.73,1.74,5.25,3.81,7.5,6.18c3.37,3.96,4.7,9.4,3.33,14.62c-0.46,3.59-1.64,7.05-3.45,10.17
				c-6.66,8.37-15.09,15.15-24.69,19.87c-30.53,15.86-80.89,24.45-103.73,21.82c-18.62-2.14-43.96-13.14-39.28-30.11
				c1.47-5.33,6.27-12.12,5.82-15.03c-0.27-1.75-4.05-1.75-6.32,0c-4.91,3.78-11.19,15.7-11.15,21.84
				c0.05,9.04,4.32,26.03,4.37,26.2c-23.39-0.83-46.65-3.78-69.48-8.81c-6.8-1.6-13.59-3.2-20.39-4.81
				c-7.05-3-12.63-8.66-15.55-15.74c-7.34-15.6-18.71-28.97-32.97-38.7c-3.22-1.99-6.01,3.05-2.62,4.73
				c20.71,16.15,33.72,40.24,35.83,66.43c2.85,16.44-1.16,33.49-11.33,47.04c-19.31,23.92-45,41.97-74.19,52
				c-0.02,0.11-0.03,0.24-0.03,0.37V1143.65z"/>
			<path class="st13" d="M597.06,693.99c1.48,36.59-21.59,69.54-56.15,80.81c0,0,0,0,0,0c-2.41,0.86-4.8,1.8-7.15,2.82
				c-1.65,1.31-1.64,4.03,0.35,5.24c1.58,0.84,3.36,1.24,5.17,1.16c33.78,0.23,64.82-18.59,80.24-48.64
				c1.72-3.49,1.84-7.53,0.4-11.09c-6.45-10.87-14.08-20.99-22.74-30.18C597.1,694.03,597.06,693.99,597.06,693.99"/>
			<path class="st13" d="M646.48,878.83c22.52,8.26,44.8,17.14,66.81,26.65c1.22,0.58,2.52,0.98,3.86,1.17
				c0.68-0.05,1.28-0.56,1.39-1.3c1.61-5.2-12.81-16.48-19.51-23.03c-9.38-9.16-16.48-25.94-24.75-38.58
				c-11.98-18.3-30.62-31.88-50.96-41.49c-17.17-8.12-48.02-14.58-57.51,0.73c-9.41,15.18-5.04,28.68,3.64,48.77
				c3.15,7.3,7.28,16.01,7.28,16.01s-9.48,3.95-11.65,8.97c-1.28,2.97,0,6.32,0,6.32C591.22,872.71,619.81,871.36,646.48,878.83"/>
			<path class="st15" d="M608.88,805.29c19.07,5.5,39.88,21.38,50.11,34.08c2.26,2.81,9.27,12.26,13.47,20.25
				c2.76,4.27,3.93,9.39,3.28,14.44c-0.01,0.16-0.01,0.25-0.01,0.25l-53.87-11.06c0,0,0.01-0.04,0.01-0.11
				c-0.68-19.19-11.44-36.52-28.19-45.66c-5.56-2.47-10.77-5.66-15.5-9.5c0-0.02-0.01-0.03-0.01-0.05c0-0.01,0-0.01,0-0.02
				c-0.39-1.49,0.39-3.02,1.8-3.59C589.57,802.43,599.45,802.77,608.88,805.29"/>
			<path class="st15" d="M747.3,1075.02c-29.53-2.22-57.8-12.84-81.5-30.59c57.43,15.15,117.57,16.9,175.78,5.12
				c4.5-0.46,9.22-0.11,12.5,3.17c0,0,5.26,9.07,5.35,9.15C823.65,1075.23,785.18,1079.74,747.3,1075.02"/>
			<path class="st15" d="M731.06,1107.26c0,0,0.23,0.03,0.65,0.07c44.63,9.32,90.83,7.84,134.77-4.32c0.29-0.05,0.5-0.09,0.61-0.11
				c-3.38,10.66-11.67,18.94-22.13,22.4c-38.44,9.61-79.09,4.43-113.89-14.51c0-0.02-0.01-0.03-0.01-0.05
				C730.76,1109.13,731.06,1107.26,731.06,1107.26"/>
		</g>
		<g class="st1">
			<defs>
				<rect id="SVGID_7_" x="-254.3" y="92.41" width="4160" height="1664"/>
			</defs>
			<clipPath id="SVGID_8_" class="st16">
				<use xlink:href="#SVGID_7_"  style="overflow:visible;"/>
			</clipPath>
			<g class="st17">
				<g>
					<defs>
						<rect id="SVGID_9_" x="1001.82" y="274.33" width="468.44" height="469.66"/>
					</defs>
					<clipPath id="SVGID_10_">
						<use xlink:href="#SVGID_9_"  style="overflow:visible;"/>
					</clipPath>
					<path class="st18" d="M1366.38,736.09c0.22,7.04,1.94,7.9,9.84,7.9h83.2c10.06,0,11.11-1.12,10.47-11.16
						c-11.15-174.82-7.27-237.05,0.31-447.32c0.36-10.06-0.71-11.18-10.78-11.18h-158.51c-8.82,0-10.74,1.76-12.06,11.07
						l-45.61,320.67c-0.66,4.66-10.47,4.66-11.18,0l-49.22-320.69c-1.42-9.25-3.41-11.05-12.18-11.05h-158.52
						c-10.06,0-11.06,1.11-9.95,11.12c14.12,127.6,5.6,295.63,2.71,447.36c-0.19,10.06,0.91,11.18,10.97,11.18h83.2
						c8.99,0,9.97-1.08,9.86-10.81l-0.02-1.9l-0.27-322.64l13.15,0.05c0.54,1.48,1.05,4.23,2.17,10.86l52.86,313.78
						c1.49,8.86,3.69,10.66,12.98,10.66h95.72c7.98,0,10.74-1.35,12.33-7.37c0.02-0.08,0.45-2.52,1.22-6.91l55.76-320.61
						c0.02-0.07,0.04-0.13,0.05-0.2c0.54-1.99,12.01-0.57,12.97-0.36L1366.38,736.09z"/>
				</g>
			</g>
			<path class="st19" d="M1300.91,259.89c-3.97,0-12.24,0-18.61,5.85c-5.3,4.87-6.86,11.35-7.75,17.63
				c0,0-26.07,183.27-37.24,261.77c-12.03-78.39-40.2-261.95-40.2-261.95c-0.96-6.23-2.58-12.67-7.91-17.5
				c-5.64-5.12-12.54-5.8-18.55-5.8h-158.52c-5.58,0-14,0-19.92,6.62c-5.92,6.62-5,14.99-4.38,20.54
				c11.27,101.82,7.95,230.78,4.74,355.5c-0.76,29.72-1.56,60.46-2.12,89.99c-0.1,5.42-0.26,13.61,5.77,19.75
				c6.03,6.14,14.22,6.14,19.64,6.14h83.2c4.73,0,12.64,0,18.51-5.94c5.33-5.39,5.81-12.45,5.81-17.72c0-0.61-0.01-1.2-0.01-1.76
				c0,0-0.02-1.69-0.02-1.83c0-0.11-0.12-135.19-0.2-229.41c14.95,88.76,39.41,233.94,39.41,233.94c1,5.92,2.8,12.62,8.64,17.41
				c5.66,4.65,12.28,5.29,18.58,5.29h95.72c5.88,0,21.51,0,26.3-18.13c0.19-0.73,0.19-0.73,1.48-8.11c0,0,23.4-134.53,39.68-228.17
				c-0.42,95.87-1.03,232.26-1.03,232.26l0.01,0.26c0.1,3.3,0.38,12.05,7.75,17.64c5.17,3.92,11,4.25,16.53,4.25h83.2
				c5.5,0,13.8,0,19.78-6.37c5.98-6.38,5.45-14.67,5.1-20.15c-10.17-159.53-7.81-223.99-1.48-396.25l1.81-49.63
				c0.2-5.45,0.49-13.68-5.52-19.91c-6.01-6.23-14.25-6.23-19.7-6.23H1300.91z M1455.63,288.78c-0.42,11.57-1.67,45.82-1.67,45.82
				c-3.26,88.89-5.48,149.24-5.48,208.67c0,55.43,1.93,110.07,6.74,186.28h-74.36c0.06-12.68,1.47-332.58,1.47-332.58l-11.36-2.52
				c-1.79-0.4-5.89-0.84-9.15-0.98c-2.58-0.11-4.73-0.05-6.59,0.17c-10.73,1.32-13.66,9.12-14.3,11.48c-0.01,0.03-0.24,0.9-0.24,0.9
				l-0.1,0.61l-55.76,320.61c0-0.01-0.19,1.05-0.41,2.32h-93.6c-0.46-2.74-52.62-312.4-52.62-312.4c-1.28-7.6-1.86-10.73-2.85-13.43
				l-3.46-9.43l-37.71-0.14c0,0,0.28,331.95,0.29,335.4h-75.05c0.56-28.36,1.31-57.77,2.04-86.26c1.53-59.4,3.08-119.76,3.08-177.86
				c0-62.9-1.83-123.13-7.47-176.65h151.69c0.37,2.38,49.04,319.49,49.04,319.49c1.43,9.33,9.66,15.8,20.02,15.75
				c10.3-0.06,18.42-6.6,19.75-15.9c0,0,45.05-316.68,45.42-319.33H1455.63z"/>
			<g class="st17">
				<g>
					<defs>
						<rect id="SVGID_11_" x="2264.97" y="278.06" width="323.2" height="465.93"/>
					</defs>
					<clipPath id="SVGID_12_">
						<use xlink:href="#SVGID_11_"  style="overflow:visible;"/>
					</clipPath>
					<path class="st20" d="M2460.85,744h116.82c10.06,0,11.09-1.11,10.29-11.15c-10.49-130.94-10.93-313.25-0.04-443.64
						c0.84-10.03-0.19-11.15-10.25-11.15h-85.73c-10.06,0-11.11,1.12-10.44,11.16c5.38,80.53,15.71,229.18,14.68,257.68
						l-16.03,12.49c-0.1-0.13-0.19-0.26-0.29-0.39c-0.88-1.23-1.27-2.45-3.88-12.17l-69.45-258.38
						c-2.21-8.21-4.94-10.38-13.07-10.38h-117.72c-10.06,0-11.13,1.12-10.63,11.17c9.58,194.87,8.87,240.55-0.06,443.59
						c-0.44,10.06,0.63,11.17,10.69,11.17h85.73c10.06,0,11.14-1.12,10.73-11.17c-2.15-53.76-4.81-130.27-8.05-181.88
						c-1.68-27.88-4.65-55.67-8.89-83.27l13.17-8.96c0.09,0.21,0.19,0.43,0.29,0.68c27.61,90.74,53.59,181.96,77.93,273.63
						c0.02,0.06,0.04,0.13,0.05,0.19C2449.37,742.92,2450.78,744,2460.85,744"/>
				</g>
			</g>
			<path class="st19" d="M2491.93,263.62c-5.5,0-13.81,0-19.79,6.39c-4.4,4.71-5.26,10.45-5.26,15.35c0,1.75,0.11,3.39,0.21,4.83
				c0,0,1.75,26.05,1.75,26.05c4.06,60.3,9.64,143.34,11.93,192.74c-13.81-51.38-60.29-224.28-60.29-224.28
				c-3.92-14.58-12.25-21.08-27.03-21.08h-117.72c-5.47,0-13.74,0-19.74,6.3c-6,6.3-5.59,14.56-5.32,20.02
				c9.54,193.94,8.81,240.47-0.06,442.25c-0.24,5.46-0.6,13.71,5.4,19.98c6,6.27,14.26,6.27,19.72,6.27h85.73
				c5.46,0,13.7,0,19.71-6.25c4.79-4.99,5.55-11.24,5.55-16.34c0-1.29-0.05-2.5-0.09-3.61l-1.29-33.08
				c-1.95-50.27-4.15-107.24-6.78-149.12c-0.19-3.07-0.39-6.14-0.61-9.22c19.09,65.11,37.43,130.71,54.73,195.9l0.1,0.35
				c1.72,6.28,3.75,12.31,9.46,16.66c5.71,4.35,12.06,4.71,18.61,4.71h116.82c5.53,0,13.87,0,19.83-6.46
				c5.96-6.46,5.29-14.78,4.86-20.29c-10.63-132.81-10.65-314.27-0.04-441.28c0.46-5.51,1.16-13.84-4.8-20.32
				c-5.96-6.48-14.32-6.48-19.85-6.48H2491.93z M2573.16,292.51c-5.11,63.26-7.68,139.29-7.68,216.06
				c0,77.04,2.58,154.76,7.73,220.99h-112.37c-0.06,0-0.11,0-0.17,0c-0.02-0.06-0.08-0.28-0.09-0.33
				c-24.25-91.37-50.51-183.57-78.04-274.04l-0.24-0.79l-7.64-17.58l-14.36,9.96l-20.7,14.09l1.38,9.01
				c4.15,27.06,7.1,54.63,8.75,81.95c2.61,41.57,4.8,98.36,6.74,148.47c0,0,0.91,23.26,1.14,29.27h-77.97
				c4.44-101.29,6.8-163.43,6.8-225.38c0-59.29-2.16-118.46-6.72-211.66h112.94c0.17,0.63,69.37,258.07,69.37,258.07
				c2.89,10.76,3.58,13.31,6.07,16.8l9.4,12.73l11.53-9.33l21.34-16.63l0.24-6.73c0.05-1.45,0.08-3.19,0.08-5.19
				c0-34.27-7.48-145.5-13.03-227.94c0,0-1.06-15.84-1.46-21.79H2573.16z M2468.1,567.38L2468.1,567.38L2468.1,567.38"/>
			<path class="st19" d="M1515.34,434.39c0.12-34.18,8.73-83.67,21.1-107.5c29.64-57.1,117.63-60.73,193.98-52.55
				c106.39,11.39,116.26,67.23,120.4,182.65c2.15,60.04,11.54,182.48-27.96,238.56c-50.31,71.43-218.01,77.97-272.11,7.46
				C1504.84,643.16,1515.1,503.1,1515.34,434.39 M1724.08,413.37c-0.4-14.64-8.09-45.91-16.77-57.03
				c-15.51-19.85-38.28-12.17-52.19,7.45c-28.01,39.53-18.2,180.94-16.77,200.24c1.64,22.16,6.74,79.05,20.5,97.96
				c19.58,26.9,45.15,15.63,55.91-14.91C1732.03,598.05,1724.62,433.21,1724.08,413.37"/>
			<path class="st19" d="M1613.09,261.97c-43.83,8.73-73.94,28.34-89.47,58.27c-14.07,27.11-22.61,79.31-22.72,114.11
				c-0.03,9.22-0.25,19.96-0.48,31.34c-0.76,37.43-1.71,84.02,2.57,128.44c5.22,54.14,17.1,92.63,36.3,117.66
				c14.29,18.62,36.32,33.51,63.7,43.04c24.63,8.57,53.2,12.79,82.61,12.19c30.29-0.62,59.75-6.26,85.18-16.32
				c28.03-11.09,50.12-27.28,63.88-46.83c17.36-24.65,27.64-61.55,31.43-112.84c3.08-41.69,1.22-85.18-0.13-116.94l-0.71-17.61
				c-1.96-54.75-5.09-102.84-23.61-136.74c-9.73-17.82-23.22-31.22-41.23-40.98c-17.72-9.6-40.12-15.74-68.46-18.78
				C1684.97,254.94,1644.98,255.61,1613.09,261.97 M1562.21,694.2c-15.6-20.33-25.85-54.93-30.47-102.85
				c-4.12-42.74-3.19-88.39-2.45-125.08c0.23-11.51,0.46-22.37,0.49-31.83c0.12-34.58,9.04-80.79,19.47-100.9
				c5.89-11.34,14.64-20.42,26.74-27.75c11.4-6.9,25.78-12.12,42.74-15.5c29.02-5.78,66.08-6.32,110.14-1.6
				c46.82,5.01,72.96,18.44,87.41,44.88c14.08,25.78,17.93,63.44,20.09,123.92l0.72,17.81c1.32,31.05,3.14,73.58,0.18,113.58
				c-3.35,45.28-12.17,78.36-26.24,98.33c-10.52,14.93-28.12,27.59-50.89,36.6c-22.26,8.81-48.25,13.75-75.14,14.3
				C1630.9,739.23,1583.84,722.4,1562.21,694.2"/>
			<path class="st19" d="M1684.9,330.3c-15.35,0.36-30.5,9.52-41.57,25.15c-13.66,19.29-20.88,57.15-22.08,115.76
				c-0.83,40.78,1.6,79.25,2.69,93.89c1.43,19.3,3.4,36.63,5.86,51.49c4.32,26.16,10,43.79,17.37,53.9
				c15.33,21.06,32.48,22.04,41.34,20.74c17.17-2.51,32.08-17.22,39.87-39.35c8.08-22.93,12.13-70.18,12.13-140.92
				c0-26.84-0.58-57.06-1.75-90.62l-0.24-7.36c-0.46-16.56-8.6-51.14-19.83-65.52C1709.81,336.09,1697.81,330,1684.9,330.3
				 M1670.52,653.49c-2.89-3.97-12.71-22.23-17.78-90.53c-5.71-76.98-3.54-165.84,14.16-190.82c5.57-7.86,12.72-12.83,18.67-12.97
				c1.37-0.03,5.52-0.13,10.35,6.05c6.07,7.78,13.36,35.57,13.72,48.54v0.04v-0.04l0.25,7.57c5.14,147.47-1.92,201.55-8.76,220.94
				c-4.59,13.04-11.75,19.63-16.81,20.36C1678.71,663.47,1673.27,657.26,1670.52,653.49 M1738.52,412.97"/>
			<path class="st19" d="M1886.29,434.39c0.12-34.18,8.73-83.67,21.1-107.5c29.64-57.1,117.63-60.73,193.97-52.55
				c106.39,11.39,116.26,67.23,120.4,182.65c2.15,60.04,11.54,182.48-27.96,238.56c-50.31,71.43-218.01,77.97-272.1,7.46
				C1875.79,643.16,1886.05,503.1,1886.29,434.39 M2095.02,413.37c-0.4-14.64-8.09-45.91-16.78-57.03
				c-15.5-19.85-38.28-12.17-52.18,7.45c-28.01,39.53-18.2,180.94-16.77,200.24c1.64,22.16,6.74,79.05,20.5,97.96
				c19.58,26.9,45.15,15.63,55.91-14.91C2102.98,598.05,2095.57,433.21,2095.02,413.37"/>
			<path class="st19" d="M1984.04,261.97c-43.83,8.73-73.94,28.34-89.47,58.27c-14.07,27.11-22.61,79.31-22.72,114.11
				c-0.03,9.22-0.25,19.96-0.48,31.34c-0.76,37.43-1.71,84.02,2.57,128.44c5.22,54.14,17.1,92.63,36.3,117.66
				c14.29,18.62,36.31,33.51,63.7,43.04c24.63,8.57,53.2,12.79,82.61,12.19c30.29-0.62,59.75-6.26,85.18-16.32
				c28.03-11.09,50.12-27.28,63.88-46.83c17.36-24.65,27.64-61.56,31.43-112.84c3.08-41.69,1.22-85.18-0.13-116.94l-0.71-17.61
				c-1.96-54.75-5.09-102.84-23.61-136.74c-9.73-17.82-23.22-31.22-41.23-40.98c-17.72-9.6-40.11-15.74-68.46-18.78
				C2055.92,254.94,2015.93,255.61,1984.04,261.97 M1933.16,694.2c-15.6-20.33-25.85-54.93-30.47-102.85
				c-4.12-42.74-3.19-88.39-2.45-125.08c0.23-11.5,0.46-22.37,0.49-31.83c0.12-34.58,9.04-80.79,19.47-100.9
				c5.89-11.34,14.64-20.42,26.74-27.75c11.4-6.9,25.78-12.12,42.74-15.5c29.02-5.78,66.08-6.32,110.14-1.6
				c46.83,5.01,72.96,18.44,87.41,44.88c14.08,25.78,17.93,63.44,20.09,123.92l0.72,17.81c1.33,31.05,3.14,73.58,0.19,113.58
				c-3.35,45.28-12.18,78.37-26.24,98.33c-10.52,14.93-28.12,27.59-50.9,36.6c-22.26,8.81-48.25,13.75-75.13,14.3
				C2001.85,739.23,1954.79,722.4,1933.16,694.2"/>
			<path class="st19" d="M2055.85,330.3c-15.35,0.36-30.5,9.52-41.57,25.15c-13.66,19.28-20.88,57.15-22.08,115.76
				c-0.83,40.79,1.6,79.25,2.69,93.89c4.02,54.28,11.84,89.74,23.23,105.39c15.33,21.07,32.48,22.04,41.34,20.74
				c17.17-2.51,32.08-17.22,39.87-39.35c11.14-31.63,14.63-109.53,10.38-231.54l-0.24-7.37c-0.46-16.56-8.6-51.14-19.83-65.52
				C2080.76,336.09,2068.76,330,2055.85,330.3 M2041.47,653.49c-2.89-3.97-12.71-22.23-17.77-90.52
				c-5.71-76.98-3.55-165.84,14.15-190.82c5.57-7.86,12.72-12.83,18.67-12.97c1.37-0.03,5.52-0.13,10.35,6.05
				c6.07,7.78,13.36,35.57,13.72,48.54v0.04v-0.04l0.25,7.58c5.14,147.47-1.92,201.54-8.76,220.94
				c-4.59,13.04-11.75,19.62-16.81,20.36C2049.66,663.47,2044.22,657.26,2041.47,653.49"/>
			<g class="st17">
				<g>
					<defs>
						<rect id="SVGID_13_" x="993.76" y="964.18" width="186.02" height="454.75"/>
					</defs>
					<clipPath id="SVGID_14_">
						<use xlink:href="#SVGID_13_"  style="overflow:visible;"/>
					</clipPath>
					<path class="st21" d="M1109.04,1418.93h61.16c8.69,0,9.65-1.12,9.57-11.18l-3.54-432.39c-0.08-10.03-1.25-11.18-11.27-11.18
						h-33.55c-10.06,0-11.15,1.07-10.89,10.72l6.86,250.21c0.07,2.4,0.11,4.29,0.13,5.77l-9.78,4.13
						c-5.69-16.22-28.5-176.18-40.62-259.76c-1.44-9.96-2.72-11.07-12.79-11.07h-59.64c-10.06,0-11.11,1.12-10.42,11.16
						c9.44,137.57,3.93,273.3-0.46,432.41c-0.28,10.06,0.81,11.18,10.87,11.18h42.98c8.29,0,9.17-1.07,8.77-10.71L1046.14,1158
						c-0.14-3.34-0.22-5.7-0.23-7.34l9.05-3.86c0.01,0.01,0.02,0.02,0.03,0.03c0.12,0.1,0.26,0.33,0.43,0.69
						c17.69,84.94,32.19,170.51,43.47,256.54c0.15,2.3,0.15,4.59-0.12,6.93C1097.95,1418.14,1098.98,1418.93,1109.04,1418.93"/>
				</g>
			</g>
			<path class="st19" d="M1131.41,949.74c-5.46,0-13.72,0-19.73,6.17c-4.98,5.12-5.65,11.54-5.65,16.59c0,0.99,0.03,1.94,0.05,2.8
				c0,0,1.66,60.74,3.33,121.38c-5.41-36.42-10.69-72.96-14.48-99.1l-3.53-24.4c-0.74-5.1-1.86-12.8-8-18.12
				c-6.15-5.32-13.93-5.32-19.08-5.32h-59.64c-5.5,0-13.82,0-19.8,6.4c-5.98,6.4-5.41,14.7-5.03,20.19
				c8.39,122.19,4.94,242.05,0.94,380.84l-1.42,50.19c-0.15,5.43-0.38,13.64,5.64,19.83c6.02,6.19,14.23,6.19,19.67,6.19h42.98
				c4.54,0,12.14,0,17.89-5.99c4.65-4.84,5.42-10.79,5.42-15.92c0-1.35-0.05-2.64-0.1-3.84c0,0-2.63-64.11-5.27-128.15
				c7.08,41.92,13.4,83.97,18.9,125.87c0.03,0.59,0.06,1.16,0.06,1.68c0,0.83-0.04,1.6-0.12,2.32c-0.14,1.19-0.32,2.79-0.32,4.62
				c0,3.85,0.81,8.72,4.56,12.92c5.78,6.48,13.88,6.48,20.39,6.48h61.16c4.6,0,12.3,0,18.15-5.89c5.98-6.03,5.91-14.02,5.86-19.85
				l-3.54-432.39c-0.04-5.36-0.11-13.47-6.18-19.49c-6.07-6.02-14.17-6.02-19.54-6.02H1131.41z M1161.81,978.63
				c0.05,6.15,3.44,419.25,3.49,425.86h-51.96c-0.02-0.46-0.02-0.89-0.04-1.35l-0.03-0.48l-0.06-0.47
				c-11.27-86.02-25.96-172.69-43.65-257.61l-0.32-1.53l-0.64-1.43c-1.09-2.44-2.54-4.39-4.42-5.94l-6.77-5.58l-8.11,3.41
				l-17.89,7.62l0.05,9.6c0.01,1.91,0.1,4.43,0.24,7.86c0,0,9.76,237.54,10.1,245.89h-33.46c0.33-11.54,1.32-46.49,1.32-46.49
				c2.2-76.39,4.23-147.08,4.23-215.69c0-55.27-1.34-109.21-4.96-163.68H1063c0.73,5.04,3.34,23.09,3.34,23.09
				c17.57,121.46,32.54,223.2,37.75,238.07l5.08,14.51l32.98-13.92l-0.34-15.66c0,0-6.52-238.12-6.74-246.09H1161.81z"/>
			<g class="st17">
				<g>
					<defs>
						<rect id="SVGID_15_" x="1209.88" y="964.18" width="182.34" height="466.8"/>
					</defs>
					<clipPath id="SVGID_16_">
						<use xlink:href="#SVGID_15_"  style="overflow:visible;"/>
					</clipPath>
					<path class="st22" d="M1388.72,1314.56l3.5-339.55c0.1-9.75-1.01-10.84-11.07-10.84h-48.46c-10.06,0-11.17,1.08-11.06,10.81
						l3.49,317.28c0.11,10.06,0.01,11.82-1.03,17.58c-3.47,19.2-18.09,28.1-29.93,23.35c-5.06-2.03-12.31-11.18-15.32-24.43
						c-1.85-8.14-2.05-10.16-2.05-20.22V974.99c0-9.73-1.12-10.81-11.18-10.81h-44.73c-10.06,0-11.16,1.09-10.97,10.85l7.02,356.31
						c0.2,10.06,0.39,12.29,1.9,22.27c7.44,49.02,31.13,71.32,72.87,76.5c57.22,7.11,87.78-29.97,95.55-93.24
						C1388.47,1326.86,1388.61,1324.63,1388.72,1314.56"/>
				</g>
			</g>
			<path class="st19" d="M1332.69,949.74c-5.43,0-13.64,0-19.66,6.09c-5.99,6.06-5.9,14.04-5.84,19.33l3.49,317.28
				c0.11,9.81-0.01,10.48-0.8,14.85c-1.04,5.73-3.61,10.23-6.9,12.05c-1.11,0.62-2.12,0.76-3.02,0.54c-1.4-1.31-5.13-5.95-7.03-14.3
				c-1.55-6.83-1.69-7.73-1.69-17.02V974.99c0-5.34,0-13.42-6.22-19.44c-6.02-5.82-14.07-5.82-19.4-5.82h-44.73
				c-5.44,0-13.67,0-19.69,6.14c-5.99,6.11-5.83,14.13-5.72,19.44l7.02,356.31c0.21,10.65,0.46,13.59,2.06,24.16
				c4.16,27.45,13.17,47.93,27.52,62.62c14.12,14.45,33.04,22.97,57.84,26.05c27.7,3.44,51.17-2.17,69.76-16.67
				c22.72-17.73,36.82-47.72,41.9-89.15c1.3-10.59,1.48-13.27,1.59-23.92v0l3.5-339.55c0.05-5.29,0.14-13.28-5.86-19.34
				c-6.03-6.09-14.23-6.09-19.66-6.09H1332.69z M1377.74,978.63c-0.08,7.35-3.46,335.79-3.46,335.79c-0.1,9.5-0.21,11.24-1.37,20.7
				c-4.06,33.07-14.78,57.24-31,69.89c-12.32,9.61-28.62,13.24-48.43,10.78c-36.64-4.55-54.12-23.19-60.37-64.33
				c-1.43-9.4-1.56-10.93-1.74-20.39c0,0-6.79-344.84-6.94-352.43h37.92v309.92c0,11.13,0.32,14.19,2.41,23.42
				c3.73,16.45,13.39,30.38,24.03,34.64c9.05,3.63,19.32,2.9,28.18-2c10.96-6.07,18.74-17.8,21.35-32.19
				c1.04-5.75,1.3-8.73,1.3-15.18c0-1.5-0.01-3.18-0.04-5.13c0,0-3.36-306.09-3.44-313.49H1377.74z"/>
			<g class="st17">
				<g>
					<defs>
						<rect id="SVGID_17_" x="1626.5" y="956.84" width="169.34" height="473.27"/>
					</defs>
					<clipPath id="SVGID_18_">
						<use xlink:href="#SVGID_17_"  style="overflow:visible;"/>
					</clipPath>
					<path class="st23" d="M1686.8,1295.44v-14.59c0-6.56-1.12-7.29-11.18-7.29h-33.55c-10.06,0-11.18,1.03-11.18,10.26v114.01
						c0,10.06,1.02,11.66,10.18,15.91c15.85,7.37,56.92,16.6,66.24,16.37c50.14-1.26,71.65-30.54,82-78.28
						c10.65-49.13,10.74-126.28-18.64-164.01c-16.01-20.55-44.02-39.07-61.5-59.64c-19.01-22.36-30.56-49.92-16.77-74.55
						c6.86-12.25,21.96-17.86,29.82-7.46c6.47,8.57,11.97,30.97,10.44,43.25c-1.01,8.04,0,8.94,10.06,8.94h32.22
						c7.91,0,8.79-1.01,8.79-10.15v-99.22c0-10.06-0.98-11.73-9.84-16.6c-30.46-16.78-66.97-19.74-90.8-10.08
						c-51.71,20.95-59.21,89.42-55.91,151.71c2.86,54.16,11.33,84.44,51.5,117.61c32.5,26.83,64.98,49.39,52.87,92.92
						c-3.56,12.78-14.23,28.1-31.09,19.83c-6.22-3.05-11.95-17.87-12.87-28.86C1686.88,1307.28,1686.8,1305.27,1686.8,1295.44"/>
				</g>
			</g>
			<path class="st19" d="M1677.65,948.93c-27.76,11.25-46.95,34.71-57.04,69.74c-7.37,25.58-9.94,57.02-7.87,96.12
				c1.26,23.76,3.68,48.84,12.8,71.34c8.47,20.89,22.43,38.89,43.93,56.64l6.79,5.57c32,26.13,49.7,42.37,41.35,72.33
				c-1.7,6.1-4.94,10.44-7.13,11.42c-0.28,0.13-0.97,0.43-2.74-0.26c-1.86-2.43-5.17-10.2-5.78-17.51
				c-0.66-7.84-0.72-9.43-0.72-18.88v-14.59c0-3.49,0-12.75-8.37-18.21c-5.02-3.27-10.55-3.53-17.26-3.53h-33.55
				c-5.56,0-13.17,0-19.13,5.47c-6.5,5.96-6.5,14.27-6.5,19.24v114.01c0,6.2,0.3,12.24,3.93,17.92c3.62,5.66,8.97,8.48,14.6,11.1
				c17.21,8,60.51,18.01,72.69,17.71c68.78-1.73,87.59-52,95.76-89.66c4.5-20.73,6.86-44.2,6.86-66.96c0-7.97-0.29-15.84-0.88-23.49
				c-1.96-25.51-8.3-61.05-27.34-85.49c-9.29-11.92-21.8-22.84-33.9-33.4c-10.5-9.16-20.41-17.81-27.99-26.72
				c-8.93-10.5-15.07-21.19-17.77-30.93c-1.08-3.89-1.62-7.6-1.62-11.15c0-5.72,1.4-11.03,4.22-16.06c1.9-3.4,4.59-5.03,5.95-5.42
				c3.51,5.11,7.54,19.98,7.54,29.36c0,1.08-0.05,2.09-0.17,3c-0.18,1.47-0.42,3.38-0.42,5.51c0,4.04,0.85,8.88,4.55,13.06
				c5.82,6.59,14.17,6.59,20.27,6.59h32.22c4.38,0,12.53,0,18.28-6.64c4.95-5.72,4.95-12.79,4.95-17.95v-99.22
				c0-6.06-0.28-11.97-3.62-17.61c-3.33-5.62-8.38-8.72-13.7-11.65c-16.34-9-34.8-14.77-53.38-16.67
				C1708.99,941.19,1691.77,943.21,1677.65,948.93 M1722.31,1358.45c10.57-4.74,19.22-15.97,23.14-30.03
				c6.28-22.55,3.18-42.7-9.48-61.6c-10.38-15.51-25.46-27.82-41.43-40.86l-6.67-5.47c-36.56-30.19-43.59-56.34-46.28-107.24
				c-1.89-35.84,0.32-64.16,6.79-86.6c7.61-26.44,20.74-43.11,40.13-50.96c20.85-8.44,53.09-4.6,78.41,9.35
				c1.03,0.57,1.78,1,2.33,1.33c0.02,0.63,0.04,1.48,0.04,2.63v94.92h-21.95c-0.22-15.76-6.02-36.44-13.59-46.45
				c-5.83-7.72-14.66-11.77-24.23-11.12c-11.8,0.81-23.18,8.56-29.71,20.22c-8.23,14.71-10.04,31.67-5.23,49.04
				c3.87,13.95,11.81,28.05,23.6,41.92c8.97,10.55,20.17,20.32,31.01,29.78c11.58,10.1,22.52,19.65,30.1,29.38
				c11.57,14.86,18.95,39.05,21.32,69.96c2.06,26.82,0.09,56.75-5.41,82.11c-4.96,22.9-12.28,39.13-22.37,49.61
				c-10.71,11.12-25.71,16.78-45.88,17.29c-6.97,0.09-45.86-8.55-59.79-15.02c-0.74-0.34-1.32-0.62-1.8-0.86
				c-0.01-0.53-0.02-1.16-0.02-1.95v-109.83h27.03v7.43c0,10.24,0.09,12.63,0.82,21.29c0.74,8.81,5.93,33.27,20.91,40.62
				C1706.19,1363.29,1716.12,1361.23,1722.31,1358.45"/>
			<g class="st17">
				<g>
					<defs>
						<rect id="SVGID_19_" x="1819.98" y="964.18" width="139.02" height="454.75"/>
					</defs>
					<clipPath id="SVGID_20_">
						<use xlink:href="#SVGID_19_"  style="overflow:visible;"/>
					</clipPath>
					<path class="st24" d="M1958.91,1049.91v-75.84c0-8.9-1.03-9.89-10.28-9.89h-116.46c-10.06,0-11.16,1.12-10.97,11.18
						c2.29,121.44,6.95,333.93,3.52,364.36c-0.1,0.85-0.2,1.74-0.32,2.68c0.91,20.64-0.57,41.32-4.42,61.63
						c0.06,1.24,0.13,2.48,0.22,3.72c0.71,10.06,1.91,11.18,11.97,11.18h116.46c9.25,0,10.28-1.12,10.28-11.18v-70.82
						c0-10.06-1.12-11.18-11.18-11.18h-48.46c-10.07,0-11.18-1.12-11.18-11.18v-70.82c0-10.06,1.12-11.18,11.18-11.18H1944
						c10.06,0,11.18-1.12,11.18-11.18v-67.09c0-10.06-1.12-11.18-11.18-11.18h-44.73c-10.07,0-11.18-1.12-11.18-11.18v-63.37
						c0-10.06,0.94-11.13,9.41-10.69c0,0,34.84-0.8,58.91,4.55C1959.74,1066.42,1958.91,1059.98,1958.91,1049.91"/>
				</g>
			</g>
			<path class="st19" d="M1832.17,949.74c-5.42,0-13.61,0-19.64,6.14c-6.03,6.14-5.88,14.33-5.77,19.75l0.88,45.65
				c2.25,115.83,5.65,290.87,2.73,316.81l-0.44,3.7l0.04,1.24c0.86,19.5-0.54,39.12-4.18,58.3l-0.33,1.75l0.33,5.67
				c0.37,5.26,0.93,13.21,7.03,18.9c6.11,5.71,14.08,5.71,19.35,5.71h116.46c4.97,0,13.28,0,19.24-6.49
				c5.48-5.96,5.48-13.58,5.48-19.14v-70.82c0-5.39,0-13.53-6.05-19.58c-6.05-6.05-14.19-6.05-19.58-6.05h-45.2V1247H1944
				c5.39,0,13.53,0,19.58-6.05c6.05-6.05,6.05-14.19,6.05-19.58v-67.09c0-5.39,0-13.53-6.05-19.58c-6.05-6.05-14.19-6.05-19.58-6.05
				h-41.47v-56.39c9.36,0,30.84,0.4,47.57,3.59c5.72,3.46,11.21,1.96,13.08,1.27c3.52-1.31,9.53-5.02,10.18-15.2
				c0.13-2.06,0.09-4.42,0.05-7.15l-0.05-4.87v-75.84c0-4.8,0-12.82-6.1-18.69c-5.87-5.65-13.54-5.65-18.63-5.65H1832.17z
				 M1944.46,978.63v67.13c-21-2.67-42.98-2.42-46.78-2.35c-4.64-0.24-11.95-0.4-17.8,5.16c-6.24,5.92-6.24,14.05-6.24,19.98v63.37
				c0,5.39,0,13.53,6.05,19.58c6.05,6.05,14.19,6.05,19.58,6.05h41.46v60.57h-41.46c-5.39,0-13.53,0-19.58,6.05
				c-6.05,6.05-6.05,14.19-6.05,19.58v70.82c0,5.39,0,13.53,6.05,19.58c6.05,6.05,14.19,6.05,19.58,6.05h45.19v64.3h-109.89
				c3-16.59,4.53-33.45,4.53-50.31c0-3.72-0.09-7.44-0.23-11.15c0.1-0.81,0.2-1.68,0.2-1.68c0.93-8.26,1.32-27.72,1.32-55.64
				c0-59.13-1.76-156.17-3.87-264.98c0,0-0.7-36.08-0.81-42.1H1944.46z"/>
			<g class="st17">
				<g>
					<defs>
						<rect id="SVGID_21_" x="2190.4" y="964.18" width="78.32" height="454.75"/>
					</defs>
					<clipPath id="SVGID_22_">
						<use xlink:href="#SVGID_21_"  style="overflow:visible;"/>
					</clipPath>
					<path class="st25" d="M2190.45,974.8c6.09,144.13,6.15,288.45,0.19,432.59c-0.01,0.13-0.01,0.25-0.02,0.38
						c-0.55,10.05,0.5,11.17,10.57,11.17l57.38-0.56c8.55,0,9.44-0.26,9.36-10.33c0,0,0,0,0-0.67
						c-6.48-145.19-6.26-290.61,0.66-435.78c1.12-7.26-5.31-6.74-12.5-6.74l-54.9-0.66C2191.31,964.18,2190.1,965.26,2190.45,974.8"
						/>
				</g>
			</g>
			<path class="st19" d="M2201.19,949.74c-5.45,0-13.68,0-19.69,6.23c-4.84,5.03-5.56,11.39-5.56,16.25c0,1.14,0.04,2.19,0.08,3.13
				l0,0.07c3.05,72.31,4.58,145.13,4.58,217.95c0,71.29-1.46,142.57-4.39,213.36c-0.01,0.11-0.01,0.28-0.01,0.28
				c-0.07,1.29-0.15,2.75-0.15,4.3c0,4.96,0.82,10.92,5.39,15.74c5.99,6.33,14.27,6.33,19.76,6.33c0,0,57.35-0.56,57.46-0.56
				c5.58,0,12.5-0.03,18.07-5.63c5.24-5.28,5.67-12.17,5.67-17.64c0-0.53,0-1.04-0.01-1.54c0-0.08,0-0.96,0-0.96l-0.02-0.31
				c-3.11-69.71-4.66-139.89-4.66-210.08c0-74.85,1.77-149.71,5.3-224.04c0.1-0.9,0.16-1.77,0.16-2.6c0-5.94-2.34-10.03-4.51-12.55
				c-6.15-7.14-14.9-7.1-21.29-7.07c0,0-1.08,0-1.21,0c-0.21,0-54.88-0.66-54.88-0.66H2201.19z M2209.49,1193.36
				c0-71.72-1.48-143.45-4.43-214.69c6.66,0.08,45.09,0.54,48.73,0.59c-3.31,72.14-4.98,144.77-4.98,217.39
				c0,69.27,1.52,138.52,4.53,207.33c-7.79,0.08-41.65,0.41-48.13,0.47C2208.06,1334.4,2209.49,1263.89,2209.49,1193.36"/>
			<g class="st17">
				<g>
					<defs>
						<rect id="SVGID_23_" x="2293.32" y="964.18" width="139.01" height="454.75"/>
					</defs>
					<clipPath id="SVGID_24_">
						<use xlink:href="#SVGID_23_"  style="overflow:visible;"/>
					</clipPath>
					<path class="st26" d="M2432.24,1049.91v-75.84c0-8.9-1.03-9.89-10.28-9.89H2305.5c-10.06,0-11.16,1.12-10.97,11.18
						c2.29,121.44,6.95,333.93,3.52,364.36c-0.1,0.85-0.2,1.74-0.32,2.68c0.91,20.64-0.57,41.32-4.42,61.63
						c0.06,1.24,0.13,2.48,0.22,3.72c0.71,10.06,1.91,11.18,11.97,11.18h116.46c9.25,0,10.28-1.12,10.28-11.18v-70.82
						c0-10.06-1.12-11.18-11.18-11.18h-48.46c-10.06,0-11.18-1.12-11.18-11.18v-70.82c0-10.06,1.12-11.18,11.18-11.18h44.73
						c10.07,0,11.18-1.12,11.18-11.18v-67.09c0-10.06-1.12-11.18-11.18-11.18h-44.73c-10.06,0-11.18-1.12-11.18-11.18v-63.37
						c0-10.06,0.94-11.13,9.41-10.69c0,0,34.84-0.8,58.91,4.55C2433.07,1066.42,2432.24,1059.98,2432.24,1049.91"/>
				</g>
			</g>
			<path class="st19" d="M2305.5,949.74c-5.42,0-13.61,0-19.64,6.14c-6.03,6.14-5.88,14.33-5.77,19.75l0.88,45.62
				c2.25,115.84,5.65,290.9,2.73,316.85l-0.44,3.7l0.04,1.24c0.86,19.5-0.54,39.12-4.18,58.3l-0.33,1.75l0.33,5.66
				c0.37,5.27,0.93,13.22,7.03,18.91c6.11,5.7,14.08,5.7,19.35,5.7h116.46c4.97,0,13.28,0,19.24-6.49
				c5.48-5.96,5.48-13.58,5.48-19.14v-70.82c0-5.39,0-13.53-6.05-19.58c-6.05-6.05-14.19-6.05-19.58-6.05h-45.2V1247h41.47
				c5.39,0,13.53,0,19.58-6.05c6.05-6.05,6.05-14.19,6.05-19.58v-67.09c0-5.39,0-13.53-6.05-19.58c-6.05-6.05-14.19-6.05-19.58-6.05
				h-41.47v-56.39c9.36,0,30.84,0.4,47.57,3.59c5.72,3.46,11.22,1.96,13.08,1.27c3.52-1.31,9.53-5.02,10.18-15.2
				c0.13-2.06,0.09-4.42,0.05-7.16l-0.05-4.86v-75.84c0-4.8,0-12.82-6.1-18.69c-5.86-5.65-13.54-5.65-18.62-5.65H2305.5z
				 M2417.79,978.63v67.13c-21-2.67-42.98-2.42-46.78-2.35c-4.64-0.24-11.95-0.4-17.8,5.16c-6.24,5.92-6.24,14.05-6.24,19.98v63.37
				c0,5.39,0,13.53,6.05,19.58c6.05,6.05,14.19,6.05,19.58,6.05h41.47v60.57h-41.47c-5.39,0-13.53,0-19.58,6.05
				c-6.05,6.05-6.05,14.19-6.05,19.58v70.82c0,5.39,0,13.53,6.05,19.58c6.05,6.05,14.19,6.05,19.58,6.05h45.2v64.3H2307.9
				c3-16.58,4.53-33.44,4.53-50.3c0-3.72-0.09-7.44-0.23-11.16c0.1-0.81,0.2-1.68,0.2-1.68c0.93-8.26,1.32-27.73,1.32-55.65
				c0-59.13-1.76-156.18-3.87-264.99c0,0-0.69-36.05-0.81-42.07H2417.79z"/>
			<g class="st17">
				<g>
					<defs>
						<rect id="SVGID_25_" x="2455.69" y="956.84" width="169.34" height="473.27"/>
					</defs>
					<clipPath id="SVGID_26_">
						<use xlink:href="#SVGID_25_"  style="overflow:visible;"/>
					</clipPath>
					<path class="st27" d="M2516,1295.44v-14.59c0-6.56-1.12-7.29-11.18-7.29h-33.55c-10.06,0-11.18,1.03-11.18,10.26v114.01
						c0,10.06,1.02,11.66,10.18,15.91c15.85,7.37,56.92,16.6,66.24,16.37c50.14-1.26,71.65-30.54,82-78.28
						c10.65-49.13,10.74-126.28-18.64-164.01c-16.01-20.55-44.02-39.07-61.5-59.64c-19.01-22.36-30.56-49.92-16.77-74.55
						c6.86-12.25,21.96-17.86,29.82-7.46c6.47,8.57,11.97,30.97,10.44,43.25c-1.01,8.04,0,8.94,10.06,8.94h32.22
						c7.91,0,8.79-1.01,8.79-10.15v-99.22c0-10.06-0.98-11.73-9.84-16.6c-30.46-16.78-66.97-19.74-90.8-10.08
						c-51.71,20.95-59.21,89.42-55.91,151.71c2.87,54.16,11.33,84.44,51.5,117.61c32.5,26.83,64.99,49.39,52.87,92.92
						c-3.56,12.78-14.23,28.1-31.09,19.83c-6.22-3.05-11.96-17.87-12.88-28.86C2516.07,1307.28,2516,1305.27,2516,1295.44"/>
				</g>
			</g>
			<path class="st19" d="M2506.85,948.93c-27.76,11.25-46.95,34.71-57.04,69.74c-7.37,25.58-9.94,57.02-7.87,96.12
				c1.26,23.76,3.68,48.85,12.8,71.34c8.47,20.89,22.43,38.89,43.93,56.64l6.79,5.57c32,26.13,49.7,42.37,41.35,72.33
				c-1.7,6.1-4.94,10.44-7.13,11.42c-0.28,0.13-0.97,0.43-2.74-0.26c-1.86-2.43-5.17-10.2-5.78-17.51
				c-0.66-7.84-0.72-9.43-0.72-18.88v-14.59c0-3.49,0-12.75-8.37-18.21c-5.01-3.27-10.54-3.53-17.25-3.53h-33.55
				c-5.56,0-13.17,0-19.13,5.47c-6.5,5.96-6.5,14.27-6.5,19.24v114.01c0,6.2,0.3,12.24,3.93,17.92c3.62,5.66,8.97,8.48,14.6,11.1
				c17.21,8,60.51,18.01,72.69,17.71c68.78-1.73,87.59-52,95.76-89.66c4.49-20.73,6.86-44.2,6.86-66.96
				c0-7.97-0.29-15.84-0.88-23.49c-1.96-25.51-8.3-61.05-27.34-85.49c-9.29-11.92-21.8-22.84-33.91-33.4
				c-10.5-9.16-20.41-17.81-27.99-26.72c-8.93-10.5-15.07-21.19-17.77-30.93c-1.08-3.89-1.62-7.6-1.62-11.15
				c0-5.72,1.4-11.03,4.22-16.06c1.9-3.4,4.59-5.03,5.95-5.42c3.51,5.11,7.54,19.98,7.54,29.36c0,1.08-0.05,2.09-0.17,3
				c-0.18,1.47-0.42,3.38-0.42,5.51c0,4.04,0.86,8.88,4.55,13.06c5.82,6.59,14.17,6.59,20.27,6.59h32.22c4.38,0,12.53,0,18.28-6.64
				c4.95-5.72,4.95-12.79,4.95-17.95v-99.22c0-6.06-0.28-11.97-3.62-17.61c-3.33-5.62-8.38-8.71-13.7-11.64
				c-16.34-9-34.8-14.77-53.38-16.67C2538.19,941.19,2520.97,943.21,2506.85,948.93 M2551.5,1358.45
				c10.58-4.74,19.22-15.97,23.14-30.03c6.28-22.55,3.18-42.7-9.48-61.6c-10.38-15.51-25.46-27.82-41.43-40.86l-6.67-5.47
				c-36.56-30.19-43.58-56.34-46.28-107.24c-1.89-35.84,0.33-64.16,6.79-86.6c7.61-26.44,20.74-43.11,40.13-50.96
				c20.85-8.44,53.09-4.6,78.41,9.35c1.03,0.57,1.78,1,2.32,1.33c0.03,0.63,0.04,1.48,0.04,2.63v94.92h-21.95
				c-0.22-15.76-6.03-36.44-13.59-46.45c-5.83-7.72-14.67-11.77-24.23-11.12c-11.8,0.81-23.18,8.56-29.71,20.22
				c-8.24,14.71-10.04,31.67-5.23,49.04c3.87,13.95,11.81,28.05,23.6,41.92c8.97,10.55,20.17,20.32,31.01,29.78
				c11.58,10.1,22.52,19.65,30.1,29.38c11.57,14.86,18.95,39.05,21.33,69.96c2.06,26.82,0.09,56.75-5.41,82.11
				c-4.97,22.9-12.28,39.13-22.37,49.61c-10.71,11.12-25.71,16.78-45.88,17.29c-6.97,0.09-45.86-8.55-59.79-15.02
				c-0.74-0.34-1.32-0.62-1.8-0.86c-0.01-0.53-0.02-1.16-0.02-1.95v-109.83h27.02v7.43c0,10.24,0.09,12.63,0.82,21.29
				c0.74,8.81,5.93,33.27,20.91,40.62C2535.39,1363.29,2545.31,1361.23,2551.5,1358.45"/>
			<path class="st19" d="M1591.58,1222.3c1.83,9.24,2.1,11.38,2.71,21.42l9.88,164.72c0.57,9.44-0.49,10.49-10.55,10.49h-41
				c-9.85,0-11.24-1.24-11.67-10.39l-6.45-138.79c-0.47-10.05-0.63-11.81-1.67-17.57c-2.54-14.07-8.89-20.04-19.68-21.07
				c-5.56-0.44-11.15,0.06-16.53,1.48c-3.17,1.33-3.63,4.02-3.63,11.14v164.68c0,9.46-0.94,10.51-9.42,10.51h-50.22
				c-10.06,0-11.22-0.65-11.52-6.51c-0.05-1.03-0.02-2.05,0.06-3.08c2.76-10.23,4.08-20.8,3.92-31.39c0-0.86-0.01-1.8-0.02-2.82
				l-3.53-400.07c-0.09-9.8,0.91-10.89,9.94-10.89h88.22c10.06,0,12.03,0.09,19.64,0.92c9.03,0.98,25.83,8.15,31.21,12.13
				c16.62,12.29,24.46,53.87,26.09,74.18c3.61,45.06,0.8,107.4-47.03,130.86c-0.61,0.3-1.18,0.58-1.84,0.91l0.2,4.8
				c0.64,0.07,1.34,0.14,2.1,0.21C1576.44,1190.55,1587.14,1199.93,1591.58,1222.3 M1492.97,1139.37c0,10.06,0.6,11.25,5.96,11.86
				c18.73,2.14,29.99-6.67,33.18-15.59c9.5-26.55,11.48-71.94-7.43-86.18c-3.91-2.95-5.26-3.28-13.46-3.28h-12.17
				c-5.47,0-6.08,1-6.08,9.98V1139.37z"/>
			<path class="st19" d="M1432.19,949.74c-4.74,0-12.66,0-18.55,5.94c-5.96,6.01-5.89,14.14-5.84,19.52l3.53,400.07l0.02,2.92
				c0.14,9.25-1.01,18.47-3.42,27.4l-0.34,1.27l-0.11,1.31c-0.15,1.76-0.18,3.4-0.09,5.01c0.16,3.05,0.63,12.32,9.42,17.29
				c4.81,2.71,9.88,2.92,16.52,2.92h50.22c4.79,0,12.81,0,18.64-6.51c5.22-5.82,5.22-13.12,5.22-18.44v-162.96
				c1.51-0.08,3.02-0.07,4.53,0.05c3.06,0.3,5.11,0.66,6.66,9.24c0.87,4.83,1,5.83,1.46,15.67l6.45,138.79
				c0.23,4.84,0.6,12.94,7.12,18.74c6.09,5.42,13.84,5.42,18.97,5.42h41c5.54,0,13.9,0,19.86-6.33c4.46-4.74,5.27-10.62,5.27-15.34
				c0-1.53-0.08-2.93-0.16-4.14l-9.88-164.72c-0.64-10.67-1-13.51-2.96-23.37l0,0c-3.89-19.62-12.48-32.19-27.41-39.22
				c13.53-12.75,23.18-30.05,28.77-51.73c3.87-15,5.79-31.85,5.79-51.05c0-8.6-0.38-17.66-1.15-27.24
				c-0.53-6.64-5.95-65.44-31.9-84.64c-7.64-5.65-26.79-13.63-38.23-14.87c-8.19-0.89-10.57-1-21.2-1H1432.19z M1520.41,978.63
				c9.53,0,11.05,0.07,18.07,0.83c6.06,0.66,20.64,6.76,24.18,9.38c1.68,1.25,7.62,6.83,13.4,26.53
				c3.96,13.52,6.16,28.08,6.89,37.18c2.22,27.72,0.97,50.21-3.81,68.77c-6.1,23.66-17.61,39.36-35.18,47.98
				c0,0-1.97,0.98-1.97,0.98l-8.39,4.17l0.45,9.32l0.71,17.35l14.69,1.45c20.31,1.87,24.98,7.53,27.96,22.54l0,0
				c1.71,8.6,1.89,10.06,2.46,19.48c0,0,9.05,150.82,9.6,159.9h-34.24c-0.3-6.44-6.29-135.41-6.29-135.41
				c-0.47-10.14-0.67-12.71-1.89-19.46c-4.52-25.03-20.18-31.7-32.52-32.88l-0.12-0.01l-0.12-0.01c-7.19-0.57-14.37,0.08-21.35,1.91
				l-0.96,0.25l-0.92,0.38c-12.51,5.23-12.51,17.75-12.51,24.47v160.75h-40.7c1.61-8.15,2.43-16.45,2.43-24.77
				c0-0.66-0.01-1.32-0.02-1.98l0,0.17l-0.02-2.89c0,0-3.44-389.15-3.5-396.38H1520.41z"/>
			<path class="st19" d="M1499.06,1031.74c-3.02,0-12.22,0-17.43,8.55c-2.87,4.71-3.1,9.76-3.1,15.88v83.2
				c0,6.42,0.18,11.33,2.5,15.96c4.47,8.91,13.34,9.92,16.26,10.25c26.18,2.99,43.18-10.44,48.42-25.07
				c10.6-29.63,14.02-82.73-12.34-102.59c-7.43-5.6-12.46-6.18-22.15-6.18H1499.06z M1511.22,1060.63c2.07,0,3.53,0.03,4.38,0.08
				c0.11,0.08,0.23,0.17,0.38,0.28c3.73,2.81,7.96,11.53,8.63,27.54c0.06,1.4,0.09,2.82,0.09,4.26c0,12.87-2.29,27.07-6.19,37.98
				c-0.87,2.42-4.44,5.48-11.09,6.18v-76.33H1511.22z"/>
			<path class="st19" d="M2151.54,1222.3c1.83,9.24,2.1,11.38,2.71,21.42l9.88,164.72c0.57,9.44-0.49,10.49-10.55,10.49h-41
				c-9.85,0-11.24-1.24-11.66-10.39l-6.45-138.79c-0.47-10.05-0.63-11.81-1.68-17.57c-2.54-14.07-8.89-20.04-19.68-21.07
				c-5.55-0.44-11.14,0.06-16.53,1.48c-3.17,1.33-3.63,4.02-3.63,11.14v164.68c0,9.46-0.94,10.51-9.42,10.51h-50.22
				c-10.06,0-11.21-0.65-11.52-6.51c-0.05-1.03-0.02-2.05,0.06-3.08c2.76-10.23,4.08-20.8,3.92-31.39c0-0.86-0.01-1.8-0.02-2.82
				l-3.53-400.07c-0.09-9.8,0.91-10.89,9.94-10.89h88.22c10.06,0,12.03,0.09,19.64,0.92c9.03,0.98,25.83,8.15,31.21,12.13
				c16.62,12.29,24.47,53.87,26.09,74.18c3.61,45.06,0.8,107.4-47.03,130.86c-0.61,0.3-1.18,0.58-1.84,0.91l0.2,4.8
				c0.64,0.07,1.34,0.14,2.1,0.21C2136.41,1190.55,2147.1,1199.93,2151.54,1222.3 M2052.94,1139.37c0,10.06,0.6,11.25,5.96,11.86
				c18.73,2.14,29.99-6.67,33.18-15.59c9.5-26.55,11.47-71.94-7.43-86.18c-3.91-2.95-5.26-3.28-13.46-3.28h-12.17
				c-5.48,0-6.08,1-6.08,9.98V1139.37z"/>
			<path class="st19" d="M1992.16,949.74c-4.74,0-12.66,0-18.55,5.94c-5.96,6.01-5.89,14.14-5.84,19.52l3.53,400.07l0.02,2.92
				c0.14,9.25-1.01,18.47-3.42,27.41l-0.34,1.26l-0.11,1.3c-0.15,1.77-0.18,3.42-0.09,5.03c0.16,3.04,0.63,12.31,9.42,17.27
				c4.81,2.71,9.88,2.92,16.52,2.92h50.22c4.79,0,12.81,0,18.64-6.51c5.22-5.82,5.22-13.12,5.22-18.44v-162.96
				c1.51-0.08,3.02-0.07,4.53,0.05c3.06,0.3,5.11,0.66,6.66,9.24c0.87,4.84,1,5.83,1.46,15.67l6.45,138.79
				c0.22,4.84,0.6,12.94,7.12,18.74c6.09,5.42,13.84,5.42,18.97,5.42h41c5.53,0,13.9,0,19.86-6.33c4.46-4.74,5.27-10.62,5.27-15.34
				c0-1.53-0.08-2.93-0.16-4.14l-9.88-164.72c-0.64-10.67-1-13.51-2.96-23.37c-3.89-19.62-12.48-32.19-27.4-39.22
				c13.53-12.75,23.17-30.05,28.76-51.73c3.87-15,5.79-31.85,5.79-51.05c0-8.6-0.38-17.66-1.15-27.24
				c-0.53-6.64-5.95-65.44-31.9-84.64c-7.64-5.65-26.79-13.63-38.23-14.87c-8.19-0.89-10.57-1-21.2-1H1992.16z M2080.37,978.63
				c9.53,0,11.05,0.07,18.07,0.83c6.07,0.66,20.64,6.76,24.18,9.38c1.68,1.25,7.62,6.84,13.4,26.53
				c3.96,13.52,6.16,28.08,6.89,37.18c2.22,27.72,0.97,50.21-3.81,68.77c-6.1,23.66-17.61,39.36-35.18,47.98
				c0,0-1.98,0.98-1.98,0.98l-8.38,4.17l0.45,9.32l0.71,17.35l14.7,1.45c20.31,1.87,24.98,7.53,27.96,22.54v0
				c1.71,8.6,1.89,10.06,2.46,19.48c0,0,9.05,150.82,9.59,159.9h-34.24c-0.3-6.44-6.3-135.41-6.3-135.41
				c-0.47-10.14-0.67-12.71-1.89-19.46c-4.53-25.04-20.18-31.7-32.52-32.88l-0.12-0.01l-0.12-0.01c-7.19-0.57-14.37,0.08-21.35,1.91
				l-0.96,0.25l-0.92,0.38c-12.51,5.22-12.51,17.75-12.51,24.47v160.75h-40.7c1.61-8.16,2.42-16.45,2.42-24.77
				c0-0.66,0-1.32-0.01-1.98v0.15l-0.02-2.88c0,0-3.44-389.15-3.5-396.38H2080.37z M2165.71,1219.48L2165.71,1219.48
				L2165.71,1219.48L2165.71,1219.48z"/>
			<path class="st19" d="M2059.02,1031.74c-3.02,0-12.22,0-17.43,8.55c-2.87,4.71-3.1,9.76-3.1,15.88v83.2
				c0,6.42,0.18,11.33,2.51,15.96c4.47,8.91,13.34,9.92,16.26,10.25c26.18,2.99,43.18-10.44,48.42-25.07
				c10.6-29.64,14.02-82.73-12.34-102.59c-7.43-5.6-12.46-6.18-22.15-6.18H2059.02z M2071.19,1060.63c2.06,0,3.53,0.03,4.38,0.08
				c0.11,0.08,0.23,0.17,0.38,0.29c3.73,2.81,7.96,11.52,8.63,27.54c0.06,1.4,0.09,2.82,0.09,4.26c0,12.87-2.29,27.07-6.19,37.98
				c-0.87,2.42-4.44,5.48-11.09,6.18v-76.33H2071.19z"/>
		</g>
		<g class="st1">
			<defs>
				<rect id="SVGID_27_" x="-254.3" y="92.41" width="4160" height="1664"/>
			</defs>
			<clipPath id="SVGID_28_" class="st16">
				<use xlink:href="#SVGID_27_"  style="overflow:visible;"/>
			</clipPath>
			<path class="st28" d="M1366.38,736.09c0.22,7.04,1.94,7.9,9.84,7.9h83.2c10.06,0,11.11-1.12,10.47-11.16
				c-11.15-174.82-7.27-237.05,0.31-447.32c0.36-10.06-0.71-11.18-10.78-11.18h-158.51c-8.82,0-10.74,1.76-12.06,11.07
				l-45.61,320.67c-0.66,4.66-10.47,4.66-11.18,0l-49.22-320.69c-1.42-9.25-3.41-11.05-12.18-11.05h-158.52
				c-10.06,0-11.06,1.11-9.95,11.12c14.12,127.6,5.6,295.63,2.71,447.36c-0.19,10.06,0.91,11.18,10.97,11.18h83.2
				c8.99,0,9.97-1.08,9.86-10.81l-0.02-1.9l-0.27-322.64l13.15,0.05c0.54,1.48,1.05,4.23,2.17,10.86l52.86,313.78
				c1.49,8.86,3.69,10.66,12.98,10.66h95.72c7.98,0,10.74-1.35,12.33-7.37c0.02-0.08,0.45-2.52,1.22-6.91l55.76-320.61
				c0.02-0.07,0.04-0.13,0.05-0.2c0.54-1.99,12.01-0.57,12.97-0.36L1366.38,736.09z"/>
			<path class="st28" d="M2460.85,744h116.82c10.06,0,11.09-1.11,10.29-11.15c-10.49-130.94-10.93-313.25-0.04-443.64
				c0.84-10.03-0.19-11.15-10.25-11.15h-85.73c-10.06,0-11.11,1.12-10.44,11.16c5.38,80.53,15.71,229.18,14.68,257.68l-16.03,12.49
				c-0.1-0.13-0.19-0.26-0.29-0.39c-0.88-1.23-1.27-2.45-3.88-12.17l-69.45-258.38c-2.21-8.21-4.94-10.38-13.07-10.38h-117.72
				c-10.06,0-11.13,1.12-10.63,11.17c9.58,194.87,8.87,240.55-0.06,443.59c-0.44,10.06,0.63,11.17,10.69,11.17h85.73
				c10.06,0,11.14-1.12,10.73-11.17c-2.15-53.76-4.81-130.27-8.05-181.88c-1.68-27.88-4.65-55.67-8.89-83.27l13.17-8.96
				c0.09,0.21,0.19,0.43,0.29,0.68c27.61,90.74,53.59,181.96,77.93,273.63c0.02,0.06,0.04,0.13,0.05,0.19
				C2449.37,742.92,2450.78,744,2460.85,744"/>
			<path class="st28" d="M1515.34,434.39c0.12-34.18,8.73-83.67,21.1-107.5c29.64-57.1,117.63-60.73,193.98-52.55
				c106.39,11.39,116.26,67.23,120.4,182.65c2.15,60.04,11.54,182.48-27.96,238.56c-50.31,71.43-218.01,77.97-272.11,7.46
				C1504.84,643.16,1515.1,503.1,1515.34,434.39 M1724.08,413.37c-0.4-14.64-8.09-45.91-16.77-57.03
				c-15.51-19.85-38.28-12.17-52.19,7.45c-28.01,39.53-18.2,180.94-16.77,200.24c1.64,22.16,6.74,79.05,20.5,97.96
				c19.58,26.9,45.15,15.63,55.91-14.91C1732.03,598.05,1724.62,433.21,1724.08,413.37"/>
			<path class="st28" d="M1886.29,434.39c0.12-34.18,8.73-83.67,21.1-107.5c29.64-57.1,117.63-60.73,193.97-52.55
				c106.39,11.39,116.26,67.23,120.4,182.65c2.15,60.04,11.54,182.48-27.96,238.56c-50.31,71.43-218.01,77.97-272.1,7.46
				C1875.79,643.16,1886.05,503.1,1886.29,434.39 M2095.02,413.37c-0.4-14.64-8.09-45.91-16.78-57.03
				c-15.5-19.85-38.28-12.17-52.18,7.45c-28.01,39.53-18.2,180.94-16.77,200.24c1.64,22.16,6.74,79.05,20.5,97.96
				c19.58,26.9,45.15,15.63,55.91-14.91C2102.98,598.05,2095.57,433.21,2095.02,413.37"/>
			<path class="st28" d="M1109.04,1418.93h61.16c8.69,0,9.65-1.12,9.57-11.18l-3.54-432.39c-0.08-10.03-1.25-11.18-11.27-11.18
				h-33.55c-10.06,0-11.15,1.07-10.89,10.72l6.86,250.21c0.07,2.4,0.11,4.29,0.13,5.77l-9.78,4.13
				c-5.69-16.22-28.5-176.18-40.62-259.76c-1.44-9.96-2.72-11.07-12.79-11.07h-59.64c-10.06,0-11.11,1.12-10.42,11.16
				c9.44,137.57,3.93,273.3-0.46,432.41c-0.28,10.06,0.81,11.18,10.87,11.18h42.98c8.29,0,9.17-1.07,8.77-10.71L1046.14,1158
				c-0.14-3.34-0.22-5.7-0.23-7.34l9.05-3.86c0.01,0.01,0.02,0.02,0.03,0.03c0.12,0.1,0.26,0.33,0.43,0.69
				c17.69,84.94,32.19,170.51,43.47,256.54c0.15,2.3,0.15,4.59-0.12,6.93C1097.95,1418.14,1098.98,1418.93,1109.04,1418.93"/>
			<path class="st28" d="M1388.72,1314.56l3.5-339.55c0.1-9.75-1.01-10.84-11.07-10.84h-48.46c-10.06,0-11.17,1.08-11.06,10.81
				l3.49,317.28c0.11,10.06,0.01,11.82-1.03,17.58c-3.47,19.2-18.09,28.1-29.93,23.35c-5.06-2.03-12.31-11.18-15.32-24.43
				c-1.85-8.14-2.05-10.16-2.05-20.22V974.99c0-9.73-1.12-10.81-11.18-10.81h-44.73c-10.06,0-11.16,1.09-10.97,10.85l7.02,356.31
				c0.2,10.06,0.39,12.29,1.9,22.27c7.44,49.02,31.13,71.32,72.87,76.5c57.22,7.11,87.78-29.97,95.55-93.24
				C1388.47,1326.86,1388.61,1324.63,1388.72,1314.56"/>
			<path class="st28" d="M1686.8,1295.44v-14.59c0-6.56-1.12-7.29-11.18-7.29h-33.55c-10.06,0-11.18,1.03-11.18,10.26v114.01
				c0,10.06,1.02,11.66,10.18,15.91c15.85,7.37,56.92,16.6,66.24,16.37c50.14-1.26,71.65-30.54,82-78.28
				c10.65-49.13,10.74-126.28-18.64-164.01c-16.01-20.55-44.02-39.07-61.5-59.64c-19.01-22.36-30.56-49.92-16.77-74.55
				c6.86-12.25,21.96-17.86,29.82-7.46c6.47,8.57,11.97,30.97,10.44,43.25c-1.01,8.04,0,8.94,10.06,8.94h32.22
				c7.91,0,8.79-1.01,8.79-10.15v-99.22c0-10.06-0.98-11.73-9.84-16.6c-30.46-16.78-66.97-19.74-90.8-10.08
				c-51.71,20.95-59.21,89.42-55.91,151.71c2.86,54.16,11.33,84.44,51.5,117.61c32.5,26.83,64.98,49.39,52.87,92.92
				c-3.56,12.78-14.23,28.1-31.09,19.83c-6.22-3.05-11.95-17.87-12.87-28.86C1686.88,1307.28,1686.8,1305.27,1686.8,1295.44"/>
			<path class="st28" d="M1958.91,1049.91v-75.84c0-8.9-1.03-9.89-10.28-9.89h-116.46c-10.06,0-11.16,1.12-10.97,11.18
				c2.29,121.44,6.95,333.93,3.52,364.36c-0.1,0.85-0.2,1.74-0.32,2.68c0.91,20.64-0.57,41.32-4.42,61.63
				c0.06,1.24,0.13,2.48,0.22,3.72c0.71,10.06,1.91,11.18,11.97,11.18h116.46c9.25,0,10.28-1.12,10.28-11.18v-70.82
				c0-10.06-1.12-11.18-11.18-11.18h-48.46c-10.07,0-11.18-1.12-11.18-11.18v-70.82c0-10.06,1.12-11.18,11.18-11.18H1944
				c10.06,0,11.18-1.12,11.18-11.18v-67.09c0-10.06-1.12-11.18-11.18-11.18h-44.73c-10.07,0-11.18-1.12-11.18-11.18v-63.37
				c0-10.06,0.94-11.13,9.41-10.69c0,0,34.84-0.8,58.91,4.55C1959.74,1066.42,1958.91,1059.98,1958.91,1049.91"/>
			<path class="st28" d="M2190.45,974.8c6.09,144.13,6.15,288.45,0.19,432.59c-0.01,0.13-0.01,0.25-0.02,0.38
				c-0.55,10.05,0.5,11.17,10.57,11.17l57.38-0.56c8.55,0,9.44-0.26,9.36-10.33c0,0,0,0,0-0.67
				c-6.48-145.19-6.26-290.61,0.66-435.78c1.12-7.26-5.31-6.74-12.5-6.74l-54.9-0.66C2191.31,964.18,2190.1,965.26,2190.45,974.8"/>
			<path class="st28" d="M2432.24,1049.91v-75.84c0-8.9-1.03-9.89-10.28-9.89H2305.5c-10.06,0-11.16,1.12-10.97,11.18
				c2.29,121.44,6.95,333.93,3.52,364.36c-0.1,0.85-0.2,1.74-0.32,2.68c0.91,20.64-0.57,41.32-4.42,61.63
				c0.06,1.24,0.13,2.48,0.22,3.72c0.71,10.06,1.91,11.18,11.97,11.18h116.46c9.25,0,10.28-1.12,10.28-11.18v-70.82
				c0-10.06-1.12-11.18-11.18-11.18h-48.46c-10.06,0-11.18-1.12-11.18-11.18v-70.82c0-10.06,1.12-11.18,11.18-11.18h44.73
				c10.07,0,11.18-1.12,11.18-11.18v-67.09c0-10.06-1.12-11.18-11.18-11.18h-44.73c-10.06,0-11.18-1.12-11.18-11.18v-63.37
				c0-10.06,0.94-11.13,9.41-10.69c0,0,34.84-0.8,58.91,4.55C2433.07,1066.42,2432.24,1059.98,2432.24,1049.91"/>
			<path class="st28" d="M2516,1295.44v-14.59c0-6.56-1.12-7.29-11.18-7.29h-33.55c-10.06,0-11.18,1.03-11.18,10.26v114.01
				c0,10.06,1.02,11.66,10.18,15.91c15.85,7.37,56.92,16.6,66.24,16.37c50.14-1.26,71.65-30.54,82-78.28
				c10.65-49.13,10.74-126.28-18.64-164.01c-16.01-20.55-44.02-39.07-61.5-59.64c-19.01-22.36-30.56-49.92-16.77-74.55
				c6.86-12.25,21.96-17.86,29.82-7.46c6.47,8.57,11.97,30.97,10.44,43.25c-1.01,8.04,0,8.94,10.06,8.94h32.22
				c7.91,0,8.79-1.01,8.79-10.15v-99.22c0-10.06-0.98-11.73-9.84-16.6c-30.46-16.78-66.97-19.74-90.8-10.08
				c-51.71,20.95-59.21,89.42-55.91,151.71c2.87,54.16,11.33,84.44,51.5,117.61c32.5,26.83,64.99,49.39,52.87,92.92
				c-3.56,12.78-14.23,28.1-31.09,19.83c-6.22-3.05-11.96-17.87-12.88-28.86C2516.07,1307.28,2516,1305.27,2516,1295.44"/>
			<path class="st28" d="M1591.58,1222.3c1.83,9.24,2.1,11.38,2.71,21.42l9.88,164.72c0.57,9.44-0.49,10.49-10.55,10.49h-41
				c-9.85,0-11.24-1.24-11.67-10.39l-6.45-138.79c-0.47-10.05-0.63-11.81-1.67-17.57c-2.54-14.07-8.89-20.04-19.68-21.07
				c-5.56-0.44-11.15,0.06-16.53,1.48c-3.17,1.33-3.63,4.02-3.63,11.14v164.68c0,9.46-0.94,10.51-9.42,10.51h-50.22
				c-10.06,0-11.22-0.65-11.52-6.51c-0.05-1.03-0.02-2.05,0.06-3.08c2.76-10.23,4.08-20.8,3.92-31.39c0-0.86-0.01-1.8-0.02-2.82
				l-3.53-400.07c-0.09-9.8,0.91-10.89,9.94-10.89h88.22c10.06,0,12.03,0.09,19.64,0.92c9.03,0.98,25.83,8.15,31.21,12.13
				c16.62,12.29,24.46,53.87,26.09,74.18c3.61,45.06,0.8,107.4-47.03,130.86c-0.61,0.3-1.18,0.58-1.84,0.91l0.2,4.8
				c0.64,0.07,1.34,0.14,2.1,0.21C1576.44,1190.55,1587.14,1199.93,1591.58,1222.3 M1492.97,1139.37c0,10.06,0.6,11.25,5.96,11.86
				c18.73,2.14,29.99-6.67,33.18-15.59c9.5-26.55,11.48-71.94-7.43-86.18c-3.91-2.95-5.26-3.28-13.46-3.28h-12.17
				c-5.47,0-6.08,1-6.08,9.98V1139.37z"/>
			<path class="st28" d="M2151.54,1222.3c1.83,9.24,2.1,11.38,2.71,21.42l9.88,164.72c0.57,9.44-0.49,10.49-10.55,10.49h-41
				c-9.85,0-11.24-1.24-11.66-10.39l-6.45-138.79c-0.47-10.05-0.63-11.81-1.68-17.57c-2.54-14.07-8.89-20.04-19.68-21.07
				c-5.55-0.44-11.14,0.06-16.53,1.48c-3.17,1.33-3.63,4.02-3.63,11.14v164.68c0,9.46-0.94,10.51-9.42,10.51h-50.22
				c-10.06,0-11.21-0.65-11.52-6.51c-0.05-1.03-0.02-2.05,0.06-3.08c2.76-10.23,4.08-20.8,3.92-31.39c0-0.86-0.01-1.8-0.02-2.82
				l-3.53-400.07c-0.09-9.8,0.91-10.89,9.94-10.89h88.22c10.06,0,12.03,0.09,19.64,0.92c9.03,0.98,25.83,8.15,31.21,12.13
				c16.62,12.29,24.47,53.87,26.09,74.18c3.61,45.06,0.8,107.4-47.03,130.86c-0.61,0.3-1.18,0.58-1.84,0.91l0.2,4.8
				c0.64,0.07,1.34,0.14,2.1,0.21C2136.41,1190.55,2147.1,1199.93,2151.54,1222.3 M2052.94,1139.37c0,10.06,0.6,11.25,5.96,11.86
				c18.73,2.14,29.99-6.67,33.18-15.59c9.5-26.55,11.47-71.94-7.43-86.18c-3.91-2.95-5.26-3.28-13.46-3.28h-12.17
				c-5.48,0-6.08,1-6.08,9.98V1139.37z"/>
		</g>
		<g id="Layer_2" class="st1">
			<rect x="976.38" y="785.81" class="st29" width="1666.63" height="127.01"/>
			<polygon class="st30" points="1488.66,892.23 1438.09,797.83 1469.06,797.83 1504.89,867.69 1539.49,797.83 1569.84,797.83 
				1519.33,892.23 			"/>
			<path class="st30" d="M1697.26,892.23h-31.07l-12.26-21.44h-56.55l-11.7,21.44h-30.3l54.97-94.4h30.44L1697.26,892.23z
				 M1644.77,854.81l-19.58-34.97l-19.09,34.97H1644.77z"/>
			<polygon class="st30" points="1713.33,892.23 1713.33,798.62 1741.9,798.62 1741.9,876.25 1812.95,876.25 1812.95,892.23 			"/>
			<polygon class="st30" points="1834.08,892.23 1834.08,798.62 1862.65,798.62 1862.65,876.25 1933.7,876.25 1933.7,892.23 			"/>
			<polygon class="st30" points="1954.08,892.23 1954.08,797.83 2058.98,797.83 2058.98,813.8 1982.65,813.8 1982.65,834.74 
				2053.69,834.74 2053.69,850.71 1982.65,850.71 1982.65,876.25 2061.67,876.25 2061.67,892.23 			"/>
			<polygon class="st30" points="2123.02,892.23 2123.02,852.5 2071.21,797.83 2104.7,797.83 2138.08,835.24 2170.7,797.83 
				2203.61,797.83 2151.59,852.63 2151.59,892.23 			"/>
		</g>
	</g>
</g>
</svg>
