<?xml version="1.0" encoding="utf-8"?>
<!-- Generator: Adobe Illustrator 23.0.1, SVG Export Plug-In . SVG Version: 6.00 Build 0)  -->
<svg version="1.1" id="Layer_1" xmlns="http://www.w3.org/2000/svg" xmlns:xlink="http://www.w3.org/1999/xlink" x="0px" y="0px"
	 viewBox="0 0 1024 768" style="enable-background:new 0 0 1024 768;" xml:space="preserve">
<style type="text/css">
	.st0{fill-rule:evenodd;clip-rule:evenodd;}
	.st1{fill:#FFFFFF;}
	.st2{fill:#FF0000;}
	.st3{fill:#FFFF00;}
	.st4{fill-rule:evenodd;clip-rule:evenodd;fill:#FFFFFF;}
	.st5{fill-rule:evenodd;clip-rule:evenodd;enable-background:new    ;}
</style>
<path class="st0" d="M969.18,342.46c-6.19-14.63-15.4-28.98-27.37-42.66c-11.64-13.31-26.02-26.11-42.72-38.07
	c-16.44-11.76-35.29-22.81-56.03-32.84c-20.66-9.99-43.37-19.05-67.51-26.93c-24.32-7.94-50.3-14.76-77.23-20.27
	c-55.93-11.44-115.32-17.23-176.53-17.23s-120.6,5.8-176.53,17.23c-26.93,5.51-52.91,12.32-77.23,20.27
	c-12.86,4.2-25.31,8.73-37.26,13.56c4.27-7.55,9.05-14.97,13.95-21.96c-0.67,0.31-2.08,1.17-2.73,1.52
	c-23.31,12.15-43.72,27.01-61.03,43.87c-13.15,7.2-25.37,14.83-36.48,22.78c-16.71,11.96-31.08,24.76-42.72,38.07
	c-11.97,13.68-21.18,28.03-27.37,42.66c-6.41,15.13-9.65,30.72-9.65,46.34c0,15.62,3.25,31.21,9.65,46.34
	c6.19,14.63,15.4,28.98,27.37,42.66c11.64,13.31,26.02,26.11,42.72,38.07c2.6,1.86,5.26,3.7,7.98,5.53
	c12.1,17.13,26.71,32.86,43.53,46.75c41.44,34.42,94.27,56.4,150.84,62.38c46.5,4.84,93.45-1.51,136.06-18.18
	c12.87,0.53,25.85,0.79,38.9,0.79c61.2,0,120.6-5.8,176.53-17.23c26.93-5.51,52.91-12.32,77.23-20.27
	c19.63-6.41,38.31-13.6,55.71-21.43c0.49,0.64,1.36,1.08,2.89,1.72c5.45,2.26,19.57,5.1,22.77,5.03
	c17.24-0.39,24.63-9.38,28.19-24.05c0.93-3.84,1.63-8.24,1.98-12.86c4.13-2.69,8.14-5.42,12.01-8.18
	c16.71-11.96,31.08-24.76,42.72-38.07c11.97-13.68,21.18-28.03,27.37-42.66c6.41-15.13,9.65-30.72,9.65-46.34
	C978.83,373.18,975.58,357.59,969.18,342.46z"/>
<path d="M957.44,324c-6.19-14.63-15.4-28.98-27.37-42.66c-11.64-13.31-26.02-26.11-42.72-38.07
	c-16.44-11.76-35.29-22.81-56.03-32.84c-20.66-9.99-43.37-19.05-67.51-26.93c-24.32-7.94-50.3-14.76-77.23-20.27
	C630.65,151.8,571.25,146,510.05,146s-120.6,5.8-176.53,17.23c-26.93,5.51-52.91,12.32-77.23,20.27
	c-12.86,4.2-25.31,8.73-37.26,13.56c4.27-7.55,9.05-14.97,13.95-21.96c-0.67,0.31-2.08,1.17-2.73,1.52
	c-23.31,12.15-43.72,27.01-61.03,43.87c-13.15,7.2-25.37,14.83-36.48,22.78c-16.71,11.96-31.08,24.76-42.72,38.07
	C78.05,295.02,68.84,309.37,62.65,324C56.25,339.13,53,354.72,53,370.34c0,15.62,3.25,31.21,9.65,46.34
	c6.19,14.63,15.4,28.98,27.37,42.66c11.64,13.31,26.02,26.11,42.72,38.07c2.6,1.86,5.26,3.7,7.98,5.53
	c12.1,17.13,26.71,32.86,43.53,46.75c41.44,34.42,94.27,56.4,150.84,62.38c46.5,4.84,93.45-1.51,136.06-18.18
	c12.87,0.53,25.85,0.79,38.9,0.79c61.2,0,120.6-5.8,176.53-17.23c26.93-5.51,52.91-12.32,77.23-20.27
	c16.86-5.51,33.02-11.59,48.27-18.15c0.13,0.22,0.27,0.44,0.43,0.65c1.87,2.61,4.71,3.79,6.41,4.5c6.06,2.52,21.4,5.83,26.47,5.71
	c10.44-0.23,18.85-3.24,24.98-8.93c3.35-3.11,6.04-7.05,8.14-11.91c4.63,6.18,12.6,10.26,21.64,10.26
	c14.31,0,25.91-10.2,25.91-22.78c0-12.58-11.6-22.78-25.91-22.78c-3.67,0-7.16,0.67-10.32,1.88c15.66-11.44,29.19-23.64,40.26-36.28
	c11.97-13.68,21.18-28.03,27.37-42.66c6.41-15.13,9.65-30.72,9.65-46.34C967.1,354.72,963.85,339.13,957.44,324z"/>
<g>
	<path class="st1" d="M894.53,507.32c1.32-0.24,3.24-0.4,5.02-0.4c2.79,0,4.62,0.48,5.89,1.5c0.99,0.78,1.59,2.01,1.59,3.44
		c0,2.36-1.71,3.95-3.81,4.59v0.08c1.53,0.48,2.46,1.77,2.97,3.65c0.66,2.52,1.14,4.27,1.53,4.97h-2.7
		c-0.33-0.51-0.78-2.07-1.32-4.32c-0.6-2.5-1.71-3.44-4.09-3.52h-2.46v7.84h-2.61V507.32z M897.15,515.54h2.67
		c2.79,0,4.56-1.37,4.56-3.44c0-2.33-1.89-3.36-4.66-3.36c-1.26,0-2.13,0.11-2.58,0.21V515.54z"/>
</g>
<g>
	<path class="st1" d="M882.3,516.53c0,8.62,7.85,15.63,17.49,15.63c9.65,0,17.49-7.01,17.49-15.63c0-8.62-7.85-15.63-17.49-15.63
		C890.15,500.89,882.3,507.91,882.3,516.53z M884.69,516.53c0-7.45,6.78-13.5,15.11-13.5c8.33,0,15.11,6.06,15.11,13.5
		c0,7.45-6.78,13.5-15.11,13.5C891.46,530.03,884.69,523.97,884.69,516.53z"/>
</g>
<ellipse class="st2" cx="510.05" cy="370.34" rx="448.77" ry="216.95"/>
<path d="M235.96,168.01c-0.67,0.31-2.08,1.17-2.73,1.52C130.39,223.12,84,329.57,111.07,427.42
	c12.26,44.22,38.74,84.25,76.17,115.17c41.44,34.42,94.27,56.4,150.84,62.38c54.93,5.71,110.48-4.17,158.78-28.26
	c-56.26,1.39-110.93-15.97-153.49-48.45c-26.29-18.75-47.04-42.97-60.44-70.53c-0.98-1.71-1.6-3.56-1.82-5.47
	c0.67-4.71-0.26-9.46-2.62-13.66c-3.14-5.07-6.47-10.04-9.99-14.91c-0.01-0.02-0.02-0.03-0.04-0.05c2-0.46,3.97-1,5.91-1.61
	c2.53-0.75,4.99-1.66,7.38-2.71c5.5-2.21,10.27-5.65,13.84-9.99c2.03-2.75,1.93-6.27-0.01-8.91c-1.06-1.13-2.32-2.08-3.72-2.8
	c-0.62-0.33-1.28-0.61-1.95-0.83c-2.64-0.78-5.32-1.42-8.03-1.93c-7.46-1.09-14.67-3.29-21.33-6.5
	c-6.18-3.43-12.18-8.32-16.95-13.21c-10.01-10.69-18.34-22.45-24.83-34.93c-9.53-18.18-15.48-37.69-17.59-57.67
	c-2.87-26.91,1.86-54.18,13.95-79.23C220.71,191.25,228.19,179.09,235.96,168.01L235.96,168.01z"/>
<path class="st3" d="M166.5,454.5c0,0,0.03-0.01,0.08-0.02c13.82-1.13,26.05-8.44,32.5-19.42c0.04,0.03,0.08,0.08,0.13,0.13
	c10.05,8.8,22.59,14.98,36.28,17.89c9.57,2,19.6,1.76,29.1-0.78c5.54-2.35,9.72-6.85,11.17-12.34c0.04-0.09,0.08-0.18,0.12-0.26
	c0.84,1.56,1.48,3.19,1.94,4.86c1.37,3.74,0.49,7.84-2.34,10.85c-3.57,4.19-9.58,6.56-16.35,7.49c-12.28,1.02-24.65-0.78-35.93-5.24
	c-0.09-0.03-0.14-0.04-0.14-0.04s-0.16,0.84,0,1.49c0,0,0,0.01,0,0.01c17.51,10.36,39.95,11.36,58.53,2.61
	c36.09,66.72,109.21,111.23,191.91,116.79c-0.21,0.1-0.56,0.27-1.01,0.48c-37.78,13.09-78.23,18.92-118.71,17.1
	c-108.49-6.39-201.24-72.15-232.85-165.15c-33.4-96.73,10.5-202.37,108.29-255.79c0.01-0.01,0.02-0.01,0.03-0.02
	c-45.16,62.3-40.22,143.52,12.23,201.08c2.98,3.24,5.92,5.94,9.27,8.4c6.74,5.23,14.78,8.92,23.42,10.78
	c3.43,0.63,6.85,1.28,10.27,1.94c1.8,0.43,3.55,1.01,5.23,1.72c0.94,0.53,1.81,1.17,2.58,1.9c1.16,1.22,1.61,2.89,1.14,4.49
	c-0.16,1.1-0.56,2.17-1.18,3.13c-2.29,2.57-5.19,4.66-8.49,6.1c-10.49,4.87-27.8,7.51-35.66,6.7c-6.4-0.66-15.11-4.04-13.5-9.25
	c0.51-1.64,2.16-3.72,2-4.62c-0.09-0.54-1.39-0.54-2.17,0c-1.69,1.16-3.85,4.82-3.83,6.71c0.02,2.78,1.49,8,1.5,8.05
	c-8.04-0.25-16.04-1.16-23.89-2.71c-2.34-0.49-4.67-0.98-7.01-1.48c-2.42-0.92-4.34-2.66-5.34-4.84c-2.52-4.79-6.43-8.9-11.33-11.89
	c-1.11-0.61-2.07,0.94-0.9,1.45c7.12,4.96,11.59,12.36,12.32,20.41c0.98,5.05-0.4,10.29-3.9,14.45
	c-6.64,7.35-15.47,12.89-25.5,15.97c-0.01,0.03-0.01,0.07-0.01,0.11V454.5L166.5,454.5z"/>
<path d="M178.49,316.36c0.51,11.24-7.42,21.36-19.3,24.82c0,0,0,0,0,0c-0.83,0.26-1.65,0.55-2.46,0.87
	c-0.57,0.4-0.56,1.24,0.12,1.61c0.54,0.26,1.16,0.38,1.78,0.36c11.61,0.07,22.28-5.71,27.58-14.94c0.59-1.07,0.63-2.31,0.14-3.41
	c-2.22-3.34-4.84-6.45-7.82-9.27C178.5,316.37,178.49,316.36,178.49,316.36L178.49,316.36L178.49,316.36z"/>
<path d="M195.48,373.14c7.74,2.54,15.4,5.27,22.97,8.19c0.42,0.18,0.87,0.3,1.33,0.36c0.23-0.02,0.44-0.17,0.48-0.4
	c0.55-1.6-4.4-5.06-6.71-7.07c-3.22-2.81-5.66-7.97-8.51-11.85c-4.12-5.62-10.53-9.79-17.52-12.75c-5.9-2.49-16.51-4.48-19.77,0.22
	c-3.24,4.66-1.73,8.81,1.25,14.98c1.08,2.24,2.5,4.92,2.5,4.92s-3.26,1.21-4,2.76c-0.44,0.91,0,1.94,0,1.94
	C176.48,371.26,186.31,370.85,195.48,373.14L195.48,373.14z"/>
<path class="st1" d="M182.55,350.55c6.56,1.69,13.71,6.57,17.23,10.47c0.78,0.86,3.19,3.77,4.63,6.22c0.95,1.31,1.35,2.88,1.13,4.44
	c0,0.05,0,0.08,0,0.08l-18.52-3.4c0,0,0-0.01,0.01-0.03c-0.23-5.89-3.93-11.22-9.69-14.03c-1.91-0.76-3.7-1.74-5.33-2.92
	c0-0.01,0-0.01,0-0.02c0,0,0,0,0-0.01c-0.14-0.46,0.13-0.93,0.62-1.1C175.91,349.67,179.31,349.78,182.55,350.55L182.55,350.55z"/>
<path class="st1" d="M230.13,433.41c-10.15-0.68-19.87-3.94-28.02-9.4c19.74,4.65,40.41,5.19,60.42,1.57
	c1.55-0.14,3.17-0.03,4.3,0.98c0,0,1.81,2.79,1.84,2.81C256.38,433.48,243.16,434.86,230.13,433.41L230.13,433.41z"/>
<path class="st1" d="M224.55,443.32c0,0,0.08,0.01,0.22,0.02c15.34,2.86,31.22,2.41,46.33-1.33c0.1-0.02,0.17-0.03,0.21-0.03
	c-1.16,3.28-4.01,5.82-7.61,6.88c-13.21,2.95-27.19,1.36-39.15-4.46c0,0,0-0.01,0-0.02C224.45,443.89,224.55,443.32,224.55,443.32
	L224.55,443.32z"/>
<g>
	<polygon class="st0" points="881.79,344.57 308.88,344.57 308.88,383.59 881.79,383.59 881.79,344.57 	"/>
	<polygon class="st4" points="484.98,377.26 467.59,348.26 478.24,348.26 490.55,369.72 502.45,348.26 512.88,348.26 495.52,377.26 
		484.98,377.26 	"/>
	<path class="st4" d="M556.68,377.26H546l-4.21-6.59h-19.44l-4.02,6.59h-10.42l18.9-29h10.46L556.68,377.26L556.68,377.26z
		 M538.64,365.76l-6.73-10.74l-6.56,10.74H538.64L538.64,365.76z"/>
	<polygon class="st4" points="562.21,377.26 562.21,348.5 572.03,348.5 572.03,372.35 596.45,372.35 596.45,377.26 562.21,377.26 	
		"/>
	<polygon class="st4" points="603.71,377.26 603.71,348.5 613.54,348.5 613.54,372.35 637.96,372.35 637.96,377.26 603.71,377.26 	
		"/>
	<polygon class="st4" points="644.96,377.26 644.96,348.26 681.02,348.26 681.02,353.17 654.79,353.17 654.79,359.6 679.21,359.6 
		679.21,364.5 654.79,364.5 654.79,372.35 681.95,372.35 681.95,377.26 644.96,377.26 	"/>
	<polygon class="st4" points="703.04,377.26 703.04,365.05 685.23,348.26 696.74,348.26 708.21,359.75 719.43,348.26 730.74,348.26 
		712.86,365.09 712.86,377.26 703.04,377.26 	"/>
</g>
<g>
	<g>
		<path class="st5" d="M442.94,329.29c0.08,2.16,0.67,2.43,3.38,2.43h28.6c3.46,0,3.82-0.34,3.6-3.43
			c-3.83-53.71-2.5-72.82,0.11-137.42c0.12-3.09-0.25-3.43-3.71-3.43h-54.49c-3.03,0-3.69,0.54-4.15,3.4l-15.68,98.51
			c-0.23,1.43-3.6,1.43-3.84,0l-16.92-98.52c-0.49-2.84-1.17-3.4-4.19-3.4h-54.49c-3.46,0-3.8,0.34-3.42,3.42
			c4.85,39.2,1.92,90.82,0.93,137.43c-0.07,3.09,0.31,3.43,3.77,3.43h28.6c3.09,0,3.43-0.33,3.39-3.32l-0.01-0.58l-0.09-99.12
			l4.52,0.01c0.19,0.45,0.36,1.3,0.74,3.33l18.17,96.39c0.51,2.72,1.27,3.28,4.46,3.28h32.9c2.74,0,3.69-0.42,4.24-2.27
			c0.01-0.03,0.16-0.77,0.42-2.12l19.17-98.49c0.01-0.02,0.01-0.04,0.02-0.06c0.19-0.61,4.13-0.18,4.46-0.11L442.94,329.29
			L442.94,329.29z"/>
		<path class="st0" d="M420.44,183c-1.37,0-4.21,0-6.4,1.8c-1.82,1.49-2.36,3.49-2.67,5.42c0,0-8.96,56.3-12.8,80.42
			c-4.14-24.08-13.82-80.47-13.82-80.47c-0.33-1.91-0.89-3.89-2.72-5.38c-1.94-1.57-4.31-1.78-6.38-1.78h-54.49
			c-1.92,0-4.81,0-6.85,2.03c-2.04,2.03-1.72,4.61-1.51,6.31c3.87,31.28,2.73,70.9,1.63,109.21c-0.26,9.13-0.53,18.57-0.73,27.65
			c-0.04,1.66-0.09,4.18,1.98,6.07c2.07,1.89,4.89,1.89,6.75,1.89h28.6c1.63,0,4.34,0,6.36-1.82c1.83-1.65,2-3.82,2-5.44
			c0-0.19,0-0.37,0-0.54c0,0-0.01-0.52-0.01-0.56c0-0.03-0.04-41.53-0.07-70.48c5.14,27.27,13.55,71.87,13.55,71.87
			c0.34,1.82,0.96,3.88,2.97,5.35c1.95,1.43,4.22,1.63,6.39,1.63h32.9c2.02,0,7.39,0,9.04-5.57c0.07-0.22,0.07-0.22,0.51-2.49
			c0,0,8.04-41.33,13.64-70.1c-0.15,29.45-0.35,71.35-0.35,71.35l0,0.08c0.04,1.01,0.13,3.7,2.66,5.42c1.78,1.2,3.78,1.3,5.68,1.3
			h28.6c1.89,0,4.74,0,6.8-1.96c2.06-1.96,1.87-4.51,1.75-6.19c-3.5-49.01-2.68-68.81-0.51-121.73l0.62-15.25
			c0.07-1.67,0.17-4.2-1.9-6.12c-2.07-1.91-4.9-1.91-6.77-1.91H420.44z M473.62,191.88c-0.15,3.56-0.57,14.08-0.57,14.08
			c-1.12,27.31-1.88,45.85-1.88,64.1c0,17.03,0.66,33.81,2.32,57.23c-2.46,0-22.87,0-25.56,0c0.02-3.9,0.51-102.17,0.51-102.17
			l-3.91-0.78c-0.61-0.12-2.03-0.26-3.15-0.3c-0.89-0.03-1.63-0.02-2.27,0.05c-3.69,0.41-4.69,2.8-4.91,3.53
			c0,0.01-0.08,0.28-0.08,0.28l-0.04,0.19l-19.17,98.49c0,0-0.06,0.32-0.14,0.71c-0.72,0-31.49,0-32.18,0
			c-0.16-0.84-18.09-95.97-18.09-95.97c-0.44-2.34-0.64-3.3-0.98-4.13l-1.19-2.9l-12.96-0.04c0,0,0.1,101.98,0.1,103.04
			c-2.7,0-23.69,0-25.8,0c0.19-8.71,0.45-17.75,0.7-26.5c0.53-18.25,1.06-36.79,1.06-54.64c0-19.32-0.63-37.83-2.57-54.27
			c3.14,0,50.9,0,52.14,0c0.13,0.73,16.86,98.15,16.86,98.15c0.49,2.87,3.32,4.85,6.88,4.84c3.54-0.02,6.33-2.03,6.79-4.89
			c0,0,15.48-97.28,15.61-98.1C422.48,191.88,471.17,191.88,473.62,191.88z"/>
	</g>
	<g>
		<path class="st5" d="M819.17,331.72h40.16c3.46,0,3.81-0.34,3.54-3.43c-3.6-40.23-3.76-96.23-0.01-136.29
			c0.29-3.08-0.06-3.42-3.52-3.42h-29.47c-3.46,0-3.82,0.34-3.59,3.43c1.85,24.74,5.4,70.4,5.05,79.16l-5.51,3.84
			c-0.03-0.04-0.07-0.08-0.1-0.12c-0.3-0.38-0.44-0.75-1.33-3.74l-23.87-79.38c-0.76-2.52-1.7-3.19-4.49-3.19h-40.47
			c-3.46,0-3.83,0.34-3.66,3.43c3.29,59.86,3.05,73.9-0.02,136.27c-0.15,3.09,0.22,3.43,3.68,3.43h29.47c3.46,0,3.83-0.34,3.69-3.43
			c-0.74-16.52-1.65-40.02-2.77-55.87c-0.58-8.56-1.6-17.1-3.06-25.58l4.53-2.75c0.03,0.06,0.07,0.13,0.1,0.21
			c9.49,27.87,18.42,55.9,26.79,84.06c0.01,0.02,0.01,0.04,0.02,0.06C815.22,331.39,815.71,331.72,819.17,331.72L819.17,331.72z"/>
		<path class="st0" d="M829.85,184.15c-1.89,0-4.75,0-6.8,1.96c-1.51,1.45-1.81,3.21-1.81,4.71c0,0.54,0.04,1.04,0.07,1.48
			c0,0,0.6,8,0.6,8c1.39,18.53,3.32,44.04,4.1,59.21c-4.75-15.78-20.72-68.9-20.72-68.9c-1.35-4.48-4.21-6.47-9.29-6.47h-40.47
			c-1.88,0-4.72,0-6.79,1.94c-2.06,1.94-1.92,4.47-1.83,6.15c3.28,59.58,3.03,73.87-0.02,135.86c-0.08,1.68-0.21,4.21,1.86,6.14
			c2.06,1.93,4.9,1.93,6.78,1.93h29.47c1.88,0,4.71,0,6.77-1.92c1.65-1.53,1.91-3.45,1.91-5.02c0-0.4-0.02-0.77-0.03-1.11
			l-0.44-10.16c-0.67-15.44-1.43-32.94-2.33-45.81c-0.06-0.94-0.14-1.89-0.21-2.83c6.56,20,12.87,40.16,18.81,60.18l0.03,0.11
			c0.59,1.93,1.29,3.78,3.25,5.12c1.96,1.34,4.14,1.45,6.4,1.45h40.16c1.9,0,4.77,0,6.82-1.98c2.05-1.98,1.82-4.54,1.67-6.23
			c-3.66-40.8-3.66-96.54-0.01-135.56c0.16-1.69,0.4-4.25-1.65-6.24c-2.05-1.99-4.92-1.99-6.82-1.99H829.85z M857.78,193.02
			c-1.76,19.43-2.64,42.79-2.64,66.37c0,23.67,0.89,47.54,2.66,67.89c-2.83,0-38.63,0-38.63,0c-0.02,0-0.04,0-0.06,0
			c-0.01-0.02-0.03-0.09-0.03-0.1c-8.34-28.07-17.36-56.39-26.83-84.19l-0.08-0.24l-2.63-5.4l-4.93,3.06l-7.11,4.33l0.48,2.77
			c1.43,8.31,2.44,16.78,3.01,25.18c0.9,12.77,1.65,30.22,2.32,45.61c0,0,0.31,7.15,0.39,8.99c-2.3,0-24.47,0-26.8,0
			c1.53-31.12,2.34-50.21,2.34-69.24c0-18.21-0.74-36.39-2.31-65.02c2.54,0,38.31,0,38.82,0c0.06,0.19,23.85,79.28,23.85,79.28
			c0.99,3.31,1.23,4.09,2.09,5.16c0,0,3.23,3.91,3.23,3.91l3.96-2.87l7.33-5.11l0.08-2.07c0.02-0.45,0.03-0.98,0.03-1.59
			c0-10.53-2.57-44.7-4.48-70.02c0,0-0.37-4.86-0.5-6.69C833.82,193.02,855.14,193.02,857.78,193.02z M821.66,277.46
			C821.66,277.46,821.66,277.46,821.66,277.46C821.66,277.46,821.66,277.46,821.66,277.46z"/>
	</g>
	<g>
		<path class="st5" d="M494.15,236.61c0.04-10.5,3-25.7,7.25-33.03c10.19-17.54,40.44-18.66,66.68-16.14
			c36.57,3.5,39.97,20.65,41.39,56.11c0.74,18.44,3.97,56.06-9.61,73.29c-17.29,21.94-74.94,23.95-93.54,2.29
			C490.54,300.74,494.07,257.72,494.15,236.61L494.15,236.61z M565.9,230.15c-0.14-4.5-2.78-14.11-5.77-17.52
			c-5.33-6.1-13.16-3.74-17.94,2.29c-9.63,12.14-6.26,55.59-5.77,61.51c0.57,6.81,2.32,24.28,7.05,30.09
			c6.73,8.26,15.52,4.8,19.22-4.58C568.63,286.89,566.09,236.25,565.9,230.15L565.9,230.15z"/>
		<path class="st0" d="M527.75,183.64c-15.07,2.68-25.42,8.71-30.76,17.9c-4.84,8.33-7.77,24.36-7.81,35.06l0,0
			c-0.01,2.83-0.09,6.13-0.17,9.63c-0.26,11.5-0.59,25.81,0.88,39.46c1.79,16.63,5.88,28.45,12.48,36.15
			c4.91,5.72,12.48,10.29,21.9,13.22c8.47,2.63,18.29,3.93,28.4,3.74c10.41-0.19,20.54-1.92,29.28-5.01
			c9.63-3.41,17.23-8.38,21.96-14.39c5.97-7.57,9.5-18.91,10.8-34.66c1.06-12.81,0.42-26.17-0.05-35.93l-0.25-5.41
			c-0.67-16.82-1.75-31.59-8.12-42.01c-3.35-5.47-7.98-9.59-14.17-12.59c-6.09-2.95-13.79-4.84-23.53-5.77
			C552.46,181.48,538.71,181.69,527.75,183.64z M510.26,316.42c-5.36-6.24-8.88-16.87-10.47-31.6c-1.42-13.13-1.1-27.15-0.84-38.42
			c0.08-3.53,0.16-6.87,0.17-9.78l0,0c0.04-10.62,3.11-24.82,6.69-31c2.02-3.48,5.03-6.27,9.19-8.53c3.92-2.12,8.86-3.72,14.69-4.76
			c9.98-1.78,22.71-1.94,37.86-0.49c16.1,1.54,25.08,5.66,30.05,13.79c4.84,7.92,6.16,19.49,6.91,38.07l0.25,5.47
			c0.46,9.54,1.08,22.6,0.06,34.89c-1.15,13.91-4.19,24.07-9.02,30.21c-3.62,4.59-9.67,8.48-17.5,11.24
			c-7.65,2.71-16.58,4.23-25.83,4.39C533.87,330.26,517.7,325.09,510.26,316.42z"/>
		<path class="st0" d="M552.43,204.63c-5.28,0.11-10.48,2.93-14.29,7.73c-4.7,5.92-7.18,17.56-7.59,35.56
			c-0.29,12.53,0.55,24.35,0.92,28.84c0.49,5.93,1.17,11.25,2.01,15.82c1.49,8.03,3.44,13.45,5.97,16.56
			c5.27,6.47,11.17,6.77,14.21,6.37c5.9-0.77,11.03-5.29,13.71-12.09c2.78-7.04,4.17-21.56,4.17-43.29c0-8.25-0.2-17.53-0.6-27.84
			c0,0-0.08-2.26-0.08-2.26c-0.16-5.09-2.96-15.71-6.82-20.13C561,206.41,556.87,204.54,552.43,204.63z M547.49,303.92
			c-0.99-1.22-4.37-6.83-6.11-27.81c-1.96-23.65-1.22-50.95,4.87-58.62c1.91-2.41,4.37-3.94,6.42-3.98c0.47-0.01,1.9-0.04,3.56,1.86
			c2.09,2.39,4.59,10.93,4.72,14.91l0,0.01l0-0.01l0.09,2.33c1.77,45.3-0.66,61.92-3.01,67.87c-1.58,4.01-4.04,6.03-5.78,6.26
			C550.31,306.98,548.44,305.08,547.49,303.92z M570.86,230.03L570.86,230.03L570.86,230.03L570.86,230.03z"/>
	</g>
	<g>
		<path class="st5" d="M621.66,236.61c0.04-10.5,3-25.7,7.25-33.03c10.19-17.54,40.44-18.66,66.68-16.14
			c36.57,3.5,39.97,20.65,41.39,56.11c0.74,18.44,3.97,56.06-9.61,73.29c-17.29,21.94-74.94,23.95-93.54,2.29
			C618.05,300.74,621.58,257.72,621.66,236.61L621.66,236.61z M693.42,230.15c-0.14-4.5-2.78-14.11-5.77-17.52
			c-5.33-6.1-13.16-3.74-17.94,2.29c-9.63,12.14-6.26,55.59-5.77,61.51c0.56,6.81,2.32,24.28,7.05,30.09
			c6.73,8.26,15.52,4.8,19.22-4.58C696.15,286.89,693.6,236.25,693.42,230.15L693.42,230.15z"/>
		<path class="st0" d="M655.26,183.64c-15.07,2.68-25.42,8.71-30.76,17.9c-4.84,8.33-7.77,24.36-7.81,35.06v0
			c-0.01,2.83-0.09,6.13-0.17,9.63c-0.26,11.5-0.59,25.81,0.88,39.46c1.8,16.63,5.88,28.46,12.48,36.15
			c4.91,5.72,12.48,10.29,21.9,13.22c8.47,2.63,18.29,3.93,28.4,3.74c10.41-0.19,20.54-1.92,29.28-5.01
			c9.63-3.41,17.23-8.38,21.96-14.39c5.97-7.57,9.5-18.91,10.8-34.66c1.06-12.81,0.42-26.17-0.05-35.93l-0.25-5.41
			c-0.67-16.82-1.75-31.59-8.12-42.01c-3.35-5.47-7.98-9.59-14.17-12.59c-6.09-2.95-13.79-4.84-23.53-5.77
			C679.97,181.48,666.23,181.69,655.26,183.64z M637.77,316.42c-5.36-6.24-8.88-16.88-10.47-31.6c-1.42-13.13-1.1-27.15-0.84-38.42
			c0.08-3.53,0.16-6.87,0.17-9.78v0c0.04-10.62,3.11-24.82,6.69-31c2.02-3.48,5.03-6.27,9.19-8.53c3.92-2.12,8.86-3.72,14.69-4.76
			c9.98-1.78,22.71-1.94,37.86-0.49c16.1,1.54,25.08,5.66,30.05,13.79c4.84,7.92,6.16,19.49,6.91,38.07l0.25,5.47
			c0.46,9.54,1.08,22.6,0.06,34.89c-1.15,13.91-4.19,24.07-9.02,30.21c-3.62,4.59-9.67,8.48-17.5,11.24
			c-7.65,2.71-16.58,4.23-25.83,4.39C661.39,330.26,645.21,325.09,637.77,316.42z"/>
		<path class="st0" d="M679.95,204.63c-5.28,0.11-10.48,2.93-14.29,7.73c-4.7,5.92-7.18,17.56-7.59,35.56
			c-0.29,12.53,0.55,24.35,0.92,28.84c1.38,16.68,4.07,27.57,7.98,32.38c5.27,6.47,11.17,6.77,14.21,6.37
			c5.9-0.77,11.03-5.29,13.71-12.09c3.83-9.72,5.03-33.65,3.57-71.13l-0.08-2.26c-0.16-5.09-2.96-15.71-6.82-20.13
			C688.51,206.41,684.39,204.54,679.95,204.63z M675.01,303.92c-0.99-1.22-4.37-6.83-6.11-27.81c-1.96-23.65-1.22-50.95,4.87-58.62
			c1.91-2.41,4.37-3.94,6.42-3.98c0.47-0.01,1.9-0.04,3.56,1.86c2.09,2.39,4.59,10.93,4.72,14.91l0,0.01l0-0.01l0.09,2.33
			c1.77,45.3-0.66,61.91-3.01,67.87c-1.58,4.01-4.04,6.03-5.78,6.26C677.82,306.98,675.95,305.08,675.01,303.92z"/>
	</g>
</g>
<g>
	<g>
		<path class="st5" d="M354.48,539.06h21.03c2.99,0,3.32-0.34,3.29-3.44l-1.22-132.83c-0.03-3.08-0.43-3.44-3.88-3.44h-11.53
			c-3.46,0-3.83,0.33-3.74,3.29l2.36,76.86c0.02,0.74,0.04,1.32,0.04,1.77l-3.36,1.27c-1.95-4.98-9.8-54.12-13.96-79.8
			c-0.5-3.06-0.94-3.4-4.4-3.4h-20.5c-3.46,0-3.82,0.34-3.58,3.43c3.25,42.26,1.35,83.96-0.16,132.84c-0.1,3.09,0.28,3.43,3.74,3.43
			h14.77c2.85,0,3.15-0.33,3.01-3.29l-3.53-76.87c-0.05-1.03-0.08-1.75-0.08-2.26l3.11-1.18c0,0,0.01,0.01,0.01,0.01
			c0.04,0.03,0.09,0.1,0.15,0.21c6.08,26.09,11.07,52.38,14.94,78.81c0.05,0.71,0.05,1.41-0.04,2.13
			C350.67,538.82,351.02,539.06,354.48,539.06L354.48,539.06z"/>
		<path class="st0" d="M362.17,394.93c-1.88,0-4.72,0-6.78,1.9c-1.71,1.57-1.94,3.54-1.94,5.1c0,0.31,0.01,0.59,0.02,0.86
			c0,0,0.57,18.66,1.14,37.29c-1.86-11.19-3.68-22.41-4.98-30.44l-1.21-7.5c-0.25-1.57-0.64-3.93-2.75-5.57
			c-2.11-1.63-4.79-1.63-6.56-1.63h-20.5c-1.89,0-4.75,0-6.81,1.97c-2.05,1.97-1.86,4.52-1.73,6.2c2.88,37.54,1.7,74.36,0.32,117
			l-0.49,15.42c-0.05,1.67-0.13,4.19,1.94,6.09c2.07,1.9,4.89,1.9,6.76,1.9h14.77c1.56,0,4.17,0,6.15-1.84
			c1.6-1.49,1.86-3.32,1.86-4.89c0-0.41-0.02-0.81-0.04-1.18c0,0-0.91-19.69-1.81-39.37c2.43,12.88,4.61,25.8,6.5,38.67
			c0.01,0.18,0.02,0.36,0.02,0.52c0,0.26-0.01,0.49-0.04,0.71c-0.05,0.36-0.11,0.86-0.11,1.42c0,1.18,0.28,2.68,1.57,3.97
			c1.99,1.99,4.77,1.99,7.01,1.99h21.03c1.58,0,4.23,0,6.24-1.81c2.05-1.85,2.03-4.31,2.02-6.1l-1.22-132.83
			c-0.02-1.65-0.04-4.14-2.12-5.99c-2.09-1.85-4.87-1.85-6.72-1.85H362.17z M372.62,403.8c0.02,1.89,1.18,128.8,1.2,130.83
			c-2.64,0-15.52,0-17.86,0c-0.01-0.14-0.01-0.27-0.02-0.42l-0.01-0.15l-0.02-0.15c-3.88-26.43-8.92-53.05-15-79.14l-0.11-0.47
			l-0.22-0.44c-0.38-0.75-0.87-1.35-1.52-1.82l-2.33-1.72l-2.79,1.05l-6.15,2.34l0.02,2.95c0,0.59,0.03,1.36,0.08,2.42
			c0,0,3.36,72.97,3.47,75.54c-2.7,0-9.71,0-11.5,0c0.11-3.54,0.45-14.28,0.45-14.28c0.76-23.47,1.46-45.18,1.46-66.26
			c0-16.98-0.46-33.55-1.7-50.28c2.47,0,17.78,0,18.58,0c0.25,1.55,1.15,7.09,1.15,7.09c6.04,37.31,11.19,68.57,12.98,73.14
			l1.75,4.46l11.34-4.28l-0.12-4.81c0,0-2.24-73.15-2.32-75.6C365.22,403.8,371.06,403.8,372.62,403.8z"/>
	</g>
	<g>
		<path class="st5" d="M450.62,507l1.2-104.31c0.03-3-0.35-3.33-3.81-3.33h-16.66c-3.46,0-3.84,0.33-3.8,3.32l1.2,97.47
			c0.04,3.09,0,3.63-0.35,5.4c-1.19,5.9-6.22,8.63-10.29,7.17c-1.74-0.62-4.23-3.43-5.27-7.51c-0.63-2.5-0.71-3.12-0.71-6.21v-96.33
			c0-2.99-0.38-3.32-3.84-3.32h-15.38c-3.46,0-3.84,0.33-3.77,3.33l2.41,109.46c0.07,3.09,0.13,3.78,0.65,6.84
			c2.56,15.06,10.7,21.91,25.05,23.5c19.67,2.18,30.18-9.21,32.85-28.64C450.54,510.78,450.59,510.09,450.62,507L450.62,507z"/>
		<path class="st0" d="M431.36,394.93c-1.87,0-4.69,0-6.76,1.87c-2.06,1.86-2.03,4.31-2.01,5.94l1.2,97.47
			c0.04,3.01,0,3.22-0.28,4.56c-0.36,1.76-1.24,3.14-2.37,3.7c-0.38,0.19-0.73,0.23-1.04,0.17c-0.48-0.4-1.76-1.83-2.42-4.39
			c-0.53-2.1-0.58-2.37-0.58-5.23c0,0,0-96.33,0-96.33c0-1.64,0-4.12-2.14-5.97c-2.07-1.79-4.84-1.79-6.67-1.79h-15.38
			c-1.87,0-4.7,0-6.77,1.89c-2.06,1.88-2,4.34-1.97,5.97l2.41,109.46c0.07,3.27,0.16,4.17,0.71,7.42
			c1.43,8.43,4.53,14.73,9.46,19.24c4.85,4.44,11.36,7.06,19.88,8c9.52,1.06,17.59-0.67,23.98-5.12
			c7.81-5.45,12.66-14.66,14.4-27.39c0.45-3.25,0.51-4.08,0.55-7.35v0l1.2-104.31c0.02-1.63,0.05-4.08-2.01-5.94
			c-2.07-1.87-4.89-1.87-6.76-1.87H431.36z M446.85,403.8c-0.03,2.26-1.19,103.16-1.19,103.16c-0.03,2.92-0.07,3.45-0.47,6.36
			c-1.39,10.16-5.08,17.58-10.66,21.47c-4.24,2.95-9.84,4.07-16.65,3.31c-12.59-1.4-18.61-7.12-20.75-19.76
			c-0.49-2.89-0.54-3.36-0.6-6.26c0,0-2.34-105.94-2.39-108.27c1.9,0,11.27,0,13.03,0c0,2.18,0,95.21,0,95.21
			c0,3.42,0.11,4.36,0.83,7.19c1.28,5.05,4.6,9.33,8.26,10.64c3.11,1.11,6.64,0.89,9.69-0.61c3.77-1.86,6.44-5.47,7.34-9.89
			c0.36-1.76,0.45-2.68,0.45-4.66c0-0.46,0-0.98-0.01-1.57c0,0-1.16-94.03-1.18-96.31C434.42,403.8,444.97,403.8,446.85,403.8z"/>
	</g>
	<g>
		<path class="st5" d="M553.09,501.13v-4.48c0-2.02-0.38-2.24-3.84-2.24h-11.53c-3.46,0-3.84,0.32-3.84,3.15v35.03
			c0,3.09,0.35,3.58,3.5,4.89c5.45,2.26,19.57,5.1,22.77,5.03c17.24-0.39,24.63-9.38,28.19-24.05c3.66-15.09,3.69-38.79-6.41-50.38
			c-5.5-6.31-15.13-12-21.14-18.32c-6.54-6.87-10.5-15.34-5.77-22.9c2.36-3.76,7.55-5.49,10.25-2.29c2.22,2.63,4.11,9.51,3.59,13.29
			c-0.35,2.47,0,2.75,3.46,2.75h11.07c2.72,0,3.02-0.31,3.02-3.12v-30.48c0-3.09-0.34-3.6-3.38-5.1
			c-10.47-5.15-23.02-6.06-31.21-3.1c-17.78,6.43-20.35,27.47-19.22,46.61c0.98,16.64,3.9,25.94,17.7,36.13
			c11.17,8.24,22.34,15.17,18.17,28.54c-1.22,3.93-4.89,8.63-10.69,6.09c-2.14-0.94-4.11-5.49-4.43-8.86
			C553.11,504.76,553.09,504.15,553.09,501.13L553.09,501.13z"/>
		<path class="st0" d="M549.94,394.68c-9.54,3.45-16.14,10.66-19.61,21.42c-2.53,7.86-3.42,17.52-2.71,29.53
			c0.43,7.3,1.26,15.01,4.4,21.92c2.91,6.42,7.71,11.95,15.1,17.4l2.33,1.71c11,8.03,17.08,13.02,14.22,22.22
			c-0.58,1.87-1.7,3.21-2.45,3.51c-0.1,0.04-0.33,0.13-0.94-0.08c-0.64-0.75-1.78-3.13-1.99-5.38c-0.23-2.41-0.25-2.9-0.25-5.8
			v-4.48c0-1.07,0-3.92-2.88-5.59c-1.72-1-3.63-1.08-5.93-1.08h-11.53c-1.91,0-4.53,0-6.58,1.68c-2.23,1.83-2.23,4.38-2.23,5.91
			v35.03c0,1.91,0.1,3.76,1.35,5.5c1.24,1.74,3.08,2.6,5.02,3.41c5.92,2.46,20.8,5.53,24.99,5.44
			c23.64-0.53,30.11-15.97,32.92-27.54c1.55-6.37,2.36-13.58,2.36-20.57c0-2.45-0.1-4.87-0.3-7.22c-0.67-7.84-2.85-18.75-9.4-26.26
			c-3.19-3.66-7.49-7.02-11.65-10.26c-3.61-2.81-7.02-5.47-9.62-8.21c-3.07-3.23-5.18-6.51-6.11-9.5c-0.37-1.19-0.56-2.33-0.56-3.42
			c0-1.76,0.48-3.39,1.45-4.93c0.65-1.04,1.58-1.54,2.05-1.66c1.21,1.57,2.59,6.14,2.59,9.02c0,0.33-0.02,0.64-0.06,0.92
			c-0.06,0.45-0.15,1.04-0.15,1.69c0,1.24,0.29,2.73,1.56,4.01c2,2.03,4.87,2.03,6.97,2.03h11.07c1.51,0,4.31,0,6.28-2.04
			c1.7-1.76,1.7-3.93,1.7-5.52v-30.48c0-1.86-0.1-3.68-1.24-5.41c-1.14-1.73-2.88-2.68-4.71-3.58c-5.62-2.77-11.96-4.54-18.35-5.12
			C560.72,392.3,554.8,392.92,549.94,394.68z M565.29,520.49c3.64-1.46,6.61-4.91,7.95-9.22c2.16-6.93,1.09-13.12-3.26-18.92
			c-3.57-4.76-8.75-8.55-14.24-12.55l-2.29-1.68c-12.57-9.27-14.98-17.31-15.91-32.94c-0.65-11.01,0.11-19.71,2.33-26.6
			c2.62-8.12,7.13-13.24,13.79-15.65c7.17-2.59,18.25-1.41,26.95,2.87c0.35,0.17,0.61,0.31,0.8,0.41c0.01,0.19,0.01,0.45,0.01,0.81
			c0,0,0,26.74,0,29.16c-2.18,0-5.69,0-7.54,0c-0.08-4.84-2.07-11.19-4.67-14.27c-2-2.37-5.04-3.62-8.33-3.42
			c-4.06,0.25-7.97,2.63-10.21,6.21c-2.83,4.52-3.45,9.73-1.8,15.06c1.33,4.29,4.06,8.62,8.11,12.88c3.08,3.24,6.93,6.24,10.66,9.15
			c3.98,3.1,7.74,6.04,10.35,9.03c3.98,4.57,6.51,12,7.33,21.49c0.71,8.24,0.03,17.43-1.86,25.23c-1.71,7.04-4.22,12.02-7.69,15.24
			c-3.68,3.42-8.84,5.15-15.77,5.31c-2.4,0.03-15.76-2.63-20.55-4.62c-0.25-0.11-0.45-0.19-0.62-0.26c0-0.16-0.01-0.36-0.01-0.6
			c0,0,0-31.35,0-33.74c1.63,0,7.66,0,9.29,0c0,1.14,0,2.28,0,2.28c0,3.15,0.03,3.88,0.28,6.54c0.25,2.71,2.04,10.22,7.19,12.48
			C559.75,521.97,563.17,521.34,565.29,520.49z"/>
	</g>
	<g>
		<path class="st5" d="M646.62,425.7v-23.3c0-2.74-0.35-3.04-3.53-3.04h-40.03c-3.46,0-3.84,0.34-3.77,3.43
			c0.79,37.31,2.39,102.58,1.21,111.93c-0.03,0.26-0.07,0.54-0.11,0.82c0.31,6.34-0.2,12.69-1.52,18.93
			c0.02,0.38,0.04,0.76,0.07,1.14c0.24,3.09,0.66,3.44,4.12,3.44h40.03c3.18,0,3.53-0.34,3.53-3.44v-21.76
			c0-3.09-0.38-3.44-3.84-3.44h-16.66c-3.46,0-3.84-0.34-3.84-3.44v-21.76c0-3.09,0.38-3.44,3.84-3.44h15.38
			c3.46,0,3.84-0.34,3.84-3.44v-20.61c0-3.09-0.38-3.44-3.84-3.44h-15.38c-3.46,0-3.84-0.34-3.84-3.44v-19.47
			c0-3.09,0.32-3.42,3.23-3.28c0,0,11.98-0.25,20.25,1.4C646.91,430.77,646.62,428.79,646.62,425.7L646.62,425.7z"/>
		<path class="st0" d="M603.06,394.93c-1.86,0-4.68,0-6.75,1.89c-2.07,1.89-2.02,4.4-1.98,6.07l0.3,14.03
			c0.77,35.58,1.94,89.36,0.94,97.33l-0.15,1.14l0.01,0.38c0.3,5.99-0.19,12.02-1.44,17.91l-0.11,0.54l0.11,1.74
			c0.13,1.62,0.32,4.06,2.42,5.81c2.1,1.75,4.84,1.75,6.65,1.75h40.03c1.71,0,4.56,0,6.61-1.99c1.88-1.83,1.88-4.17,1.88-5.88
			v-21.76c0-1.66,0-4.16-2.08-6.01c-2.08-1.86-4.88-1.86-6.73-1.86c0,0-13.59,0-15.54,0c0-1.74,0-18.02,0-19.75
			c1.93,0,14.25,0,14.25,0c1.85,0,4.65,0,6.73-1.86c2.08-1.86,2.08-4.36,2.08-6.01v-20.61c0-1.66,0-4.16-2.08-6.01
			c-2.08-1.86-4.88-1.86-6.73-1.86c0,0-12.33,0-14.25,0c0-1.69,0-15.41,0-17.32c3.22,0,10.6,0.12,16.35,1.1
			c1.97,1.06,3.86,0.6,4.5,0.39c1.21-0.4,3.28-1.54,3.5-4.67c0.05-0.63,0.03-1.36,0.02-2.2l-0.02-1.49v-23.3c0-1.47,0-3.94-2.1-5.74
			c-2.02-1.73-4.66-1.73-6.4-1.73H603.06z M641.66,403.8c0,2.33,0,18.49,0,20.62c-7.22-0.82-14.77-0.74-16.08-0.72
			c-1.59-0.07-4.11-0.12-6.12,1.58c-2.15,1.82-2.15,4.32-2.15,6.14v19.47c0,1.66,0,4.16,2.08,6.01c2.08,1.86,4.88,1.86,6.73,1.86
			c0,0,12.33,0,14.25,0c0,1.72,0,16.89,0,18.61c-1.93,0-14.25,0-14.25,0c-1.85,0-4.65,0-6.73,1.86c-2.08,1.86-2.08,4.36-2.08,6.01
			V507c0,1.66,0,4.16,2.08,6.01c2.08,1.86,4.88,1.86,6.73,1.86c0,0,13.58,0,15.54,0c0,1.74,0,18.02,0,19.75c-2.61,0-36.25,0-37.77,0
			c1.03-5.1,1.56-10.28,1.56-15.45c0-1.14-0.03-2.29-0.08-3.43c0.03-0.25,0.07-0.52,0.07-0.52c0.32-2.54,0.45-8.52,0.45-17.09
			c0-18.16-0.6-47.98-1.33-81.4c0,0-0.24-11.09-0.28-12.93C606.48,403.8,639.08,403.8,641.66,403.8z"/>
	</g>
	<g>
		<path class="st5" d="M726.22,402.63c2.09,44.28,2.11,88.61,0.06,132.89c0,0.04,0,0.08-0.01,0.12c-0.19,3.09,0.17,3.43,3.63,3.43
			l19.73-0.17c2.94,0,3.25-0.08,3.22-3.17c0,0,0,0,0-0.21c-2.23-44.6-2.15-89.28,0.23-133.87c0.39-2.23-1.83-2.07-4.3-2.07
			l-18.87-0.2C726.51,399.36,726.1,399.69,726.22,402.63L726.22,402.63z"/>
		<path class="st0" d="M729.91,394.93c-1.87,0-4.7,0-6.77,1.91c-1.66,1.54-1.91,3.5-1.91,4.99c0,0.35,0.01,0.67,0.03,0.96l0,0.02
			c1.05,22.21,1.57,44.59,1.57,66.96c0,21.9-0.5,43.8-1.51,65.55c0,0.03-0.01,0.09-0.01,0.09c-0.02,0.4-0.05,0.84-0.05,1.32
			c0,1.53,0.28,3.35,1.85,4.84c2.06,1.94,4.91,1.94,6.79,1.94c0,0,19.71-0.17,19.75-0.17c1.92,0,4.3-0.01,6.21-1.73
			c1.8-1.62,1.95-3.74,1.95-5.42c0-0.16,0-0.32,0-0.47c0-0.02,0-0.3,0-0.3l0-0.09c-1.07-21.41-1.6-42.97-1.6-64.54
			c0-22.99,0.61-45.99,1.82-68.83c0.03-0.28,0.06-0.54,0.06-0.8c0-1.82-0.8-3.08-1.55-3.86c-2.11-2.19-5.12-2.18-7.32-2.17
			c0,0-0.37,0-0.42,0c-0.07,0-18.87-0.2-18.87-0.2H729.91z M732.76,469.77c0-22.03-0.51-44.07-1.52-65.95
			c2.29,0.02,15.5,0.17,16.75,0.18c-1.14,22.16-1.71,44.47-1.71,66.78c0,21.28,0.52,42.55,1.56,63.69
			c-2.68,0.02-14.32,0.13-16.54,0.14C732.27,513.1,732.76,491.43,732.76,469.77z"/>
	</g>
	<g>
		<path class="st5" d="M809.33,425.7v-23.3c0-2.74-0.35-3.04-3.53-3.04h-40.03c-3.46,0-3.84,0.34-3.77,3.43
			c0.79,37.31,2.39,102.58,1.21,111.93c-0.03,0.26-0.07,0.54-0.11,0.82c0.31,6.34-0.2,12.69-1.52,18.93
			c0.02,0.38,0.04,0.76,0.07,1.14c0.24,3.09,0.66,3.44,4.12,3.44h40.03c3.18,0,3.53-0.34,3.53-3.44v-21.76
			c0-3.09-0.38-3.44-3.84-3.44h-16.66c-3.46,0-3.84-0.34-3.84-3.44v-21.76c0-3.09,0.38-3.44,3.84-3.44h15.38
			c3.46,0,3.84-0.34,3.84-3.44v-20.61c0-3.09-0.38-3.44-3.84-3.44h-15.38c-3.46,0-3.84-0.34-3.84-3.44v-19.47
			c0-3.09,0.32-3.42,3.23-3.28c0,0,11.98-0.25,20.25,1.4C809.62,430.77,809.33,428.79,809.33,425.7L809.33,425.7z"/>
		<path class="st0" d="M765.77,394.93c-1.86,0-4.68,0-6.75,1.89c-2.07,1.89-2.02,4.4-1.98,6.07l0.3,14.02
			c0.77,35.59,1.94,89.37,0.94,97.34l-0.15,1.14l0.02,0.38c0.3,5.99-0.19,12.02-1.44,17.91l-0.11,0.54l0.11,1.74
			c0.13,1.62,0.32,4.06,2.42,5.81c2.1,1.75,4.84,1.75,6.65,1.75h40.03c1.71,0,4.56,0,6.61-1.99c1.88-1.83,1.88-4.17,1.88-5.88
			v-21.76c0-1.66,0-4.16-2.08-6.01c-2.08-1.86-4.88-1.86-6.73-1.86c0,0-13.58,0-15.54,0c0-1.74,0-18.02,0-19.75
			c1.93,0,14.25,0,14.25,0c1.85,0,4.65,0,6.73-1.86c2.08-1.86,2.08-4.36,2.08-6.01v-20.61c0-1.66,0-4.16-2.08-6.01
			c-2.08-1.86-4.88-1.86-6.73-1.86c0,0-12.33,0-14.25,0c0-1.69,0-15.41,0-17.32c3.22,0,10.6,0.12,16.35,1.1
			c1.97,1.06,3.86,0.6,4.5,0.39c1.21-0.4,3.28-1.54,3.5-4.67c0.05-0.63,0.03-1.36,0.02-2.2l-0.02-1.49v-23.3c0-1.47,0-3.94-2.1-5.74
			c-2.02-1.73-4.66-1.73-6.4-1.73H765.77z M804.37,403.8c0,2.33,0,18.49,0,20.62c-7.22-0.82-14.77-0.74-16.08-0.72
			c-1.59-0.07-4.11-0.12-6.12,1.58c-2.15,1.82-2.15,4.32-2.15,6.14v19.47c0,1.66,0,4.16,2.08,6.01c2.08,1.86,4.88,1.86,6.73,1.86
			c0,0,12.33,0,14.25,0c0,1.72,0,16.89,0,18.61c-1.93,0-14.25,0-14.25,0c-1.85,0-4.65,0-6.73,1.86c-2.08,1.86-2.08,4.36-2.08,6.01
			V507c0,1.66,0,4.16,2.08,6.01c2.08,1.86,4.88,1.86,6.73,1.86c0,0,13.59,0,15.54,0c0,1.74,0,18.02,0,19.75c-2.61,0-36.25,0-37.77,0
			c1.03-5.1,1.56-10.27,1.56-15.45c0-1.14-0.03-2.29-0.08-3.43c0.03-0.25,0.07-0.52,0.07-0.52c0.32-2.54,0.46-8.52,0.46-17.1
			c0-18.17-0.6-47.98-1.33-81.41c0,0-0.24-11.08-0.28-12.92C769.19,403.8,801.79,403.8,804.37,403.8z"/>
	</g>
	<g>
		<path class="st5" d="M838.13,501.13v-4.48c0-2.02-0.38-2.24-3.84-2.24h-11.53c-3.46,0-3.84,0.32-3.84,3.15v35.03
			c0,3.09,0.35,3.58,3.5,4.89c5.45,2.26,19.57,5.1,22.77,5.03c17.24-0.39,24.63-9.38,28.19-24.05c3.66-15.09,3.69-38.79-6.41-50.38
			c-5.5-6.31-15.13-12-21.14-18.32c-6.54-6.87-10.5-15.34-5.77-22.9c2.36-3.76,7.55-5.49,10.25-2.29c2.22,2.63,4.11,9.51,3.59,13.29
			c-0.35,2.47,0,2.75,3.46,2.75h11.07c2.72,0,3.02-0.31,3.02-3.12v-30.48c0-3.09-0.34-3.6-3.38-5.1
			c-10.47-5.15-23.02-6.06-31.21-3.1c-17.78,6.43-20.35,27.47-19.22,46.61c0.98,16.64,3.9,25.94,17.7,36.13
			c11.17,8.24,22.34,15.17,18.17,28.54c-1.22,3.93-4.89,8.63-10.69,6.09c-2.14-0.94-4.11-5.49-4.43-8.86
			C838.15,504.76,838.13,504.15,838.13,501.13L838.13,501.13z"/>
		<path class="st0" d="M834.98,394.68c-9.54,3.45-16.14,10.66-19.61,21.42c-2.53,7.86-3.42,17.52-2.71,29.53
			c0.43,7.3,1.26,15.01,4.4,21.92c2.91,6.42,7.71,11.95,15.1,17.4l2.34,1.71c11,8.03,17.08,13.02,14.22,22.22
			c-0.58,1.87-1.7,3.21-2.45,3.51c-0.1,0.04-0.33,0.13-0.94-0.08c-0.64-0.75-1.78-3.13-1.99-5.38c-0.23-2.41-0.25-2.9-0.25-5.8
			v-4.48c0-1.07,0-3.92-2.88-5.59c-1.72-1-3.63-1.08-5.93-1.08h-11.53c-1.91,0-4.53,0-6.58,1.68c-2.23,1.83-2.23,4.38-2.23,5.91
			v35.03c0,1.91,0.1,3.76,1.35,5.5c1.24,1.74,3.08,2.6,5.02,3.41c5.92,2.46,20.8,5.53,24.99,5.44
			c23.64-0.53,30.11-15.97,32.92-27.54c1.55-6.37,2.36-13.58,2.36-20.57c0-2.45-0.1-4.87-0.3-7.22c-0.67-7.84-2.85-18.75-9.4-26.26
			c-3.19-3.66-7.49-7.02-11.65-10.26c-3.61-2.81-7.02-5.47-9.62-8.21c-3.07-3.23-5.18-6.51-6.11-9.5c-0.37-1.19-0.56-2.33-0.56-3.42
			c0-1.76,0.48-3.39,1.45-4.93c0.65-1.04,1.58-1.54,2.05-1.66c1.21,1.57,2.59,6.14,2.59,9.02c0,0.33-0.02,0.64-0.06,0.92
			c-0.06,0.45-0.15,1.04-0.15,1.69c0,1.24,0.29,2.73,1.56,4.01c2,2.03,4.87,2.03,6.97,2.03h11.07c1.51,0,4.31,0,6.28-2.04
			c1.7-1.76,1.7-3.93,1.7-5.52v-30.48c0-1.86-0.1-3.68-1.24-5.41c-1.14-1.73-2.88-2.68-4.71-3.58c-5.62-2.77-11.96-4.54-18.35-5.12
			C845.75,392.3,839.83,392.92,834.98,394.68z M850.33,520.49c3.64-1.46,6.61-4.91,7.95-9.22c2.16-6.93,1.09-13.12-3.26-18.92
			c-3.57-4.76-8.75-8.55-14.24-12.55l-2.29-1.68c-12.57-9.27-14.98-17.31-15.91-32.94c-0.65-11.01,0.11-19.71,2.33-26.6
			c2.62-8.12,7.13-13.24,13.79-15.65c7.17-2.59,18.25-1.41,26.95,2.87c0.35,0.17,0.61,0.31,0.8,0.41c0.01,0.19,0.01,0.45,0.01,0.81
			c0,0,0,26.74,0,29.16c-2.18,0-5.69,0-7.54,0c-0.08-4.84-2.07-11.19-4.67-14.27c-2-2.37-5.04-3.62-8.33-3.42
			c-4.06,0.25-7.97,2.63-10.21,6.21c-2.83,4.52-3.45,9.73-1.8,15.06c1.33,4.29,4.06,8.62,8.11,12.88c3.08,3.24,6.93,6.24,10.66,9.15
			c3.98,3.1,7.74,6.04,10.35,9.03c3.98,4.57,6.51,12,7.33,21.49c0.71,8.24,0.03,17.43-1.86,25.23c-1.71,7.04-4.22,12.02-7.69,15.24
			c-3.68,3.42-8.84,5.15-15.77,5.31c-2.4,0.03-15.76-2.63-20.55-4.62c-0.25-0.11-0.45-0.19-0.62-0.26c0-0.16-0.01-0.36-0.01-0.6
			c0,0,0-31.35,0-33.74c1.63,0,7.66,0,9.29,0c0,1.14,0,2.28,0,2.28c0,3.15,0.03,3.88,0.28,6.54c0.25,2.71,2.04,10.22,7.19,12.48
			C844.79,521.97,848.2,521.34,850.33,520.49z"/>
	</g>
	<g>
		<path class="st5" d="M520.36,478.66c0.63,2.84,0.72,3.5,0.93,6.58l3.4,50.6c0.19,2.9-0.17,3.22-3.63,3.22h-14.09
			c-3.39,0-3.86-0.38-4.01-3.19l-2.22-42.64c-0.16-3.09-0.22-3.63-0.58-5.4c-0.87-4.32-3.06-6.15-6.77-6.47
			c-1.91-0.14-3.83,0.02-5.68,0.46c-1.09,0.41-1.25,1.24-1.25,3.42v50.59c0,2.91-0.32,3.23-3.24,3.23h-17.26
			c-3.46,0-3.86-0.2-3.96-2c-0.02-0.32-0.01-0.63,0.02-0.94c0.95-3.14,1.4-6.39,1.35-9.64c0-0.26,0-0.55-0.01-0.87l-1.21-122.9
			c-0.03-3.01,0.31-3.34,3.42-3.34h30.32c3.46,0,4.13,0.03,6.75,0.28c3.1,0.3,8.88,2.5,10.73,3.73c5.71,3.77,8.41,16.55,8.97,22.79
			c1.24,13.84,0.28,32.99-16.17,40.2c-0.21,0.09-0.4,0.18-0.63,0.28l0.07,1.47c0.22,0.02,0.46,0.04,0.72,0.06
			C515.15,468.9,518.83,471.79,520.36,478.66L520.36,478.66z M486.46,453.18c0,3.09,0.2,3.46,2.05,3.64
			c6.44,0.66,10.31-2.05,11.41-4.79c3.27-8.16,3.94-22.1-2.55-26.48c-1.35-0.91-1.81-1.01-4.63-1.01h-4.18
			c-1.88,0-2.09,0.31-2.09,3.07V453.18L486.46,453.18z"/>
		<path class="st0" d="M465.57,394.93c-1.63,0-4.35,0-6.38,1.82c-2.05,1.85-2.02,4.34-2.01,6l1.21,122.9c0,0,0.01,0.9,0.01,0.9
			c0.05,2.84-0.35,5.67-1.18,8.42l-0.12,0.39l-0.04,0.4c-0.05,0.54-0.06,1.04-0.03,1.54c0.05,0.94,0.22,3.79,3.24,5.31
			c1.65,0.83,3.4,0.9,5.68,0.9h17.26c1.65,0,4.4,0,6.41-2c1.79-1.79,1.79-4.03,1.79-5.67c0,0,0-49.03,0-50.06
			c0.52-0.02,1.04-0.02,1.56,0.02c1.05,0.09,1.76,0.2,2.29,2.84c0.3,1.49,0.34,1.79,0.5,4.81l2.22,42.64
			c0.08,1.49,0.21,3.97,2.45,5.76c2.09,1.67,4.76,1.67,6.52,1.67h14.09c1.9,0,4.78,0,6.83-1.94c1.53-1.46,1.81-3.26,1.81-4.71
			c0-0.47-0.03-0.9-0.05-1.27l-3.4-50.6c-0.22-3.28-0.34-4.15-1.02-7.18v0c-1.34-6.03-4.29-9.89-9.42-12.05
			c4.65-3.92,7.97-9.23,9.89-15.89c1.33-4.61,1.99-9.78,1.99-15.68c0-2.64-0.13-5.43-0.4-8.37c-0.18-2.04-2.04-20.1-10.97-26
			c-2.63-1.74-9.21-4.19-13.14-4.57c-2.82-0.27-3.63-0.31-7.29-0.31H465.57z M495.89,403.8c3.28,0,3.8,0.02,6.21,0.26
			c2.09,0.2,7.1,2.08,8.31,2.88c0.58,0.38,2.62,2.1,4.6,8.15c1.36,4.15,2.12,8.62,2.37,11.42c0.76,8.52,0.33,15.43-1.31,21.13
			c-2.1,7.27-6.05,12.09-12.09,14.74c0,0-0.68,0.3-0.68,0.3l-2.88,1.28l0.15,2.86l0.24,5.33l5.05,0.45
			c6.98,0.57,8.59,2.31,9.61,6.92v0c0.59,2.64,0.65,3.09,0.84,5.98c0,0,3.11,46.33,3.3,49.12c-2.14,0-10.37,0-11.77,0
			c-0.1-1.98-2.16-41.6-2.16-41.6c-0.16-3.11-0.23-3.91-0.65-5.98c-1.55-7.69-6.94-9.74-11.18-10.1l-0.04,0l-0.04,0
			c-2.47-0.17-4.94,0.02-7.34,0.59l-0.33,0.08l-0.32,0.12c-4.3,1.6-4.3,5.45-4.3,7.52c0,0,0,47.08,0,49.38c-2.52,0-11.71,0-13.99,0
			c0.55-2.51,0.83-5.05,0.83-7.61c0-0.2,0-0.41-0.01-0.61l0,0.05l-0.01-0.89c0,0-1.18-119.55-1.2-121.77
			C469.93,403.8,495.89,403.8,495.89,403.8z"/>
		<path class="st0" d="M488.55,420.12c-1.04,0-4.2,0-5.99,2.63c-0.99,1.45-1.06,3-1.06,4.88v25.56c0,1.97,0.06,3.48,0.86,4.9
			c1.54,2.74,4.59,3.05,5.59,3.15c9,0.92,14.84-3.21,16.64-7.7c3.65-9.1,4.82-25.42-4.24-31.52c-2.56-1.72-4.28-1.9-7.61-1.9H488.55
			z M492.73,428.99c0.71,0,1.21,0.01,1.51,0.03c0.04,0.02,0.08,0.05,0.13,0.09c1.28,0.86,2.74,3.54,2.97,8.46
			c0.02,0.43,0.03,0.87,0.03,1.31c0,3.95-0.79,8.31-2.13,11.67c-0.3,0.74-1.53,1.68-3.81,1.9c0-1.32,0-21.07,0-23.45
			C491.99,428.99,492.73,428.99,492.73,428.99z"/>
	</g>
	<g>
		<path class="st5" d="M712.84,478.66c0.63,2.84,0.72,3.5,0.93,6.58l3.4,50.6c0.19,2.9-0.17,3.22-3.63,3.22h-14.09
			c-3.38,0-3.86-0.38-4.01-3.19l-2.22-42.64c-0.16-3.09-0.22-3.63-0.58-5.4c-0.87-4.32-3.06-6.15-6.77-6.47
			c-1.91-0.14-3.83,0.02-5.68,0.46c-1.09,0.41-1.25,1.24-1.25,3.42v50.59c0,2.91-0.32,3.23-3.24,3.23h-17.26
			c-3.46,0-3.86-0.2-3.96-2c-0.02-0.32-0.01-0.63,0.02-0.94c0.95-3.14,1.4-6.39,1.35-9.64c0-0.26,0-0.55-0.01-0.87l-1.21-122.9
			c-0.03-3.01,0.31-3.34,3.42-3.34h30.32c3.46,0,4.13,0.03,6.75,0.28c3.1,0.3,8.88,2.5,10.73,3.73c5.71,3.77,8.41,16.55,8.97,22.79
			c1.24,13.84,0.28,32.99-16.17,40.2c-0.21,0.09-0.4,0.18-0.63,0.28l0.07,1.47c0.22,0.02,0.46,0.04,0.72,0.06
			C707.64,468.9,711.32,471.79,712.84,478.66L712.84,478.66z M678.95,453.18c0,3.09,0.2,3.46,2.05,3.64
			c6.44,0.66,10.31-2.05,11.41-4.79c3.27-8.16,3.94-22.1-2.55-26.48c-1.35-0.91-1.81-1.01-4.63-1.01h-4.18
			c-1.88,0-2.09,0.31-2.09,3.07V453.18L678.95,453.18z"/>
		<path class="st0" d="M658.05,394.93c-1.63,0-4.35,0-6.38,1.82c-2.05,1.85-2.02,4.34-2.01,6l1.21,122.9c0,0,0.01,0.9,0.01,0.9
			c0.05,2.84-0.35,5.67-1.18,8.42l-0.12,0.39l-0.04,0.4c-0.05,0.54-0.06,1.05-0.03,1.55c0.05,0.93,0.22,3.78,3.24,5.31
			c1.65,0.83,3.4,0.9,5.68,0.9h17.26c1.65,0,4.4,0,6.41-2c1.79-1.79,1.79-4.03,1.79-5.67c0,0,0-49.03,0-50.06
			c0.52-0.02,1.04-0.02,1.56,0.02c1.05,0.09,1.76,0.2,2.29,2.84c0.3,1.49,0.34,1.79,0.5,4.81l2.22,42.64
			c0.08,1.49,0.21,3.97,2.45,5.76c2.09,1.67,4.76,1.67,6.52,1.67h14.09c1.9,0,4.78,0,6.83-1.94c1.53-1.46,1.81-3.26,1.81-4.71
			c0-0.47-0.03-0.9-0.05-1.27l-3.4-50.6c-0.22-3.28-0.34-4.15-1.02-7.18c-1.34-6.03-4.29-9.89-9.42-12.05
			c4.65-3.92,7.97-9.23,9.89-15.89c1.33-4.61,1.99-9.79,1.99-15.68c0-2.64-0.13-5.43-0.4-8.37c-0.18-2.04-2.04-20.1-10.97-26
			c-2.63-1.74-9.21-4.19-13.14-4.57c-2.82-0.27-3.63-0.31-7.29-0.31H658.05z M688.38,403.8c3.28,0,3.8,0.02,6.21,0.26
			c2.09,0.2,7.1,2.08,8.31,2.88c0.58,0.38,2.62,2.1,4.61,8.15c1.36,4.15,2.12,8.62,2.37,11.42c0.76,8.52,0.33,15.43-1.31,21.13
			c-2.1,7.27-6.05,12.09-12.09,14.74c0,0-0.68,0.3-0.68,0.3l-2.88,1.28l0.16,2.86l0.24,5.33l5.05,0.45
			c6.98,0.57,8.59,2.31,9.61,6.92v0c0.59,2.64,0.65,3.09,0.84,5.98c0,0,3.11,46.33,3.3,49.12c-2.14,0-10.37,0-11.77,0
			c-0.1-1.98-2.16-41.6-2.16-41.6c-0.16-3.11-0.23-3.9-0.65-5.98c-1.56-7.69-6.94-9.74-11.18-10.1l-0.04,0l-0.04,0
			c-2.47-0.17-4.94,0.02-7.34,0.59l-0.33,0.08l-0.32,0.12c-4.3,1.6-4.3,5.45-4.3,7.52c0,0,0,47.08,0,49.38c-2.52,0-11.71,0-13.99,0
			c0.55-2.51,0.83-5.05,0.83-7.61c0-0.2,0-0.41-0.01-0.61l0,0.05l-0.01-0.88c0,0-1.18-119.55-1.2-121.77
			C662.42,403.8,688.38,403.8,688.38,403.8z M717.71,477.79L717.71,477.79L717.71,477.79C717.71,477.79,717.71,477.79,717.71,477.79
			z"/>
		<path class="st0" d="M681.04,420.12c-1.04,0-4.2,0-5.99,2.63c-0.99,1.45-1.06,3-1.06,4.88v25.56c0,1.97,0.06,3.48,0.86,4.9
			c1.54,2.74,4.59,3.05,5.59,3.15c9,0.92,14.84-3.21,16.64-7.7c3.65-9.1,4.82-25.42-4.24-31.52c-2.56-1.72-4.28-1.9-7.61-1.9H681.04
			z M685.22,428.99c0.71,0,1.21,0.01,1.51,0.03c0.04,0.02,0.08,0.05,0.13,0.09c1.28,0.86,2.74,3.54,2.96,8.46
			c0.02,0.43,0.03,0.87,0.03,1.31c0,3.95-0.79,8.31-2.13,11.67c-0.3,0.74-1.53,1.68-3.81,1.9c0-1.32,0-21.07,0-23.45
			C684.48,428.99,685.22,428.99,685.22,428.99z"/>
	</g>
</g>
<g>
	<path class="st4" d="M442.94,329.29c0.08,2.16,0.67,2.43,3.38,2.43h28.6c3.46,0,3.82-0.34,3.6-3.43
		c-3.83-53.71-2.5-72.82,0.11-137.42c0.12-3.09-0.25-3.43-3.71-3.43h-54.49c-3.03,0-3.69,0.54-4.15,3.4l-15.68,98.51
		c-0.23,1.43-3.6,1.43-3.84,0l-16.92-98.52c-0.49-2.84-1.17-3.4-4.19-3.4h-54.49c-3.46,0-3.8,0.34-3.42,3.42
		c4.85,39.2,1.92,90.82,0.93,137.43c-0.07,3.09,0.31,3.43,3.77,3.43h28.6c3.09,0,3.43-0.33,3.39-3.32l-0.01-0.58l-0.09-99.12
		l4.52,0.01c0.19,0.45,0.36,1.3,0.74,3.33l18.17,96.39c0.51,2.72,1.27,3.28,4.46,3.28h32.9c2.74,0,3.69-0.42,4.24-2.27
		c0.01-0.03,0.16-0.77,0.42-2.12l19.17-98.49c0.01-0.02,0.01-0.04,0.02-0.06c0.19-0.61,4.13-0.18,4.46-0.11L442.94,329.29
		L442.94,329.29z"/>
	<path class="st4" d="M819.17,331.72h40.16c3.46,0,3.81-0.34,3.54-3.43c-3.6-40.23-3.76-96.23-0.01-136.29
		c0.29-3.08-0.06-3.42-3.52-3.42h-29.47c-3.46,0-3.82,0.34-3.59,3.43c1.85,24.74,5.4,70.4,5.05,79.16l-5.51,3.84
		c-0.03-0.04-0.07-0.08-0.1-0.12c-0.3-0.38-0.44-0.75-1.33-3.74l-23.87-79.38c-0.76-2.52-1.7-3.19-4.49-3.19h-40.47
		c-3.46,0-3.83,0.34-3.66,3.43c3.29,59.86,3.05,73.9-0.02,136.27c-0.15,3.09,0.22,3.43,3.68,3.43h29.47c3.46,0,3.83-0.34,3.69-3.43
		c-0.74-16.52-1.65-40.02-2.77-55.87c-0.58-8.56-1.6-17.1-3.06-25.58l4.53-2.75c0.03,0.06,0.07,0.13,0.1,0.21
		c9.49,27.87,18.42,55.9,26.79,84.06c0.01,0.02,0.01,0.04,0.02,0.06C815.22,331.39,815.71,331.72,819.17,331.72L819.17,331.72z"/>
	<path class="st4" d="M494.15,236.61c0.04-10.5,3-25.7,7.25-33.03c10.19-17.54,40.44-18.66,66.68-16.14
		c36.57,3.5,39.97,20.65,41.39,56.11c0.74,18.44,3.97,56.06-9.61,73.29c-17.29,21.94-74.94,23.95-93.54,2.29
		C490.54,300.74,494.07,257.72,494.15,236.61L494.15,236.61z M565.9,230.15c-0.14-4.5-2.78-14.11-5.77-17.52
		c-5.33-6.1-13.16-3.74-17.94,2.29c-9.63,12.14-6.26,55.59-5.77,61.51c0.57,6.81,2.32,24.28,7.05,30.09
		c6.73,8.26,15.52,4.8,19.22-4.58C568.63,286.89,566.09,236.25,565.9,230.15L565.9,230.15z"/>
	<path class="st4" d="M621.66,236.61c0.04-10.5,3-25.7,7.25-33.03c10.19-17.54,40.44-18.66,66.68-16.14
		c36.57,3.5,39.97,20.65,41.39,56.11c0.74,18.44,3.97,56.06-9.61,73.29c-17.29,21.94-74.94,23.95-93.54,2.29
		C618.05,300.74,621.58,257.72,621.66,236.61L621.66,236.61z M693.42,230.15c-0.14-4.5-2.78-14.11-5.77-17.52
		c-5.33-6.1-13.16-3.74-17.94,2.29c-9.63,12.14-6.26,55.59-5.77,61.51c0.56,6.81,2.32,24.28,7.05,30.09
		c6.73,8.26,15.52,4.8,19.22-4.58C696.15,286.89,693.6,236.25,693.42,230.15L693.42,230.15z"/>
</g>
<g>
	<path class="st4" d="M354.48,539.06h21.03c2.99,0,3.32-0.34,3.29-3.44l-1.22-132.83c-0.03-3.08-0.43-3.44-3.88-3.44h-11.53
		c-3.46,0-3.83,0.33-3.74,3.29l2.36,76.86c0.02,0.74,0.04,1.32,0.04,1.77l-3.36,1.27c-1.95-4.98-9.8-54.12-13.96-79.8
		c-0.5-3.06-0.94-3.4-4.4-3.4h-20.5c-3.46,0-3.82,0.34-3.58,3.43c3.25,42.26,1.35,83.96-0.16,132.84c-0.1,3.09,0.28,3.43,3.74,3.43
		h14.77c2.85,0,3.15-0.33,3.01-3.29l-3.53-76.87c-0.05-1.03-0.08-1.75-0.08-2.26l3.11-1.18c0,0,0.01,0.01,0.01,0.01
		c0.04,0.03,0.09,0.1,0.15,0.21c6.08,26.09,11.07,52.38,14.94,78.81c0.05,0.71,0.05,1.41-0.04,2.13
		C350.67,538.82,351.02,539.06,354.48,539.06L354.48,539.06z"/>
	<path class="st4" d="M450.62,507l1.2-104.31c0.03-3-0.35-3.33-3.81-3.33h-16.66c-3.46,0-3.84,0.33-3.8,3.32l1.2,97.47
		c0.04,3.09,0,3.63-0.35,5.4c-1.19,5.9-6.22,8.63-10.29,7.17c-1.74-0.62-4.23-3.43-5.27-7.51c-0.63-2.5-0.71-3.12-0.71-6.21v-96.33
		c0-2.99-0.38-3.32-3.84-3.32h-15.38c-3.46,0-3.84,0.33-3.77,3.33l2.41,109.46c0.07,3.09,0.13,3.78,0.65,6.84
		c2.56,15.06,10.7,21.91,25.05,23.5c19.67,2.18,30.18-9.21,32.85-28.64C450.54,510.78,450.59,510.09,450.62,507L450.62,507z"/>
	<path class="st4" d="M553.09,501.13v-4.48c0-2.02-0.38-2.24-3.84-2.24h-11.53c-3.46,0-3.84,0.32-3.84,3.15v35.03
		c0,3.09,0.35,3.58,3.5,4.89c5.45,2.26,19.57,5.1,22.77,5.03c17.24-0.39,24.63-9.38,28.19-24.05c3.66-15.09,3.69-38.79-6.41-50.38
		c-5.5-6.31-15.13-12-21.14-18.32c-6.54-6.87-10.5-15.34-5.77-22.9c2.36-3.76,7.55-5.49,10.25-2.29c2.22,2.63,4.11,9.51,3.59,13.29
		c-0.35,2.47,0,2.75,3.46,2.75h11.07c2.72,0,3.02-0.31,3.02-3.12v-30.48c0-3.09-0.34-3.6-3.38-5.1c-10.47-5.15-23.02-6.06-31.21-3.1
		c-17.78,6.43-20.35,27.47-19.22,46.61c0.98,16.64,3.9,25.94,17.7,36.13c11.17,8.24,22.34,15.17,18.17,28.54
		c-1.22,3.93-4.89,8.63-10.69,6.09c-2.14-0.94-4.11-5.49-4.43-8.86C553.11,504.76,553.09,504.15,553.09,501.13L553.09,501.13z"/>
	<path class="st4" d="M646.62,425.7v-23.3c0-2.74-0.35-3.04-3.53-3.04h-40.03c-3.46,0-3.84,0.34-3.77,3.43
		c0.79,37.31,2.39,102.58,1.21,111.93c-0.03,0.26-0.07,0.54-0.11,0.82c0.31,6.34-0.2,12.69-1.52,18.93
		c0.02,0.38,0.04,0.76,0.07,1.14c0.24,3.09,0.66,3.44,4.12,3.44h40.03c3.18,0,3.53-0.34,3.53-3.44v-21.76
		c0-3.09-0.38-3.44-3.84-3.44h-16.66c-3.46,0-3.84-0.34-3.84-3.44v-21.76c0-3.09,0.38-3.44,3.84-3.44h15.38
		c3.46,0,3.84-0.34,3.84-3.44v-20.61c0-3.09-0.38-3.44-3.84-3.44h-15.38c-3.46,0-3.84-0.34-3.84-3.44v-19.47
		c0-3.09,0.32-3.42,3.23-3.28c0,0,11.98-0.25,20.25,1.4C646.91,430.77,646.62,428.79,646.62,425.7L646.62,425.7z"/>
	<path class="st4" d="M726.22,402.63c2.09,44.28,2.11,88.61,0.06,132.89c0,0.04,0,0.08-0.01,0.12c-0.19,3.09,0.17,3.43,3.63,3.43
		l19.73-0.17c2.94,0,3.25-0.08,3.22-3.17c0,0,0,0,0-0.21c-2.23-44.6-2.15-89.28,0.23-133.87c0.39-2.23-1.83-2.07-4.3-2.07
		l-18.87-0.2C726.51,399.36,726.1,399.69,726.22,402.63L726.22,402.63z"/>
	<path class="st4" d="M809.33,425.7v-23.3c0-2.74-0.35-3.04-3.53-3.04h-40.03c-3.46,0-3.84,0.34-3.77,3.43
		c0.79,37.31,2.39,102.58,1.21,111.93c-0.03,0.26-0.07,0.54-0.11,0.82c0.31,6.34-0.2,12.69-1.52,18.93
		c0.02,0.38,0.04,0.76,0.07,1.14c0.24,3.09,0.66,3.44,4.12,3.44h40.03c3.18,0,3.53-0.34,3.53-3.44v-21.76
		c0-3.09-0.38-3.44-3.84-3.44h-16.66c-3.46,0-3.84-0.34-3.84-3.44v-21.76c0-3.09,0.38-3.44,3.84-3.44h15.38
		c3.46,0,3.84-0.34,3.84-3.44v-20.61c0-3.09-0.38-3.44-3.84-3.44h-15.38c-3.46,0-3.84-0.34-3.84-3.44v-19.47
		c0-3.09,0.32-3.42,3.23-3.28c0,0,11.98-0.25,20.25,1.4C809.62,430.77,809.33,428.79,809.33,425.7L809.33,425.7z"/>
	<path class="st4" d="M838.13,501.13v-4.48c0-2.02-0.38-2.24-3.84-2.24h-11.53c-3.46,0-3.84,0.32-3.84,3.15v35.03
		c0,3.09,0.35,3.58,3.5,4.89c5.45,2.26,19.57,5.1,22.77,5.03c17.24-0.39,24.63-9.38,28.19-24.05c3.66-15.09,3.69-38.79-6.41-50.38
		c-5.5-6.31-15.13-12-21.14-18.32c-6.54-6.87-10.5-15.34-5.77-22.9c2.36-3.76,7.55-5.49,10.25-2.29c2.22,2.63,4.11,9.51,3.59,13.29
		c-0.35,2.47,0,2.75,3.46,2.75h11.07c2.72,0,3.02-0.31,3.02-3.12v-30.48c0-3.09-0.34-3.6-3.38-5.1c-10.47-5.15-23.02-6.06-31.21-3.1
		c-17.78,6.43-20.35,27.47-19.22,46.61c0.98,16.64,3.9,25.94,17.7,36.13c11.17,8.24,22.34,15.17,18.17,28.54
		c-1.22,3.93-4.89,8.63-10.69,6.09c-2.14-0.94-4.11-5.49-4.43-8.86C838.15,504.76,838.13,504.15,838.13,501.13L838.13,501.13z"/>
	<path class="st4" d="M520.36,478.66c0.63,2.84,0.72,3.5,0.93,6.58l3.4,50.6c0.19,2.9-0.17,3.22-3.63,3.22h-14.09
		c-3.39,0-3.86-0.38-4.01-3.19l-2.22-42.64c-0.16-3.09-0.22-3.63-0.58-5.4c-0.87-4.32-3.06-6.15-6.77-6.47
		c-1.91-0.14-3.83,0.02-5.68,0.46c-1.09,0.41-1.25,1.24-1.25,3.42v50.59c0,2.91-0.32,3.23-3.24,3.23h-17.26c-3.46,0-3.86-0.2-3.96-2
		c-0.02-0.32-0.01-0.63,0.02-0.94c0.95-3.14,1.4-6.39,1.35-9.64c0-0.26,0-0.55-0.01-0.87l-1.21-122.9
		c-0.03-3.01,0.31-3.34,3.42-3.34h30.32c3.46,0,4.13,0.03,6.75,0.28c3.1,0.3,8.88,2.5,10.73,3.73c5.71,3.77,8.41,16.55,8.97,22.79
		c1.24,13.84,0.28,32.99-16.17,40.2c-0.21,0.09-0.4,0.18-0.63,0.28l0.07,1.47c0.22,0.02,0.46,0.04,0.72,0.06
		C515.15,468.9,518.83,471.79,520.36,478.66L520.36,478.66z M486.46,453.18c0,3.09,0.2,3.46,2.05,3.64
		c6.44,0.66,10.31-2.05,11.41-4.79c3.27-8.16,3.94-22.1-2.55-26.48c-1.35-0.91-1.81-1.01-4.63-1.01h-4.18
		c-1.88,0-2.09,0.31-2.09,3.07V453.18L486.46,453.18z"/>
	<path class="st4" d="M712.84,478.66c0.63,2.84,0.72,3.5,0.93,6.58l3.4,50.6c0.19,2.9-0.17,3.22-3.63,3.22h-14.09
		c-3.38,0-3.86-0.38-4.01-3.19l-2.22-42.64c-0.16-3.09-0.22-3.63-0.58-5.4c-0.87-4.32-3.06-6.15-6.77-6.47
		c-1.91-0.14-3.83,0.02-5.68,0.46c-1.09,0.41-1.25,1.24-1.25,3.42v50.59c0,2.91-0.32,3.23-3.24,3.23h-17.26c-3.46,0-3.86-0.2-3.96-2
		c-0.02-0.32-0.01-0.63,0.02-0.94c0.95-3.14,1.4-6.39,1.35-9.64c0-0.26,0-0.55-0.01-0.87l-1.21-122.9
		c-0.03-3.01,0.31-3.34,3.42-3.34h30.32c3.46,0,4.13,0.03,6.75,0.28c3.1,0.3,8.88,2.5,10.73,3.73c5.71,3.77,8.41,16.55,8.97,22.79
		c1.24,13.84,0.28,32.99-16.17,40.2c-0.21,0.09-0.4,0.18-0.63,0.28l0.07,1.47c0.22,0.02,0.46,0.04,0.72,0.06
		C707.64,468.9,711.32,471.79,712.84,478.66L712.84,478.66z M678.95,453.18c0,3.09,0.2,3.46,2.05,3.64
		c6.44,0.66,10.31-2.05,11.41-4.79c3.27-8.16,3.94-22.1-2.55-26.48c-1.35-0.91-1.81-1.01-4.63-1.01h-4.18
		c-1.88,0-2.09,0.31-2.09,3.07V453.18L678.95,453.18z"/>
</g>
</svg>
