<?xml version="1.0" encoding="utf-8"?>
<!-- Generator: Adobe Illustrator 23.0.1, SVG Export Plug-In . SVG Version: 6.00 Build 0)  -->
<svg version="1.1" xmlns="http://www.w3.org/2000/svg" xmlns:xlink="http://www.w3.org/1999/xlink" x="0px" y="0px"
	 viewBox="0 0 8640 3456" style="enable-background:new 0 0 8640 3456;" xml:space="preserve">
<style type="text/css">
	.st0{fill-rule:evenodd;clip-rule:evenodd;}
	.st1{fill:#FFFFFF;}
	.st2{fill:#FF0000;}
	.st3{fill:#FFFF00;}
	.st4{fill-rule:evenodd;clip-rule:evenodd;fill:#FFFFFF;}
	.st5{fill-rule:evenodd;clip-rule:evenodd;enable-background:new    ;}
</style>
<g id="Shadow">
	<path class="st0" d="M6545.5,1425.9c-37.4-98.9-93-195.9-165.4-288.4c-70.3-90-157.2-176.5-258.1-257.4
		c-99.3-79.5-213.2-154.2-338.6-222c-124.8-67.5-262.1-128.8-407.9-182.1c-146.9-53.7-303.9-99.8-466.6-137
		c-337.9-77.3-696.8-116.5-1066.6-116.5S3113.7,261.7,2775.8,339c-162.7,37.2-319.7,83.3-466.6,137c-77.7,28.4-152.9,59-225.1,91.7
		c25.8-51.1,54.7-101.2,84.3-148.4c-4,2.1-12.6,7.9-16.5,10.3c-140.8,82.1-264.1,182.6-368.7,296.6
		c-79.5,48.7-153.3,100.2-220.4,154c-100.9,80.8-187.8,167.4-258.1,257.4c-72.3,92.5-128,189.5-165.4,288.4
		c-38.7,102.3-58.3,207.7-58.3,313.3c0,105.6,19.6,211,58.3,313.3c37.4,98.9,93,195.9,165.4,288.4c70.3,90,157.2,176.5,258.1,257.4
		c15.7,12.6,31.8,25,48.2,37.4c73.1,115.8,161.4,222.2,263,316.1c250.4,232.7,569.6,381.3,911.3,421.7
		c281,32.7,564.6-10.2,822-122.9c77.8,3.6,156.2,5.3,235,5.3c369.8,0,728.6-39.2,1066.6-116.5c162.7-37.2,319.7-83.3,466.6-137
		c118.6-43.3,231.5-91.9,336.6-144.9c3,4.3,8.2,7.3,17.4,11.6c32.9,15.3,118.2,34.5,137.6,34c104.1-2.6,148.8-63.4,170.3-162.6
		c5.6-26,9.8-55.7,12-86.9c25-18.2,49.2-36.6,72.5-55.3c100.9-80.8,187.8-167.4,258.1-257.4c72.3-92.5,128-189.5,165.4-288.4
		c38.7-102.3,58.3-207.7,58.3-313.3C6603.8,1633.6,6584.2,1528.2,6545.5,1425.9z"/>
</g>
<g id="Reg_Mark">
</g>
<g id="Layer_1_copy">
</g>
<g id="Oval_copy">
	<path d="M6474.6,1301.1c-37.4-98.9-93-195.9-165.4-288.4c-70.3-90-157.2-176.5-258.1-257.4c-99.3-79.5-213.2-154.2-338.6-222
		c-124.8-67.5-262.1-128.8-407.9-182.1c-146.9-53.7-303.9-99.8-466.6-137c-337.9-77.3-696.8-116.5-1066.6-116.5
		s-728.6,39.2-1066.6,116.5c-162.7,37.2-319.7,83.3-466.6,137c-77.7,28.4-152.9,59-225.1,91.7c25.8-51.1,54.7-101.2,84.3-148.4
		c-4,2.1-12.6,7.9-16.5,10.3c-140.8,82.1-264.1,182.6-368.7,296.6c-79.5,48.7-153.3,100.2-220.4,154
		c-100.9,80.8-187.8,167.4-258.1,257.4c-72.3,92.5-128,189.5-165.4,288.4c-38.7,102.3-58.3,207.7-58.3,313.3
		c0,105.6,19.6,211,58.3,313.3c37.4,98.9,93,195.9,165.4,288.4c70.3,90,157.2,176.5,258.1,257.4c15.7,12.6,31.8,25,48.2,37.4
		c73.1,115.8,161.4,222.2,263,316.1c250.4,232.7,569.6,381.3,911.3,421.7c281,32.7,564.6-10.2,822-122.9c77.8,3.6,156.2,5.3,235,5.3
		c369.8,0,728.6-39.2,1066.6-116.5c162.7-37.2,319.7-83.3,466.6-137c101.9-37.2,199.5-78.3,291.7-122.7c0.8,1.5,1.6,3,2.6,4.4
		c11.3,17.6,28.5,25.6,38.7,30.4c36.6,17,129.3,39.4,159.9,38.6c63.1-1.6,113.9-21.9,150.9-60.4c20.2-21,36.5-47.6,49.2-80.5
		c28,41.8,76.1,69.3,130.8,69.3c86.5,0,156.5-69,156.5-154c0-85.1-70.1-154-156.5-154c-22.2,0-43.2,4.5-62.4,12.7
		c94.6-77.4,176.4-159.8,243.2-245.3c72.3-92.5,128-189.5,165.4-288.4c38.7-102.3,58.3-207.7,58.3-313.3
		C6532.9,1508.8,6513.3,1403.4,6474.6,1301.1z"/>
</g>
<g id="Reg_Mark_copy">
	<g>
		<path class="st1" d="M6094.5,2540.5c8-1.6,19.6-2.7,30.3-2.7c16.9,0,27.9,3.3,35.6,10.2c6,5.3,9.6,13.6,9.6,23.2
			c0,16-10.3,26.7-23,31v0.5c9.3,3.3,14.9,12,18,24.7c4,17.1,6.9,28.9,9.3,33.6h-16.3c-2-3.4-4.7-14-8-29.2
			c-3.6-16.9-10.3-23.2-24.7-23.8h-14.9v53h-15.8V2540.5z M6110.3,2596h16.1c16.9,0,27.6-9.3,27.6-23.2c0-15.8-11.4-22.7-28.1-22.7
			c-7.6,0-12.9,0.7-15.6,1.5V2596z"/>
	</g>
	<g>
		<path class="st1" d="M6020.6,2602.7c0,58.3,47.4,105.7,105.7,105.7c58.3,0,105.7-47.4,105.7-105.7c0-58.3-47.4-105.7-105.7-105.7
			C6068,2497,6020.6,2544.4,6020.6,2602.7z M6035,2602.7c0-50.3,41-91.3,91.3-91.3s91.3,41,91.3,91.3s-41,91.3-91.3,91.3
			S6035,2653,6035,2602.7z"/>
	</g>
</g>
<g id="Oval">
	<ellipse class="st2" cx="3771.5" cy="1614.4" rx="2711.5" ry="1466.7"/>
</g>
<g id="Layer_1">
	<path d="M2115.4,246.5c-4,2.1-12.6,7.9-16.5,10.3c-621.4,362.4-901.7,1082-738.1,1743.6c74,298.9,234,569.6,460.2,778.6
		c250.4,232.7,569.6,381.3,911.3,421.7c331.9,38.6,667.5-28.2,959.3-191.1c-339.9,9.4-670.2-107.9-927.4-327.5
		c-158.8-126.8-284.2-290.5-365.2-476.8c-5.9-11.6-9.7-24.1-11-37c4-31.8-1.6-64-15.8-92.3c-19-34.3-39.1-67.9-60.4-100.8
		c-0.1-0.1-0.1-0.2-0.2-0.3c12.1-3.1,24-6.7,35.7-10.9c15.3-5.1,30.2-11.2,44.6-18.3c33.2-14.9,62-38.2,83.6-67.5
		c12.2-18.6,11.7-42.4,0-60.2c-6.4-7.7-14-14-22.5-18.9c-3.8-2.3-7.7-4.1-11.8-5.6c-15.9-5.2-32.1-9.6-48.5-13
		c-45.1-7.4-88.7-22.3-128.9-44c-37.3-23.2-73.6-56.3-102.4-89.3c-60.5-72.3-110.8-151.7-150-236.2
		c-57.6-122.9-93.5-254.8-106.3-389.9c-17.3-181.9,11.2-366.3,84.3-535.7C2023.3,403.6,2068.5,321.4,2115.4,246.5L2115.4,246.5z"/>
	<path class="st3" d="M1695.8,2183.3c0,0,0.2,0,0.5-0.1c83.5-7.6,157.4-57.1,196.4-131.3c0.2,0.2,0.5,0.5,0.8,0.9
		c60.7,59.5,136.5,101.3,219.2,121c57.8,13.5,118.4,11.9,175.8-5.2c33.5-15.9,58.7-46.3,67.5-83.4c0.2-0.6,0.5-1.2,0.7-1.8
		c5.1,10.5,9,21.5,11.7,32.9c8.3,25.3,3,53-14.1,73.4c-21.6,28.4-57.9,44.3-98.8,50.6c-74.2,6.9-148.9-5.3-217.1-35.4
		c-0.5-0.2-0.8-0.3-0.8-0.3s-1,5.7,0,10.1c0,0,0,0,0,0.1c105.8,70.1,241.4,76.8,353.6,17.6c218,451.1,659.8,752,1159.5,789.6
		c-1.3,0.7-3.4,1.8-6.1,3.2c-228.3,88.5-472.7,127.9-717.2,115.6c-655.5-43.2-1215.9-487.8-1406.9-1116.5
		c-201.8-654,63.4-1368.2,654.3-1729.3c0.1,0,0.1-0.1,0.2-0.1c-272.8,421.2-243,970.3,73.9,1359.4c18,21.9,35.8,40.2,56,56.8
		c40.7,35.4,89.3,60.3,141.5,72.9c20.7,4.3,41.4,8.7,62.1,13.1c10.9,2.9,21.4,6.8,31.6,11.7c5.7,3.6,10.9,7.9,15.6,12.8
		c7,8.2,9.8,19.5,6.9,30.4c-1,7.5-3.4,14.6-7.2,21.1c-13.8,17.4-31.3,31.5-51.3,41.3c-63.4,32.9-168,50.8-215.4,45.3
		c-38.7-4.5-91.3-27.3-81.6-62.5c3.1-11.1,13-25.2,12.1-31.2c-0.6-3.6-8.4-3.6-13.1,0c-10.2,7.8-23.2,32.6-23.2,45.4
		c0.1,18.8,9,54.1,9.1,54.4c-48.6-1.7-96.9-7.8-144.3-18.3c-14.1-3.3-28.2-6.6-42.3-10c-14.6-6.2-26.2-18-32.3-32.7
		c-15.2-32.4-38.9-60.2-68.5-80.4c-6.7-4.1-12.5,6.3-5.4,9.8c43,33.5,70,83.6,74.4,138c5.9,34.1-2.4,69.6-23.5,97.7
		c-40.1,49.7-93.5,87.2-154.1,108c0,0.2-0.1,0.5-0.1,0.8V2183.3L1695.8,2183.3z"/>
	<path d="M1768.2,1249.4c3.1,76-44.8,144.4-116.6,167.8c0,0,0,0,0,0c-5,1.8-10,3.7-14.9,5.9c-3.4,2.7-3.4,8.4,0.7,10.9
		c3.3,1.7,7,2.6,10.7,2.4c70.2,0.5,134.6-38.6,166.7-101c3.6-7.3,3.8-15.6,0.8-23c-13.4-22.6-29.2-43.6-47.2-62.7
		C1768.3,1249.5,1768.2,1249.4,1768.2,1249.4L1768.2,1249.4L1768.2,1249.4z"/>
	<path d="M1870.8,1633.3c46.8,17.2,93,35.6,138.8,55.3c2.5,1.2,5.2,2,8,2.4c1.4-0.1,2.7-1.2,2.9-2.7c3.3-10.8-26.6-34.2-40.5-47.8
		c-19.5-19-34.2-53.9-51.4-80.1c-24.9-38-63.6-66.2-105.8-86.2c-35.7-16.9-99.7-30.3-119.4,1.5c-19.5,31.5-10.5,59.6,7.6,101.3
		c6.5,15.2,15.1,33.3,15.1,33.3s-19.7,8.2-24.2,18.6c-2.7,6.2,0,13.1,0,13.1C1756.1,1620.6,1815.5,1617.8,1870.8,1633.3
		L1870.8,1633.3z"/>
	<path class="st1" d="M1792.8,1480.6c39.6,11.4,82.8,44.4,104.1,70.8c4.7,5.8,19.3,25.5,28,42.1c5.7,8.9,8.2,19.5,6.8,30
		c0,0.3,0,0.5,0,0.5l-111.9-23c0,0,0-0.1,0-0.2c-1.4-39.9-23.8-75.8-58.5-94.8c-11.6-5.1-22.4-11.8-32.2-19.7c0,0,0-0.1,0-0.1
		c0,0,0,0,0,0c-0.8-3.1,0.8-6.3,3.7-7.5C1752.6,1474.7,1773.2,1475.4,1792.8,1480.6L1792.8,1480.6z"/>
	<path class="st1" d="M2080.2,2040.8c-61.3-4.6-120.1-26.7-169.3-63.5c119.3,31.5,244.2,35.1,365.1,10.6c9.3-1,19.1-0.2,26,6.6
		c0,0,10.9,18.8,11.1,19C2238.8,2041.2,2158.9,2050.6,2080.2,2040.8L2080.2,2040.8z"/>
	<path class="st1" d="M2046.5,2107.8c0,0,0.5,0.1,1.4,0.2c92.7,19.4,188.7,16.3,279.9-9c0.6-0.1,1-0.2,1.3-0.2
		c-7,22.1-24.2,39.3-46,46.5c-79.8,20-164.3,9.2-236.5-30.1c0,0,0-0.1,0-0.1C2045.9,2111.6,2046.5,2107.8,2046.5,2107.8
		L2046.5,2107.8z"/>
</g>
<g id="Lettering">
	<g>
		<polygon class="st0" points="6017.5,1440.1 2556,1440.1 2556,1703.9 6017.5,1703.9 6017.5,1440.1 		"/>
		<polygon class="st4" points="3620,1661.2 3515,1465.1 3579.3,1465.1 3653.7,1610.2 3725.6,1465.1 3788.6,1465.1 3683.7,1661.2 
			3620,1661.2 		"/>
		<path class="st4" d="M4053.2,1661.2h-64.5l-25.5-44.5h-117.5l-24.3,44.5h-62.9l114.2-196.1h63.2L4053.2,1661.2L4053.2,1661.2z
			 M3944.2,1583.4l-40.7-72.6l-39.6,72.6H3944.2L3944.2,1583.4z"/>
		<polygon class="st4" points="4086.6,1661.2 4086.6,1466.7 4145.9,1466.7 4145.9,1628 4293.5,1628 4293.5,1661.2 4086.6,1661.2 		
			"/>
		<polygon class="st4" points="4337.4,1661.2 4337.4,1466.7 4396.7,1466.7 4396.7,1628 4544.3,1628 4544.3,1661.2 4337.4,1661.2 		
			"/>
		<polygon class="st4" points="4586.6,1661.2 4586.6,1465.1 4804.5,1465.1 4804.5,1498.3 4646,1498.3 4646,1541.8 4793.5,1541.8 
			4793.5,1574.9 4646,1574.9 4646,1628 4810.1,1628 4810.1,1661.2 4586.6,1661.2 		"/>
		<polygon class="st4" points="4937.5,1661.2 4937.5,1578.6 4829.9,1465.1 4899.5,1465.1 4968.8,1542.8 5036.5,1465.1 
			5104.9,1465.1 4996.8,1578.9 4996.8,1661.2 4937.5,1661.2 		"/>
	</g>
	<g>
		<g>
			<path class="st5" d="M3366,1336.9c0.5,14.6,4,16.4,20.4,16.4h172.8c20.9,0,23.1-2.3,21.7-23.2c-23.2-363.1-15.1-492.3,0.6-929.1
				c0.8-20.9-1.5-23.2-22.4-23.2h-329.2c-18.3,0-22.3,3.7-25.1,23l-94.7,666c-1.4,9.7-21.7,9.7-23.2,0l-102.2-666.1
				c-2.9-19.2-7.1-23-25.3-23h-329.2c-20.9,0-23,2.3-20.7,23.1c29.3,265,11.6,614,5.6,929.1c-0.4,20.9,1.9,23.2,22.8,23.2h172.8
				c18.7,0,20.7-2.2,20.5-22.4l0-4l-0.6-670.1l27.3,0.1c1.1,3.1,2.2,8.8,4.5,22.5l109.8,651.7c3.1,18.4,7.7,22.1,27,22.1H3198
				c16.6,0,22.3-2.8,25.6-15.3c0-0.2,0.9-5.2,2.5-14.4L3342,657.7c0-0.1,0.1-0.3,0.1-0.4c1.1-4.1,24.9-1.2,26.9-0.7L3366,1336.9
				L3366,1336.9z"/>
			<path class="st0" d="M3230.1,347.8c-8.3,0-25.4,0-38.7,12.1c-11,10.1-14.2,23.6-16.1,36.6c0,0-54.1,380.6-77.3,543.7
				c-25-162.8-83.5-544-83.5-544c-2-12.9-5.4-26.3-16.4-36.3c-11.7-10.6-26.1-12.1-38.5-12.1h-329.2c-11.6,0-29.1,0-41.4,13.7
				c-12.3,13.7-10.4,31.1-9.1,42.7c23.4,211.5,16.5,479.3,9.9,738.3c-1.6,61.7-3.2,125.6-4.4,186.9c-0.2,11.3-0.5,28.3,12,41
				c12.5,12.8,29.5,12.8,40.8,12.8h172.8c9.8,0,26.3,0,38.4-12.3c11.1-11.2,12.1-25.9,12.1-36.8c0-1.3,0-2.5,0-3.6c0,0,0-3.5,0-3.8
				c0-0.2-0.2-280.8-0.4-476.5c31.1,184.3,81.8,485.9,81.8,485.9c2.1,12.3,5.8,26.2,17.9,36.2c11.8,9.7,25.5,11,38.6,11H3198
				c12.2,0,44.7,0,54.6-37.7c0.4-1.5,0.4-1.5,3.1-16.8c0,0,48.6-279.4,82.4-473.9c-0.9,199.1-2.1,482.4-2.1,482.4l0,0.5
				c0.2,6.8,0.8,25,16.1,36.6c10.7,8.1,22.8,8.8,34.3,8.8h172.8c11.4,0,28.7,0,41.1-13.2s11.3-30.5,10.6-41.9
				c-21.1-331.3-16.2-465.2-3.1-823l3.8-103.1c0.4-11.3,1-28.4-11.5-41.3c-12.5-12.9-29.6-12.9-40.9-12.9H3230.1z M3551.4,407.8
				c-0.9,24-3.5,95.2-3.5,95.2c-6.8,184.6-11.4,310-11.4,433.4c0,115.1,4,228.6,14,386.9c-14.8,0-138.2,0-154.4,0
				c0.1-26.3,3.1-690.7,3.1-690.7l-23.6-5.2c-3.7-0.8-12.2-1.7-19-2c-5.4-0.2-9.8-0.1-13.7,0.4c-22.3,2.7-28.4,18.9-29.7,23.8
				c0,0.1-0.5,1.9-0.5,1.9l-0.2,1.3l-115.8,665.9c0,0-0.4,2.2-0.8,4.8c-4.4,0-190.3,0-194.4,0c-1-5.7-109.3-648.8-109.3-648.8
				c-2.7-15.8-3.9-22.3-5.9-27.9L2879,627l-78.3-0.3c0,0,0.6,689.4,0.6,696.6c-16.3,0-143.2,0-155.9,0c1.2-58.9,2.7-120,4.2-179.2
				c3.2-123.4,6.4-248.7,6.4-369.4c0-130.6-3.8-255.7-15.5-366.9c19,0,307.5,0,315,0c0.8,4.9,101.8,663.6,101.8,663.6
				c3,19.4,20.1,32.8,41.6,32.7c21.4-0.1,38.3-13.7,41-33c0,0,93.6-657.7,94.3-663.2C3242.4,407.8,3536.6,407.8,3551.4,407.8z"/>
		</g>
		<g>
			<path class="st5" d="M5639.1,1353.3h242.6c20.9,0,23-2.3,21.4-23.2c-21.8-272-22.7-650.6-0.1-921.4c1.7-20.8-0.4-23.2-21.3-23.2
				h-178.1c-20.9,0-23.1,2.3-21.7,23.2c11.2,167.3,32.6,476,30.5,535.2l-33.3,25.9c-0.2-0.3-0.4-0.5-0.6-0.8
				c-1.8-2.6-2.6-5.1-8.1-25.3l-144.2-536.6c-4.6-17-10.3-21.6-27.2-21.6h-244.5c-20.9,0-23.1,2.3-22.1,23.2
				c19.9,404.7,18.4,499.6-0.1,921.3c-0.9,20.9,1.3,23.2,22.2,23.2h178.1c20.9,0,23.1-2.3,22.3-23.2c-4.5-111.7-10-270.6-16.7-377.7
				c-3.5-57.9-9.7-115.6-18.5-173l27.3-18.6c0.2,0.4,0.4,0.9,0.6,1.4c57.3,188.5,111.3,377.9,161.8,568.3c0,0.1,0.1,0.3,0.1,0.4
				C5615.3,1351.1,5618.2,1353.3,5639.1,1353.3L5639.1,1353.3z"/>
			<path class="st0" d="M5703.7,355.6c-11.4,0-28.7,0-41.1,13.3c-9.1,9.8-10.9,21.7-10.9,31.9c0,3.6,0.2,7,0.4,10
				c0,0,3.6,54.1,3.6,54.1c8.4,125.2,20,297.7,24.8,400.3c-28.7-106.7-125.2-465.8-125.2-465.8c-8.1-30.3-25.4-43.8-56.1-43.8
				h-244.5c-11.4,0-28.5,0-41,13.1c-12.5,13.1-11.6,30.2-11.1,41.6c19.8,402.8,18.3,499.4-0.1,918.5c-0.5,11.3-1.3,28.5,11.2,41.5
				c12.5,13,29.6,13,41,13h178.1c11.3,0,28.5,0,40.9-13c10-10.4,11.5-23.4,11.5-33.9c0-2.7-0.1-5.2-0.2-7.5l-2.7-68.7
				c-4-104.4-8.6-222.7-14.1-309.7c-0.4-6.4-0.8-12.8-1.3-19.1c39.6,135.2,77.7,271.5,113.7,406.9l0.2,0.7
				c3.6,13,7.8,25.6,19.6,34.6c11.8,9,25,9.8,38.6,9.8h242.6c11.5,0,28.8,0,41.2-13.4c12.4-13.4,11-30.7,10.1-42.1
				c-22.1-275.8-22.1-652.7-0.1-916.5c1-11.4,2.4-28.7-10-42.2c-12.4-13.5-29.7-13.5-41.2-13.5H5703.7z M5872.4,415.6
				c-10.6,131.4-15.9,289.3-15.9,448.7c0,160,5.4,321.4,16,459c-17.1,0-233.4,0-233.4,0c-0.1,0-0.2,0-0.3,0c0-0.1-0.2-0.6-0.2-0.7
				c-50.4-189.8-104.9-381.3-162.1-569.2l-0.5-1.6l-15.9-36.5l-29.8,20.7l-43,29.3l2.9,18.7c8.6,56.2,14.7,113.5,18.2,170.2
				c5.4,86.3,10,204.3,14,308.4c0,0,1.9,48.3,2.4,60.8c-13.9,0-147.8,0-161.9,0c9.2-210.4,14.1-339.4,14.1-468.1
				c0-123.1-4.5-246-14-439.6c15.4,0,231.4,0,234.6,0c0.3,1.3,144.1,536,144.1,536c6,22.3,7.4,27.7,12.6,34.9
				c0,0,19.5,26.4,19.5,26.4l23.9-19.4L5742,959l0.5-14c0.1-3,0.2-6.6,0.2-10.8c0-71.2-15.5-302.2-27.1-473.4c0,0-2.2-32.9-3-45.2
				C5727.7,415.6,5856.5,415.6,5872.4,415.6z M5654.2,986.5C5654.2,986.5,5654.2,986.5,5654.2,986.5
				C5654.2,986.5,5654.2,986.5,5654.2,986.5z"/>
		</g>
		<g>
			<path class="st5" d="M3675.4,710.3c0.2-71,18.1-173.8,43.8-223.3c61.6-118.6,244.3-126.1,402.9-109.1
				c221,23.7,241.5,139.6,250.1,379.3c4.5,124.7,24,379-58.1,495.5c-104.5,148.3-452.8,161.9-565.1,15.5
				C3653.6,1143.9,3674.9,853,3675.4,710.3L3675.4,710.3z M4108.9,666.6c-0.8-30.4-16.8-95.4-34.8-118.4
				c-32.2-41.2-79.5-25.3-108.4,15.5c-58.2,82.1-37.8,375.8-34.8,415.9c3.4,46,14,164.2,42.6,203.5c40.7,55.9,93.8,32.5,116.1-31
				C4125.4,1050.2,4110.1,707.8,4108.9,666.6L4108.9,666.6z"/>
			<path class="st0" d="M3878.4,352.2c-91,18.1-153.6,58.9-185.8,121c-29.2,56.3-46.9,164.7-47.2,237l0,0c-0.1,19.1-0.5,41.5-1,65.1
				c-1.6,77.7-3.6,174.5,5.3,266.8c10.8,112.4,35.5,192.4,75.4,244.4c29.7,38.7,75.4,69.6,132.3,89.4
				c51.2,17.8,110.5,26.6,171.6,25.3c62.9-1.3,124.1-13,176.9-33.9c58.2-23,104.1-56.7,132.7-97.3c36.1-51.2,57.4-127.8,65.3-234.4
				c6.4-86.6,2.5-176.9-0.3-242.9l-1.5-36.6c-4.1-113.7-10.6-213.6-49-284c-20.2-37-48.2-64.8-85.6-85.1
				c-36.8-19.9-83.3-32.7-142.2-39C4027.7,337.6,3944.7,339,3878.4,352.2z M3772.7,1249.9c-32.4-42.2-53.7-114.1-63.3-213.6
				c-8.6-88.8-6.6-183.6-5.1-259.8c0.5-23.9,0.9-46.5,1-66.1l0,0c0.2-71.8,18.8-167.8,40.4-209.6c12.2-23.6,30.4-42.4,55.5-57.6
				c23.7-14.3,53.5-25.2,88.8-32.2c60.3-12,137.2-13.1,228.8-3.3c97.3,10.4,151.5,38.3,181.5,93.2c29.2,53.5,37.2,131.8,41.7,257.4
				l1.5,37c2.8,64.5,6.5,152.8,0.4,235.9c-7,94-25.3,162.8-54.5,204.2c-21.8,31-58.4,57.3-105.7,76
				c-46.2,18.3-100.2,28.6-156.1,29.7C3915.4,1343.4,3817.7,1308.4,3772.7,1249.9z"/>
			<path class="st0" d="M4027.6,494.1c-31.9,0.7-63.3,19.8-86.3,52.2c-28.4,40.1-43.4,118.7-45.9,240.4c-1.7,84.7,3.3,164.6,5.6,195
				c3,40.1,7.1,76.1,12.2,106.9c9,54.3,20.8,90.9,36.1,112c31.8,43.8,67.5,45.8,85.9,43.1c35.7-5.2,66.6-35.8,82.8-81.7
				c16.8-47.6,25.2-145.8,25.2-292.7c0-55.7-1.2-118.5-3.6-188.2c0,0-0.5-15.3-0.5-15.3c-0.9-34.4-17.9-106.2-41.2-136.1
				C4079.3,506.1,4054.4,493.4,4027.6,494.1z M3997.7,1165.3c-6-8.2-26.4-46.2-36.9-188c-11.9-159.9-7.4-344.4,29.4-396.3
				c11.6-16.3,26.4-26.6,38.8-26.9c2.8-0.1,11.5-0.3,21.5,12.6c12.6,16.2,27.8,73.9,28.5,100.8l0,0.1l0-0.1l0.5,15.7
				c10.7,306.3-4,418.6-18.2,458.9c-9.5,27.1-24.4,40.8-34.9,42.3C4014.7,1186,4003.4,1173.2,3997.7,1165.3z M4138.9,665.8
				L4138.9,665.8L4138.9,665.8L4138.9,665.8z"/>
		</g>
		<g>
			<path class="st5" d="M4445.8,710.3c0.2-71,18.1-173.8,43.8-223.3c61.6-118.6,244.3-126.1,402.9-109.1
				c221,23.7,241.5,139.6,250.1,379.3c4.5,124.7,24,379-58.1,495.5c-104.5,148.3-452.8,161.9-565.1,15.5
				C4424,1143.9,4445.3,853,4445.8,710.3L4445.8,710.3z M4879.4,666.6c-0.8-30.4-16.8-95.4-34.8-118.4
				c-32.2-41.2-79.5-25.3-108.4,15.5c-58.2,82.1-37.8,375.8-34.8,415.9c3.4,46,14,164.2,42.6,203.5c40.7,55.9,93.8,32.5,116.1-31
				C4895.9,1050.2,4880.5,707.8,4879.4,666.6L4879.4,666.6z"/>
			<path class="st0" d="M4648.9,352.2c-91,18.1-153.6,58.9-185.8,121c-29.2,56.3-47,164.7-47.2,237v0c-0.1,19.1-0.5,41.5-1,65.1
				c-1.6,77.7-3.6,174.5,5.3,266.8c10.8,112.4,35.5,192.4,75.4,244.4c29.7,38.7,75.4,69.6,132.3,89.4
				c51.2,17.8,110.5,26.6,171.6,25.3c62.9-1.3,124.1-13,176.9-33.9c58.2-23,104.1-56.7,132.7-97.3c36.1-51.2,57.4-127.8,65.3-234.4
				c6.4-86.6,2.5-176.9-0.3-242.9l-1.5-36.6c-4.1-113.7-10.6-213.6-49-284c-20.2-37-48.2-64.8-85.6-85.1
				c-36.8-19.9-83.3-32.7-142.2-39C4798.2,337.6,4715.1,339,4648.9,352.2z M4543.2,1249.9c-32.4-42.2-53.7-114.1-63.3-213.6
				c-8.6-88.8-6.6-183.6-5.1-259.8c0.5-23.9,0.9-46.5,1-66.1v0c0.2-71.8,18.8-167.8,40.4-209.6c12.2-23.6,30.4-42.4,55.5-57.6
				c23.7-14.3,53.5-25.2,88.8-32.2c60.3-12,137.2-13.1,228.8-3.3c97.3,10.4,151.5,38.3,181.5,93.2c29.3,53.5,37.2,131.8,41.7,257.4
				l1.5,37c2.8,64.5,6.5,152.8,0.4,235.9c-7,94-25.3,162.8-54.5,204.2c-21.8,31-58.4,57.3-105.7,76
				c-46.2,18.3-100.2,28.6-156.1,29.7C4685.8,1343.4,4588.1,1308.4,4543.2,1249.9z"/>
			<path class="st0" d="M4798,494.1c-31.9,0.7-63.3,19.8-86.3,52.2c-28.4,40.1-43.4,118.7-45.9,240.4c-1.7,84.7,3.3,164.6,5.6,195
				c8.4,112.7,24.6,186.4,48.2,218.9c31.8,43.8,67.5,45.8,85.9,43.1c35.7-5.2,66.6-35.8,82.8-81.7c23.1-65.7,30.4-227.5,21.6-480.9
				l-0.5-15.3c-0.9-34.4-17.9-106.2-41.2-136.1C4849.7,506.1,4824.8,493.4,4798,494.1z M4768.1,1165.3c-6-8.2-26.4-46.2-36.9-188
				c-11.9-159.9-7.4-344.4,29.4-396.3c11.6-16.3,26.4-26.6,38.8-26.9c2.8-0.1,11.5-0.3,21.5,12.6c12.6,16.2,27.8,73.9,28.5,100.8
				l0,0.1l0-0.1l0.5,15.7c10.7,306.3-4,418.6-18.2,458.9c-9.5,27.1-24.4,40.8-34.9,42.3C4785.1,1186,4773.8,1173.2,4768.1,1165.3z"
				/>
		</g>
	</g>
	<g>
		<g>
			<path class="st5" d="M2831.6,2755.1h127c18.1,0,20-2.3,19.9-23.2l-7.4-898c-0.2-20.8-2.6-23.2-23.4-23.2H2878
				c-20.9,0-23.2,2.2-22.6,22.3l14.2,519.7c0.1,5,0.2,8.9,0.3,12l-20.3,8.6c-11.8-33.7-59.2-365.9-84.4-539.5
				c-3-20.7-5.7-23-26.6-23h-123.9c-20.9,0-23.1,2.3-21.6,23.2c19.6,285.7,8.2,567.6-0.9,898.1c-0.6,20.9,1.7,23.2,22.6,23.2h89.3
				c17.2,0,19-2.2,18.2-22.3l-21.4-519.7c-0.3-6.9-0.5-11.8-0.5-15.3l18.8-8c0,0,0,0,0.1,0.1c0.3,0.2,0.6,0.7,0.9,1.4
				c36.7,176.4,66.9,354.1,90.3,532.8c0.3,4.8,0.3,9.5-0.2,14.4C2808.5,2753.4,2810.7,2755.1,2831.6,2755.1L2831.6,2755.1z"/>
			<path class="st0" d="M2878,1780.6c-11.4,0-28.5,0-41,12.8c-10.4,10.6-11.7,24-11.7,34.4c0,2.1,0.1,4,0.1,5.8
				c0,0,3.5,126.2,6.9,252.1c-11.2-75.6-22.2-151.5-30.1-205.8l-7.3-50.7c-1.5-10.6-3.9-26.6-16.6-37.6c-12.8-11-28.9-11-39.6-11
				h-123.9c-11.4,0-28.7,0-41.1,13.3c-12.4,13.3-11.2,30.5-10.4,41.9c17.4,253.8,10.2,502.7,2,791l-3,104.2
				c-0.3,11.3-0.8,28.3,11.7,41.2s29.6,12.9,40.9,12.9h89.3c9.4,0,25.2,0,37.2-12.4c9.7-10.1,11.2-22.4,11.2-33.1
				c0-2.8-0.1-5.5-0.2-8c0,0-5.5-133.2-10.9-266.1c14.7,87.1,27.8,174.4,39.3,261.4c0.1,1.2,0.1,2.4,0.1,3.5c0,1.7-0.1,3.3-0.3,4.8
				c-0.3,2.5-0.7,5.8-0.7,9.6c0,8,1.7,18.1,9.5,26.8c12,13.5,28.8,13.5,42.3,13.5h127c9.6,0,25.6,0,37.7-12.2
				c12.4-12.5,12.3-29.1,12.2-41.2l-7.4-898c-0.1-11.1-0.2-28-12.8-40.5c-12.6-12.5-29.4-12.5-40.6-12.5H2878z M2941.2,1840.6
				c0.1,12.8,7.1,870.8,7.2,884.5c-15.9,0-93.8,0-107.9,0c0-0.9,0-1.8-0.1-2.8l-0.1-1l-0.1-1c-23.4-178.7-53.9-358.7-90.6-535
				l-0.7-3.2l-1.3-3c-2.3-5.1-5.3-9.1-9.2-12.3l-14.1-11.6l-16.8,7.1l-37.2,15.8l0.1,19.9c0,4,0.2,9.2,0.5,16.3
				c0,0,20.3,493.4,21,510.7c-16.3,0-58.6,0-69.5,0c0.7-24,2.7-96.5,2.7-96.5c4.6-158.7,8.8-305.5,8.8-448
				c0-114.8-2.8-226.8-10.3-340c14.9,0,107.4,0,112.3,0c1.5,10.5,6.9,48,6.9,48c36.5,252.3,67.6,463.6,78.4,494.5l10.6,30.1
				l68.5-28.9l-0.7-32.5c0,0-13.5-494.5-14-511.1C2896.4,1840.6,2931.7,1840.6,2941.2,1840.6z"/>
		</g>
		<g>
			<path class="st5" d="M3412.4,2538.3l7.3-705.2c0.2-20.3-2.1-22.5-23-22.5h-100.6c-20.9,0-23.2,2.2-23,22.5l7.2,659
				c0.2,20.9,0,24.6-2.1,36.5c-7.2,39.9-37.6,58.4-62.2,48.5c-10.5-4.2-25.6-23.2-31.8-50.7c-3.8-16.9-4.3-21.1-4.3-42V1833
				c0-20.2-2.3-22.5-23.2-22.5h-92.9c-20.9,0-23.2,2.3-22.8,22.5l14.6,740c0.4,20.9,0.8,25.5,4,46.3
				c15.4,101.8,64.7,148.1,151.3,158.9c118.8,14.8,182.3-62.2,198.4-193.7C3411.9,2563.8,3412.2,2559.2,3412.4,2538.3L3412.4,2538.3
				z"/>
			<path class="st0" d="M3296.1,1780.6c-11.3,0-28.3,0-40.8,12.6c-12.4,12.6-12.3,29.2-12.1,40.1l7.2,659c0.2,20.4,0,21.8-1.7,30.8
				c-2.1,11.9-7.5,21.2-14.3,25c-2.3,1.3-4.4,1.6-6.3,1.1c-2.9-2.7-10.7-12.4-14.6-29.7c-3.2-14.2-3.5-16-3.5-35.4
				c0,0,0-651.2,0-651.2c0-11.1,0-27.9-12.9-40.4c-12.5-12.1-29.2-12.1-40.3-12.1h-92.9c-11.3,0-28.4,0-40.9,12.7
				c-12.4,12.7-12.1,29.4-11.9,40.4l14.6,740c0.4,22.1,1,28.2,4.3,50.2c8.6,57,27.3,99.6,57.2,130.1c29.3,30,68.6,47.7,120.1,54.1
				c57.5,7.1,106.3-4.5,144.9-34.6c47.2-36.8,76.5-99.1,87-185.2c2.7-22,3.1-27.6,3.3-49.7v0l7.3-705.2c0.1-11,0.3-27.6-12.2-40.2
				c-12.5-12.6-29.6-12.6-40.8-12.6H3296.1z M3389.6,1840.6c-0.2,15.3-7.2,697.4-7.2,697.4c-0.2,19.7-0.4,23.4-2.9,43
				c-8.4,68.7-30.7,118.9-64.4,145.2c-25.6,20-59.4,27.5-100.6,22.4c-76.1-9.5-112.4-48.2-125.4-133.6c-3-19.5-3.2-22.7-3.6-42.4
				c0,0-14.1-716.2-14.4-732c11.5,0,68.1,0,78.8,0c0,14.8,0,643.7,0,643.7c0,23.1,0.7,29.5,5,48.6c7.8,34.2,27.8,63.1,49.9,71.9
				c18.8,7.5,40.1,6,58.5-4.2c22.8-12.6,38.9-37,44.3-66.9c2.2-11.9,2.7-18.1,2.7-31.5c0-3.1,0-6.6-0.1-10.6c0,0-7-635.7-7.2-651.1
				C3314.5,1840.6,3378.3,1840.6,3389.6,1840.6z"/>
		</g>
		<g>
			<path class="st5" d="M4031.5,2498.6v-30.3c0-13.6-2.3-15.1-23.2-15.1h-69.7c-20.9,0-23.2,2.1-23.2,21.3v236.8
				c0,20.9,2.1,24.2,21.1,33.1c32.9,15.3,118.2,34.5,137.6,34c104.1-2.6,148.8-63.4,170.3-162.6c22.1-102,22.3-262.3-38.7-340.6
				c-33.2-42.7-91.4-81.2-127.7-123.9c-39.5-46.4-63.5-103.7-34.8-154.8c14.2-25.5,45.6-37.1,61.9-15.5
				c13.4,17.8,24.9,64.3,21.7,89.8c-2.1,16.7,0,18.6,20.9,18.6h66.9c16.4,0,18.2-2.1,18.2-21.1v-206.1c0-20.9-2-24.4-20.4-34.5
				c-63.3-34.8-139.1-41-188.6-20.9c-107.4,43.5-123,185.7-116.1,315.1c5.9,112.5,23.5,175.4,107,244.3
				c67.5,55.7,135,102.6,109.8,193c-7.4,26.5-29.6,58.4-64.6,41.2c-12.9-6.3-24.8-37.1-26.7-59.9
				C4031.7,2523.2,4031.5,2519,4031.5,2498.6L4031.5,2498.6z"/>
			<path class="st0" d="M4012.5,1778.9c-57.7,23.4-97.5,72.1-118.5,144.8c-15.3,53.1-20.6,118.4-16.4,199.6
				c2.6,49.3,7.6,101.4,26.6,148.2c17.6,43.4,46.6,80.8,91.2,117.6l14.1,11.6c66.5,54.3,103.2,88,85.9,150.2
				c-3.5,12.7-10.3,21.7-14.8,23.7c-0.6,0.3-2,0.9-5.7-0.5c-3.9-5.1-10.7-21.2-12-36.4c-1.4-16.3-1.5-19.6-1.5-39.2v-30.3
				c0-7.2,0-26.5-17.4-37.8c-10.4-6.8-21.9-7.3-35.8-7.3h-69.7c-11.5,0-27.4,0-39.7,11.4c-13.5,12.4-13.5,29.6-13.5,40v236.8
				c0,12.9,0.6,25.4,8.2,37.2c7.5,11.8,18.6,17.6,30.3,23c35.7,16.6,125.7,37.4,151,36.8c142.9-3.6,181.9-108,198.9-186.2
				c9.3-43.1,14.2-91.8,14.2-139.1c0-16.5-0.6-32.9-1.8-48.8c-4.1-53-17.2-126.8-56.8-177.6c-19.3-24.8-45.3-47.4-70.4-69.4
				c-21.8-19-42.4-37-58.1-55.5c-18.5-21.8-31.3-44-36.9-64.2c-2.2-8.1-3.4-15.8-3.4-23.2c0-11.9,2.9-22.9,8.8-33.4
				c4-7.1,9.5-10.4,12.4-11.2c7.3,10.6,15.6,41.5,15.6,61c0,2.2-0.1,4.3-0.3,6.2c-0.4,3.1-0.9,7-0.9,11.5c0,8.4,1.8,18.4,9.5,27.1
				c12.1,13.7,29.4,13.7,42.1,13.7h66.9c9.1,0,26,0,38-13.8c10.3-11.9,10.3-26.6,10.3-37.3v-206.1c0-12.6-0.6-24.9-7.5-36.6
				c-6.9-11.7-17.4-18.1-28.4-24.2c-33.9-18.7-72.3-30.7-110.9-34.6C4077.6,1762.8,4041.8,1767,4012.5,1778.9z M4105.3,2629.5
				c22-9.9,39.9-33.2,48.1-62.4c13-46.8,6.6-88.7-19.7-127.9c-21.6-32.2-52.9-57.8-86.1-84.9l-13.9-11.4
				c-75.9-62.7-90.5-117-96.1-222.7c-3.9-74.4,0.7-133.3,14.1-179.9c15.8-54.9,43.1-89.5,83.3-105.8c43.3-17.5,110.3-9.6,162.8,19.4
				c2.1,1.2,3.7,2.1,4.8,2.8c0,1.3,0.1,3.1,0.1,5.5c0,0,0,180.8,0,197.1c-13.2,0-34.4,0-45.6,0c-0.5-32.7-12.5-75.7-28.2-96.5
				c-12.1-16-30.5-24.4-50.3-23.1c-24.5,1.7-48.2,17.8-61.7,42c-17.1,30.6-20.9,65.8-10.9,101.8c8,29,24.5,58.3,49,87.1
				c18.6,21.9,41.9,42.2,64.4,61.8c24.1,21,46.8,40.8,62.5,61c24,30.9,39.4,81.1,44.3,145.3c4.3,55.7,0.2,117.9-11.2,170.5
				c-10.3,47.6-25.5,81.3-46.5,103c-22.2,23.1-53.4,34.9-95.3,35.9c-14.5,0.2-95.2-17.8-124.2-31.2c-1.5-0.7-2.7-1.3-3.7-1.8
				c0-1.1,0-2.4,0-4.1c0,0,0-212,0-228.1c9.9,0,46.3,0,56.1,0c0,7.7,0,15.4,0,15.4c0,21.3,0.2,26.2,1.7,44.2
				c1.5,18.3,12.3,69.1,43.4,84.4C4071.8,2639.5,4092.4,2635.2,4105.3,2629.5z"/>
		</g>
		<g>
			<path class="st5" d="M4596.7,1988.7v-157.5c0-18.5-2.1-20.5-21.3-20.5h-241.9c-20.9,0-23.2,2.3-22.8,23.2
				c4.8,252.2,14.4,693.5,7.3,756.7c-0.2,1.8-0.4,3.6-0.7,5.6c1.9,42.9-1.2,85.8-9.2,128c0.1,2.6,0.3,5.2,0.5,7.7
				c1.5,20.9,4,23.2,24.9,23.2h241.9c19.2,0,21.3-2.3,21.3-23.2v-147.1c0-20.9-2.3-23.2-23.2-23.2h-100.6
				c-20.9,0-23.2-2.3-23.2-23.2v-147.1c0-20.9,2.3-23.2,23.2-23.2h92.9c20.9,0,23.2-2.3,23.2-23.2v-139.3c0-20.9-2.3-23.2-23.2-23.2
				h-92.9c-20.9,0-23.2-2.3-23.2-23.2v-131.6c0-20.9,2-23.1,19.5-22.2c0,0,72.4-1.7,122.3,9.4
				C4598.4,2022.9,4596.7,2009.6,4596.7,1988.7L4596.7,1988.7z"/>
			<path class="st0" d="M4333.4,1780.6c-11.3,0-28.3,0-40.8,12.8s-12.2,29.8-12,41l1.8,94.8c4.7,240.6,11.7,604.1,5.7,658l-0.9,7.7
				l0.1,2.6c1.8,40.5-1.1,81.2-8.7,121.1l-0.7,3.6l0.7,11.8c0.8,10.9,1.9,27.4,14.6,39.3c12.7,11.8,29.2,11.8,40.2,11.8h241.9
				c10.3,0,27.6,0,40-13.5c11.4-12.4,11.4-28.2,11.4-39.8v-147.1c0-11.2,0-28.1-12.6-40.7s-29.5-12.6-40.7-12.6c0,0-82.1,0-93.9,0
				c0-11.7,0-121.8,0-133.5c11.6,0,86.1,0,86.1,0c11.2,0,28.1,0,40.7-12.6s12.6-29.5,12.6-40.7v-139.3c0-11.2,0-28.1-12.6-40.7
				c-12.6-12.6-29.5-12.6-40.7-12.6c0,0-74.5,0-86.1,0c0-11.4,0-104.2,0-117.1c19.4,0,64.1,0.8,98.8,7.5c11.9,7.2,23.3,4.1,27.2,2.6
				c7.3-2.7,19.8-10.4,21.1-31.6c0.3-4.3,0.2-9.2,0.1-14.9l-0.1-10.1v-157.5c0-10,0-26.6-12.7-38.8c-12.2-11.7-28.1-11.7-38.7-11.7
				H4333.4z M4566.7,1840.6c0,15.7,0,125,0,139.4c-43.6-5.5-89.3-5-97.1-4.9c-9.6-0.5-24.8-0.8-37,10.7c-13,12.3-13,29.2-13,41.5
				V2159c0,11.2,0,28.1,12.6,40.7c12.6,12.6,29.5,12.6,40.7,12.6c0,0,74.5,0,86.1,0c0,11.6,0,114.2,0,125.8c-11.6,0-86.1,0-86.1,0
				c-11.2,0-28.1,0-40.7,12.6c-12.6,12.6-12.6,29.5-12.6,40.7v147.1c0,11.2,0,28.1,12.6,40.7c12.6,12.6,29.5,12.6,40.7,12.6
				c0,0,82.1,0,93.9,0c0,11.7,0,121.8,0,133.5c-15.8,0-219,0-228.2,0c6.2-34.4,9.4-69.5,9.4-104.5c0-7.7-0.2-15.4-0.5-23.2
				c0.2-1.7,0.4-3.5,0.4-3.5c1.9-17.1,2.7-57.6,2.7-115.6c0-122.8-3.7-324.4-8-550.3c0,0-1.4-74.9-1.7-87.4
				C4354.1,1840.6,4551.1,1840.6,4566.7,1840.6z"/>
		</g>
		<g>
			<path class="st5" d="M5077.6,1832.7c12.6,299.3,12.8,599.1,0.4,898.4c0,0.3,0,0.5,0,0.8c-1.2,20.9,1,23.2,21.9,23.2l119.2-1.2
				c17.8,0,19.6-0.5,19.4-21.4c0,0,0,0,0-1.4c-13.5-301.6-13-603.6,1.4-905.1c2.3-15.1-11-14-26-14l-114-1.4
				C5079.3,1810.6,5076.8,1812.8,5077.6,1832.7L5077.6,1832.7z"/>
			<path class="st0" d="M5099.9,1780.6c-11.3,0-28.4,0-40.9,12.9c-10.1,10.4-11.5,23.7-11.5,33.7c0,2.4,0.1,4.6,0.2,6.5l0,0.1
				c6.3,150.2,9.5,301.4,9.5,452.7c0,148.1-3,296.1-9.1,443.1c0,0.2,0,0.6,0,0.6c-0.1,2.7-0.3,5.7-0.3,8.9
				c0,10.3,1.7,22.7,11.2,32.7c12.4,13.1,29.6,13.1,41,13.1c0,0,119.1-1.2,119.4-1.2c11.6,0,26-0.1,37.5-11.7
				c10.9-11,11.8-25.3,11.8-36.6c0-1.1,0-2.2,0-3.2c0-0.2,0-2,0-2l0-0.6c-6.5-144.8-9.7-290.5-9.7-436.3c0-155.5,3.7-310.9,11-465.3
				c0.2-1.9,0.3-3.7,0.3-5.4c0-12.3-4.9-20.8-9.4-26.1c-12.8-14.8-30.9-14.7-44.2-14.7c0,0-2.2,0-2.5,0c-0.4,0-114-1.4-114-1.4
				H5099.9z M5117.1,2286.6c0-149-3.1-297.9-9.2-445.9c13.8,0.2,93.7,1.1,101.2,1.2c-6.9,149.8-10.3,300.7-10.3,451.5
				c0,143.9,3.1,287.7,9.4,430.6c-16.2,0.2-86.5,0.8-99.9,1C5114.1,2579.5,5117.1,2433.1,5117.1,2286.6z"/>
		</g>
		<g>
			<path class="st5" d="M5579.7,1988.7v-157.5c0-18.5-2.1-20.5-21.3-20.5h-241.9c-20.9,0-23.2,2.3-22.8,23.2
				c4.8,252.2,14.4,693.5,7.3,756.7c-0.2,1.8-0.4,3.6-0.7,5.6c1.9,42.9-1.2,85.8-9.2,128c0.1,2.6,0.3,5.2,0.5,7.7
				c1.5,20.9,4,23.2,24.9,23.2h241.9c19.2,0,21.3-2.3,21.3-23.2v-147.1c0-20.9-2.3-23.2-23.2-23.2h-100.6
				c-20.9,0-23.2-2.3-23.2-23.2v-147.1c0-20.9,2.3-23.2,23.2-23.2h92.9c20.9,0,23.2-2.3,23.2-23.2v-139.3c0-20.9-2.3-23.2-23.2-23.2
				h-92.9c-20.9,0-23.2-2.3-23.2-23.2v-131.6c0-20.9,2-23.1,19.5-22.2c0,0,72.4-1.7,122.3,9.4
				C5581.5,2022.9,5579.7,2009.6,5579.7,1988.7L5579.7,1988.7z"/>
			<path class="st0" d="M5316.5,1780.6c-11.3,0-28.3,0-40.8,12.8c-12.5,12.8-12.2,29.8-12,41l1.8,94.8
				c4.7,240.6,11.7,604.2,5.7,658.1l-0.9,7.7l0.1,2.6c1.8,40.5-1.1,81.2-8.7,121.1l-0.7,3.6l0.7,11.8c0.8,10.9,1.9,27.5,14.6,39.3
				c12.7,11.8,29.2,11.8,40.2,11.8h241.9c10.3,0,27.6,0,40-13.5c11.4-12.4,11.4-28.2,11.4-39.8v-147.1c0-11.2,0-28.1-12.6-40.7
				c-12.6-12.6-29.5-12.6-40.7-12.6c0,0-82.1,0-93.9,0c0-11.7,0-121.8,0-133.5c11.6,0,86.1,0,86.1,0c11.2,0,28.1,0,40.7-12.6
				c12.6-12.6,12.6-29.5,12.6-40.7v-139.3c0-11.2,0-28.1-12.6-40.7c-12.6-12.6-29.5-12.6-40.7-12.6c0,0-74.5,0-86.1,0
				c0-11.4,0-104.2,0-117.1c19.4,0,64.1,0.8,98.8,7.5c11.9,7.2,23.3,4.1,27.2,2.6c7.3-2.7,19.8-10.4,21.1-31.6
				c0.3-4.3,0.2-9.2,0.1-14.9l-0.1-10.1v-157.5c0-10,0-26.6-12.7-38.8c-12.2-11.7-28.1-11.7-38.7-11.7H5316.5z M5549.7,1840.6
				c0,15.7,0,125,0,139.4c-43.6-5.5-89.3-5-97.1-4.9c-9.6-0.5-24.8-0.8-37,10.7c-13,12.3-13,29.2-13,41.5V2159
				c0,11.2,0,28.1,12.6,40.7c12.6,12.6,29.5,12.6,40.7,12.6c0,0,74.5,0,86.1,0c0,11.6,0,114.2,0,125.8c-11.6,0-86.1,0-86.1,0
				c-11.2,0-28.1,0-40.7,12.6c-12.6,12.6-12.6,29.5-12.6,40.7v147.1c0,11.2,0,28.1,12.6,40.7c12.6,12.6,29.5,12.6,40.7,12.6
				c0,0,82.1,0,93.9,0c0,11.7,0,121.8,0,133.5c-15.8,0-219,0-228.2,0c6.2-34.4,9.4-69.5,9.4-104.5c0-7.7-0.2-15.5-0.5-23.2
				c0.2-1.7,0.4-3.5,0.4-3.5c1.9-17.2,2.8-57.6,2.8-115.6c0-122.8-3.7-324.4-8-550.4c0,0-1.4-74.9-1.7-87.4
				C5337.2,1840.6,5534.1,1840.6,5549.7,1840.6z"/>
		</g>
		<g>
			<path class="st5" d="M5753.7,2498.6v-30.3c0-13.6-2.3-15.1-23.2-15.1h-69.7c-20.9,0-23.2,2.1-23.2,21.3v236.8
				c0,20.9,2.1,24.2,21.1,33.1c32.9,15.3,118.2,34.5,137.6,34c104.1-2.6,148.8-63.4,170.3-162.6c22.1-102,22.3-262.3-38.7-340.6
				c-33.2-42.7-91.4-81.2-127.7-123.9c-39.5-46.4-63.5-103.7-34.8-154.8c14.2-25.5,45.6-37.1,61.9-15.5
				c13.4,17.8,24.9,64.3,21.7,89.8c-2.1,16.7,0,18.6,20.9,18.6h66.9c16.4,0,18.2-2.1,18.2-21.1v-206.1c0-20.9-2-24.4-20.4-34.5
				c-63.3-34.8-139.1-41-188.6-20.9c-107.4,43.5-123,185.7-116.1,315.1c5.9,112.5,23.5,175.4,107,244.3
				c67.5,55.7,135,102.6,109.8,193c-7.4,26.5-29.6,58.4-64.6,41.2c-12.9-6.3-24.8-37.1-26.7-59.9
				C5753.9,2523.2,5753.7,2519,5753.7,2498.6L5753.7,2498.6z"/>
			<path class="st0" d="M5734.7,1778.9c-57.7,23.4-97.5,72.1-118.5,144.8c-15.3,53.1-20.6,118.4-16.4,199.6
				c2.6,49.3,7.6,101.4,26.6,148.2c17.6,43.4,46.6,80.8,91.2,117.6l14.1,11.6c66.5,54.3,103.2,88,85.9,150.2
				c-3.5,12.7-10.3,21.7-14.8,23.7c-0.6,0.3-2,0.9-5.7-0.5c-3.9-5.1-10.7-21.2-12-36.4c-1.4-16.3-1.5-19.6-1.5-39.2v-30.3
				c0-7.2,0-26.5-17.4-37.8c-10.4-6.8-21.9-7.3-35.8-7.3h-69.7c-11.5,0-27.4,0-39.7,11.4c-13.5,12.4-13.5,29.6-13.5,40v236.8
				c0,12.9,0.6,25.4,8.2,37.2c7.5,11.8,18.6,17.6,30.3,23c35.7,16.6,125.7,37.4,151,36.8c142.9-3.6,181.9-108,198.9-186.2
				c9.3-43.1,14.2-91.8,14.2-139.1c0-16.5-0.6-32.9-1.8-48.8c-4.1-53-17.2-126.8-56.8-177.6c-19.3-24.8-45.3-47.4-70.4-69.4
				c-21.8-19-42.4-37-58.1-55.5c-18.5-21.8-31.3-44-36.9-64.2c-2.2-8.1-3.4-15.8-3.4-23.2c0-11.9,2.9-22.9,8.8-33.4
				c4-7.1,9.5-10.4,12.4-11.2c7.3,10.6,15.6,41.5,15.6,61c0,2.2-0.1,4.3-0.3,6.2c-0.4,3.1-0.9,7-0.9,11.5c0,8.4,1.8,18.4,9.5,27.1
				c12.1,13.7,29.4,13.7,42.1,13.7h66.9c9.1,0,26,0,38-13.8c10.3-11.9,10.3-26.6,10.3-37.3v-206.1c0-12.6-0.6-24.9-7.5-36.6
				c-6.9-11.7-17.4-18.1-28.4-24.2c-33.9-18.7-72.3-30.7-110.9-34.6C5799.8,1762.8,5764,1767,5734.7,1778.9z M5827.4,2629.5
				c22-9.9,39.9-33.2,48.1-62.4c13-46.8,6.6-88.7-19.7-127.9c-21.6-32.2-52.9-57.8-86.1-84.9l-13.9-11.4
				c-75.9-62.7-90.5-117-96.1-222.7c-3.9-74.4,0.7-133.3,14.1-179.9c15.8-54.9,43.1-89.5,83.3-105.8c43.3-17.5,110.3-9.6,162.8,19.4
				c2.1,1.2,3.7,2.1,4.8,2.8c0,1.3,0.1,3.1,0.1,5.5c0,0,0,180.8,0,197.1c-13.2,0-34.4,0-45.6,0c-0.5-32.7-12.5-75.7-28.2-96.5
				c-12.1-16-30.5-24.5-50.3-23.1c-24.5,1.7-48.2,17.8-61.7,42c-17.1,30.6-20.9,65.8-10.9,101.8c8,29,24.5,58.3,49,87.1
				c18.6,21.9,41.9,42.2,64.4,61.8c24.1,21,46.8,40.8,62.5,61c24,30.9,39.4,81.1,44.3,145.3c4.3,55.7,0.2,117.9-11.2,170.5
				c-10.3,47.6-25.5,81.3-46.5,103c-22.2,23.1-53.4,34.9-95.3,35.9c-14.5,0.2-95.2-17.8-124.2-31.2c-1.5-0.7-2.7-1.3-3.7-1.8
				c0-1.1,0-2.4,0-4.1c0,0,0-212,0-228.1c9.9,0,46.3,0,56.1,0c0,7.7,0,15.4,0,15.4c0,21.3,0.2,26.2,1.7,44.2
				c1.5,18.3,12.3,69.1,43.4,84.4C5794,2639.5,5814.6,2635.2,5827.4,2629.5z"/>
		</g>
		<g>
			<path class="st5" d="M3833.7,2346.7c3.8,19.2,4.4,23.6,5.6,44.5l20.5,342.1c1.2,19.6-1,21.8-21.9,21.8h-85.2
				c-20.5,0-23.3-2.6-24.2-21.6l-13.4-288.3c-1-20.9-1.3-24.5-3.5-36.5c-5.3-29.2-18.5-41.6-40.9-43.8c-11.5-0.9-23.1,0.1-34.3,3.1
				c-6.6,2.8-7.5,8.4-7.5,23.1v342c0,19.6-2,21.8-19.6,21.8h-104.3c-20.9,0-23.3-1.4-23.9-13.5c-0.1-2.1,0-4.3,0.1-6.4
				c5.7-21.2,8.5-43.2,8.1-65.2c0-1.8,0-3.7,0-5.9l-7.3-830.9c-0.2-20.3,1.9-22.6,20.7-22.6h183.2c20.9,0,25,0.2,40.8,1.9
				c18.8,2,53.7,16.9,64.8,25.2c34.5,25.5,50.8,111.9,54.2,154.1c7.5,93.6,1.7,223.1-97.7,271.8c-1.3,0.6-2.4,1.2-3.8,1.9l0.4,10
				c1.3,0.1,2.8,0.3,4.4,0.4C3802.3,2280.7,3824.5,2300.2,3833.7,2346.7L3833.7,2346.7z M3628.9,2174.5c0,20.9,1.2,23.4,12.4,24.6
				c38.9,4.4,62.3-13.8,68.9-32.4c19.7-55.1,23.8-149.4-15.4-179c-8.1-6.1-10.9-6.8-28-6.8h-25.3c-11.4,0-12.6,2.1-12.6,20.7V2174.5
				L3628.9,2174.5z"/>
			<path class="st0" d="M3502.7,1780.6c-9.8,0-26.3,0-38.5,12.3c-12.4,12.5-12.2,29.4-12.1,40.5l7.3,830.9c0,0,0,6.1,0,6.1
				c0.3,19.2-2.1,38.4-7.1,56.9l-0.7,2.6l-0.2,2.7c-0.3,3.7-0.4,7.1-0.2,10.4c0.3,6.3,1.3,25.6,19.6,35.9c10,5.6,20.5,6.1,34.3,6.1
				h104.3c10,0,26.6,0,38.7-13.5c10.8-12.1,10.8-27.2,10.8-38.3c0,0,0-331.5,0-338.5c3.1-0.2,6.3-0.1,9.4,0.1
				c6.4,0.6,10.6,1.4,13.8,19.2c1.8,10,2.1,12.1,3,32.5l13.4,288.3c0.5,10,1.2,26.9,14.8,38.9c12.6,11.3,28.7,11.3,39.4,11.3h85.2
				c11.5,0,28.9,0,41.2-13.1c9.3-9.8,10.9-22,10.9-31.9c0-3.2-0.2-6.1-0.3-8.6l-20.5-342.1c-1.3-22.2-2.1-28.1-6.1-48.5v0
				c-8.1-40.7-25.9-66.9-56.9-81.5c28.1-26.5,48.1-62.4,59.7-107.4c8-31.1,12-66.1,12-106c0-17.9-0.8-36.7-2.4-56.6
				c-1.1-13.8-12.4-135.9-66.3-175.8c-15.9-11.7-55.6-28.3-79.4-30.9c-17-1.9-22-2.1-44-2.1H3502.7z M3685.9,1840.6
				c19.8,0,23,0.1,37.5,1.7c12.6,1.4,42.9,14,50.2,19.5c3.5,2.6,15.8,14.2,27.8,55.1c8.2,28.1,12.8,58.3,14.3,77.2
				c4.6,57.6,2,104.3-7.9,142.8c-12.7,49.1-36.6,81.7-73.1,99.6c0,0-4.1,2-4.1,2l-17.4,8.7l0.9,19.4l1.5,36l30.5,3
				c42.2,3.9,51.9,15.6,58.1,46.8v0c3.5,17.9,3.9,20.9,5.1,40.5c0,0,18.8,313.3,19.9,332.1c-13,0-62.7,0-71.1,0
				c-0.6-13.4-13.1-281.2-13.1-281.2c-1-21.1-1.4-26.4-3.9-40.4c-9.4-52-41.9-65.8-67.5-68.3l-0.2,0l-0.2,0
				c-14.9-1.2-29.9,0.2-44.4,4l-2,0.5l-1.9,0.8c-26,10.9-26,36.9-26,50.8c0,0,0,318.3,0,333.9c-15.2,0-70.7,0-84.5,0
				c3.3-16.9,5-34.2,5-51.4c0-1.4,0-2.7,0-4.1l0,0.3l0-6c0,0-7.1-808.2-7.3-823.3C3529.1,1840.6,3685.9,1840.6,3685.9,1840.6z"/>
			<path class="st0" d="M3641.6,1950.9c-6.3,0-25.4,0-36.2,17.8c-6,9.8-6.4,20.3-6.4,33v172.8c0,13.3,0.4,23.5,5.2,33.1
				c9.3,18.5,27.7,20.6,33.8,21.3c54.4,6.2,89.7-21.7,100.6-52.1c22-61.6,29.1-171.8-25.6-213.1c-15.4-11.6-25.9-12.8-46-12.8
				H3641.6z M3666.8,2010.9c4.3,0,7.3,0.1,9.1,0.2c0.2,0.2,0.5,0.4,0.8,0.6c7.8,5.8,16.5,23.9,17.9,57.2c0.1,2.9,0.2,5.9,0.2,8.8
				c0,26.7-4.7,56.2-12.9,78.9c-1.8,5-9.2,11.4-23,12.8c0-8.9,0-142.5,0-158.5C3662.3,2010.9,3666.8,2010.9,3666.8,2010.9z"/>
		</g>
		<g>
			<path class="st5" d="M4996.7,2346.7c3.8,19.2,4.4,23.6,5.6,44.5l20.5,342.1c1.2,19.6-1,21.8-21.9,21.8h-85.2
				c-20.5,0-23.3-2.6-24.2-21.6l-13.4-288.3c-1-20.9-1.3-24.5-3.5-36.5c-5.3-29.2-18.5-41.6-40.9-43.8c-11.5-0.9-23.1,0.1-34.3,3.1
				c-6.6,2.8-7.5,8.4-7.5,23.1v342c0,19.6-2,21.8-19.6,21.8h-104.3c-20.9,0-23.3-1.4-23.9-13.5c-0.1-2.1,0-4.3,0.1-6.4
				c5.7-21.2,8.5-43.2,8.1-65.2c0-1.8,0-3.7,0-5.9l-7.3-830.9c-0.2-20.3,1.9-22.6,20.7-22.6h183.2c20.9,0,25,0.2,40.8,1.9
				c18.8,2,53.7,16.9,64.8,25.2c34.5,25.5,50.8,111.9,54.2,154.1c7.5,93.6,1.7,223.1-97.7,271.8c-1.3,0.6-2.4,1.2-3.8,1.9l0.4,10
				c1.3,0.1,2.8,0.3,4.4,0.4C4965.3,2280.7,4987.5,2300.2,4996.7,2346.7L4996.7,2346.7z M4792,2174.5c0,20.9,1.2,23.4,12.4,24.6
				c38.9,4.4,62.3-13.8,68.9-32.4c19.7-55.1,23.8-149.4-15.4-179c-8.1-6.1-10.9-6.8-28-6.8h-25.3c-11.4,0-12.6,2.1-12.6,20.7V2174.5
				L4792,2174.5z"/>
			<path class="st0" d="M4665.7,1780.6c-9.8,0-26.3,0-38.5,12.3c-12.4,12.5-12.2,29.4-12.1,40.5l7.3,830.9c0,0,0,6.1,0,6.1
				c0.3,19.2-2.1,38.4-7.1,56.9l-0.7,2.6l-0.2,2.7c-0.3,3.7-0.4,7.1-0.2,10.5c0.3,6.3,1.3,25.6,19.6,35.9c10,5.6,20.5,6.1,34.3,6.1
				h104.3c10,0,26.6,0,38.7-13.5c10.8-12.1,10.8-27.2,10.8-38.3c0,0,0-331.5,0-338.5c3.1-0.2,6.3-0.1,9.4,0.1
				c6.4,0.6,10.6,1.4,13.8,19.2c1.8,10,2.1,12.1,3,32.5l13.4,288.3c0.5,10,1.2,26.9,14.8,38.9c12.6,11.3,28.7,11.3,39.4,11.3h85.2
				c11.5,0,28.9,0,41.2-13.1c9.3-9.8,10.9-22,10.9-31.9c0-3.2-0.2-6.1-0.3-8.6l-20.5-342.1c-1.3-22.2-2.1-28.1-6.1-48.5
				c-8.1-40.7-25.9-66.9-56.9-81.5c28.1-26.5,48.1-62.4,59.7-107.4c8-31.1,12-66.2,12-106c0-17.9-0.8-36.7-2.4-56.6
				c-1.1-13.8-12.4-135.9-66.3-175.8c-15.9-11.7-55.6-28.3-79.4-30.9c-17-1.9-21.9-2.1-44-2.1H4665.7z M4848.9,1840.6
				c19.8,0,23,0.1,37.5,1.7c12.6,1.4,42.9,14,50.2,19.5c3.5,2.6,15.8,14.2,27.8,55.1c8.2,28.1,12.8,58.3,14.3,77.2
				c4.6,57.6,2,104.3-7.9,142.8c-12.7,49.1-36.6,81.7-73.1,99.6c0,0-4.1,2-4.1,2l-17.4,8.7l0.9,19.3l1.5,36l30.5,3
				c42.2,3.9,51.9,15.6,58.1,46.8v0c3.5,17.9,3.9,20.9,5.1,40.5c0,0,18.8,313.2,19.9,332.1c-13,0-62.6,0-71.1,0
				c-0.6-13.4-13.1-281.2-13.1-281.2c-1-21.1-1.4-26.4-3.9-40.4c-9.4-52-41.9-65.8-67.5-68.3l-0.2,0l-0.2,0
				c-14.9-1.2-29.9,0.2-44.3,4l-2,0.5l-1.9,0.8c-26,10.9-26,36.9-26,50.8c0,0,0,318.3,0,333.9c-15.2,0-70.7,0-84.5,0
				c3.3-16.9,5-34.2,5-51.5c0-1.4,0-2.7,0-4.1l0,0.3l0-6c0,0-7.1-808.2-7.3-823.3C4692.1,1840.6,4848.9,1840.6,4848.9,1840.6z
				 M5026.2,2340.8L5026.2,2340.8L5026.2,2340.8C5026.2,2340.8,5026.2,2340.8,5026.2,2340.8z"/>
			<path class="st0" d="M4804.6,1950.9c-6.3,0-25.4,0-36.2,17.8c-6,9.8-6.4,20.3-6.4,33v172.8c0,13.3,0.4,23.5,5.2,33.1
				c9.3,18.5,27.7,20.6,33.8,21.3c54.4,6.2,89.7-21.7,100.6-52.1c22-61.6,29.1-171.8-25.6-213.1c-15.4-11.6-25.9-12.8-46-12.8
				H4804.6z M4829.9,2010.9c4.3,0,7.3,0.1,9.1,0.2c0.2,0.2,0.5,0.4,0.8,0.6c7.8,5.8,16.5,23.9,17.9,57.2c0.1,2.9,0.2,5.9,0.2,8.8
				c0,26.7-4.7,56.2-12.9,78.9c-1.8,5-9.2,11.4-23,12.8c0-8.9,0-142.5,0-158.5C4825.4,2010.9,4829.9,2010.9,4829.9,2010.9z"/>
		</g>
	</g>
</g>
<g id="lettering_overlay">
	<g>
		<path class="st4" d="M3366,1336.9c0.5,14.6,4,16.4,20.4,16.4h172.8c20.9,0,23.1-2.3,21.7-23.2c-23.2-363.1-15.1-492.3,0.6-929.1
			c0.8-20.9-1.5-23.2-22.4-23.2h-329.2c-18.3,0-22.3,3.7-25.1,23l-94.7,666c-1.4,9.7-21.7,9.7-23.2,0l-102.2-666.1
			c-2.9-19.2-7.1-23-25.3-23h-329.2c-20.9,0-23,2.3-20.7,23.1c29.3,265,11.6,614,5.6,929.1c-0.4,20.9,1.9,23.2,22.8,23.2h172.8
			c18.7,0,20.7-2.2,20.5-22.4l0-4l-0.6-670.1l27.3,0.1c1.1,3.1,2.2,8.8,4.5,22.5l109.8,651.7c3.1,18.4,7.7,22.1,27,22.1H3198
			c16.6,0,22.3-2.8,25.6-15.3c0-0.2,0.9-5.2,2.5-14.4L3342,657.7c0-0.1,0.1-0.3,0.1-0.4c1.1-4.1,24.9-1.2,26.9-0.7L3366,1336.9
			L3366,1336.9z"/>
		<path class="st4" d="M5639.1,1353.3h242.6c20.9,0,23-2.3,21.4-23.2c-21.8-272-22.7-650.6-0.1-921.4c1.7-20.8-0.4-23.2-21.3-23.2
			h-178.1c-20.9,0-23.1,2.3-21.7,23.2c11.2,167.3,32.6,476,30.5,535.2l-33.3,25.9c-0.2-0.3-0.4-0.5-0.6-0.8
			c-1.8-2.6-2.6-5.1-8.1-25.3l-144.2-536.6c-4.6-17-10.3-21.6-27.2-21.6h-244.5c-20.9,0-23.1,2.3-22.1,23.2
			c19.9,404.7,18.4,499.6-0.1,921.3c-0.9,20.9,1.3,23.2,22.2,23.2h178.1c20.9,0,23.1-2.3,22.3-23.2c-4.5-111.7-10-270.6-16.7-377.7
			c-3.5-57.9-9.7-115.6-18.5-173l27.3-18.6c0.2,0.4,0.4,0.9,0.6,1.4c57.3,188.5,111.3,377.9,161.8,568.3c0,0.1,0.1,0.3,0.1,0.4
			C5615.3,1351.1,5618.2,1353.3,5639.1,1353.3L5639.1,1353.3z"/>
		<path class="st4" d="M3675.4,710.3c0.2-71,18.1-173.8,43.8-223.3c61.6-118.6,244.3-126.1,402.9-109.1
			c221,23.7,241.5,139.6,250.1,379.3c4.5,124.7,24,379-58.1,495.5c-104.5,148.3-452.8,161.9-565.1,15.5
			C3653.6,1143.9,3674.9,853,3675.4,710.3L3675.4,710.3z M4108.9,666.6c-0.8-30.4-16.8-95.4-34.8-118.4
			c-32.2-41.2-79.5-25.3-108.4,15.5c-58.2,82.1-37.8,375.8-34.8,415.9c3.4,46,14,164.2,42.6,203.5c40.7,55.9,93.8,32.5,116.1-31
			C4125.4,1050.2,4110.1,707.8,4108.9,666.6L4108.9,666.6z"/>
		<path class="st4" d="M4445.8,710.3c0.2-71,18.1-173.8,43.8-223.3c61.6-118.6,244.3-126.1,402.9-109.1
			c221,23.7,241.5,139.6,250.1,379.3c4.5,124.7,24,379-58.1,495.5c-104.5,148.3-452.8,161.9-565.1,15.5
			C4424,1143.9,4445.3,853,4445.8,710.3L4445.8,710.3z M4879.4,666.6c-0.8-30.4-16.8-95.4-34.8-118.4
			c-32.2-41.2-79.5-25.3-108.4,15.5c-58.2,82.1-37.8,375.8-34.8,415.9c3.4,46,14,164.2,42.6,203.5c40.7,55.9,93.8,32.5,116.1-31
			C4895.9,1050.2,4880.5,707.8,4879.4,666.6L4879.4,666.6z"/>
	</g>
	<g>
		<path class="st4" d="M2831.6,2755.1h127c18.1,0,20-2.3,19.9-23.2l-7.4-898c-0.2-20.8-2.6-23.2-23.4-23.2H2878
			c-20.9,0-23.2,2.2-22.6,22.3l14.2,519.7c0.1,5,0.2,8.9,0.3,12l-20.3,8.6c-11.8-33.7-59.2-365.9-84.4-539.5c-3-20.7-5.7-23-26.6-23
			h-123.9c-20.9,0-23.1,2.3-21.6,23.2c19.6,285.7,8.2,567.6-0.9,898.1c-0.6,20.9,1.7,23.2,22.6,23.2h89.3c17.2,0,19-2.2,18.2-22.3
			l-21.4-519.7c-0.3-6.9-0.5-11.8-0.5-15.3l18.8-8c0,0,0,0,0.1,0.1c0.3,0.2,0.6,0.7,0.9,1.4c36.7,176.4,66.9,354.1,90.3,532.8
			c0.3,4.8,0.3,9.5-0.2,14.4C2808.5,2753.4,2810.7,2755.1,2831.6,2755.1L2831.6,2755.1z"/>
		<path class="st4" d="M3412.4,2538.3l7.3-705.2c0.2-20.3-2.1-22.5-23-22.5h-100.6c-20.9,0-23.2,2.2-23,22.5l7.2,659
			c0.2,20.9,0,24.6-2.1,36.5c-7.2,39.9-37.6,58.4-62.2,48.5c-10.5-4.2-25.6-23.2-31.8-50.7c-3.8-16.9-4.3-21.1-4.3-42V1833
			c0-20.2-2.3-22.5-23.2-22.5h-92.9c-20.9,0-23.2,2.3-22.8,22.5l14.6,740c0.4,20.9,0.8,25.5,4,46.3
			c15.4,101.8,64.7,148.1,151.3,158.9c118.8,14.8,182.3-62.2,198.4-193.7C3411.9,2563.8,3412.2,2559.2,3412.4,2538.3L3412.4,2538.3z
			"/>
		<path class="st4" d="M4031.5,2498.6v-30.3c0-13.6-2.3-15.1-23.2-15.1h-69.7c-20.9,0-23.2,2.1-23.2,21.3v236.8
			c0,20.9,2.1,24.2,21.1,33.1c32.9,15.3,118.2,34.5,137.6,34c104.1-2.6,148.8-63.4,170.3-162.6c22.1-102,22.3-262.3-38.7-340.6
			c-33.2-42.7-91.4-81.2-127.7-123.9c-39.5-46.4-63.5-103.7-34.8-154.8c14.2-25.5,45.6-37.1,61.9-15.5
			c13.4,17.8,24.9,64.3,21.7,89.8c-2.1,16.7,0,18.6,20.9,18.6h66.9c16.4,0,18.2-2.1,18.2-21.1v-206.1c0-20.9-2-24.4-20.4-34.5
			c-63.3-34.8-139.1-41-188.6-20.9c-107.4,43.5-123,185.7-116.1,315.1c5.9,112.5,23.5,175.4,107,244.3
			c67.5,55.7,135,102.6,109.8,193c-7.4,26.5-29.6,58.4-64.6,41.2c-12.9-6.3-24.8-37.1-26.7-59.9
			C4031.7,2523.2,4031.5,2519,4031.5,2498.6L4031.5,2498.6z"/>
		<path class="st4" d="M4596.7,1988.7v-157.5c0-18.5-2.1-20.5-21.3-20.5h-241.9c-20.9,0-23.2,2.3-22.8,23.2
			c4.8,252.2,14.4,693.5,7.3,756.7c-0.2,1.8-0.4,3.6-0.7,5.6c1.9,42.9-1.2,85.8-9.2,128c0.1,2.6,0.3,5.2,0.5,7.7
			c1.5,20.9,4,23.2,24.9,23.2h241.9c19.2,0,21.3-2.3,21.3-23.2v-147.1c0-20.9-2.3-23.2-23.2-23.2h-100.6c-20.9,0-23.2-2.3-23.2-23.2
			v-147.1c0-20.9,2.3-23.2,23.2-23.2h92.9c20.9,0,23.2-2.3,23.2-23.2v-139.3c0-20.9-2.3-23.2-23.2-23.2h-92.9
			c-20.9,0-23.2-2.3-23.2-23.2v-131.6c0-20.9,2-23.1,19.5-22.2c0,0,72.4-1.7,122.3,9.4C4598.4,2022.9,4596.7,2009.6,4596.7,1988.7
			L4596.7,1988.7z"/>
		<path class="st4" d="M5077.6,1832.7c12.6,299.3,12.8,599.1,0.4,898.4c0,0.3,0,0.5,0,0.8c-1.2,20.9,1,23.2,21.9,23.2l119.2-1.2
			c17.8,0,19.6-0.5,19.4-21.4c0,0,0,0,0-1.4c-13.5-301.6-13-603.6,1.4-905.1c2.3-15.1-11-14-26-14l-114-1.4
			C5079.3,1810.6,5076.8,1812.8,5077.6,1832.7L5077.6,1832.7z"/>
		<path class="st4" d="M5579.7,1988.7v-157.5c0-18.5-2.1-20.5-21.3-20.5h-241.9c-20.9,0-23.2,2.3-22.8,23.2
			c4.8,252.2,14.4,693.5,7.3,756.7c-0.2,1.8-0.4,3.6-0.7,5.6c1.9,42.9-1.2,85.8-9.2,128c0.1,2.6,0.3,5.2,0.5,7.7
			c1.5,20.9,4,23.2,24.9,23.2h241.9c19.2,0,21.3-2.3,21.3-23.2v-147.1c0-20.9-2.3-23.2-23.2-23.2h-100.6c-20.9,0-23.2-2.3-23.2-23.2
			v-147.1c0-20.9,2.3-23.2,23.2-23.2h92.9c20.9,0,23.2-2.3,23.2-23.2v-139.3c0-20.9-2.3-23.2-23.2-23.2h-92.9
			c-20.9,0-23.2-2.3-23.2-23.2v-131.6c0-20.9,2-23.1,19.5-22.2c0,0,72.4-1.7,122.3,9.4C5581.5,2022.9,5579.7,2009.6,5579.7,1988.7
			L5579.7,1988.7z"/>
		<path class="st4" d="M5753.7,2498.6v-30.3c0-13.6-2.3-15.1-23.2-15.1h-69.7c-20.9,0-23.2,2.1-23.2,21.3v236.8
			c0,20.9,2.1,24.2,21.1,33.1c32.9,15.3,118.2,34.5,137.6,34c104.1-2.6,148.8-63.4,170.3-162.6c22.1-102,22.3-262.3-38.7-340.6
			c-33.2-42.7-91.4-81.2-127.7-123.9c-39.5-46.4-63.5-103.7-34.8-154.8c14.2-25.5,45.6-37.1,61.9-15.5
			c13.4,17.8,24.9,64.3,21.7,89.8c-2.1,16.7,0,18.6,20.9,18.6h66.9c16.4,0,18.2-2.1,18.2-21.1v-206.1c0-20.9-2-24.4-20.4-34.5
			c-63.3-34.8-139.1-41-188.6-20.9c-107.4,43.5-123,185.7-116.1,315.1c5.9,112.5,23.5,175.4,107,244.3
			c67.5,55.7,135,102.6,109.8,193c-7.4,26.5-29.6,58.4-64.6,41.2c-12.9-6.3-24.8-37.1-26.7-59.9
			C5753.9,2523.2,5753.7,2519,5753.7,2498.6L5753.7,2498.6z"/>
		<path class="st4" d="M3833.7,2346.7c3.8,19.2,4.4,23.6,5.6,44.5l20.5,342.1c1.2,19.6-1,21.8-21.9,21.8h-85.2
			c-20.5,0-23.3-2.6-24.2-21.6l-13.4-288.3c-1-20.9-1.3-24.5-3.5-36.5c-5.3-29.2-18.5-41.6-40.9-43.8c-11.5-0.9-23.1,0.1-34.3,3.1
			c-6.6,2.8-7.5,8.4-7.5,23.1v342c0,19.6-2,21.8-19.6,21.8h-104.3c-20.9,0-23.3-1.4-23.9-13.5c-0.1-2.1,0-4.3,0.1-6.4
			c5.7-21.2,8.5-43.2,8.1-65.2c0-1.8,0-3.7,0-5.9l-7.3-830.9c-0.2-20.3,1.9-22.6,20.7-22.6h183.2c20.9,0,25,0.2,40.8,1.9
			c18.8,2,53.7,16.9,64.8,25.2c34.5,25.5,50.8,111.9,54.2,154.1c7.5,93.6,1.7,223.1-97.7,271.8c-1.3,0.6-2.4,1.2-3.8,1.9l0.4,10
			c1.3,0.1,2.8,0.3,4.4,0.4C3802.3,2280.7,3824.5,2300.2,3833.7,2346.7L3833.7,2346.7z M3628.9,2174.5c0,20.9,1.2,23.4,12.4,24.6
			c38.9,4.4,62.3-13.8,68.9-32.4c19.7-55.1,23.8-149.4-15.4-179c-8.1-6.1-10.9-6.8-28-6.8h-25.3c-11.4,0-12.6,2.1-12.6,20.7V2174.5
			L3628.9,2174.5z"/>
		<path class="st4" d="M4996.7,2346.7c3.8,19.2,4.4,23.6,5.6,44.5l20.5,342.1c1.2,19.6-1,21.8-21.9,21.8h-85.2
			c-20.5,0-23.3-2.6-24.2-21.6l-13.4-288.3c-1-20.9-1.3-24.5-3.5-36.5c-5.3-29.2-18.5-41.6-40.9-43.8c-11.5-0.9-23.1,0.1-34.3,3.1
			c-6.6,2.8-7.5,8.4-7.5,23.1v342c0,19.6-2,21.8-19.6,21.8h-104.3c-20.9,0-23.3-1.4-23.9-13.5c-0.1-2.1,0-4.3,0.1-6.4
			c5.7-21.2,8.5-43.2,8.1-65.2c0-1.8,0-3.7,0-5.9l-7.3-830.9c-0.2-20.3,1.9-22.6,20.7-22.6h183.2c20.9,0,25,0.2,40.8,1.9
			c18.8,2,53.7,16.9,64.8,25.2c34.5,25.5,50.8,111.9,54.2,154.1c7.5,93.6,1.7,223.1-97.7,271.8c-1.3,0.6-2.4,1.2-3.8,1.9l0.4,10
			c1.3,0.1,2.8,0.3,4.4,0.4C4965.3,2280.7,4987.5,2300.2,4996.7,2346.7L4996.7,2346.7z M4792,2174.5c0,20.9,1.2,23.4,12.4,24.6
			c38.9,4.4,62.3-13.8,68.9-32.4c19.7-55.1,23.8-149.4-15.4-179c-8.1-6.1-10.9-6.8-28-6.8h-25.3c-11.4,0-12.6,2.1-12.6,20.7V2174.5
			L4792,2174.5z"/>
	</g>
</g>
</svg>
